<svg xmlns="http://www.w3.org/2000/svg" xmlns:xlink="http://www.w3.org/1999/xlink" contentStyleType="text/css" height="750px" preserveAspectRatio="none" style="width:891px;height:750px;background:#FFFFFF;" version="1.1" viewBox="0 0 891 750" width="891px" zoomAndPan="magnify"><title>Coarse-grained Cleaner Execution Order Recommendation</title><defs/><g><text fill="#000000" font-family="sans-serif" font-size="14" font-weight="bold" lengthAdjust="spacing" textLength="460.4482" x="208.4873" y="22.9951">Coarse-grained Cleaner Execution Order Recommendation</text><!--class SINGLE_END--><g id="elem_SINGLE_END"><rect codeLine="16" fill="#F1F1F1" height="32" id="SINGLE_END" rx="2.5" ry="2.5" style="stroke:#181818;stroke-width:0.5;" width="120.0811" x="344.04" y="193.8869"/><ellipse cx="359.04" cy="209.8869" fill="#DA70D6" rx="11" ry="11" style="stroke:#181818;stroke-width:1;"/><path d="M359.1494,205.465 Q358.2119,205.465 357.7744,206.465 Q357.3525,207.465 357.3525,209.6994 Q357.3525,211.9337 357.7744,212.9337 Q358.2119,213.9337 359.1494,213.9337 Q360.1025,213.9337 360.5244,212.9337 Q360.9619,211.9337 360.9619,209.6994 Q360.9619,207.465 360.5244,206.465 Q360.1025,205.465 359.1494,205.465 Z M354.8056,209.6994 Q354.8056,206.5275 355.8994,204.9025 Q357.0088,203.2619 359.1494,203.2619 Q361.3056,203.2619 362.3994,204.9025 Q363.5088,206.5275 363.5088,209.6994 Q363.5088,212.8712 362.3994,214.4962 Q361.3056,216.1212 359.1494,216.1212 Q357.0088,216.1212 355.8994,214.4962 Q354.8056,212.8712 354.8056,209.6994 Z " fill="#000000"/><text fill="#000000" font-family="sans-serif" font-size="14" lengthAdjust="spacing" textLength="88.0811" x="373.04" y="214.7336">SINGLE_END</text></g><!--class level_1_end--><g id="elem_level_1_end"><rect codeLine="18" fill="#F1F1F1" height="32" id="level_1_end" rx="2.5" ry="2.5" style="stroke:#181818;stroke-width:0.5;" width="114.5713" x="474.8" y="64.5969"/><ellipse cx="489.8" cy="80.5969" fill="#DA70D6" rx="11" ry="11" style="stroke:#181818;stroke-width:1;"/><path d="M489.9094,76.175 Q488.9719,76.175 488.5344,77.175 Q488.1125,78.175 488.1125,80.4094 Q488.1125,82.6437 488.5344,83.6437 Q488.9719,84.6437 489.9094,84.6437 Q490.8625,84.6437 491.2844,83.6437 Q491.7219,82.6437 491.7219,80.4094 Q491.7219,78.175 491.2844,77.175 Q490.8625,76.175 489.9094,76.175 Z M485.5656,80.4094 Q485.5656,77.2375 486.6594,75.6125 Q487.7688,73.9719 489.9094,73.9719 Q492.0656,73.9719 493.1594,75.6125 Q494.2688,77.2375 494.2688,80.4094 Q494.2688,83.5812 493.1594,85.2062 Q492.0656,86.8312 489.9094,86.8312 Q487.7688,86.8312 486.6594,85.2062 Q485.5656,83.5812 485.5656,80.4094 Z " fill="#000000"/><text fill="#000000" font-family="sans-serif" font-size="14" lengthAdjust="spacing" textLength="82.5713" x="503.8" y="85.4436">level_1_end</text></g><!--class level_2_end--><g id="elem_level_2_end"><rect codeLine="20" fill="#F1F1F1" height="32" id="level_2_end" rx="2.5" ry="2.5" style="stroke:#181818;stroke-width:0.5;" width="114.5713" x="346.8" y="452.4869"/><ellipse cx="361.8" cy="468.4869" fill="#DA70D6" rx="11" ry="11" style="stroke:#181818;stroke-width:1;"/><path d="M361.9094,464.065 Q360.9719,464.065 360.5344,465.065 Q360.1125,466.065 360.1125,468.2994 Q360.1125,470.5338 360.5344,471.5338 Q360.9719,472.5338 361.9094,472.5338 Q362.8625,472.5338 363.2844,471.5338 Q363.7219,470.5338 363.7219,468.2994 Q363.7219,466.065 363.2844,465.065 Q362.8625,464.065 361.9094,464.065 Z M357.5656,468.2994 Q357.5656,465.1275 358.6594,463.5025 Q359.7688,461.8619 361.9094,461.8619 Q364.0656,461.8619 365.1594,463.5025 Q366.2688,465.1275 366.2688,468.2994 Q366.2688,471.4713 365.1594,473.0963 Q364.0656,474.7213 361.9094,474.7213 Q359.7688,474.7213 358.6594,473.0963 Q357.5656,471.4713 357.5656,468.2994 Z " fill="#000000"/><text fill="#000000" font-family="sans-serif" font-size="14" lengthAdjust="spacing" textLength="82.5713" x="375.8" y="473.3336">level_2_end</text></g><!--class 1--><g id="elem_1"><rect codeLine="22" fill="#F1F1F1" height="72.5938" id="1" rx="2.5" ry="2.5" style="stroke:#181818;stroke-width:0.5;" width="128.1699" x="7" y="302.8869"/><ellipse cx="62.3813" cy="318.8869" fill="#DA70D6" rx="11" ry="11" style="stroke:#181818;stroke-width:1;"/><path d="M62.4907,314.465 Q61.5532,314.465 61.1157,315.465 Q60.6938,316.465 60.6938,318.6994 Q60.6938,320.9338 61.1157,321.9338 Q61.5532,322.9338 62.4907,322.9338 Q63.4438,322.9338 63.8657,321.9338 Q64.3032,320.9338 64.3032,318.6994 Q64.3032,316.465 63.8657,315.465 Q63.4438,314.465 62.4907,314.465 Z M58.147,318.6994 Q58.147,315.5275 59.2407,313.9025 Q60.3501,312.2619 62.4907,312.2619 Q64.647,312.2619 65.7407,313.9025 Q66.8501,315.5275 66.8501,318.6994 Q66.8501,321.8713 65.7407,323.4963 Q64.647,325.1213 62.4907,325.1213 Q60.3501,325.1213 59.2407,323.4963 Q58.147,321.8713 58.147,318.6994 Z " fill="#000000"/><text fill="#000000" font-family="sans-serif" font-size="14" lengthAdjust="spacing" textLength="8.9072" x="82.8813" y="323.7336">1</text><line style="stroke:#181818;stroke-width:0.5;" x1="8" x2="134.1699" y1="334.8869" y2="334.8869"/><text fill="#000000" font-family="sans-serif" font-size="14" lengthAdjust="spacing" textLength="98.2324" x="13" y="351.882">source=name</text><text fill="#000000" font-family="sans-serif" font-size="14" lengthAdjust="spacing" textLength="116.1699" x="13" y="368.1789">target=surname</text></g><!--class 2--><g id="elem_2"><rect codeLine="25" fill="#F1F1F1" height="72.5938" id="2" rx="2.5" ry="2.5" style="stroke:#181818;stroke-width:0.5;" width="130.6719" x="169.75" y="302.8869"/><ellipse cx="226.3823" cy="318.8869" fill="#DA70D6" rx="11" ry="11" style="stroke:#181818;stroke-width:1;"/><path d="M226.4917,314.465 Q225.5542,314.465 225.1167,315.465 Q224.6948,316.465 224.6948,318.6994 Q224.6948,320.9338 225.1167,321.9338 Q225.5542,322.9338 226.4917,322.9338 Q227.4448,322.9338 227.8667,321.9338 Q228.3042,320.9338 228.3042,318.6994 Q228.3042,316.465 227.8667,315.465 Q227.4448,314.465 226.4917,314.465 Z M222.1479,318.6994 Q222.1479,315.5275 223.2417,313.9025 Q224.3511,312.2619 226.4917,312.2619 Q228.6479,312.2619 229.7417,313.9025 Q230.8511,315.5275 230.8511,318.6994 Q230.8511,321.8713 229.7417,323.4963 Q228.6479,325.1213 226.4917,325.1213 Q224.3511,325.1213 223.2417,323.4963 Q222.1479,321.8713 222.1479,318.6994 Z " fill="#000000"/><text fill="#000000" font-family="sans-serif" font-size="14" lengthAdjust="spacing" textLength="8.9072" x="246.8823" y="323.7336">2</text><line style="stroke:#181818;stroke-width:0.5;" x1="170.75" x2="299.4219" y1="334.8869" y2="334.8869"/><text fill="#000000" font-family="sans-serif" font-size="14" lengthAdjust="spacing" textLength="98.2324" x="175.75" y="351.882">source=name</text><text fill="#000000" font-family="sans-serif" font-size="14" lengthAdjust="spacing" textLength="118.6719" x="175.75" y="368.1789">target=birthyear</text></g><!--class 3--><g id="elem_3"><rect codeLine="28" fill="#F1F1F1" height="72.5938" id="3" rx="2.5" ry="2.5" style="stroke:#181818;stroke-width:0.5;" width="137.1045" x="335.53" y="302.8869"/><ellipse cx="395.3786" cy="318.8869" fill="#DA70D6" rx="11" ry="11" style="stroke:#181818;stroke-width:1;"/><path d="M395.488,314.465 Q394.5505,314.465 394.113,315.465 Q393.6911,316.465 393.6911,318.6994 Q393.6911,320.9338 394.113,321.9338 Q394.5505,322.9338 395.488,322.9338 Q396.4411,322.9338 396.863,321.9338 Q397.3005,320.9338 397.3005,318.6994 Q397.3005,316.465 396.863,315.465 Q396.4411,314.465 395.488,314.465 Z M391.1443,318.6994 Q391.1443,315.5275 392.238,313.9025 Q393.3474,312.2619 395.488,312.2619 Q397.6443,312.2619 398.738,313.9025 Q399.8474,315.5275 399.8474,318.6994 Q399.8474,321.8713 398.738,323.4963 Q397.6443,325.1213 395.488,325.1213 Q393.3474,325.1213 392.238,323.4963 Q391.1443,321.8713 391.1443,318.6994 Z " fill="#000000"/><text fill="#000000" font-family="sans-serif" font-size="14" lengthAdjust="spacing" textLength="8.9072" x="415.8786" y="323.7336">3</text><line style="stroke:#181818;stroke-width:0.5;" x1="336.53" x2="471.6345" y1="334.8869" y2="334.8869"/><text fill="#000000" font-family="sans-serif" font-size="14" lengthAdjust="spacing" textLength="98.2324" x="341.53" y="351.882">source=name</text><text fill="#000000" font-family="sans-serif" font-size="14" lengthAdjust="spacing" textLength="125.1045" x="341.53" y="368.1789">target=birthplace</text></g><!--class 4--><g id="elem_4"><rect codeLine="31" fill="#F1F1F1" height="72.5938" id="4" rx="2.5" ry="2.5" style="stroke:#181818;stroke-width:0.5;" width="159.4512" x="507.36" y="302.8869"/><ellipse cx="578.382" cy="318.8869" fill="#DA70D6" rx="11" ry="11" style="stroke:#181818;stroke-width:1;"/><path d="M578.4913,314.465 Q577.5538,314.465 577.1163,315.465 Q576.6945,316.465 576.6945,318.6994 Q576.6945,320.9338 577.1163,321.9338 Q577.5538,322.9338 578.4913,322.9338 Q579.4445,322.9338 579.8663,321.9338 Q580.3038,320.9338 580.3038,318.6994 Q580.3038,316.465 579.8663,315.465 Q579.4445,314.465 578.4913,314.465 Z M574.1476,318.6994 Q574.1476,315.5275 575.2413,313.9025 Q576.3507,312.2619 578.4913,312.2619 Q580.6476,312.2619 581.7413,313.9025 Q582.8507,315.5275 582.8507,318.6994 Q582.8507,321.8713 581.7413,323.4963 Q580.6476,325.1213 578.4913,325.1213 Q576.3507,325.1213 575.2413,323.4963 Q574.1476,321.8713 574.1476,318.6994 Z " fill="#000000"/><text fill="#000000" font-family="sans-serif" font-size="14" lengthAdjust="spacing" textLength="8.9072" x="598.882" y="323.7336">4</text><line style="stroke:#181818;stroke-width:0.5;" x1="508.36" x2="665.8112" y1="334.8869" y2="334.8869"/><text fill="#000000" font-family="sans-serif" font-size="14" lengthAdjust="spacing" textLength="147.4512" x="513.36" y="351.882">source=nameseason</text><text fill="#000000" font-family="sans-serif" font-size="14" lengthAdjust="spacing" textLength="109.9971" x="513.36" y="368.1789">target=position</text></g><!--class 6--><g id="elem_6"><rect codeLine="34" fill="#F1F1F1" height="72.5938" id="6" rx="2.5" ry="2.5" style="stroke:#181818;stroke-width:0.5;" width="182.6729" x="701.75" y="302.8869"/><ellipse cx="784.3828" cy="318.8869" fill="#DA70D6" rx="11" ry="11" style="stroke:#181818;stroke-width:1;"/><path d="M784.4922,314.465 Q783.5547,314.465 783.1172,315.465 Q782.6953,316.465 782.6953,318.6994 Q782.6953,320.9338 783.1172,321.9338 Q783.5547,322.9338 784.4922,322.9338 Q785.4453,322.9338 785.8672,321.9338 Q786.3047,320.9338 786.3047,318.6994 Q786.3047,316.465 785.8672,315.465 Q785.4453,314.465 784.4922,314.465 Z M780.1484,318.6994 Q780.1484,315.5275 781.2422,313.9025 Q782.3516,312.2619 784.4922,312.2619 Q786.6484,312.2619 787.7422,313.9025 Q788.8516,315.5275 788.8516,318.6994 Q788.8516,321.8713 787.7422,323.4963 Q786.6484,325.1213 784.4922,325.1213 Q782.3516,325.1213 781.2422,323.4963 Q780.1484,321.8713 780.1484,318.6994 Z " fill="#000000"/><text fill="#000000" font-family="sans-serif" font-size="14" lengthAdjust="spacing" textLength="8.9072" x="804.8828" y="323.7336">6</text><line style="stroke:#181818;stroke-width:0.5;" x1="702.75" x2="883.4229" y1="334.8869" y2="334.8869"/><text fill="#000000" font-family="sans-serif" font-size="14" lengthAdjust="spacing" textLength="170.6729" x="707.75" y="351.882">source=seasonmanager</text><text fill="#000000" font-family="sans-serif" font-size="14" lengthAdjust="spacing" textLength="90.8633" x="707.75" y="368.1789">target=team</text></g><!--class 5--><g id="elem_5"><rect codeLine="37" fill="#F1F1F1" height="72.5938" id="5" rx="2.5" ry="2.5" style="stroke:#181818;stroke-width:0.5;" width="181.4287" x="313.37" y="561.4869"/><ellipse cx="395.3807" cy="577.4869" fill="#DA70D6" rx="11" ry="11" style="stroke:#181818;stroke-width:1;"/><path d="M395.4901,573.065 Q394.5526,573.065 394.1151,574.065 Q393.6932,575.065 393.6932,577.2994 Q393.6932,579.5337 394.1151,580.5337 Q394.5526,581.5337 395.4901,581.5337 Q396.4432,581.5337 396.8651,580.5337 Q397.3026,579.5337 397.3026,577.2994 Q397.3026,575.065 396.8651,574.065 Q396.4432,573.065 395.4901,573.065 Z M391.1464,577.2994 Q391.1464,574.1275 392.2401,572.5025 Q393.3495,570.8619 395.4901,570.8619 Q397.6464,570.8619 398.7401,572.5025 Q399.8495,574.1275 399.8495,577.2994 Q399.8495,580.4712 398.7401,582.0962 Q397.6464,583.7212 395.4901,583.7212 Q393.3495,583.7212 392.2401,582.0962 Q391.1464,580.4712 391.1464,577.2994 Z " fill="#000000"/><text fill="#000000" font-family="sans-serif" font-size="14" lengthAdjust="spacing" textLength="8.9072" x="415.8807" y="582.3336">5</text><line style="stroke:#181818;stroke-width:0.5;" x1="314.37" x2="493.7987" y1="593.4869" y2="593.4869"/><text fill="#000000" font-family="sans-serif" font-size="14" lengthAdjust="spacing" textLength="169.4287" x="319.37" y="610.482">source=cityseasonteam</text><text fill="#000000" font-family="sans-serif" font-size="14" lengthAdjust="spacing" textLength="111.1934" x="319.37" y="626.7789">target=stadium</text></g><!--class 0--><g id="elem_0"><rect codeLine="40" fill="#F1F1F1" height="72.5938" id="0" rx="2.5" ry="2.5" style="stroke:#181818;stroke-width:0.5;" width="72.2588" x="367.96" y="44.2969"/><ellipse cx="397.0682" cy="60.2969" fill="#DA70D6" rx="11" ry="11" style="stroke:#181818;stroke-width:1;"/><path d="M397.1776,55.875 Q396.2401,55.875 395.8026,56.875 Q395.3807,57.875 395.3807,60.1094 Q395.3807,62.3438 395.8026,63.3438 Q396.2401,64.3438 397.1776,64.3438 Q398.1307,64.3438 398.5526,63.3438 Q398.9901,62.3438 398.9901,60.1094 Q398.9901,57.875 398.5526,56.875 Q398.1307,55.875 397.1776,55.875 Z M392.8338,60.1094 Q392.8338,56.9375 393.9276,55.3125 Q395.037,53.6719 397.1776,53.6719 Q399.3338,53.6719 400.4276,55.3125 Q401.537,56.9375 401.537,60.1094 Q401.537,63.2813 400.4276,64.9063 Q399.3338,66.5313 397.1776,66.5313 Q395.037,66.5313 393.9276,64.9063 Q392.8338,63.2813 392.8338,60.1094 Z " fill="#000000"/><text fill="#000000" font-family="sans-serif" font-size="14" lengthAdjust="spacing" textLength="8.9072" x="414.2034" y="65.1436">0</text><line style="stroke:#181818;stroke-width:0.5;" x1="368.96" x2="439.2188" y1="76.2969" y2="76.2969"/><text fill="#000000" font-family="sans-serif" font-size="14" lengthAdjust="spacing" textLength="49.2188" x="373.96" y="93.292">season</text><text fill="#000000" font-family="sans-serif" font-size="14" lengthAdjust="spacing" textLength="60.2588" x="373.96" y="109.5889">[-inf, inf]</text></g><!--class level_3_end--><g id="elem_level_3_end"><rect fill="#F1F1F1" height="32" id="level_3_end" rx="2.5" ry="2.5" style="stroke:#181818;stroke-width:0.5;" width="114.5713" x="346.8" y="711.0769"/><ellipse cx="361.8" cy="727.0769" fill="#ADD1B2" rx="11" ry="11" style="stroke:#181818;stroke-width:1;"/><path d="M364.7688,732.7175 Q364.1906,733.0144 363.55,733.155 Q362.9094,733.3113 362.2063,733.3113 Q359.7063,733.3113 358.3781,731.6706 Q357.0656,730.0144 357.0656,726.8894 Q357.0656,723.7644 358.3781,722.1081 Q359.7063,720.4519 362.2063,720.4519 Q362.9094,720.4519 363.55,720.6081 Q364.2063,720.7644 364.7688,721.0613 L364.7688,723.78 Q364.1438,723.2019 363.55,722.9363 Q362.9563,722.655 362.3313,722.655 Q360.9875,722.655 360.3,723.7331 Q359.6125,724.7956 359.6125,726.8894 Q359.6125,728.9831 360.3,730.0613 Q360.9875,731.1238 362.3313,731.1238 Q362.9563,731.1238 363.55,730.8581 Q364.1438,730.5769 364.7688,729.9988 L364.7688,732.7175 Z " fill="#000000"/><text fill="#000000" font-family="sans-serif" font-size="14" lengthAdjust="spacing" textLength="82.5713" x="375.8" y="731.9236">level_3_end</text></g><!--link 0 to SINGLE_END--><g id="link_0_SINGLE_END"><path codeLine="43" d="M404.08,117.0469 C404.08,142.2069 404.08,168.7369 404.08,187.5569 " fill="none" id="0-to-SINGLE_END" style="stroke:#181818;stroke-width:1;"/><polygon fill="#181818" points="404.08,193.5569,408.08,184.5569,404.08,188.5569,400.08,184.5569,404.08,193.5569" style="stroke:#181818;stroke-width:1;"/><text fill="#000000" font-family="sans-serif" font-size="13" lengthAdjust="spacing" textLength="29.0278" x="405.08" y="159.9538">next</text></g><!--link SINGLE_END to 1--><g id="link_SINGLE_END_1"><path codeLine="44" d="M359.16,226.3569 C308.52,244.0169 223.87,274.1769 152.08,302.8869 C146.67,305.0569 146.6146,305.04 141.0246,307.38 " fill="none" id="SINGLE_END-to-1" style="stroke:#181818;stroke-width:1;"/><polygon fill="#181818" points="135.49,309.6969,145.3365,309.9114,140.1022,307.7662,142.2474,302.5319,135.49,309.6969" style="stroke:#181818;stroke-width:1;"/><text fill="#000000" font-family="sans-serif" font-size="13" lengthAdjust="spacing" textLength="29.0278" x="277.08" y="268.9538">next</text></g><!--link 1 to level_2_end--><g id="link_1_level_2_end"><path codeLine="45" d="M135.49,368.6669 C141.08,371.0169 146.67,373.3169 152.08,375.4869 C223.87,404.1969 302.8546,432.3812 353.4946,450.0412 " fill="none" id="1-to-level_2_end" style="stroke:#181818;stroke-width:1;"/><polygon fill="#181818" points="359.16,452.0169,351.9791,445.2764,354.4389,450.3704,349.3448,452.8302,359.16,452.0169" style="stroke:#181818;stroke-width:1;"/><text fill="#000000" font-family="sans-serif" font-size="13" lengthAdjust="spacing" textLength="29.0278" x="277.08" y="418.5538">next</text></g><!--link SINGLE_END to 2--><g id="link_SINGLE_END_2"><path codeLine="46" d="M383.7,226.2469 C358.77,245.0269 320.5626,273.807 287.2126,298.927 " fill="none" id="SINGLE_END-to-2" style="stroke:#181818;stroke-width:1;"/><polygon fill="#181818" points="282.42,302.5369,292.0154,300.3171,286.4138,299.5286,287.2023,293.927,282.42,302.5369" style="stroke:#181818;stroke-width:1;"/><text fill="#000000" font-family="sans-serif" font-size="13" lengthAdjust="spacing" textLength="29.0278" x="341.08" y="268.9538">next</text></g><!--link 2 to level_2_end--><g id="link_2_level_2_end"><path codeLine="47" d="M282.16,375.6469 C315.56,400.8069 353.9481,429.7161 378.9381,448.5461 " fill="none" id="2-to-level_2_end" style="stroke:#181818;stroke-width:1;"/><polygon fill="#181818" points="383.73,452.1569,378.9493,443.5462,379.7367,449.1479,374.1349,449.9354,383.73,452.1569" style="stroke:#181818;stroke-width:1;"/><text fill="#000000" font-family="sans-serif" font-size="13" lengthAdjust="spacing" textLength="29.0278" x="341.08" y="418.5538">next</text></g><!--link SINGLE_END to 3--><g id="link_SINGLE_END_3"><path codeLine="48" d="M404.08,225.9969 C404.08,244.7569 404.08,271.3969 404.08,296.6469 " fill="none" id="SINGLE_END-to-3" style="stroke:#181818;stroke-width:1;"/><polygon fill="#181818" points="404.08,302.6469,408.08,293.6469,404.08,297.6469,400.08,293.6469,404.08,302.6469" style="stroke:#181818;stroke-width:1;"/><text fill="#000000" font-family="sans-serif" font-size="13" lengthAdjust="spacing" textLength="29.0278" x="405.08" y="268.9538">next</text></g><!--link 3 to level_2_end--><g id="link_3_level_2_end"><path codeLine="49" d="M404.08,375.6469 C404.08,400.8069 404.08,427.3269 404.08,446.1569 " fill="none" id="3-to-level_2_end" style="stroke:#181818;stroke-width:1;"/><polygon fill="#181818" points="404.08,452.1569,408.08,443.1569,404.08,447.1569,400.08,443.1569,404.08,452.1569" style="stroke:#181818;stroke-width:1;"/><text fill="#000000" font-family="sans-serif" font-size="13" lengthAdjust="spacing" textLength="29.0278" x="405.08" y="418.5538">next</text></g><!--link SINGLE_END to 4--><g id="link_SINGLE_END_4"><path codeLine="50" d="M426.16,226.2469 C453.16,245.0269 494.7946,273.9905 530.9046,299.1105 " fill="none" id="SINGLE_END-to-4" style="stroke:#181818;stroke-width:1;"/><polygon fill="#181818" points="535.83,302.5369,530.7261,294.1137,531.7255,299.6816,526.1576,300.6809,535.83,302.5369" style="stroke:#181818;stroke-width:1;"/><text fill="#000000" font-family="sans-serif" font-size="13" lengthAdjust="spacing" textLength="29.0278" x="492.08" y="268.9538">next</text></g><!--link 4 to level_2_end--><g id="link_4_level_2_end"><path codeLine="51" d="M536.11,375.6469 C499.94,400.8069 458.1049,429.8998 431.0449,448.7298 " fill="none" id="4-to-level_2_end" style="stroke:#181818;stroke-width:1;"/><polygon fill="#181818" points="426.12,452.1569,435.7921,450.2996,430.2241,449.301,431.2227,443.733,426.12,452.1569" style="stroke:#181818;stroke-width:1;"/><text fill="#000000" font-family="sans-serif" font-size="13" lengthAdjust="spacing" textLength="29.0278" x="492.08" y="418.5538">next</text></g><!--link SINGLE_END to 6--><g id="link_SINGLE_END_6"><path codeLine="52" d="M451.4,226.3669 C513.25,246.6169 617.2375,280.641 695.6575,306.301 " fill="none" id="SINGLE_END-to-6" style="stroke:#181818;stroke-width:1;"/><polygon fill="#181818" points="701.36,308.1669,694.0502,301.5663,696.6079,306.6119,691.5623,309.1696,701.36,308.1669" style="stroke:#181818;stroke-width:1;"/><text fill="#000000" font-family="sans-serif" font-size="13" lengthAdjust="spacing" textLength="29.0278" x="588.08" y="268.9538">next</text></g><!--link 6 to level_2_end--><g id="link_6_level_2_end"><path codeLine="53" d="M701.39,370.1969 C622.89,395.8869 518.7224,429.9708 456.9024,450.2008 " fill="none" id="6-to-level_2_end" style="stroke:#181818;stroke-width:1;"/><polygon fill="#181818" points="451.2,452.0669,460.9977,453.0694,455.952,450.5118,458.5096,445.4661,451.2,452.0669" style="stroke:#181818;stroke-width:1;"/><text fill="#000000" font-family="sans-serif" font-size="13" lengthAdjust="spacing" textLength="29.0278" x="588.08" y="418.5538">next</text></g><!--link level_2_end to 5--><g id="link_level_2_end_5"><path codeLine="54" d="M404.08,484.5869 C404.08,503.3569 404.08,529.9969 404.08,555.2469 " fill="none" id="level_2_end-to-5" style="stroke:#181818;stroke-width:1;"/><polygon fill="#181818" points="404.08,561.2469,408.08,552.2469,404.08,556.2469,400.08,552.2469,404.08,561.2469" style="stroke:#181818;stroke-width:1;"/><text fill="#000000" font-family="sans-serif" font-size="13" lengthAdjust="spacing" textLength="29.0278" x="405.08" y="527.5538">next</text></g><!--link 5 to level_3_end--><g id="link_5_level_3_end"><path codeLine="55" d="M404.08,634.2369 C404.08,659.3969 404.08,685.9269 404.08,704.7469 " fill="none" id="5-to-level_3_end" style="stroke:#181818;stroke-width:1;"/><polygon fill="#181818" points="404.08,710.7469,408.08,701.7469,404.08,705.7469,400.08,701.7469,404.08,710.7469" style="stroke:#181818;stroke-width:1;"/><text fill="#000000" font-family="sans-serif" font-size="13" lengthAdjust="spacing" textLength="29.0278" x="405.08" y="677.1438">next</text></g><!--SRC=[bP7VYjD05CRlvocELsvW2zlywOLq0xOM4POjwAL86PFJTDXa9foPk2qY27eZYm-Wru9t2zufeazZgRw5azIOFomBpSMG-RxlDtFcd3inBeL4U8oHcUT8t2WwMZiGfLnhMCDu34VpOr0KhKJiG1WofY-4p3dn3CX2N2Ofmai6zflmw28XLSXugb95u_4y3E5C92ipIGlSHnJ5I9KDazJcA_K-aRfiYwyOCyBOWwUAayP1GjnM6SCqHIwHOBR6g312IPYNvvNbgon36VDIPEpkxlFtFny-_VfsjNttVlVnxVRhc-sNrx-lV-v-N3Fx4WJCShE167L48g-WbfoXMQbOjwMbmDGghDEe9u_E7vxD5hFp1qxFIV45felXmfPqi-NUP0qTDeHxe5L14PvAdc6rDvmIDAUwe4hg8Ax3t1xYDiXpGMQrGKvTo7EOruEy7fJREVIkyXtcTocDNDlE-GsRAosgRdR8aSD63RcdCYvvWbGP_s23FEk2WSE21eo4sUpXAXcqMcDuB8eUVEAmanBU5rd-FXq8kJm6kpop-q6iBkKWX6QADY9nRLXBgKF3sXl-brg3l0LqQyyz4FHgppiGz6lFFn0SrTxeDh0jrR6WDeCUwRN8lm00]--></g></svg>