<svg xmlns="http://www.w3.org/2000/svg" xmlns:xlink="http://www.w3.org/1999/xlink" contentStyleType="text/css" height="704px" preserveAspectRatio="none" style="width:909px;height:704px;background:#FFFFFF;" version="1.1" viewBox="0 0 909 704" width="909px" zoomAndPan="magnify"><title>Coarse-grained Cleaner Execution Order Recommendation</title><defs/><g><text fill="#000000" font-family="sans-serif" font-size="14" font-weight="bold" lengthAdjust="spacing" textLength="460.4482" x="217.4615" y="22.9951">Coarse-grained Cleaner Execution Order Recommendation</text><!--class SINGLE_END--><g id="elem_SINGLE_END"><rect codeLine="16" fill="#F1F1F1" height="32" id="SINGLE_END" rx="2.5" ry="2.5" style="stroke:#181818;stroke-width:0.5;" width="120.0811" x="342.05" y="201.8969"/><ellipse cx="357.05" cy="217.8969" fill="#DA70D6" rx="11" ry="11" style="stroke:#181818;stroke-width:1;"/><path d="M357.1594,213.475 Q356.2219,213.475 355.7844,214.475 Q355.3625,215.475 355.3625,217.7094 Q355.3625,219.9438 355.7844,220.9438 Q356.2219,221.9438 357.1594,221.9438 Q358.1125,221.9438 358.5344,220.9438 Q358.9719,219.9438 358.9719,217.7094 Q358.9719,215.475 358.5344,214.475 Q358.1125,213.475 357.1594,213.475 Z M352.8156,217.7094 Q352.8156,214.5375 353.9094,212.9125 Q355.0188,211.2719 357.1594,211.2719 Q359.3156,211.2719 360.4094,212.9125 Q361.5188,214.5375 361.5188,217.7094 Q361.5188,220.8813 360.4094,222.5063 Q359.3156,224.1313 357.1594,224.1313 Q355.0188,224.1313 353.9094,222.5063 Q352.8156,220.8813 352.8156,217.7094 Z " fill="#000000"/><text fill="#000000" font-family="sans-serif" font-size="14" lengthAdjust="spacing" textLength="88.0811" x="371.05" y="222.7436">SINGLE_END</text></g><!--class level_1_end--><g id="elem_level_1_end"><rect codeLine="18" fill="#F1F1F1" height="32" id="level_1_end" rx="2.5" ry="2.5" style="stroke:#181818;stroke-width:0.5;" width="114.5713" x="787.8" y="68.5969"/><ellipse cx="802.8" cy="84.5969" fill="#DA70D6" rx="11" ry="11" style="stroke:#181818;stroke-width:1;"/><path d="M802.9094,80.175 Q801.9719,80.175 801.5344,81.175 Q801.1125,82.175 801.1125,84.4094 Q801.1125,86.6437 801.5344,87.6437 Q801.9719,88.6437 802.9094,88.6437 Q803.8625,88.6437 804.2844,87.6437 Q804.7219,86.6437 804.7219,84.4094 Q804.7219,82.175 804.2844,81.175 Q803.8625,80.175 802.9094,80.175 Z M798.5656,84.4094 Q798.5656,81.2375 799.6594,79.6125 Q800.7688,77.9719 802.9094,77.9719 Q805.0656,77.9719 806.1594,79.6125 Q807.2688,81.2375 807.2688,84.4094 Q807.2688,87.5812 806.1594,89.2062 Q805.0656,90.8312 802.9094,90.8312 Q800.7688,90.8312 799.6594,89.2062 Q798.5656,87.5812 798.5656,84.4094 Z " fill="#000000"/><text fill="#000000" font-family="sans-serif" font-size="14" lengthAdjust="spacing" textLength="82.5713" x="816.8" y="89.4436">level_1_end</text></g><!--class 7--><g id="elem_7"><rect codeLine="20" fill="#F1F1F1" height="72.5938" id="7" rx="2.5" ry="2.5" style="stroke:#181818;stroke-width:0.5;" width="116.1729" x="7" y="413.4869"/><ellipse cx="56.3828" cy="429.4869" fill="#DA70D6" rx="11" ry="11" style="stroke:#181818;stroke-width:1;"/><path d="M56.4922,425.065 Q55.5547,425.065 55.1172,426.065 Q54.6953,427.065 54.6953,429.2994 Q54.6953,431.5338 55.1172,432.5338 Q55.5547,433.5338 56.4922,433.5338 Q57.4453,433.5338 57.8672,432.5338 Q58.3047,431.5338 58.3047,429.2994 Q58.3047,427.065 57.8672,426.065 Q57.4453,425.065 56.4922,425.065 Z M52.1484,429.2994 Q52.1484,426.1275 53.2422,424.5025 Q54.3516,422.8619 56.4922,422.8619 Q58.6484,422.8619 59.7422,424.5025 Q60.8516,426.1275 60.8516,429.2994 Q60.8516,432.4713 59.7422,434.0963 Q58.6484,435.7213 56.4922,435.7213 Q54.3516,435.7213 53.2422,434.0963 Q52.1484,432.4713 52.1484,429.2994 Z " fill="#000000"/><text fill="#000000" font-family="sans-serif" font-size="14" lengthAdjust="spacing" textLength="8.9072" x="76.8828" y="434.3336">7</text><line style="stroke:#181818;stroke-width:0.5;" x1="8" x2="122.1729" y1="445.4869" y2="445.4869"/><text fill="#000000" font-family="sans-serif" font-size="14" lengthAdjust="spacing" textLength="103.1611" x="13" y="462.482">source=fname</text><text fill="#000000" font-family="sans-serif" font-size="14" lengthAdjust="spacing" textLength="104.1729" x="13" y="478.7789">target=gender</text></g><!--class 6--><g id="elem_6"><rect codeLine="23" fill="#F1F1F1" height="72.5938" id="6" rx="2.5" ry="2.5" style="stroke:#181818;stroke-width:0.5;" width="91.9053" x="130.13" y="413.4869"/><ellipse cx="168.0791" cy="429.4869" fill="#DA70D6" rx="11" ry="11" style="stroke:#181818;stroke-width:1;"/><path d="M168.1885,425.065 Q167.251,425.065 166.8135,426.065 Q166.3916,427.065 166.3916,429.2994 Q166.3916,431.5338 166.8135,432.5338 Q167.251,433.5338 168.1885,433.5338 Q169.1416,433.5338 169.5635,432.5338 Q170.001,431.5338 170.001,429.2994 Q170.001,427.065 169.5635,426.065 Q169.1416,425.065 168.1885,425.065 Z M163.8447,429.2994 Q163.8447,426.1275 164.9385,424.5025 Q166.0479,422.8619 168.1885,422.8619 Q170.3447,422.8619 171.4385,424.5025 Q172.5479,426.1275 172.5479,429.2994 Q172.5479,432.4713 171.4385,434.0963 Q170.3447,435.7213 168.1885,435.7213 Q166.0479,435.7213 164.9385,434.0963 Q163.8447,432.4713 163.8447,429.2994 Z " fill="#000000"/><text fill="#000000" font-family="sans-serif" font-size="14" lengthAdjust="spacing" textLength="8.9072" x="187.1789" y="434.3336">6</text><line style="stroke:#181818;stroke-width:0.5;" x1="131.13" x2="221.0353" y1="445.4869" y2="445.4869"/><text fill="#000000" font-family="sans-serif" font-size="14" lengthAdjust="spacing" textLength="78.6543" x="136.13" y="462.482">source=zip</text><text fill="#000000" font-family="sans-serif" font-size="14" lengthAdjust="spacing" textLength="79.9053" x="136.13" y="478.7789">target=city</text></g><!--class 4--><g id="elem_4"><rect codeLine="26" fill="#F1F1F1" height="72.5938" id="4" rx="2.5" ry="2.5" style="stroke:#181818;stroke-width:0.5;" width="102.0088" x="231.08" y="516.0869"/><ellipse cx="273.5757" cy="532.0869" fill="#DA70D6" rx="11" ry="11" style="stroke:#181818;stroke-width:1;"/><path d="M273.6851,527.665 Q272.7476,527.665 272.3101,528.665 Q271.8882,529.665 271.8882,531.8994 Q271.8882,534.1338 272.3101,535.1338 Q272.7476,536.1338 273.6851,536.1338 Q274.6382,536.1338 275.0601,535.1338 Q275.4976,534.1338 275.4976,531.8994 Q275.4976,529.665 275.0601,528.665 Q274.6382,527.665 273.6851,527.665 Z M269.3413,531.8994 Q269.3413,528.7275 270.4351,527.1025 Q271.5445,525.4619 273.6851,525.4619 Q275.8413,525.4619 276.9351,527.1025 Q278.0445,528.7275 278.0445,531.8994 Q278.0445,535.0713 276.9351,536.6963 Q275.8413,538.3213 273.6851,538.3213 Q271.5445,538.3213 270.4351,536.6963 Q269.3413,535.0713 269.3413,531.8994 Z " fill="#000000"/><text fill="#000000" font-family="sans-serif" font-size="14" lengthAdjust="spacing" textLength="8.9072" x="293.6859" y="536.9336">4</text><line style="stroke:#181818;stroke-width:0.5;" x1="232.08" x2="332.0888" y1="548.0869" y2="548.0869"/><text fill="#000000" font-family="sans-serif" font-size="14" lengthAdjust="spacing" textLength="78.6543" x="237.08" y="565.082">source=zip</text><text fill="#000000" font-family="sans-serif" font-size="14" lengthAdjust="spacing" textLength="90.0088" x="237.08" y="581.3789">target=state</text></g><!--class 5--><g id="elem_5"><rect codeLine="29" fill="#F1F1F1" height="72.5938" id="5" rx="2.5" ry="2.5" style="stroke:#181818;stroke-width:0.5;" width="135.8193" x="230.18" y="310.8969"/><ellipse cx="289.3861" cy="326.8969" fill="#DA70D6" rx="11" ry="11" style="stroke:#181818;stroke-width:1;"/><path d="M289.4954,322.475 Q288.5579,322.475 288.1204,323.475 Q287.6986,324.475 287.6986,326.7094 Q287.6986,328.9438 288.1204,329.9438 Q288.5579,330.9438 289.4954,330.9438 Q290.4486,330.9438 290.8704,329.9438 Q291.3079,328.9438 291.3079,326.7094 Q291.3079,324.475 290.8704,323.475 Q290.4486,322.475 289.4954,322.475 Z M285.1517,326.7094 Q285.1517,323.5375 286.2454,321.9125 Q287.3548,320.2719 289.4954,320.2719 Q291.6517,320.2719 292.7454,321.9125 Q293.8548,323.5375 293.8548,326.7094 Q293.8548,329.8813 292.7454,331.5063 Q291.6517,333.1313 289.4954,333.1313 Q287.3548,333.1313 286.2454,331.5063 Q285.1517,329.8813 285.1517,326.7094 Z " fill="#000000"/><text fill="#000000" font-family="sans-serif" font-size="14" lengthAdjust="spacing" textLength="8.9072" x="309.8861" y="331.7436">5</text><line style="stroke:#181818;stroke-width:0.5;" x1="231.18" x2="364.9993" y1="342.8969" y2="342.8969"/><text fill="#000000" font-family="sans-serif" font-size="14" lengthAdjust="spacing" textLength="123.8193" x="236.18" y="359.892">source=areacode</text><text fill="#000000" font-family="sans-serif" font-size="14" lengthAdjust="spacing" textLength="90.0088" x="236.18" y="376.1889">target=state</text></g><!--class 8--><g id="elem_8"><rect codeLine="32" fill="#F1F1F1" height="72.5938" id="8" rx="2.5" ry="2.5" style="stroke:#181818;stroke-width:0.5;" width="148.6367" x="367.77" y="516.0869"/><ellipse cx="433.3847" cy="532.0869" fill="#DA70D6" rx="11" ry="11" style="stroke:#181818;stroke-width:1;"/><path d="M433.4941,527.665 Q432.5566,527.665 432.1191,528.665 Q431.6972,529.665 431.6972,531.8994 Q431.6972,534.1338 432.1191,535.1338 Q432.5566,536.1338 433.4941,536.1338 Q434.4472,536.1338 434.8691,535.1338 Q435.3066,534.1338 435.3066,531.8994 Q435.3066,529.665 434.8691,528.665 Q434.4472,527.665 433.4941,527.665 Z M429.1504,531.8994 Q429.1504,528.7275 430.2441,527.1025 Q431.3535,525.4619 433.4941,525.4619 Q435.6504,525.4619 436.7441,527.1025 Q437.8535,528.7275 437.8535,531.8994 Q437.8535,535.0713 436.7441,536.6963 Q435.6504,538.3213 433.4941,538.3213 Q431.3535,538.3213 430.2441,536.6963 Q429.1504,535.0713 429.1504,531.8994 Z " fill="#000000"/><text fill="#000000" font-family="sans-serif" font-size="14" lengthAdjust="spacing" textLength="8.9072" x="453.8847" y="536.9336">8</text><line style="stroke:#181818;stroke-width:0.5;" x1="368.77" x2="515.4067" y1="548.0869" y2="548.0869"/><text fill="#000000" font-family="sans-serif" font-size="14" lengthAdjust="spacing" textLength="136.6367" x="373.77" y="565.082">source=haschildzip</text><text fill="#000000" font-family="sans-serif" font-size="14" lengthAdjust="spacing" textLength="135.8164" x="373.77" y="581.3789">target=childexemp</text></g><!--class 9--><g id="elem_9"><rect codeLine="35" fill="#F1F1F1" height="72.5938" id="9" rx="2.5" ry="2.5" style="stroke:#181818;stroke-width:0.5;" width="183.4932" x="470.34" y="413.4869"/><ellipse cx="553.383" cy="429.4869" fill="#DA70D6" rx="11" ry="11" style="stroke:#181818;stroke-width:1;"/><path d="M553.4923,425.065 Q552.5548,425.065 552.1173,426.065 Q551.6955,427.065 551.6955,429.2994 Q551.6955,431.5338 552.1173,432.5338 Q552.5548,433.5338 553.4923,433.5338 Q554.4455,433.5338 554.8673,432.5338 Q555.3048,431.5338 555.3048,429.2994 Q555.3048,427.065 554.8673,426.065 Q554.4455,425.065 553.4923,425.065 Z M549.1486,429.2994 Q549.1486,426.1275 550.2423,424.5025 Q551.3517,422.8619 553.4923,422.8619 Q555.6486,422.8619 556.7423,424.5025 Q557.8517,426.1275 557.8517,429.2994 Q557.8517,432.4713 556.7423,434.0963 Q555.6486,435.7213 553.4923,435.7213 Q551.3517,435.7213 550.2423,434.0963 Q549.1486,432.4713 549.1486,429.2994 Z " fill="#000000"/><text fill="#000000" font-family="sans-serif" font-size="14" lengthAdjust="spacing" textLength="8.9072" x="573.883" y="434.3336">9</text><line style="stroke:#181818;stroke-width:0.5;" x1="471.34" x2="652.8332" y1="445.4869" y2="445.4869"/><text fill="#000000" font-family="sans-serif" font-size="14" lengthAdjust="spacing" textLength="171.4932" x="476.34" y="462.482">source=maritalstatuszip</text><text fill="#000000" font-family="sans-serif" font-size="14" lengthAdjust="spacing" textLength="144.0264" x="476.34" y="478.7789">target=singleexemp</text></g><!--class 10--><g id="elem_10"><rect codeLine="38" fill="#F1F1F1" height="72.5938" id="10" rx="2.5" ry="2.5" style="stroke:#181818;stroke-width:0.5;" width="183.4932" x="590.34" y="310.8969"/><ellipse cx="668.9294" cy="326.8969" fill="#DA70D6" rx="11" ry="11" style="stroke:#181818;stroke-width:1;"/><path d="M669.0387,322.475 Q668.1012,322.475 667.6637,323.475 Q667.2419,324.475 667.2419,326.7094 Q667.2419,328.9438 667.6637,329.9438 Q668.1012,330.9438 669.0387,330.9438 Q669.9919,330.9438 670.4137,329.9438 Q670.8512,328.9438 670.8512,326.7094 Q670.8512,324.475 670.4137,323.475 Q669.9919,322.475 669.0387,322.475 Z M664.695,326.7094 Q664.695,323.5375 665.7887,321.9125 Q666.8981,320.2719 669.0387,320.2719 Q671.195,320.2719 672.2887,321.9125 Q673.3981,323.5375 673.3981,326.7094 Q673.3981,329.8813 672.2887,331.5063 Q671.195,333.1313 669.0387,333.1313 Q666.8981,333.1313 665.7887,331.5063 Q664.695,329.8813 664.695,326.7094 Z " fill="#000000"/><text fill="#000000" font-family="sans-serif" font-size="14" lengthAdjust="spacing" textLength="17.8145" x="689.4294" y="331.7436">10</text><line style="stroke:#181818;stroke-width:0.5;" x1="591.34" x2="772.8332" y1="342.8969" y2="342.8969"/><text fill="#000000" font-family="sans-serif" font-size="14" lengthAdjust="spacing" textLength="171.4932" x="596.34" y="359.892">source=maritalstatuszip</text><text fill="#000000" font-family="sans-serif" font-size="14" lengthAdjust="spacing" textLength="157.6982" x="596.34" y="376.1889">target=marriedexemp</text></g><!--class 11--><g id="elem_11"><rect codeLine="41" fill="#F1F1F1" height="80.5938" id="11" rx="2.5" ry="2.5" style="stroke:#181818;stroke-width:0.5;" width="56.6318" x="89.77" y="44.2969"/><ellipse cx="107.8378" cy="60.2969" fill="#DA70D6" rx="11" ry="11" style="stroke:#181818;stroke-width:1;"/><path d="M107.9472,55.875 Q107.0097,55.875 106.5722,56.875 Q106.1503,57.875 106.1503,60.1094 Q106.1503,62.3438 106.5722,63.3438 Q107.0097,64.3438 107.9472,64.3438 Q108.9003,64.3438 109.3222,63.3438 Q109.7597,62.3438 109.7597,60.1094 Q109.7597,57.875 109.3222,56.875 Q108.9003,55.875 107.9472,55.875 Z M103.6034,60.1094 Q103.6034,56.9375 104.6972,55.3125 Q105.8066,53.6719 107.9472,53.6719 Q110.1034,53.6719 111.1972,55.3125 Q112.3066,56.9375 112.3066,60.1094 Q112.3066,63.2813 111.1972,64.9063 Q110.1034,66.5313 107.9472,66.5313 Q105.8066,66.5313 104.6972,64.9063 Q103.6034,63.2813 103.6034,60.1094 Z " fill="#000000"/><text fill="#000000" font-family="sans-serif" font-size="14" lengthAdjust="spacing" textLength="17.8145" x="122.5196" y="65.1436">11</text><line style="stroke:#181818;stroke-width:0.5;" x1="90.77" x2="145.4018" y1="76.2969" y2="76.2969"/><text fill="#000000" font-family="sans-serif" font-size="14" lengthAdjust="spacing" textLength="44.6318" x="95.77" y="93.292">fname</text><line style="stroke:#181818;stroke-width:0.5;" x1="90.77" x2="145.4018" y1="100.5938" y2="100.5938"/><text fill="#000000" font-family="sans-serif" font-size="14" lengthAdjust="spacing" textLength="32.3203" x="95.77" y="117.5889">set()</text></g><!--class 12--><g id="elem_12"><rect codeLine="45" fill="#F1F1F1" height="80.5938" id="12" rx="2.5" ry="2.5" style="stroke:#181818;stroke-width:0.5;" width="55.5928" x="231.29" y="44.2969"/><ellipse cx="248.8902" cy="60.2969" fill="#DA70D6" rx="11" ry="11" style="stroke:#181818;stroke-width:1;"/><path d="M248.9996,55.875 Q248.0621,55.875 247.6246,56.875 Q247.2027,57.875 247.2027,60.1094 Q247.2027,62.3438 247.6246,63.3438 Q248.0621,64.3438 248.9996,64.3438 Q249.9527,64.3438 250.3746,63.3438 Q250.8121,62.3438 250.8121,60.1094 Q250.8121,57.875 250.3746,56.875 Q249.9527,55.875 248.9996,55.875 Z M244.6559,60.1094 Q244.6559,56.9375 245.7496,55.3125 Q246.859,53.6719 248.9996,53.6719 Q251.1559,53.6719 252.2496,55.3125 Q253.359,56.9375 253.359,60.1094 Q253.359,63.2813 252.2496,64.9063 Q251.1559,66.5313 248.9996,66.5313 Q246.859,66.5313 245.7496,64.9063 Q244.6559,63.2813 244.6559,60.1094 Z " fill="#000000"/><text fill="#000000" font-family="sans-serif" font-size="14" lengthAdjust="spacing" textLength="17.8145" x="263.4681" y="65.1436">12</text><line style="stroke:#181818;stroke-width:0.5;" x1="232.29" x2="285.8828" y1="76.2969" y2="76.2969"/><text fill="#000000" font-family="sans-serif" font-size="14" lengthAdjust="spacing" textLength="43.5928" x="237.29" y="93.292">lname</text><line style="stroke:#181818;stroke-width:0.5;" x1="232.29" x2="285.8828" y1="100.5938" y2="100.5938"/><text fill="#000000" font-family="sans-serif" font-size="14" lengthAdjust="spacing" textLength="32.3203" x="237.29" y="117.5889">set()</text></g><!--class 1--><g id="elem_1"><rect codeLine="50" fill="#F1F1F1" height="72.5938" id="1" rx="2.5" ry="2.5" style="stroke:#181818;stroke-width:0.5;" width="61.6289" x="371.27" y="48.2969"/><ellipse cx="395.5948" cy="64.2969" fill="#DA70D6" rx="11" ry="11" style="stroke:#181818;stroke-width:1;"/><path d="M395.7041,59.875 Q394.7666,59.875 394.3291,60.875 Q393.9073,61.875 393.9073,64.1094 Q393.9073,66.3438 394.3291,67.3438 Q394.7666,68.3438 395.7041,68.3438 Q396.6573,68.3438 397.0791,67.3438 Q397.5166,66.3438 397.5166,64.1094 Q397.5166,61.875 397.0791,60.875 Q396.6573,59.875 395.7041,59.875 Z M391.3604,64.1094 Q391.3604,60.9375 392.4541,59.3125 Q393.5635,57.6719 395.7041,57.6719 Q397.8604,57.6719 398.9541,59.3125 Q400.0635,60.9375 400.0635,64.1094 Q400.0635,67.2813 398.9541,68.9063 Q397.8604,70.5313 395.7041,70.5313 Q393.5635,70.5313 392.4541,68.9063 Q391.3604,67.2813 391.3604,64.1094 Z " fill="#000000"/><text fill="#000000" font-family="sans-serif" font-size="14" lengthAdjust="spacing" textLength="8.9072" x="411.6669" y="69.1436">1</text><line style="stroke:#181818;stroke-width:0.5;" x1="372.27" x2="431.8989" y1="80.2969" y2="80.2969"/><text fill="#000000" font-family="sans-serif" font-size="14" lengthAdjust="spacing" textLength="49.6289" x="377.27" y="97.292">gender</text><text fill="#000000" font-family="sans-serif" font-size="14" lengthAdjust="spacing" textLength="35.7725" x="377.27" y="113.5889">[M|F]</text></g><!--class 2--><g id="elem_2"><rect codeLine="55" fill="#F1F1F1" height="72.5938" id="2" rx="2.5" ry="2.5" style="stroke:#181818;stroke-width:0.5;" width="77.29" x="517.44" y="48.2969"/><ellipse cx="548.8123" cy="64.2969" fill="#DA70D6" rx="11" ry="11" style="stroke:#181818;stroke-width:1;"/><path d="M548.9216,59.875 Q547.9841,59.875 547.5466,60.875 Q547.1248,61.875 547.1248,64.1094 Q547.1248,66.3438 547.5466,67.3438 Q547.9841,68.3438 548.9216,68.3438 Q549.8748,68.3438 550.2966,67.3438 Q550.7341,66.3438 550.7341,64.1094 Q550.7341,61.875 550.2966,60.875 Q549.8748,59.875 548.9216,59.875 Z M544.5779,64.1094 Q544.5779,60.9375 545.6716,59.3125 Q546.781,57.6719 548.9216,57.6719 Q551.0779,57.6719 552.1716,59.3125 Q553.281,60.9375 553.281,64.1094 Q553.281,67.2813 552.1716,68.9063 Q551.0779,70.5313 548.9216,70.5313 Q546.781,70.5313 545.6716,68.9063 Q544.5779,67.2813 544.5779,64.1094 Z " fill="#000000"/><text fill="#000000" font-family="sans-serif" font-size="14" lengthAdjust="spacing" textLength="8.9072" x="566.4505" y="69.1436">2</text><line style="stroke:#181818;stroke-width:0.5;" x1="518.44" x2="593.73" y1="80.2969" y2="80.2969"/><text fill="#000000" font-family="sans-serif" font-size="14" lengthAdjust="spacing" textLength="65.29" x="523.44" y="97.292">areacode</text><text fill="#000000" font-family="sans-serif" font-size="14" lengthAdjust="spacing" textLength="60.5117" x="523.44" y="113.5889">[0-9]{3}</text></g><!--class 3--><g id="elem_3"><rect codeLine="60" fill="#F1F1F1" height="72.5938" id="3" rx="2.5" ry="2.5" style="stroke:#181818;stroke-width:0.5;" width="73.8652" x="679.15" y="48.2969"/><ellipse cx="708.9811" cy="64.2969" fill="#DA70D6" rx="11" ry="11" style="stroke:#181818;stroke-width:1;"/><path d="M709.0905,59.875 Q708.153,59.875 707.7155,60.875 Q707.2936,61.875 707.2936,64.1094 Q707.2936,66.3438 707.7155,67.3438 Q708.153,68.3438 709.0905,68.3438 Q710.0436,68.3438 710.4655,67.3438 Q710.903,66.3438 710.903,64.1094 Q710.903,61.875 710.4655,60.875 Q710.0436,59.875 709.0905,59.875 Z M704.7467,64.1094 Q704.7467,60.9375 705.8405,59.3125 Q706.9499,57.6719 709.0905,57.6719 Q711.2467,57.6719 712.3405,59.3125 Q713.4499,60.9375 713.4499,64.1094 Q713.4499,67.2813 712.3405,68.9063 Q711.2467,70.5313 709.0905,70.5313 Q706.9499,70.5313 705.8405,68.9063 Q704.7467,67.2813 704.7467,64.1094 Z " fill="#000000"/><text fill="#000000" font-family="sans-serif" font-size="14" lengthAdjust="spacing" textLength="8.9072" x="726.2769" y="69.1436">3</text><line style="stroke:#181818;stroke-width:0.5;" x1="680.15" x2="752.0152" y1="80.2969" y2="80.2969"/><text fill="#000000" font-family="sans-serif" font-size="14" lengthAdjust="spacing" textLength="35.4648" x="685.15" y="97.292">state</text><text fill="#000000" font-family="sans-serif" font-size="14" lengthAdjust="spacing" textLength="61.8652" x="685.15" y="113.5889">[A-Z]{2}</text></g><!--class level_2_end--><g id="elem_level_2_end"><rect fill="#F1F1F1" height="32" id="level_2_end" rx="2.5" ry="2.5" style="stroke:#181818;stroke-width:0.5;" width="114.5713" x="324.8" y="665.6769"/><ellipse cx="339.8" cy="681.6769" fill="#ADD1B2" rx="11" ry="11" style="stroke:#181818;stroke-width:1;"/><path d="M342.7688,687.3175 Q342.1906,687.6144 341.55,687.755 Q340.9094,687.9113 340.2063,687.9113 Q337.7063,687.9113 336.3781,686.2706 Q335.0656,684.6144 335.0656,681.4894 Q335.0656,678.3644 336.3781,676.7081 Q337.7063,675.0519 340.2063,675.0519 Q340.9094,675.0519 341.55,675.2081 Q342.2063,675.3644 342.7688,675.6613 L342.7688,678.38 Q342.1438,677.8019 341.55,677.5363 Q340.9563,677.255 340.3313,677.255 Q338.9875,677.255 338.3,678.3331 Q337.6125,679.3956 337.6125,681.4894 Q337.6125,683.5831 338.3,684.6613 Q338.9875,685.7238 340.3313,685.7238 Q340.9563,685.7238 341.55,685.4581 Q342.1438,685.1769 342.7688,684.5988 L342.7688,687.3175 Z " fill="#000000"/><text fill="#000000" font-family="sans-serif" font-size="14" lengthAdjust="spacing" textLength="82.5713" x="353.8" y="686.5236">level_2_end</text></g><!--link 11 to SINGLE_END--><g id="link_11_SINGLE_END"><path codeLine="44" d="M146.86,100.0969 C181.88,117.6169 242.93,147.7469 296.09,171.8969 C318.66,182.1469 338.6914,190.7196 359.0714,199.2096 " fill="none" id="11-to-SINGLE_END" style="stroke:#181818;stroke-width:1;"/><polygon fill="#181818" points="364.61,201.5169,357.8403,194.3635,359.9945,199.5941,354.7639,201.7483,364.61,201.5169" style="stroke:#181818;stroke-width:1;"/><text fill="#000000" font-family="sans-serif" font-size="13" lengthAdjust="spacing" textLength="29.0278" x="297.09" y="167.9638">next</text></g><!--link 11 to 12--><g id="link_11_12"><path codeLine="48" d="M152.62,84.5969 C177.24,84.5969 200.61,84.5969 225.08,84.5969 " fill="none" id="11-12" style="stroke:#181818;stroke-width:1;"/><polygon fill="#181818" points="146.62,84.5969,155.62,88.5969,151.62,84.5969,155.62,80.5969,146.62,84.5969" style="stroke:#181818;stroke-width:1;"/><polygon fill="#181818" points="231.08,84.5969,222.08,80.5969,226.08,84.5969,222.08,88.5969,231.08,84.5969" style="stroke:#181818;stroke-width:1;"/><text fill="#000000" font-family="sans-serif" font-size="13" lengthAdjust="spacing" textLength="48.3628" x="164.85" y="77.6638">parallel</text></g><!--link 12 to SINGLE_END--><g id="link_12_SINGLE_END"><path codeLine="49" d="M287.34,111.5369 C316.64,138.4469 357.051,175.5383 381.081,197.6083 " fill="none" id="12-to-SINGLE_END" style="stroke:#181818;stroke-width:1;"/><polygon fill="#181818" points="385.5,201.6669,381.5772,192.633,381.8175,198.2847,376.1657,198.525,385.5,201.6669" style="stroke:#181818;stroke-width:1;"/><text fill="#000000" font-family="sans-serif" font-size="13" lengthAdjust="spacing" textLength="29.0278" x="353.09" y="167.9638">next</text></g><!--link 12 to 1--><g id="link_12_1"><path codeLine="53" d="M293.34,84.5969 C317.43,84.5969 340.02,84.5969 364.91,84.5969 " fill="none" id="12-1" style="stroke:#181818;stroke-width:1;"/><polygon fill="#181818" points="287.34,84.5969,296.34,88.5969,292.34,84.5969,296.34,80.5969,287.34,84.5969" style="stroke:#181818;stroke-width:1;"/><polygon fill="#181818" points="370.91,84.5969,361.91,80.5969,365.91,84.5969,361.91,88.5969,370.91,84.5969" style="stroke:#181818;stroke-width:1;"/><text fill="#000000" font-family="sans-serif" font-size="13" lengthAdjust="spacing" textLength="48.3628" x="305.08" y="77.6638">parallel</text></g><!--link 1 to SINGLE_END--><g id="link_1_SINGLE_END"><path codeLine="54" d="M402.09,121.1269 C402.09,147.4069 402.09,175.9069 402.09,195.5069 " fill="none" id="1-to-SINGLE_END" style="stroke:#181818;stroke-width:1;"/><polygon fill="#181818" points="402.09,201.5069,406.09,192.5069,402.09,196.5069,398.09,192.5069,402.09,201.5069" style="stroke:#181818;stroke-width:1;"/><text fill="#000000" font-family="sans-serif" font-size="13" lengthAdjust="spacing" textLength="29.0278" x="403.09" y="167.9638">next</text></g><!--link 1 to 2--><g id="link_1_2"><path codeLine="58" d="M439.25,84.5969 C463.42,84.5969 485.06,84.5969 511.03,84.5969 " fill="none" id="1-2" style="stroke:#181818;stroke-width:1;"/><polygon fill="#181818" points="433.25,84.5969,442.25,88.5969,438.25,84.5969,442.25,80.5969,433.25,84.5969" style="stroke:#181818;stroke-width:1;"/><polygon fill="#181818" points="517.03,84.5969,508.03,80.5969,512.03,84.5969,508.03,88.5969,517.03,84.5969" style="stroke:#181818;stroke-width:1;"/><text fill="#000000" font-family="sans-serif" font-size="13" lengthAdjust="spacing" textLength="48.3628" x="451.17" y="77.6638">parallel</text></g><!--link 2 to SINGLE_END--><g id="link_2_SINGLE_END"><path codeLine="59" d="M517.23,118.7269 C486.04,145.3169 448.2557,177.534 424.5757,197.724 " fill="none" id="2-to-SINGLE_END" style="stroke:#181818;stroke-width:1;"/><polygon fill="#181818" points="420.01,201.6169,429.4538,198.8215,423.8148,198.3729,424.2634,192.7338,420.01,201.6169" style="stroke:#181818;stroke-width:1;"/><text fill="#000000" font-family="sans-serif" font-size="13" lengthAdjust="spacing" textLength="29.0278" x="476.09" y="167.9638">next</text></g><!--link 2 to 3--><g id="link_2_3"><path codeLine="63" d="M601.23,84.5969 C626.67,84.5969 647.65,84.5969 672.73,84.5969 " fill="none" id="2-3" style="stroke:#181818;stroke-width:1;"/><polygon fill="#181818" points="595.23,84.5969,604.23,88.5969,600.23,84.5969,604.23,80.5969,595.23,84.5969" style="stroke:#181818;stroke-width:1;"/><polygon fill="#181818" points="678.73,84.5969,669.73,80.5969,673.73,84.5969,669.73,88.5969,678.73,84.5969" style="stroke:#181818;stroke-width:1;"/><text fill="#000000" font-family="sans-serif" font-size="13" lengthAdjust="spacing" textLength="48.3628" x="612.94" y="77.6638">parallel</text></g><!--link 3 to SINGLE_END--><g id="link_3_SINGLE_END"><path codeLine="64" d="M678.96,101.7469 C638.51,119.2669 571.86,147.9469 514.09,171.8969 C489.89,181.9269 468.1934,190.6648 446.6234,199.2648 " fill="none" id="3-to-SINGLE_END" style="stroke:#181818;stroke-width:1;"/><polygon fill="#181818" points="441.05,201.4869,450.8914,201.8693,445.6945,199.6351,447.9286,194.4381,441.05,201.4869" style="stroke:#181818;stroke-width:1;"/><text fill="#000000" font-family="sans-serif" font-size="13" lengthAdjust="spacing" textLength="29.0278" x="554.09" y="167.9638">next</text></g><!--link SINGLE_END to 7--><g id="link_SINGLE_END_7"><path codeLine="65" d="M341.7,222.2369 C300.93,226.9169 247.42,237.9669 207.09,263.8969 C149.04,301.2069 108.157,365.55 85.437,407.89 " fill="none" id="SINGLE_END-to-7" style="stroke:#181818;stroke-width:1;"/><polygon fill="#181818" points="82.6,413.1769,90.3801,407.1378,84.9642,408.7711,83.3309,403.3552,82.6,413.1769" style="stroke:#181818;stroke-width:1;"/><text fill="#000000" font-family="sans-serif" font-size="13" lengthAdjust="spacing" textLength="29.0278" x="208.09" y="276.9638">next</text></g><!--link 7 to level_2_end--><g id="link_7_level_2_end"><path codeLine="66" d="M74.64,486.3069 C84.08,516.2569 100.96,558.8769 127.09,588.6769 C177.35,646.0069 260.1674,666.7987 318.5774,674.9387 " fill="none" id="7-to-level_2_end" style="stroke:#181818;stroke-width:1;"/><polygon fill="#181818" points="324.52,675.7669,316.1582,670.5629,319.5679,675.0767,315.054,678.4864,324.52,675.7669" style="stroke:#181818;stroke-width:1;"/><text fill="#000000" font-family="sans-serif" font-size="13" lengthAdjust="spacing" textLength="29.0278" x="128.09" y="556.9438">next</text></g><!--link SINGLE_END to 6--><g id="link_SINGLE_END_6"><path codeLine="67" d="M341.76,233.8869 C299.85,247.3269 245.84,271.2069 213.09,310.8969 C189.18,339.8569 181.2039,376.8663 178.1939,407.1263 " fill="none" id="SINGLE_END-to-6" style="stroke:#181818;stroke-width:1;"/><polygon fill="#181818" points="177.6,413.0969,182.4712,404.537,178.0949,408.1214,174.5105,403.7451,177.6,413.0969" style="stroke:#181818;stroke-width:1;"/><text fill="#000000" font-family="sans-serif" font-size="13" lengthAdjust="spacing" textLength="29.0278" x="271.09" y="276.9638">next</text></g><!--link 6 to level_2_end--><g id="link_6_level_2_end"><path codeLine="68" d="M168.06,486.4869 C163.44,516.3469 161.98,558.7469 182.09,588.6769 C214.16,636.4269 271.8137,658.435 318.6937,669.615 " fill="none" id="6-to-level_2_end" style="stroke:#181818;stroke-width:1;"/><polygon fill="#181818" points="324.53,671.0069,316.7034,665.0282,319.6664,669.847,314.8476,672.81,324.53,671.0069" style="stroke:#181818;stroke-width:1;"/><text fill="#000000" font-family="sans-serif" font-size="13" lengthAdjust="spacing" textLength="29.0278" x="183.09" y="556.9438">next</text></g><!--link SINGLE_END to 5--><g id="link_SINGLE_END_5"><path codeLine="69" d="M389.75,233.9969 C374.41,252.7669 351.5462,280.7605 330.9162,306.0105 " fill="none" id="SINGLE_END-to-5" style="stroke:#181818;stroke-width:1;"/><polygon fill="#181818" points="327.12,310.6569,335.9119,306.2181,330.2835,306.7849,329.7168,301.1565,327.12,310.6569" style="stroke:#181818;stroke-width:1;"/><text fill="#000000" font-family="sans-serif" font-size="13" lengthAdjust="spacing" textLength="29.0278" x="364.09" y="276.9638">next</text></g><!--link 5 to 4--><g id="link_5_4"><path codeLine="70" d="M295.3,383.5869 C292.38,420.6469 288.29,472.5653 285.37,509.7253 " fill="none" id="5-to-4" style="stroke:#181818;stroke-width:1;"/><polygon fill="#181818" points="284.9,515.7069,289.5927,507.0479,285.2917,510.7222,281.6173,506.4212,284.9,515.7069" style="stroke:#181818;stroke-width:1;"/><text fill="#000000" font-family="sans-serif" font-size="13" lengthAdjust="spacing" textLength="29.0278" x="294.09" y="454.3538">next</text></g><!--link 4 to level_2_end--><g id="link_4_level_2_end"><path codeLine="71" d="M309.94,588.8369 C329.71,613.9969 351.5542,641.8081 366.3342,660.6281 " fill="none" id="4-to-level_2_end" style="stroke:#181818;stroke-width:1;"/><polygon fill="#181818" points="370.04,665.3469,367.6271,655.7982,366.9518,661.4146,361.3354,660.7393,370.04,665.3469" style="stroke:#181818;stroke-width:1;"/><text fill="#000000" font-family="sans-serif" font-size="13" lengthAdjust="spacing" textLength="29.0278" x="345.09" y="631.7438">next</text></g><!--link SINGLE_END to 8--><g id="link_SINGLE_END_8"><path codeLine="72" d="M403.91,234.0469 C409.91,283.9069 428.4336,437.8498 437.0836,509.7798 " fill="none" id="SINGLE_END-to-8" style="stroke:#181818;stroke-width:1;"/><polygon fill="#181818" points="437.8,515.7369,440.6968,506.3237,437.203,510.7726,432.7541,507.2788,437.8,515.7369" style="stroke:#181818;stroke-width:1;"/><text fill="#000000" font-family="sans-serif" font-size="13" lengthAdjust="spacing" textLength="29.0278" x="423.09" y="351.7638">next</text></g><!--link 8 to level_2_end--><g id="link_8_level_2_end"><path codeLine="73" d="M425.37,588.8369 C413.51,613.9969 400.738,641.0995 391.868,659.9195 " fill="none" id="8-to-level_2_end" style="stroke:#181818;stroke-width:1;"/><polygon fill="#181818" points="389.31,665.3469,396.7652,658.9111,391.4416,660.824,389.5287,655.5004,389.31,665.3469" style="stroke:#181818;stroke-width:1;"/><text fill="#000000" font-family="sans-serif" font-size="13" lengthAdjust="spacing" textLength="29.0278" x="412.09" y="631.7438">next</text></g><!--link SINGLE_END to 9--><g id="link_SINGLE_END_9"><path codeLine="74" d="M427.9,234.1969 C439.64,242.0269 453.1,252.3569 463.09,263.8969 C502.64,309.5969 530.2507,368.2126 546.3807,407.6926 " fill="none" id="SINGLE_END-to-9" style="stroke:#181818;stroke-width:1;"/><polygon fill="#181818" points="548.65,413.2469,548.949,403.4026,546.7589,408.6183,541.5432,406.4283,548.65,413.2469" style="stroke:#181818;stroke-width:1;"/><text fill="#000000" font-family="sans-serif" font-size="13" lengthAdjust="spacing" textLength="29.0278" x="477.09" y="276.9638">next</text></g><!--link 9 to level_2_end--><g id="link_9_level_2_end"><path codeLine="75" d="M562.52,486.4269 C561.21,516.2469 555.25,558.6169 534.09,588.6769 C507.81,626.0069 466.6539,648.6323 431.9339,663.0023 " fill="none" id="9-to-level_2_end" style="stroke:#181818;stroke-width:1;"/><polygon fill="#181818" points="426.39,665.2969,436.2356,665.551,431.0099,663.3848,433.1762,658.1591,426.39,665.2969" style="stroke:#181818;stroke-width:1;"/><text fill="#000000" font-family="sans-serif" font-size="13" lengthAdjust="spacing" textLength="29.0278" x="561.09" y="556.9438">next</text></g><!--link SINGLE_END to 10--><g id="link_SINGLE_END_10"><path codeLine="76" d="M462.31,229.3469 C495.21,236.4469 536.06,247.5569 570.09,263.8969 C595.54,276.1169 616.433,290.611 636.703,306.811 " fill="none" id="SINGLE_END-to-10" style="stroke:#181818;stroke-width:1;"/><polygon fill="#181818" points="641.39,310.5569,636.8568,301.8133,637.4842,307.4353,631.8622,308.0627,641.39,310.5569" style="stroke:#181818;stroke-width:1;"/><text fill="#000000" font-family="sans-serif" font-size="13" lengthAdjust="spacing" textLength="29.0278" x="601.09" y="276.9638">next</text></g><!--link 10 to level_2_end--><g id="link_10_level_2_end"><path codeLine="77" d="M682.03,383.7669 C680.96,412.2269 677.15,452.7369 665.09,486.0869 C646.64,537.0669 638.09,551.0169 599.09,588.6769 C554.79,631.4569 493.3682,654.1938 445.4982,666.9338 " fill="none" id="10-to-level_2_end" style="stroke:#181818;stroke-width:1;"/><polygon fill="#181818" points="439.7,668.4769,449.426,670.0277,444.5318,667.1909,447.3685,662.2968,439.7,668.4769" style="stroke:#181818;stroke-width:1;"/><text fill="#000000" font-family="sans-serif" font-size="13" lengthAdjust="spacing" textLength="29.0278" x="655.09" y="556.9438">next</text></g><!--SRC=[bLDDYnCn6BxdLyIJ7N2Wq- -HRc5RgmZh5lHcAINCl9s6pKnA9dMxTWk2NaJy0NeMl2ruKqH_ZQNwBqpIJcUcx9QsfyppbQT9tdi-Z6W4-3buiZS1GIGNXPc5FKRY6CzmiuaBlGUO2szCVGktMWZ55pIQ4452B9I9H043F4TO_Th4kmW4dqP-XpCkcirUguNFQ32MRJQ5jOGB7uIXSPiflK5FXU2NMN21aAHI1NSu4J7OWI2gfOyx34W40dTdu4qbvH7kwJnTduSXH3xH84BtLrz__llqvS-F3ylt7rUVtos_lrr-U_FtvlVgrmrI_mGmX1DvXNs8FK4dnfI1Gv1ZxiTPQ4I1AGJb3kh5q_CdPzrXz_oHjSCmU0Liw0nLfLsgRg4wVeXZFXKUd8mY4e819141o9D0MK3aBJKBrLBBQpendnk3H-LLNbwnK2KlhwJoM189UNtLGjLKJmGGZ_jWiBjD3GirKjEOnEg5C5zlriXqqnZCr17cpQw5tDGS4a4bONgJQQmJtCpEL3-mMoASeeMSufuGGsvI52aetDR4SLICevJhYp3B66J1eBRFBoExXTDxLcm4CxcJKLBgagBOEgEKpMZQGa-0IZ6udXp6W6dLeV4gHn6RXw6N_MVNZmSw8HEUopuqMXNNfRPNhZ_wHTiTpCiBbEsUgtvmyxA5oleipElHg_wf_N8mBorGjdevcrtUavr14b4zuUfRQ3rw9JrwUuorXAiTQQmcN7KBLHAeScHM8-4QHnhTX7EFD9gXCAHQtMtz3m00]--></g></svg>