<svg xmlns="http://www.w3.org/2000/svg" xmlns:xlink="http://www.w3.org/1999/xlink" contentStyleType="text/css" height="704px" preserveAspectRatio="none" style="width:918px;height:704px;background:#FFFFFF;" version="1.1" viewBox="0 0 918 704" width="918px" zoomAndPan="magnify"><title>Coarse-grained Cleaner Execution Order Recommendation</title><defs/><g><text fill="#000000" font-family="sans-serif" font-size="14" font-weight="bold" lengthAdjust="spacing" textLength="460.4482" x="221.9615" y="22.9951">Coarse-grained Cleaner Execution Order Recommendation</text><!--class SINGLE_END--><g id="elem_SINGLE_END"><rect codeLine="16" fill="#F1F1F1" height="32" id="SINGLE_END" rx="2.5" ry="2.5" style="stroke:#181818;stroke-width:0.5;" width="120.0811" x="351.05" y="201.8969"/><ellipse cx="366.05" cy="217.8969" fill="#DA70D6" rx="11" ry="11" style="stroke:#181818;stroke-width:1;"/><path d="M366.1594,213.475 Q365.2219,213.475 364.7844,214.475 Q364.3625,215.475 364.3625,217.7094 Q364.3625,219.9438 364.7844,220.9438 Q365.2219,221.9438 366.1594,221.9438 Q367.1125,221.9438 367.5344,220.9438 Q367.9719,219.9438 367.9719,217.7094 Q367.9719,215.475 367.5344,214.475 Q367.1125,213.475 366.1594,213.475 Z M361.8156,217.7094 Q361.8156,214.5375 362.9094,212.9125 Q364.0188,211.2719 366.1594,211.2719 Q368.3156,211.2719 369.4094,212.9125 Q370.5188,214.5375 370.5188,217.7094 Q370.5188,220.8813 369.4094,222.5063 Q368.3156,224.1313 366.1594,224.1313 Q364.0188,224.1313 362.9094,222.5063 Q361.8156,220.8813 361.8156,217.7094 Z " fill="#000000"/><text fill="#000000" font-family="sans-serif" font-size="14" lengthAdjust="spacing" textLength="88.0811" x="380.05" y="222.7436">SINGLE_END</text></g><!--class level_1_end--><g id="elem_level_1_end"><rect codeLine="18" fill="#F1F1F1" height="32" id="level_1_end" rx="2.5" ry="2.5" style="stroke:#181818;stroke-width:0.5;" width="114.5713" x="796.8" y="68.5969"/><ellipse cx="811.8" cy="84.5969" fill="#DA70D6" rx="11" ry="11" style="stroke:#181818;stroke-width:1;"/><path d="M811.9094,80.175 Q810.9719,80.175 810.5344,81.175 Q810.1125,82.175 810.1125,84.4094 Q810.1125,86.6437 810.5344,87.6437 Q810.9719,88.6437 811.9094,88.6437 Q812.8625,88.6437 813.2844,87.6437 Q813.7219,86.6437 813.7219,84.4094 Q813.7219,82.175 813.2844,81.175 Q812.8625,80.175 811.9094,80.175 Z M807.5656,84.4094 Q807.5656,81.2375 808.6594,79.6125 Q809.7688,77.9719 811.9094,77.9719 Q814.0656,77.9719 815.1594,79.6125 Q816.2688,81.2375 816.2688,84.4094 Q816.2688,87.5812 815.1594,89.2062 Q814.0656,90.8312 811.9094,90.8312 Q809.7688,90.8312 808.6594,89.2062 Q807.5656,87.5812 807.5656,84.4094 Z " fill="#000000"/><text fill="#000000" font-family="sans-serif" font-size="14" lengthAdjust="spacing" textLength="82.5713" x="825.8" y="89.4436">level_1_end</text></g><!--class 7--><g id="elem_7"><rect codeLine="20" fill="#F1F1F1" height="72.5938" id="7" rx="2.5" ry="2.5" style="stroke:#181818;stroke-width:0.5;" width="116.1729" x="7" y="413.4869"/><ellipse cx="56.3828" cy="429.4869" fill="#DA70D6" rx="11" ry="11" style="stroke:#181818;stroke-width:1;"/><path d="M56.4922,425.065 Q55.5547,425.065 55.1172,426.065 Q54.6953,427.065 54.6953,429.2994 Q54.6953,431.5338 55.1172,432.5338 Q55.5547,433.5338 56.4922,433.5338 Q57.4453,433.5338 57.8672,432.5338 Q58.3047,431.5338 58.3047,429.2994 Q58.3047,427.065 57.8672,426.065 Q57.4453,425.065 56.4922,425.065 Z M52.1484,429.2994 Q52.1484,426.1275 53.2422,424.5025 Q54.3516,422.8619 56.4922,422.8619 Q58.6484,422.8619 59.7422,424.5025 Q60.8516,426.1275 60.8516,429.2994 Q60.8516,432.4713 59.7422,434.0963 Q58.6484,435.7213 56.4922,435.7213 Q54.3516,435.7213 53.2422,434.0963 Q52.1484,432.4713 52.1484,429.2994 Z " fill="#000000"/><text fill="#000000" font-family="sans-serif" font-size="14" lengthAdjust="spacing" textLength="8.9072" x="76.8828" y="434.3336">7</text><line style="stroke:#181818;stroke-width:0.5;" x1="8" x2="122.1729" y1="445.4869" y2="445.4869"/><text fill="#000000" font-family="sans-serif" font-size="14" lengthAdjust="spacing" textLength="103.1611" x="13" y="462.482">source=fname</text><text fill="#000000" font-family="sans-serif" font-size="14" lengthAdjust="spacing" textLength="104.1729" x="13" y="478.7789">target=gender</text></g><!--class 6--><g id="elem_6"><rect codeLine="23" fill="#F1F1F1" height="72.5938" id="6" rx="2.5" ry="2.5" style="stroke:#181818;stroke-width:0.5;" width="91.9053" x="135.13" y="413.4869"/><ellipse cx="173.0791" cy="429.4869" fill="#DA70D6" rx="11" ry="11" style="stroke:#181818;stroke-width:1;"/><path d="M173.1885,425.065 Q172.251,425.065 171.8135,426.065 Q171.3916,427.065 171.3916,429.2994 Q171.3916,431.5338 171.8135,432.5338 Q172.251,433.5338 173.1885,433.5338 Q174.1416,433.5338 174.5635,432.5338 Q175.001,431.5338 175.001,429.2994 Q175.001,427.065 174.5635,426.065 Q174.1416,425.065 173.1885,425.065 Z M168.8447,429.2994 Q168.8447,426.1275 169.9385,424.5025 Q171.0479,422.8619 173.1885,422.8619 Q175.3447,422.8619 176.4385,424.5025 Q177.5479,426.1275 177.5479,429.2994 Q177.5479,432.4713 176.4385,434.0963 Q175.3447,435.7213 173.1885,435.7213 Q171.0479,435.7213 169.9385,434.0963 Q168.8447,432.4713 168.8447,429.2994 Z " fill="#000000"/><text fill="#000000" font-family="sans-serif" font-size="14" lengthAdjust="spacing" textLength="8.9072" x="192.1789" y="434.3336">6</text><line style="stroke:#181818;stroke-width:0.5;" x1="136.13" x2="226.0353" y1="445.4869" y2="445.4869"/><text fill="#000000" font-family="sans-serif" font-size="14" lengthAdjust="spacing" textLength="78.6543" x="141.13" y="462.482">source=zip</text><text fill="#000000" font-family="sans-serif" font-size="14" lengthAdjust="spacing" textLength="79.9053" x="141.13" y="478.7789">target=city</text></g><!--class 4--><g id="elem_4"><rect codeLine="26" fill="#F1F1F1" height="72.5938" id="4" rx="2.5" ry="2.5" style="stroke:#181818;stroke-width:0.5;" width="102.0088" x="231.08" y="516.0869"/><ellipse cx="273.5757" cy="532.0869" fill="#DA70D6" rx="11" ry="11" style="stroke:#181818;stroke-width:1;"/><path d="M273.6851,527.665 Q272.7476,527.665 272.3101,528.665 Q271.8882,529.665 271.8882,531.8994 Q271.8882,534.1338 272.3101,535.1338 Q272.7476,536.1338 273.6851,536.1338 Q274.6382,536.1338 275.0601,535.1338 Q275.4976,534.1338 275.4976,531.8994 Q275.4976,529.665 275.0601,528.665 Q274.6382,527.665 273.6851,527.665 Z M269.3413,531.8994 Q269.3413,528.7275 270.4351,527.1025 Q271.5445,525.4619 273.6851,525.4619 Q275.8413,525.4619 276.9351,527.1025 Q278.0445,528.7275 278.0445,531.8994 Q278.0445,535.0713 276.9351,536.6963 Q275.8413,538.3213 273.6851,538.3213 Q271.5445,538.3213 270.4351,536.6963 Q269.3413,535.0713 269.3413,531.8994 Z " fill="#000000"/><text fill="#000000" font-family="sans-serif" font-size="14" lengthAdjust="spacing" textLength="8.9072" x="293.6859" y="536.9336">4</text><line style="stroke:#181818;stroke-width:0.5;" x1="232.08" x2="332.0888" y1="548.0869" y2="548.0869"/><text fill="#000000" font-family="sans-serif" font-size="14" lengthAdjust="spacing" textLength="78.6543" x="237.08" y="565.082">source=zip</text><text fill="#000000" font-family="sans-serif" font-size="14" lengthAdjust="spacing" textLength="90.0088" x="237.08" y="581.3789">target=state</text></g><!--class 5--><g id="elem_5"><rect codeLine="29" fill="#F1F1F1" height="72.5938" id="5" rx="2.5" ry="2.5" style="stroke:#181818;stroke-width:0.5;" width="135.8193" x="238.18" y="310.8969"/><ellipse cx="297.3861" cy="326.8969" fill="#DA70D6" rx="11" ry="11" style="stroke:#181818;stroke-width:1;"/><path d="M297.4954,322.475 Q296.5579,322.475 296.1204,323.475 Q295.6986,324.475 295.6986,326.7094 Q295.6986,328.9438 296.1204,329.9438 Q296.5579,330.9438 297.4954,330.9438 Q298.4486,330.9438 298.8704,329.9438 Q299.3079,328.9438 299.3079,326.7094 Q299.3079,324.475 298.8704,323.475 Q298.4486,322.475 297.4954,322.475 Z M293.1517,326.7094 Q293.1517,323.5375 294.2454,321.9125 Q295.3548,320.2719 297.4954,320.2719 Q299.6517,320.2719 300.7454,321.9125 Q301.8548,323.5375 301.8548,326.7094 Q301.8548,329.8813 300.7454,331.5063 Q299.6517,333.1313 297.4954,333.1313 Q295.3548,333.1313 294.2454,331.5063 Q293.1517,329.8813 293.1517,326.7094 Z " fill="#000000"/><text fill="#000000" font-family="sans-serif" font-size="14" lengthAdjust="spacing" textLength="8.9072" x="317.8861" y="331.7436">5</text><line style="stroke:#181818;stroke-width:0.5;" x1="239.18" x2="372.9993" y1="342.8969" y2="342.8969"/><text fill="#000000" font-family="sans-serif" font-size="14" lengthAdjust="spacing" textLength="123.8193" x="244.18" y="359.892">source=areacode</text><text fill="#000000" font-family="sans-serif" font-size="14" lengthAdjust="spacing" textLength="90.0088" x="244.18" y="376.1889">target=state</text></g><!--class 9--><g id="elem_9"><rect codeLine="32" fill="#F1F1F1" height="72.5938" id="9" rx="2.5" ry="2.5" style="stroke:#181818;stroke-width:0.5;" width="183.4932" x="368.34" y="516.0869"/><ellipse cx="451.383" cy="532.0869" fill="#DA70D6" rx="11" ry="11" style="stroke:#181818;stroke-width:1;"/><path d="M451.4923,527.665 Q450.5548,527.665 450.1173,528.665 Q449.6955,529.665 449.6955,531.8994 Q449.6955,534.1338 450.1173,535.1338 Q450.5548,536.1338 451.4923,536.1338 Q452.4455,536.1338 452.8673,535.1338 Q453.3048,534.1338 453.3048,531.8994 Q453.3048,529.665 452.8673,528.665 Q452.4455,527.665 451.4923,527.665 Z M447.1486,531.8994 Q447.1486,528.7275 448.2423,527.1025 Q449.3517,525.4619 451.4923,525.4619 Q453.6486,525.4619 454.7423,527.1025 Q455.8517,528.7275 455.8517,531.8994 Q455.8517,535.0713 454.7423,536.6963 Q453.6486,538.3213 451.4923,538.3213 Q449.3517,538.3213 448.2423,536.6963 Q447.1486,535.0713 447.1486,531.8994 Z " fill="#000000"/><text fill="#000000" font-family="sans-serif" font-size="14" lengthAdjust="spacing" textLength="8.9072" x="471.883" y="536.9336">9</text><line style="stroke:#181818;stroke-width:0.5;" x1="369.34" x2="550.8332" y1="548.0869" y2="548.0869"/><text fill="#000000" font-family="sans-serif" font-size="14" lengthAdjust="spacing" textLength="171.4932" x="374.34" y="565.082">source=zipmaritalstatus</text><text fill="#000000" font-family="sans-serif" font-size="14" lengthAdjust="spacing" textLength="144.0264" x="374.34" y="581.3789">target=singleexemp</text></g><!--class 10--><g id="elem_10"><rect codeLine="35" fill="#F1F1F1" height="72.5938" id="10" rx="2.5" ry="2.5" style="stroke:#181818;stroke-width:0.5;" width="183.4932" x="493.34" y="413.4869"/><ellipse cx="571.9294" cy="429.4869" fill="#DA70D6" rx="11" ry="11" style="stroke:#181818;stroke-width:1;"/><path d="M572.0387,425.065 Q571.1012,425.065 570.6637,426.065 Q570.2419,427.065 570.2419,429.2994 Q570.2419,431.5338 570.6637,432.5338 Q571.1012,433.5338 572.0387,433.5338 Q572.9919,433.5338 573.4137,432.5338 Q573.8512,431.5338 573.8512,429.2994 Q573.8512,427.065 573.4137,426.065 Q572.9919,425.065 572.0387,425.065 Z M567.695,429.2994 Q567.695,426.1275 568.7887,424.5025 Q569.8981,422.8619 572.0387,422.8619 Q574.195,422.8619 575.2887,424.5025 Q576.3981,426.1275 576.3981,429.2994 Q576.3981,432.4713 575.2887,434.0963 Q574.195,435.7213 572.0387,435.7213 Q569.8981,435.7213 568.7887,434.0963 Q567.695,432.4713 567.695,429.2994 Z " fill="#000000"/><text fill="#000000" font-family="sans-serif" font-size="14" lengthAdjust="spacing" textLength="17.8145" x="592.4294" y="434.3336">10</text><line style="stroke:#181818;stroke-width:0.5;" x1="494.34" x2="675.8332" y1="445.4869" y2="445.4869"/><text fill="#000000" font-family="sans-serif" font-size="14" lengthAdjust="spacing" textLength="171.4932" x="499.34" y="462.482">source=zipmaritalstatus</text><text fill="#000000" font-family="sans-serif" font-size="14" lengthAdjust="spacing" textLength="157.6982" x="499.34" y="478.7789">target=marriedexemp</text></g><!--class 8--><g id="elem_8"><rect codeLine="38" fill="#F1F1F1" height="72.5938" id="8" rx="2.5" ry="2.5" style="stroke:#181818;stroke-width:0.5;" width="148.6367" x="629.77" y="310.8969"/><ellipse cx="695.3847" cy="326.8969" fill="#DA70D6" rx="11" ry="11" style="stroke:#181818;stroke-width:1;"/><path d="M695.4941,322.475 Q694.5566,322.475 694.1191,323.475 Q693.6972,324.475 693.6972,326.7094 Q693.6972,328.9438 694.1191,329.9438 Q694.5566,330.9438 695.4941,330.9438 Q696.4472,330.9438 696.8691,329.9438 Q697.3066,328.9438 697.3066,326.7094 Q697.3066,324.475 696.8691,323.475 Q696.4472,322.475 695.4941,322.475 Z M691.1504,326.7094 Q691.1504,323.5375 692.2441,321.9125 Q693.3535,320.2719 695.4941,320.2719 Q697.6504,320.2719 698.7441,321.9125 Q699.8535,323.5375 699.8535,326.7094 Q699.8535,329.8813 698.7441,331.5063 Q697.6504,333.1313 695.4941,333.1313 Q693.3535,333.1313 692.2441,331.5063 Q691.1504,329.8813 691.1504,326.7094 Z " fill="#000000"/><text fill="#000000" font-family="sans-serif" font-size="14" lengthAdjust="spacing" textLength="8.9072" x="715.8847" y="331.7436">8</text><line style="stroke:#181818;stroke-width:0.5;" x1="630.77" x2="777.4067" y1="342.8969" y2="342.8969"/><text fill="#000000" font-family="sans-serif" font-size="14" lengthAdjust="spacing" textLength="136.6367" x="635.77" y="359.892">source=haschildzip</text><text fill="#000000" font-family="sans-serif" font-size="14" lengthAdjust="spacing" textLength="135.8164" x="635.77" y="376.1889">target=childexemp</text></g><!--class 11--><g id="elem_11"><rect codeLine="41" fill="#F1F1F1" height="80.5938" id="11" rx="2.5" ry="2.5" style="stroke:#181818;stroke-width:0.5;" width="56.6318" x="98.77" y="44.2969"/><ellipse cx="116.8378" cy="60.2969" fill="#DA70D6" rx="11" ry="11" style="stroke:#181818;stroke-width:1;"/><path d="M116.9472,55.875 Q116.0097,55.875 115.5722,56.875 Q115.1503,57.875 115.1503,60.1094 Q115.1503,62.3438 115.5722,63.3438 Q116.0097,64.3438 116.9472,64.3438 Q117.9003,64.3438 118.3222,63.3438 Q118.7597,62.3438 118.7597,60.1094 Q118.7597,57.875 118.3222,56.875 Q117.9003,55.875 116.9472,55.875 Z M112.6034,60.1094 Q112.6034,56.9375 113.6972,55.3125 Q114.8066,53.6719 116.9472,53.6719 Q119.1034,53.6719 120.1972,55.3125 Q121.3066,56.9375 121.3066,60.1094 Q121.3066,63.2813 120.1972,64.9063 Q119.1034,66.5313 116.9472,66.5313 Q114.8066,66.5313 113.6972,64.9063 Q112.6034,63.2813 112.6034,60.1094 Z " fill="#000000"/><text fill="#000000" font-family="sans-serif" font-size="14" lengthAdjust="spacing" textLength="17.8145" x="131.5196" y="65.1436">11</text><line style="stroke:#181818;stroke-width:0.5;" x1="99.77" x2="154.4018" y1="76.2969" y2="76.2969"/><text fill="#000000" font-family="sans-serif" font-size="14" lengthAdjust="spacing" textLength="44.6318" x="104.77" y="93.292">fname</text><line style="stroke:#181818;stroke-width:0.5;" x1="99.77" x2="154.4018" y1="100.5938" y2="100.5938"/><text fill="#000000" font-family="sans-serif" font-size="14" lengthAdjust="spacing" textLength="32.3203" x="104.77" y="117.5889">set()</text></g><!--class 12--><g id="elem_12"><rect codeLine="45" fill="#F1F1F1" height="80.5938" id="12" rx="2.5" ry="2.5" style="stroke:#181818;stroke-width:0.5;" width="55.5928" x="240.29" y="44.2969"/><ellipse cx="257.8902" cy="60.2969" fill="#DA70D6" rx="11" ry="11" style="stroke:#181818;stroke-width:1;"/><path d="M257.9996,55.875 Q257.0621,55.875 256.6246,56.875 Q256.2027,57.875 256.2027,60.1094 Q256.2027,62.3438 256.6246,63.3438 Q257.0621,64.3438 257.9996,64.3438 Q258.9527,64.3438 259.3746,63.3438 Q259.8121,62.3438 259.8121,60.1094 Q259.8121,57.875 259.3746,56.875 Q258.9527,55.875 257.9996,55.875 Z M253.6559,60.1094 Q253.6559,56.9375 254.7496,55.3125 Q255.859,53.6719 257.9996,53.6719 Q260.1559,53.6719 261.2496,55.3125 Q262.359,56.9375 262.359,60.1094 Q262.359,63.2813 261.2496,64.9063 Q260.1559,66.5313 257.9996,66.5313 Q255.859,66.5313 254.7496,64.9063 Q253.6559,63.2813 253.6559,60.1094 Z " fill="#000000"/><text fill="#000000" font-family="sans-serif" font-size="14" lengthAdjust="spacing" textLength="17.8145" x="272.4681" y="65.1436">12</text><line style="stroke:#181818;stroke-width:0.5;" x1="241.29" x2="294.8828" y1="76.2969" y2="76.2969"/><text fill="#000000" font-family="sans-serif" font-size="14" lengthAdjust="spacing" textLength="43.5928" x="246.29" y="93.292">lname</text><line style="stroke:#181818;stroke-width:0.5;" x1="241.29" x2="294.8828" y1="100.5938" y2="100.5938"/><text fill="#000000" font-family="sans-serif" font-size="14" lengthAdjust="spacing" textLength="32.3203" x="246.29" y="117.5889">set()</text></g><!--class 1--><g id="elem_1"><rect codeLine="50" fill="#F1F1F1" height="72.5938" id="1" rx="2.5" ry="2.5" style="stroke:#181818;stroke-width:0.5;" width="61.6289" x="380.27" y="48.2969"/><ellipse cx="404.5948" cy="64.2969" fill="#DA70D6" rx="11" ry="11" style="stroke:#181818;stroke-width:1;"/><path d="M404.7041,59.875 Q403.7666,59.875 403.3291,60.875 Q402.9073,61.875 402.9073,64.1094 Q402.9073,66.3438 403.3291,67.3438 Q403.7666,68.3438 404.7041,68.3438 Q405.6573,68.3438 406.0791,67.3438 Q406.5166,66.3438 406.5166,64.1094 Q406.5166,61.875 406.0791,60.875 Q405.6573,59.875 404.7041,59.875 Z M400.3604,64.1094 Q400.3604,60.9375 401.4541,59.3125 Q402.5635,57.6719 404.7041,57.6719 Q406.8604,57.6719 407.9541,59.3125 Q409.0635,60.9375 409.0635,64.1094 Q409.0635,67.2813 407.9541,68.9063 Q406.8604,70.5313 404.7041,70.5313 Q402.5635,70.5313 401.4541,68.9063 Q400.3604,67.2813 400.3604,64.1094 Z " fill="#000000"/><text fill="#000000" font-family="sans-serif" font-size="14" lengthAdjust="spacing" textLength="8.9072" x="420.6669" y="69.1436">1</text><line style="stroke:#181818;stroke-width:0.5;" x1="381.27" x2="440.8989" y1="80.2969" y2="80.2969"/><text fill="#000000" font-family="sans-serif" font-size="14" lengthAdjust="spacing" textLength="49.6289" x="386.27" y="97.292">gender</text><text fill="#000000" font-family="sans-serif" font-size="14" lengthAdjust="spacing" textLength="35.7725" x="386.27" y="113.5889">[M|F]</text></g><!--class 2--><g id="elem_2"><rect codeLine="55" fill="#F1F1F1" height="72.5938" id="2" rx="2.5" ry="2.5" style="stroke:#181818;stroke-width:0.5;" width="77.29" x="526.44" y="48.2969"/><ellipse cx="557.8123" cy="64.2969" fill="#DA70D6" rx="11" ry="11" style="stroke:#181818;stroke-width:1;"/><path d="M557.9216,59.875 Q556.9841,59.875 556.5466,60.875 Q556.1248,61.875 556.1248,64.1094 Q556.1248,66.3438 556.5466,67.3438 Q556.9841,68.3438 557.9216,68.3438 Q558.8748,68.3438 559.2966,67.3438 Q559.7341,66.3438 559.7341,64.1094 Q559.7341,61.875 559.2966,60.875 Q558.8748,59.875 557.9216,59.875 Z M553.5779,64.1094 Q553.5779,60.9375 554.6716,59.3125 Q555.781,57.6719 557.9216,57.6719 Q560.0779,57.6719 561.1716,59.3125 Q562.281,60.9375 562.281,64.1094 Q562.281,67.2813 561.1716,68.9063 Q560.0779,70.5313 557.9216,70.5313 Q555.781,70.5313 554.6716,68.9063 Q553.5779,67.2813 553.5779,64.1094 Z " fill="#000000"/><text fill="#000000" font-family="sans-serif" font-size="14" lengthAdjust="spacing" textLength="8.9072" x="575.4505" y="69.1436">2</text><line style="stroke:#181818;stroke-width:0.5;" x1="527.44" x2="602.73" y1="80.2969" y2="80.2969"/><text fill="#000000" font-family="sans-serif" font-size="14" lengthAdjust="spacing" textLength="65.29" x="532.44" y="97.292">areacode</text><text fill="#000000" font-family="sans-serif" font-size="14" lengthAdjust="spacing" textLength="60.5117" x="532.44" y="113.5889">[0-9]{3}</text></g><!--class 3--><g id="elem_3"><rect codeLine="60" fill="#F1F1F1" height="72.5938" id="3" rx="2.5" ry="2.5" style="stroke:#181818;stroke-width:0.5;" width="73.8652" x="688.15" y="48.2969"/><ellipse cx="717.9811" cy="64.2969" fill="#DA70D6" rx="11" ry="11" style="stroke:#181818;stroke-width:1;"/><path d="M718.0905,59.875 Q717.153,59.875 716.7155,60.875 Q716.2936,61.875 716.2936,64.1094 Q716.2936,66.3438 716.7155,67.3438 Q717.153,68.3438 718.0905,68.3438 Q719.0436,68.3438 719.4655,67.3438 Q719.903,66.3438 719.903,64.1094 Q719.903,61.875 719.4655,60.875 Q719.0436,59.875 718.0905,59.875 Z M713.7467,64.1094 Q713.7467,60.9375 714.8405,59.3125 Q715.9499,57.6719 718.0905,57.6719 Q720.2467,57.6719 721.3405,59.3125 Q722.4499,60.9375 722.4499,64.1094 Q722.4499,67.2813 721.3405,68.9063 Q720.2467,70.5313 718.0905,70.5313 Q715.9499,70.5313 714.8405,68.9063 Q713.7467,67.2813 713.7467,64.1094 Z " fill="#000000"/><text fill="#000000" font-family="sans-serif" font-size="14" lengthAdjust="spacing" textLength="8.9072" x="735.2769" y="69.1436">3</text><line style="stroke:#181818;stroke-width:0.5;" x1="689.15" x2="761.0152" y1="80.2969" y2="80.2969"/><text fill="#000000" font-family="sans-serif" font-size="14" lengthAdjust="spacing" textLength="35.4648" x="694.15" y="97.292">state</text><text fill="#000000" font-family="sans-serif" font-size="14" lengthAdjust="spacing" textLength="61.8652" x="694.15" y="113.5889">[A-Z]{2}</text></g><!--class level_2_end--><g id="elem_level_2_end"><rect fill="#F1F1F1" height="32" id="level_2_end" rx="2.5" ry="2.5" style="stroke:#181818;stroke-width:0.5;" width="114.5713" x="335.8" y="665.6769"/><ellipse cx="350.8" cy="681.6769" fill="#ADD1B2" rx="11" ry="11" style="stroke:#181818;stroke-width:1;"/><path d="M353.7688,687.3175 Q353.1906,687.6144 352.55,687.755 Q351.9094,687.9113 351.2063,687.9113 Q348.7063,687.9113 347.3781,686.2706 Q346.0656,684.6144 346.0656,681.4894 Q346.0656,678.3644 347.3781,676.7081 Q348.7063,675.0519 351.2063,675.0519 Q351.9094,675.0519 352.55,675.2081 Q353.2063,675.3644 353.7688,675.6613 L353.7688,678.38 Q353.1438,677.8019 352.55,677.5363 Q351.9563,677.255 351.3313,677.255 Q349.9875,677.255 349.3,678.3331 Q348.6125,679.3956 348.6125,681.4894 Q348.6125,683.5831 349.3,684.6613 Q349.9875,685.7238 351.3313,685.7238 Q351.9563,685.7238 352.55,685.4581 Q353.1438,685.1769 353.7688,684.5988 L353.7688,687.3175 Z " fill="#000000"/><text fill="#000000" font-family="sans-serif" font-size="14" lengthAdjust="spacing" textLength="82.5713" x="364.8" y="686.5236">level_2_end</text></g><!--link 11 to SINGLE_END--><g id="link_11_SINGLE_END"><path codeLine="44" d="M155.86,100.0969 C190.88,117.6169 251.93,147.7469 305.09,171.8969 C327.66,182.1469 347.6914,190.7196 368.0714,199.2096 " fill="none" id="11-to-SINGLE_END" style="stroke:#181818;stroke-width:1;"/><polygon fill="#181818" points="373.61,201.5169,366.8403,194.3635,368.9945,199.5941,363.7639,201.7483,373.61,201.5169" style="stroke:#181818;stroke-width:1;"/><text fill="#000000" font-family="sans-serif" font-size="13" lengthAdjust="spacing" textLength="29.0278" x="306.09" y="167.9638">next</text></g><!--link 11 to 12--><g id="link_11_12"><path codeLine="48" d="M161.62,84.5969 C186.24,84.5969 209.61,84.5969 234.08,84.5969 " fill="none" id="11-12" style="stroke:#181818;stroke-width:1;"/><polygon fill="#181818" points="155.62,84.5969,164.62,88.5969,160.62,84.5969,164.62,80.5969,155.62,84.5969" style="stroke:#181818;stroke-width:1;"/><polygon fill="#181818" points="240.08,84.5969,231.08,80.5969,235.08,84.5969,231.08,88.5969,240.08,84.5969" style="stroke:#181818;stroke-width:1;"/><text fill="#000000" font-family="sans-serif" font-size="13" lengthAdjust="spacing" textLength="48.3628" x="173.85" y="77.6638">parallel</text></g><!--link 12 to SINGLE_END--><g id="link_12_SINGLE_END"><path codeLine="49" d="M296.34,111.5369 C325.64,138.4469 366.051,175.5383 390.081,197.6083 " fill="none" id="12-to-SINGLE_END" style="stroke:#181818;stroke-width:1;"/><polygon fill="#181818" points="394.5,201.6669,390.5772,192.633,390.8175,198.2847,385.1657,198.525,394.5,201.6669" style="stroke:#181818;stroke-width:1;"/><text fill="#000000" font-family="sans-serif" font-size="13" lengthAdjust="spacing" textLength="29.0278" x="362.09" y="167.9638">next</text></g><!--link 12 to 1--><g id="link_12_1"><path codeLine="53" d="M302.34,84.5969 C326.43,84.5969 349.02,84.5969 373.91,84.5969 " fill="none" id="12-1" style="stroke:#181818;stroke-width:1;"/><polygon fill="#181818" points="296.34,84.5969,305.34,88.5969,301.34,84.5969,305.34,80.5969,296.34,84.5969" style="stroke:#181818;stroke-width:1;"/><polygon fill="#181818" points="379.91,84.5969,370.91,80.5969,374.91,84.5969,370.91,88.5969,379.91,84.5969" style="stroke:#181818;stroke-width:1;"/><text fill="#000000" font-family="sans-serif" font-size="13" lengthAdjust="spacing" textLength="48.3628" x="314.08" y="77.6638">parallel</text></g><!--link 1 to SINGLE_END--><g id="link_1_SINGLE_END"><path codeLine="54" d="M411.09,121.1269 C411.09,147.4069 411.09,175.9069 411.09,195.5069 " fill="none" id="1-to-SINGLE_END" style="stroke:#181818;stroke-width:1;"/><polygon fill="#181818" points="411.09,201.5069,415.09,192.5069,411.09,196.5069,407.09,192.5069,411.09,201.5069" style="stroke:#181818;stroke-width:1;"/><text fill="#000000" font-family="sans-serif" font-size="13" lengthAdjust="spacing" textLength="29.0278" x="412.09" y="167.9638">next</text></g><!--link 1 to 2--><g id="link_1_2"><path codeLine="58" d="M448.25,84.5969 C472.42,84.5969 494.06,84.5969 520.03,84.5969 " fill="none" id="1-2" style="stroke:#181818;stroke-width:1;"/><polygon fill="#181818" points="442.25,84.5969,451.25,88.5969,447.25,84.5969,451.25,80.5969,442.25,84.5969" style="stroke:#181818;stroke-width:1;"/><polygon fill="#181818" points="526.03,84.5969,517.03,80.5969,521.03,84.5969,517.03,88.5969,526.03,84.5969" style="stroke:#181818;stroke-width:1;"/><text fill="#000000" font-family="sans-serif" font-size="13" lengthAdjust="spacing" textLength="48.3628" x="460.17" y="77.6638">parallel</text></g><!--link 2 to SINGLE_END--><g id="link_2_SINGLE_END"><path codeLine="59" d="M526.23,118.7269 C495.04,145.3169 457.2557,177.534 433.5757,197.724 " fill="none" id="2-to-SINGLE_END" style="stroke:#181818;stroke-width:1;"/><polygon fill="#181818" points="429.01,201.6169,438.4538,198.8215,432.8148,198.3729,433.2634,192.7338,429.01,201.6169" style="stroke:#181818;stroke-width:1;"/><text fill="#000000" font-family="sans-serif" font-size="13" lengthAdjust="spacing" textLength="29.0278" x="485.09" y="167.9638">next</text></g><!--link 2 to 3--><g id="link_2_3"><path codeLine="63" d="M610.23,84.5969 C635.67,84.5969 656.65,84.5969 681.73,84.5969 " fill="none" id="2-3" style="stroke:#181818;stroke-width:1;"/><polygon fill="#181818" points="604.23,84.5969,613.23,88.5969,609.23,84.5969,613.23,80.5969,604.23,84.5969" style="stroke:#181818;stroke-width:1;"/><polygon fill="#181818" points="687.73,84.5969,678.73,80.5969,682.73,84.5969,678.73,88.5969,687.73,84.5969" style="stroke:#181818;stroke-width:1;"/><text fill="#000000" font-family="sans-serif" font-size="13" lengthAdjust="spacing" textLength="48.3628" x="621.94" y="77.6638">parallel</text></g><!--link 3 to SINGLE_END--><g id="link_3_SINGLE_END"><path codeLine="64" d="M687.96,101.7469 C647.51,119.2669 580.86,147.9469 523.09,171.8969 C498.89,181.9269 477.1934,190.6648 455.6234,199.2648 " fill="none" id="3-to-SINGLE_END" style="stroke:#181818;stroke-width:1;"/><polygon fill="#181818" points="450.05,201.4869,459.8914,201.8693,454.6945,199.6351,456.9286,194.4381,450.05,201.4869" style="stroke:#181818;stroke-width:1;"/><text fill="#000000" font-family="sans-serif" font-size="13" lengthAdjust="spacing" textLength="29.0278" x="563.09" y="167.9638">next</text></g><!--link SINGLE_END to 7--><g id="link_SINGLE_END_7"><path codeLine="65" d="M350.61,222.5169 C309.73,227.3269 255.97,238.4069 215.09,263.8969 C155.28,301.1769 111.6054,365.6239 87.0954,407.9739 " fill="none" id="SINGLE_END-to-7" style="stroke:#181818;stroke-width:1;"/><polygon fill="#181818" points="84.09,413.1669,92.0602,407.381,86.5945,408.8394,85.1362,403.3737,84.09,413.1669" style="stroke:#181818;stroke-width:1;"/><text fill="#000000" font-family="sans-serif" font-size="13" lengthAdjust="spacing" textLength="29.0278" x="216.09" y="276.9638">next</text></g><!--link 7 to level_2_end--><g id="link_7_level_2_end"><path codeLine="66" d="M74.92,486.3069 C84.6,516.2569 101.8,558.8669 128.09,588.6769 C180.92,648.5769 268.8529,668.7711 329.5229,676.0611 " fill="none" id="7-to-level_2_end" style="stroke:#181818;stroke-width:1;"/><polygon fill="#181818" points="335.48,676.7769,327.0215,671.7317,330.5157,676.1804,326.0671,679.6746,335.48,676.7769" style="stroke:#181818;stroke-width:1;"/><text fill="#000000" font-family="sans-serif" font-size="13" lengthAdjust="spacing" textLength="29.0278" x="129.09" y="556.9438">next</text></g><!--link SINGLE_END to 6--><g id="link_SINGLE_END_6"><path codeLine="67" d="M350.69,234.0069 C308.67,247.5069 254.42,271.4069 221.09,310.8969 C196.73,339.7469 187.9233,376.7919 184.1933,407.0819 " fill="none" id="SINGLE_END-to-6" style="stroke:#181818;stroke-width:1;"/><polygon fill="#181818" points="183.46,413.0369,188.53,404.5932,184.0711,408.0744,180.59,403.6155,183.46,413.0369" style="stroke:#181818;stroke-width:1;"/><text fill="#000000" font-family="sans-serif" font-size="13" lengthAdjust="spacing" textLength="29.0278" x="279.09" y="276.9638">next</text></g><!--link 6 to level_2_end--><g id="link_6_level_2_end"><path codeLine="68" d="M171.34,486.4169 C165.38,516.2369 162.24,558.6069 182.09,588.6769 C215.99,640.0369 279.578,661.7129 329.558,671.7729 " fill="none" id="6-to-level_2_end" style="stroke:#181818;stroke-width:1;"/><polygon fill="#181818" points="335.44,672.9569,327.4062,667.2596,330.5383,671.9703,325.8277,675.1023,335.44,672.9569" style="stroke:#181818;stroke-width:1;"/><text fill="#000000" font-family="sans-serif" font-size="13" lengthAdjust="spacing" textLength="29.0278" x="183.09" y="556.9438">next</text></g><!--link SINGLE_END to 5--><g id="link_SINGLE_END_5"><path codeLine="69" d="M398.63,233.9969 C383.15,252.7669 360.0482,280.7785 339.2182,306.0285 " fill="none" id="SINGLE_END-to-5" style="stroke:#181818;stroke-width:1;"/><polygon fill="#181818" points="335.4,310.6569,344.2128,306.2598,338.5818,306.7999,338.0417,301.1689,335.4,310.6569" style="stroke:#181818;stroke-width:1;"/><text fill="#000000" font-family="sans-serif" font-size="13" lengthAdjust="spacing" textLength="29.0278" x="372.09" y="276.9638">next</text></g><!--link 5 to 4--><g id="link_5_4"><path codeLine="70" d="M301.91,383.5869 C297.53,420.6469 291.3939,472.5883 287.0039,509.7483 " fill="none" id="5-to-4" style="stroke:#181818;stroke-width:1;"/><polygon fill="#181818" points="286.3,515.7069,291.3283,507.2383,286.8866,510.7414,283.3835,506.2997,286.3,515.7069" style="stroke:#181818;stroke-width:1;"/><text fill="#000000" font-family="sans-serif" font-size="13" lengthAdjust="spacing" textLength="29.0278" x="300.09" y="454.3538">next</text></g><!--link 4 to level_2_end--><g id="link_4_level_2_end"><path codeLine="71" d="M313.01,588.8369 C334.94,613.9969 359.3668,642.0046 375.7768,660.8246 " fill="none" id="4-to-level_2_end" style="stroke:#181818;stroke-width:1;"/><polygon fill="#181818" points="379.72,665.3469,376.8201,655.9346,376.434,661.5783,370.7903,661.1922,379.72,665.3469" style="stroke:#181818;stroke-width:1;"/><text fill="#000000" font-family="sans-serif" font-size="13" lengthAdjust="spacing" textLength="29.0278" x="352.09" y="631.7438">next</text></g><!--link SINGLE_END to 9--><g id="link_SINGLE_END_9"><path codeLine="72" d="M413.32,234.0469 C420.67,283.9069 443.3553,437.871 453.9553,509.801 " fill="none" id="SINGLE_END-to-9" style="stroke:#181818;stroke-width:1;"/><polygon fill="#181818" points="454.83,515.7369,457.4751,506.2499,454.101,510.7903,449.5606,507.4162,454.83,515.7369" style="stroke:#181818;stroke-width:1;"/><text fill="#000000" font-family="sans-serif" font-size="13" lengthAdjust="spacing" textLength="29.0278" x="436.09" y="351.7638">next</text></g><!--link 9 to level_2_end--><g id="link_9_level_2_end"><path codeLine="73" d="M441.42,588.8369 C428.18,613.9969 413.8555,641.2179 403.9455,660.0379 " fill="none" id="9-to-level_2_end" style="stroke:#181818;stroke-width:1;"/><polygon fill="#181818" points="401.15,665.3469,408.8826,659.2471,403.4796,660.9227,401.804,655.5198,401.15,665.3469" style="stroke:#181818;stroke-width:1;"/><text fill="#000000" font-family="sans-serif" font-size="13" lengthAdjust="spacing" textLength="29.0278" x="426.09" y="631.7438">next</text></g><!--link SINGLE_END to 10--><g id="link_SINGLE_END_10"><path codeLine="74" d="M436.31,234.2469 C448.05,242.1669 461.68,252.5469 472.09,263.8969 C514.16,309.7969 546.4068,368.2354 565.8268,407.6254 " fill="none" id="SINGLE_END-to-10" style="stroke:#181818;stroke-width:1;"/><polygon fill="#181818" points="568.48,413.0069,568.0879,403.1658,566.269,408.5223,560.9126,406.7034,568.48,413.0069" style="stroke:#181818;stroke-width:1;"/><text fill="#000000" font-family="sans-serif" font-size="13" lengthAdjust="spacing" textLength="29.0278" x="487.09" y="276.9638">next</text></g><!--link 10 to level_2_end--><g id="link_10_level_2_end"><path codeLine="75" d="M589.64,486.5169 C591.55,516.3869 589.64,558.7869 569.09,588.6769 C541.45,628.8769 496.2825,650.8508 456.3225,664.1608 " fill="none" id="10-to-level_2_end" style="stroke:#181818;stroke-width:1;"/><polygon fill="#181818" points="450.63,666.0569,460.4328,667.0078,455.3738,664.4768,457.9047,659.4177,450.63,666.0569" style="stroke:#181818;stroke-width:1;"/><text fill="#000000" font-family="sans-serif" font-size="13" lengthAdjust="spacing" textLength="29.0278" x="591.09" y="556.9438">next</text></g><!--link SINGLE_END to 8--><g id="link_SINGLE_END_8"><path codeLine="76" d="M471.53,227.1269 C508.75,233.7369 556.7,245.1169 596.09,263.8969 C621.2,275.8669 641.4999,290.4347 661.0599,306.8147 " fill="none" id="SINGLE_END-to-8" style="stroke:#181818;stroke-width:1;"/><polygon fill="#181818" points="665.66,310.6669,661.328,301.8219,661.8266,307.4567,656.1918,307.9553,665.66,310.6669" style="stroke:#181818;stroke-width:1;"/><text fill="#000000" font-family="sans-serif" font-size="13" lengthAdjust="spacing" textLength="29.0278" x="627.09" y="276.9638">next</text></g><!--link 8 to level_2_end--><g id="link_8_level_2_end"><path codeLine="77" d="M706.21,383.9669 C706.78,412.3569 705.1,452.6869 694.09,486.0869 C677.18,537.3469 667.12,550.3669 629.09,588.6769 C580.75,637.3669 509.5653,659.6602 456.7353,670.6002 " fill="none" id="8-to-level_2_end" style="stroke:#181818;stroke-width:1;"/><polygon fill="#181818" points="450.86,671.8169,460.4841,673.9088,455.7561,670.803,458.8619,666.075,450.86,671.8169" style="stroke:#181818;stroke-width:1;"/><text fill="#000000" font-family="sans-serif" font-size="13" lengthAdjust="spacing" textLength="29.0278" x="684.09" y="556.9438">next</text></g><!--SRC=[bLDDYnCn6BxdLyIJ7N2Wtn_IBMphAiAw1RrPIWcJjzEmcKb9KhThBGXw4V47w5dmjk1D4Vqrbkg_C4axxKnPIpkdpFCrpoHvxr0OiXZmKmXqTmoIQ25pKmy7d2Y5fxZPnBdkFInaC6BKmwqMGkgInMCYIOIbCP4uv81d29kdJOBBK8f9J3k22zbiTbijVCx2aMxp2QmaGbAGZiPjRlGEFPLINAN1EKAQQHFS4KGgy4D9J4kAEnn831AVJI6OQ2PYtBLvjhw88eWfiI12TvTVVlpz-Fdtz_UBTn-MdzuklhrPV7tzv-RNykSDCdy26AAnliOKL23Ps9bIS0Hw9AXAGqC6t20eir7F7byyEZyRd5qyy7OO3Y-03me3KscNgdceXkzZ9IOoW9DXJ29mW2Oo17qI6Wl8hANgeUhMyfADtUlQ431zdPMNFLJEoijRkT94GrPVyL1bgoSII20eEEp_feQ76fcFH4GoJRYLJfJZ4ZEpTmIcPYEp4OMyXmhvFI6ENASOHZAWjyJKFLJVXeo8CdULK_lRzTGkMUos3WNJeM1qguDmImKwvr2VYglOR-7jEHisXgdUoIWQTT5GV9LHJ6SqVMadmAGut4uEvy2jwj1uasE8zSMmozwJLm_xDY4Ldia-DDeKjwKsHsvVUdc_qP-LvYZTFLFzuEOb3vNiNhZROrUzK_zvVrQSetJrKZgxj2SxXIIYMiBLDj1gz8fszFOOgmbNFT9OIRZA1YedKFd8h4R2DOuqki5mf5aTPwqdN7sFyHy0]--></g></svg>