<svg xmlns="http://www.w3.org/2000/svg" xmlns:xlink="http://www.w3.org/1999/xlink" contentStyleType="text/css" height="750px" preserveAspectRatio="none" style="width:891px;height:750px;background:#FFFFFF;" version="1.1" viewBox="0 0 891 750" width="891px" zoomAndPan="magnify"><title>Coarse-grained Cleaner Execution Order Recommendation</title><defs/><g><text fill="#000000" font-family="sans-serif" font-size="14" font-weight="bold" lengthAdjust="spacing" textLength="460.4482" x="208.3065" y="22.9951">Coarse-grained Cleaner Execution Order Recommendation</text><!--class SINGLE_END--><g id="elem_SINGLE_END"><rect codeLine="16" fill="#F1F1F1" height="32" id="SINGLE_END" rx="2.5" ry="2.5" style="stroke:#181818;stroke-width:0.5;" width="120.0811" x="392.3" y="193.8869"/><ellipse cx="407.3" cy="209.8869" fill="#DA70D6" rx="11" ry="11" style="stroke:#181818;stroke-width:1;"/><path d="M407.4094,205.465 Q406.4719,205.465 406.0344,206.465 Q405.6125,207.465 405.6125,209.6994 Q405.6125,211.9337 406.0344,212.9337 Q406.4719,213.9337 407.4094,213.9337 Q408.3625,213.9337 408.7844,212.9337 Q409.2219,211.9337 409.2219,209.6994 Q409.2219,207.465 408.7844,206.465 Q408.3625,205.465 407.4094,205.465 Z M403.0656,209.6994 Q403.0656,206.5275 404.1594,204.9025 Q405.2688,203.2619 407.4094,203.2619 Q409.5656,203.2619 410.6594,204.9025 Q411.7688,206.5275 411.7688,209.6994 Q411.7688,212.8712 410.6594,214.4962 Q409.5656,216.1212 407.4094,216.1212 Q405.2688,216.1212 404.1594,214.4962 Q403.0656,212.8712 403.0656,209.6994 Z " fill="#000000"/><text fill="#000000" font-family="sans-serif" font-size="14" lengthAdjust="spacing" textLength="88.0811" x="421.3" y="214.7336">SINGLE_END</text></g><!--class level_1_end--><g id="elem_level_1_end"><rect codeLine="18" fill="#F1F1F1" height="32" id="level_1_end" rx="2.5" ry="2.5" style="stroke:#181818;stroke-width:0.5;" width="114.5713" x="523.05" y="64.5969"/><ellipse cx="538.05" cy="80.5969" fill="#DA70D6" rx="11" ry="11" style="stroke:#181818;stroke-width:1;"/><path d="M538.1594,76.175 Q537.2219,76.175 536.7844,77.175 Q536.3625,78.175 536.3625,80.4094 Q536.3625,82.6437 536.7844,83.6437 Q537.2219,84.6437 538.1594,84.6437 Q539.1125,84.6437 539.5344,83.6437 Q539.9719,82.6437 539.9719,80.4094 Q539.9719,78.175 539.5344,77.175 Q539.1125,76.175 538.1594,76.175 Z M533.8156,80.4094 Q533.8156,77.2375 534.9094,75.6125 Q536.0188,73.9719 538.1594,73.9719 Q540.3156,73.9719 541.4094,75.6125 Q542.5188,77.2375 542.5188,80.4094 Q542.5188,83.5812 541.4094,85.2062 Q540.3156,86.8312 538.1594,86.8312 Q536.0188,86.8312 534.9094,85.2062 Q533.8156,83.5812 533.8156,80.4094 Z " fill="#000000"/><text fill="#000000" font-family="sans-serif" font-size="14" lengthAdjust="spacing" textLength="82.5713" x="552.05" y="85.4436">level_1_end</text></g><!--class level_2_end--><g id="elem_level_2_end"><rect codeLine="20" fill="#F1F1F1" height="32" id="level_2_end" rx="2.5" ry="2.5" style="stroke:#181818;stroke-width:0.5;" width="114.5713" x="395.05" y="452.4869"/><ellipse cx="410.05" cy="468.4869" fill="#DA70D6" rx="11" ry="11" style="stroke:#181818;stroke-width:1;"/><path d="M410.1594,464.065 Q409.2219,464.065 408.7844,465.065 Q408.3625,466.065 408.3625,468.2994 Q408.3625,470.5338 408.7844,471.5338 Q409.2219,472.5338 410.1594,472.5338 Q411.1125,472.5338 411.5344,471.5338 Q411.9719,470.5338 411.9719,468.2994 Q411.9719,466.065 411.5344,465.065 Q411.1125,464.065 410.1594,464.065 Z M405.8156,468.2994 Q405.8156,465.1275 406.9094,463.5025 Q408.0188,461.8619 410.1594,461.8619 Q412.3156,461.8619 413.4094,463.5025 Q414.5188,465.1275 414.5188,468.2994 Q414.5188,471.4713 413.4094,473.0963 Q412.3156,474.7213 410.1594,474.7213 Q408.0188,474.7213 406.9094,473.0963 Q405.8156,471.4713 405.8156,468.2994 Z " fill="#000000"/><text fill="#000000" font-family="sans-serif" font-size="14" lengthAdjust="spacing" textLength="82.5713" x="424.05" y="473.3336">level_2_end</text></g><!--class 6--><g id="elem_6"><rect codeLine="22" fill="#F1F1F1" height="72.5938" id="6" rx="2.5" ry="2.5" style="stroke:#181818;stroke-width:0.5;" width="182.6729" x="7" y="302.8869"/><ellipse cx="89.6328" cy="318.8869" fill="#DA70D6" rx="11" ry="11" style="stroke:#181818;stroke-width:1;"/><path d="M89.7422,314.465 Q88.8047,314.465 88.3672,315.465 Q87.9453,316.465 87.9453,318.6994 Q87.9453,320.9338 88.3672,321.9338 Q88.8047,322.9338 89.7422,322.9338 Q90.6953,322.9338 91.1172,321.9338 Q91.5547,320.9338 91.5547,318.6994 Q91.5547,316.465 91.1172,315.465 Q90.6953,314.465 89.7422,314.465 Z M85.3984,318.6994 Q85.3984,315.5275 86.4922,313.9025 Q87.6016,312.2619 89.7422,312.2619 Q91.8984,312.2619 92.9922,313.9025 Q94.1016,315.5275 94.1016,318.6994 Q94.1016,321.8713 92.9922,323.4963 Q91.8984,325.1213 89.7422,325.1213 Q87.6016,325.1213 86.4922,323.4963 Q85.3984,321.8713 85.3984,318.6994 Z " fill="#000000"/><text fill="#000000" font-family="sans-serif" font-size="14" lengthAdjust="spacing" textLength="8.9072" x="110.1328" y="323.7336">6</text><line style="stroke:#181818;stroke-width:0.5;" x1="8" x2="188.6729" y1="334.8869" y2="334.8869"/><text fill="#000000" font-family="sans-serif" font-size="14" lengthAdjust="spacing" textLength="170.6729" x="13" y="351.882">source=seasonmanager</text><text fill="#000000" font-family="sans-serif" font-size="14" lengthAdjust="spacing" textLength="90.8633" x="13" y="368.1789">target=team</text></g><!--class 1--><g id="elem_1"><rect codeLine="25" fill="#F1F1F1" height="72.5938" id="1" rx="2.5" ry="2.5" style="stroke:#181818;stroke-width:0.5;" width="128.1699" x="224.25" y="302.8869"/><ellipse cx="279.6313" cy="318.8869" fill="#DA70D6" rx="11" ry="11" style="stroke:#181818;stroke-width:1;"/><path d="M279.7407,314.465 Q278.8032,314.465 278.3657,315.465 Q277.9438,316.465 277.9438,318.6994 Q277.9438,320.9338 278.3657,321.9338 Q278.8032,322.9338 279.7407,322.9338 Q280.6938,322.9338 281.1157,321.9338 Q281.5532,320.9338 281.5532,318.6994 Q281.5532,316.465 281.1157,315.465 Q280.6938,314.465 279.7407,314.465 Z M275.397,318.6994 Q275.397,315.5275 276.4907,313.9025 Q277.6001,312.2619 279.7407,312.2619 Q281.897,312.2619 282.9907,313.9025 Q284.1001,315.5275 284.1001,318.6994 Q284.1001,321.8713 282.9907,323.4963 Q281.897,325.1213 279.7407,325.1213 Q277.6001,325.1213 276.4907,323.4963 Q275.397,321.8713 275.397,318.6994 Z " fill="#000000"/><text fill="#000000" font-family="sans-serif" font-size="14" lengthAdjust="spacing" textLength="8.9072" x="300.1313" y="323.7336">1</text><line style="stroke:#181818;stroke-width:0.5;" x1="225.25" x2="351.4199" y1="334.8869" y2="334.8869"/><text fill="#000000" font-family="sans-serif" font-size="14" lengthAdjust="spacing" textLength="98.2324" x="230.25" y="351.882">source=name</text><text fill="#000000" font-family="sans-serif" font-size="14" lengthAdjust="spacing" textLength="116.1699" x="230.25" y="368.1789">target=surname</text></g><!--class 2--><g id="elem_2"><rect codeLine="28" fill="#F1F1F1" height="72.5938" id="2" rx="2.5" ry="2.5" style="stroke:#181818;stroke-width:0.5;" width="130.6719" x="387" y="302.8869"/><ellipse cx="443.6323" cy="318.8869" fill="#DA70D6" rx="11" ry="11" style="stroke:#181818;stroke-width:1;"/><path d="M443.7417,314.465 Q442.8042,314.465 442.3667,315.465 Q441.9448,316.465 441.9448,318.6994 Q441.9448,320.9338 442.3667,321.9338 Q442.8042,322.9338 443.7417,322.9338 Q444.6948,322.9338 445.1167,321.9338 Q445.5542,320.9338 445.5542,318.6994 Q445.5542,316.465 445.1167,315.465 Q444.6948,314.465 443.7417,314.465 Z M439.3979,318.6994 Q439.3979,315.5275 440.4917,313.9025 Q441.6011,312.2619 443.7417,312.2619 Q445.8979,312.2619 446.9917,313.9025 Q448.1011,315.5275 448.1011,318.6994 Q448.1011,321.8713 446.9917,323.4963 Q445.8979,325.1213 443.7417,325.1213 Q441.6011,325.1213 440.4917,323.4963 Q439.3979,321.8713 439.3979,318.6994 Z " fill="#000000"/><text fill="#000000" font-family="sans-serif" font-size="14" lengthAdjust="spacing" textLength="8.9072" x="464.1323" y="323.7336">2</text><line style="stroke:#181818;stroke-width:0.5;" x1="388" x2="516.6719" y1="334.8869" y2="334.8869"/><text fill="#000000" font-family="sans-serif" font-size="14" lengthAdjust="spacing" textLength="98.2324" x="393" y="351.882">source=name</text><text fill="#000000" font-family="sans-serif" font-size="14" lengthAdjust="spacing" textLength="118.6719" x="393" y="368.1789">target=birthyear</text></g><!--class 3--><g id="elem_3"><rect codeLine="31" fill="#F1F1F1" height="72.5938" id="3" rx="2.5" ry="2.5" style="stroke:#181818;stroke-width:0.5;" width="137.1045" x="552.78" y="302.8869"/><ellipse cx="612.6286" cy="318.8869" fill="#DA70D6" rx="11" ry="11" style="stroke:#181818;stroke-width:1;"/><path d="M612.738,314.465 Q611.8005,314.465 611.363,315.465 Q610.9411,316.465 610.9411,318.6994 Q610.9411,320.9338 611.363,321.9338 Q611.8005,322.9338 612.738,322.9338 Q613.6911,322.9338 614.113,321.9338 Q614.5505,320.9338 614.5505,318.6994 Q614.5505,316.465 614.113,315.465 Q613.6911,314.465 612.738,314.465 Z M608.3943,318.6994 Q608.3943,315.5275 609.488,313.9025 Q610.5974,312.2619 612.738,312.2619 Q614.8943,312.2619 615.988,313.9025 Q617.0974,315.5275 617.0974,318.6994 Q617.0974,321.8713 615.988,323.4963 Q614.8943,325.1213 612.738,325.1213 Q610.5974,325.1213 609.488,323.4963 Q608.3943,321.8713 608.3943,318.6994 Z " fill="#000000"/><text fill="#000000" font-family="sans-serif" font-size="14" lengthAdjust="spacing" textLength="8.9072" x="633.1286" y="323.7336">3</text><line style="stroke:#181818;stroke-width:0.5;" x1="553.78" x2="688.8845" y1="334.8869" y2="334.8869"/><text fill="#000000" font-family="sans-serif" font-size="14" lengthAdjust="spacing" textLength="98.2324" x="558.78" y="351.882">source=name</text><text fill="#000000" font-family="sans-serif" font-size="14" lengthAdjust="spacing" textLength="125.1045" x="558.78" y="368.1789">target=birthplace</text></g><!--class 4--><g id="elem_4"><rect codeLine="34" fill="#F1F1F1" height="72.5938" id="4" rx="2.5" ry="2.5" style="stroke:#181818;stroke-width:0.5;" width="159.4512" x="724.61" y="302.8869"/><ellipse cx="795.632" cy="318.8869" fill="#DA70D6" rx="11" ry="11" style="stroke:#181818;stroke-width:1;"/><path d="M795.7413,314.465 Q794.8038,314.465 794.3663,315.465 Q793.9445,316.465 793.9445,318.6994 Q793.9445,320.9338 794.3663,321.9338 Q794.8038,322.9338 795.7413,322.9338 Q796.6945,322.9338 797.1163,321.9338 Q797.5538,320.9338 797.5538,318.6994 Q797.5538,316.465 797.1163,315.465 Q796.6945,314.465 795.7413,314.465 Z M791.3976,318.6994 Q791.3976,315.5275 792.4913,313.9025 Q793.6007,312.2619 795.7413,312.2619 Q797.8976,312.2619 798.9913,313.9025 Q800.1007,315.5275 800.1007,318.6994 Q800.1007,321.8713 798.9913,323.4963 Q797.8976,325.1213 795.7413,325.1213 Q793.6007,325.1213 792.4913,323.4963 Q791.3976,321.8713 791.3976,318.6994 Z " fill="#000000"/><text fill="#000000" font-family="sans-serif" font-size="14" lengthAdjust="spacing" textLength="8.9072" x="816.132" y="323.7336">4</text><line style="stroke:#181818;stroke-width:0.5;" x1="725.61" x2="883.0612" y1="334.8869" y2="334.8869"/><text fill="#000000" font-family="sans-serif" font-size="14" lengthAdjust="spacing" textLength="147.4512" x="730.61" y="351.882">source=nameseason</text><text fill="#000000" font-family="sans-serif" font-size="14" lengthAdjust="spacing" textLength="109.9971" x="730.61" y="368.1789">target=position</text></g><!--class 5--><g id="elem_5"><rect codeLine="37" fill="#F1F1F1" height="72.5938" id="5" rx="2.5" ry="2.5" style="stroke:#181818;stroke-width:0.5;" width="181.4287" x="361.62" y="561.4869"/><ellipse cx="443.6307" cy="577.4869" fill="#DA70D6" rx="11" ry="11" style="stroke:#181818;stroke-width:1;"/><path d="M443.7401,573.065 Q442.8026,573.065 442.3651,574.065 Q441.9432,575.065 441.9432,577.2994 Q441.9432,579.5337 442.3651,580.5337 Q442.8026,581.5337 443.7401,581.5337 Q444.6932,581.5337 445.1151,580.5337 Q445.5526,579.5337 445.5526,577.2994 Q445.5526,575.065 445.1151,574.065 Q444.6932,573.065 443.7401,573.065 Z M439.3964,577.2994 Q439.3964,574.1275 440.4901,572.5025 Q441.5995,570.8619 443.7401,570.8619 Q445.8964,570.8619 446.9901,572.5025 Q448.0995,574.1275 448.0995,577.2994 Q448.0995,580.4712 446.9901,582.0962 Q445.8964,583.7212 443.7401,583.7212 Q441.5995,583.7212 440.4901,582.0962 Q439.3964,580.4712 439.3964,577.2994 Z " fill="#000000"/><text fill="#000000" font-family="sans-serif" font-size="14" lengthAdjust="spacing" textLength="8.9072" x="464.1307" y="582.3336">5</text><line style="stroke:#181818;stroke-width:0.5;" x1="362.62" x2="542.0487" y1="593.4869" y2="593.4869"/><text fill="#000000" font-family="sans-serif" font-size="14" lengthAdjust="spacing" textLength="169.4287" x="367.62" y="610.482">source=teamseasoncity</text><text fill="#000000" font-family="sans-serif" font-size="14" lengthAdjust="spacing" textLength="111.1934" x="367.62" y="626.7789">target=stadium</text></g><!--class 0--><g id="elem_0"><rect codeLine="40" fill="#F1F1F1" height="72.5938" id="0" rx="2.5" ry="2.5" style="stroke:#181818;stroke-width:0.5;" width="72.2588" x="416.21" y="44.2969"/><ellipse cx="445.3182" cy="60.2969" fill="#DA70D6" rx="11" ry="11" style="stroke:#181818;stroke-width:1;"/><path d="M445.4276,55.875 Q444.4901,55.875 444.0526,56.875 Q443.6307,57.875 443.6307,60.1094 Q443.6307,62.3438 444.0526,63.3438 Q444.4901,64.3438 445.4276,64.3438 Q446.3807,64.3438 446.8026,63.3438 Q447.2401,62.3438 447.2401,60.1094 Q447.2401,57.875 446.8026,56.875 Q446.3807,55.875 445.4276,55.875 Z M441.0838,60.1094 Q441.0838,56.9375 442.1776,55.3125 Q443.287,53.6719 445.4276,53.6719 Q447.5838,53.6719 448.6776,55.3125 Q449.787,56.9375 449.787,60.1094 Q449.787,63.2813 448.6776,64.9063 Q447.5838,66.5313 445.4276,66.5313 Q443.287,66.5313 442.1776,64.9063 Q441.0838,63.2813 441.0838,60.1094 Z " fill="#000000"/><text fill="#000000" font-family="sans-serif" font-size="14" lengthAdjust="spacing" textLength="8.9072" x="462.4534" y="65.1436">0</text><line style="stroke:#181818;stroke-width:0.5;" x1="417.21" x2="487.4688" y1="76.2969" y2="76.2969"/><text fill="#000000" font-family="sans-serif" font-size="14" lengthAdjust="spacing" textLength="49.2188" x="422.21" y="93.292">season</text><text fill="#000000" font-family="sans-serif" font-size="14" lengthAdjust="spacing" textLength="60.2588" x="422.21" y="109.5889">[-inf, inf]</text></g><!--class level_3_end--><g id="elem_level_3_end"><rect fill="#F1F1F1" height="32" id="level_3_end" rx="2.5" ry="2.5" style="stroke:#181818;stroke-width:0.5;" width="114.5713" x="395.05" y="711.0769"/><ellipse cx="410.05" cy="727.0769" fill="#ADD1B2" rx="11" ry="11" style="stroke:#181818;stroke-width:1;"/><path d="M413.0188,732.7175 Q412.4406,733.0144 411.8,733.155 Q411.1594,733.3113 410.4563,733.3113 Q407.9563,733.3113 406.6281,731.6706 Q405.3156,730.0144 405.3156,726.8894 Q405.3156,723.7644 406.6281,722.1081 Q407.9563,720.4519 410.4563,720.4519 Q411.1594,720.4519 411.8,720.6081 Q412.4563,720.7644 413.0188,721.0613 L413.0188,723.78 Q412.3938,723.2019 411.8,722.9363 Q411.2063,722.655 410.5813,722.655 Q409.2375,722.655 408.55,723.7331 Q407.8625,724.7956 407.8625,726.8894 Q407.8625,728.9831 408.55,730.0613 Q409.2375,731.1238 410.5813,731.1238 Q411.2063,731.1238 411.8,730.8581 Q412.3938,730.5769 413.0188,729.9988 L413.0188,732.7175 Z " fill="#000000"/><text fill="#000000" font-family="sans-serif" font-size="14" lengthAdjust="spacing" textLength="82.5713" x="424.05" y="731.9236">level_3_end</text></g><!--link 0 to SINGLE_END--><g id="link_0_SINGLE_END"><path codeLine="43" d="M452.34,117.0469 C452.34,142.2069 452.34,168.7369 452.34,187.5569 " fill="none" id="0-to-SINGLE_END" style="stroke:#181818;stroke-width:1;"/><polygon fill="#181818" points="452.34,193.5569,456.34,184.5569,452.34,188.5569,448.34,184.5569,452.34,193.5569" style="stroke:#181818;stroke-width:1;"/><text fill="#000000" font-family="sans-serif" font-size="13" lengthAdjust="spacing" textLength="29.0278" x="453.34" y="159.9538">next</text></g><!--link SINGLE_END to 6--><g id="link_SINGLE_END_6"><path codeLine="44" d="M409.28,226.3669 C355.11,245.8469 266.2661,277.7967 195.6261,303.1967 " fill="none" id="SINGLE_END-to-6" style="stroke:#181818;stroke-width:1;"/><polygon fill="#181818" points="189.98,305.2269,199.8026,305.9457,194.6851,303.5351,197.0957,298.4176,189.98,305.2269" style="stroke:#181818;stroke-width:1;"/><text fill="#000000" font-family="sans-serif" font-size="13" lengthAdjust="spacing" textLength="29.0278" x="319.34" y="268.9538">next</text></g><!--link 6 to level_2_end--><g id="link_6_level_2_end"><path codeLine="45" d="M189.96,373.1369 C260.64,398.5469 349.5538,430.5271 403.7138,449.9971 " fill="none" id="6-to-level_2_end" style="stroke:#181818;stroke-width:1;"/><polygon fill="#181818" points="409.36,452.0269,402.2438,445.2181,404.6548,450.3354,399.5375,452.7464,409.36,452.0269" style="stroke:#181818;stroke-width:1;"/><text fill="#000000" font-family="sans-serif" font-size="13" lengthAdjust="spacing" textLength="29.0278" x="319.34" y="418.5538">next</text></g><!--link SINGLE_END to 1--><g id="link_SINGLE_END_1"><path codeLine="46" d="M432.55,226.2469 C408.36,245.0269 371.3696,273.7377 339.0096,298.8577 " fill="none" id="SINGLE_END-to-1" style="stroke:#181818;stroke-width:1;"/><polygon fill="#181818" points="334.27,302.5369,343.8322,300.1778,338.2197,299.4709,338.9266,293.8584,334.27,302.5369" style="stroke:#181818;stroke-width:1;"/><text fill="#000000" font-family="sans-serif" font-size="13" lengthAdjust="spacing" textLength="29.0278" x="391.34" y="268.9538">next</text></g><!--link 1 to level_2_end--><g id="link_1_level_2_end"><path codeLine="47" d="M334.02,375.6469 C366.43,400.8069 403.6009,429.647 427.8509,448.477 " fill="none" id="1-to-level_2_end" style="stroke:#181818;stroke-width:1;"/><polygon fill="#181818" points="432.59,452.1569,427.9346,443.4777,428.6408,449.0903,423.0282,449.7965,432.59,452.1569" style="stroke:#181818;stroke-width:1;"/><text fill="#000000" font-family="sans-serif" font-size="13" lengthAdjust="spacing" textLength="29.0278" x="391.34" y="418.5538">next</text></g><!--link SINGLE_END to 2--><g id="link_SINGLE_END_2"><path codeLine="48" d="M452.34,225.9969 C452.34,244.7569 452.34,271.3969 452.34,296.6469 " fill="none" id="SINGLE_END-to-2" style="stroke:#181818;stroke-width:1;"/><polygon fill="#181818" points="452.34,302.6469,456.34,293.6469,452.34,297.6469,448.34,293.6469,452.34,302.6469" style="stroke:#181818;stroke-width:1;"/><text fill="#000000" font-family="sans-serif" font-size="13" lengthAdjust="spacing" textLength="29.0278" x="453.34" y="268.9538">next</text></g><!--link 2 to level_2_end--><g id="link_2_level_2_end"><path codeLine="49" d="M452.34,375.6469 C452.34,400.8069 452.34,427.3269 452.34,446.1569 " fill="none" id="2-to-level_2_end" style="stroke:#181818;stroke-width:1;"/><polygon fill="#181818" points="452.34,452.1569,456.34,443.1569,452.34,447.1569,448.34,443.1569,452.34,452.1569" style="stroke:#181818;stroke-width:1;"/><text fill="#000000" font-family="sans-serif" font-size="13" lengthAdjust="spacing" textLength="29.0278" x="453.34" y="418.5538">next</text></g><!--link SINGLE_END to 3--><g id="link_SINGLE_END_3"><path codeLine="50" d="M472.72,226.2469 C497.65,245.0269 535.8574,273.807 569.2074,298.927 " fill="none" id="SINGLE_END-to-3" style="stroke:#181818;stroke-width:1;"/><polygon fill="#181818" points="574,302.5369,569.2177,293.927,570.0062,299.5286,564.4046,300.3171,574,302.5369" style="stroke:#181818;stroke-width:1;"/><text fill="#000000" font-family="sans-serif" font-size="13" lengthAdjust="spacing" textLength="29.0278" x="533.34" y="268.9538">next</text></g><!--link 3 to level_2_end--><g id="link_3_level_2_end"><path codeLine="51" d="M574.26,375.6469 C540.86,400.8069 502.4719,429.7161 477.4819,448.5461 " fill="none" id="3-to-level_2_end" style="stroke:#181818;stroke-width:1;"/><polygon fill="#181818" points="472.69,452.1569,482.2851,449.9354,476.6833,449.1479,477.4707,443.5462,472.69,452.1569" style="stroke:#181818;stroke-width:1;"/><text fill="#000000" font-family="sans-serif" font-size="13" lengthAdjust="spacing" textLength="29.0278" x="533.34" y="418.5538">next</text></g><!--link SINGLE_END to 4--><g id="link_SINGLE_END_4"><path codeLine="52" d="M495.21,226.3169 C545.89,244.5669 632.78,275.8769 707.34,302.8869 C712.81,304.8769 712.8184,304.8844 718.5084,306.9444 " fill="none" id="SINGLE_END-to-4" style="stroke:#181818;stroke-width:1;"/><polygon fill="#181818" points="724.15,308.9869,717.0492,302.162,719.4486,307.2848,714.3259,309.6842,724.15,308.9869" style="stroke:#181818;stroke-width:1;"/><text fill="#000000" font-family="sans-serif" font-size="13" lengthAdjust="spacing" textLength="29.0278" x="624.34" y="268.9538">next</text></g><!--link 4 to level_2_end--><g id="link_4_level_2_end"><path codeLine="53" d="M724.15,369.3869 C718.46,371.4469 712.81,373.4969 707.34,375.4869 C632.78,402.4969 551.5351,431.774 500.8551,450.024 " fill="none" id="4-to-level_2_end" style="stroke:#181818;stroke-width:1;"/><polygon fill="#181818" points="495.21,452.0569,505.0329,452.7711,499.9143,450.3629,502.3225,445.2442,495.21,452.0569" style="stroke:#181818;stroke-width:1;"/><text fill="#000000" font-family="sans-serif" font-size="13" lengthAdjust="spacing" textLength="29.0278" x="624.34" y="418.5538">next</text></g><!--link level_2_end to 5--><g id="link_level_2_end_5"><path codeLine="54" d="M452.34,484.5869 C452.34,503.3569 452.34,529.9969 452.34,555.2469 " fill="none" id="level_2_end-to-5" style="stroke:#181818;stroke-width:1;"/><polygon fill="#181818" points="452.34,561.2469,456.34,552.2469,452.34,556.2469,448.34,552.2469,452.34,561.2469" style="stroke:#181818;stroke-width:1;"/><text fill="#000000" font-family="sans-serif" font-size="13" lengthAdjust="spacing" textLength="29.0278" x="453.34" y="527.5538">next</text></g><!--link 5 to level_3_end--><g id="link_5_level_3_end"><path codeLine="55" d="M452.34,634.2369 C452.34,659.3969 452.34,685.9269 452.34,704.7469 " fill="none" id="5-to-level_3_end" style="stroke:#181818;stroke-width:1;"/><polygon fill="#181818" points="452.34,710.7469,456.34,701.7469,452.34,705.7469,448.34,701.7469,452.34,710.7469" style="stroke:#181818;stroke-width:1;"/><text fill="#000000" font-family="sans-serif" font-size="13" lengthAdjust="spacing" textLength="29.0278" x="453.34" y="677.1438">next</text></g><!--SRC=[bP51YzD05CVlyocU9tTW2vkaxK6w0LkB2CiMz2XInkGr7JQP2MycRei8Wbv4_01w5hmjU5D4Fusb-YsSf1kRX6MXEGoP____ctbltfqO5r8XFCR8pd8aOJKThJX4gJ06LZ0QmT7i63H5Inbp24F6p8LKkI2H0Jb8g2H5UCd0VMCHNIIa2nLFTAffD9g58Pp9P6d7QO6xYAOOgR9XdBfyfTudqfTDyHLZLbfty4GBCjXBIBWgOvYaA1GIJ5SO5LPg1RFolB9ydMMeOb6AZDtTVldnz-Fdtz_VRzvzs7vwk_dsPlFrzP-hNzkVLynrWe1PRjSGeub8vXNKa3EqInsRfhIGc3g5jHxgoQFpXsVJ-VJy0UyuARx0TExDNKatM_vDrf2p8Tm3emkAyDIWC5fbGea4gJAie0JjgKMHjK6FCsyFAf5XjR_Ecu8ggONudFaTnDyZpoNPvHe5jQ60iw031HqeTmFiNDNdhD-cTgrLwZMRQoEhCRJ80MU3FLdslICZQTULKtTeHIoBpgESS7PImhkxoj-dFQaMn-2MPsxVY_MbweMmdwABA5nPrb3gqB3sXl-bnY1l0RtQymu4_Thp3mI3sWiE1FkrrxyDR4frR52RWmuPDCX_]--></g></svg>