<svg xmlns="http://www.w3.org/2000/svg" xmlns:xlink="http://www.w3.org/1999/xlink" contentStyleType="text/css" height="704px" preserveAspectRatio="none" style="width:826px;height:704px;background:#FFFFFF;" version="1.1" viewBox="0 0 826 704" width="826px" zoomAndPan="magnify"><title>Coarse-grained Cleaner Execution Order Recommendation</title><defs/><g><text fill="#000000" font-family="sans-serif" font-size="14" font-weight="bold" lengthAdjust="spacing" textLength="460.4482" x="176.0765" y="22.9951">Coarse-grained Cleaner Execution Order Recommendation</text><!--class SINGLE_END--><g id="elem_SINGLE_END"><rect codeLine="16" fill="#F1F1F1" height="32" id="SINGLE_END" rx="2.5" ry="2.5" style="stroke:#181818;stroke-width:0.5;" width="120.0811" x="259.28" y="201.8969"/><ellipse cx="274.28" cy="217.8969" fill="#DA70D6" rx="11" ry="11" style="stroke:#181818;stroke-width:1;"/><path d="M274.3894,213.475 Q273.4519,213.475 273.0144,214.475 Q272.5925,215.475 272.5925,217.7094 Q272.5925,219.9438 273.0144,220.9438 Q273.4519,221.9438 274.3894,221.9438 Q275.3425,221.9438 275.7644,220.9438 Q276.2019,219.9438 276.2019,217.7094 Q276.2019,215.475 275.7644,214.475 Q275.3425,213.475 274.3894,213.475 Z M270.0456,217.7094 Q270.0456,214.5375 271.1394,212.9125 Q272.2488,211.2719 274.3894,211.2719 Q276.5456,211.2719 277.6394,212.9125 Q278.7488,214.5375 278.7488,217.7094 Q278.7488,220.8813 277.6394,222.5063 Q276.5456,224.1313 274.3894,224.1313 Q272.2488,224.1313 271.1394,222.5063 Q270.0456,220.8813 270.0456,217.7094 Z " fill="#000000"/><text fill="#000000" font-family="sans-serif" font-size="14" lengthAdjust="spacing" textLength="88.0811" x="288.28" y="222.7436">SINGLE_END</text></g><!--class level_1_end--><g id="elem_level_1_end"><rect codeLine="18" fill="#F1F1F1" height="32" id="level_1_end" rx="2.5" ry="2.5" style="stroke:#181818;stroke-width:0.5;" width="114.5713" x="705.03" y="68.5969"/><ellipse cx="720.03" cy="84.5969" fill="#DA70D6" rx="11" ry="11" style="stroke:#181818;stroke-width:1;"/><path d="M720.1394,80.175 Q719.2019,80.175 718.7644,81.175 Q718.3425,82.175 718.3425,84.4094 Q718.3425,86.6437 718.7644,87.6437 Q719.2019,88.6437 720.1394,88.6437 Q721.0925,88.6437 721.5144,87.6437 Q721.9519,86.6437 721.9519,84.4094 Q721.9519,82.175 721.5144,81.175 Q721.0925,80.175 720.1394,80.175 Z M715.7956,84.4094 Q715.7956,81.2375 716.8894,79.6125 Q717.9988,77.9719 720.1394,77.9719 Q722.2956,77.9719 723.3894,79.6125 Q724.4988,81.2375 724.4988,84.4094 Q724.4988,87.5812 723.3894,89.2062 Q722.2956,90.8312 720.1394,90.8312 Q717.9988,90.8312 716.8894,89.2062 Q715.7956,87.5812 715.7956,84.4094 Z " fill="#000000"/><text fill="#000000" font-family="sans-serif" font-size="14" lengthAdjust="spacing" textLength="82.5713" x="734.03" y="89.4436">level_1_end</text></g><!--class 6--><g id="elem_6"><rect codeLine="20" fill="#F1F1F1" height="72.5938" id="6" rx="2.5" ry="2.5" style="stroke:#181818;stroke-width:0.5;" width="91.9053" x="15.36" y="413.4869"/><ellipse cx="53.3091" cy="429.4869" fill="#DA70D6" rx="11" ry="11" style="stroke:#181818;stroke-width:1;"/><path d="M53.4185,425.065 Q52.481,425.065 52.0435,426.065 Q51.6216,427.065 51.6216,429.2994 Q51.6216,431.5338 52.0435,432.5338 Q52.481,433.5338 53.4185,433.5338 Q54.3716,433.5338 54.7935,432.5338 Q55.231,431.5338 55.231,429.2994 Q55.231,427.065 54.7935,426.065 Q54.3716,425.065 53.4185,425.065 Z M49.0747,429.2994 Q49.0747,426.1275 50.1685,424.5025 Q51.2779,422.8619 53.4185,422.8619 Q55.5747,422.8619 56.6685,424.5025 Q57.7779,426.1275 57.7779,429.2994 Q57.7779,432.4713 56.6685,434.0963 Q55.5747,435.7213 53.4185,435.7213 Q51.2779,435.7213 50.1685,434.0963 Q49.0747,432.4713 49.0747,429.2994 Z " fill="#000000"/><text fill="#000000" font-family="sans-serif" font-size="14" lengthAdjust="spacing" textLength="8.9072" x="72.4089" y="434.3336">6</text><line style="stroke:#181818;stroke-width:0.5;" x1="16.36" x2="106.2653" y1="445.4869" y2="445.4869"/><text fill="#000000" font-family="sans-serif" font-size="14" lengthAdjust="spacing" textLength="78.6543" x="21.36" y="462.482">source=zip</text><text fill="#000000" font-family="sans-serif" font-size="14" lengthAdjust="spacing" textLength="79.9053" x="21.36" y="478.7789">target=city</text></g><!--class 7--><g id="elem_7"><rect codeLine="23" fill="#F1F1F1" height="72.5938" id="7" rx="2.5" ry="2.5" style="stroke:#181818;stroke-width:0.5;" width="116.1729" x="123.23" y="413.4869"/><ellipse cx="172.6128" cy="429.4869" fill="#DA70D6" rx="11" ry="11" style="stroke:#181818;stroke-width:1;"/><path d="M172.7222,425.065 Q171.7847,425.065 171.3472,426.065 Q170.9253,427.065 170.9253,429.2994 Q170.9253,431.5338 171.3472,432.5338 Q171.7847,433.5338 172.7222,433.5338 Q173.6753,433.5338 174.0972,432.5338 Q174.5347,431.5338 174.5347,429.2994 Q174.5347,427.065 174.0972,426.065 Q173.6753,425.065 172.7222,425.065 Z M168.3784,429.2994 Q168.3784,426.1275 169.4722,424.5025 Q170.5816,422.8619 172.7222,422.8619 Q174.8784,422.8619 175.9722,424.5025 Q177.0816,426.1275 177.0816,429.2994 Q177.0816,432.4713 175.9722,434.0963 Q174.8784,435.7213 172.7222,435.7213 Q170.5816,435.7213 169.4722,434.0963 Q168.3784,432.4713 168.3784,429.2994 Z " fill="#000000"/><text fill="#000000" font-family="sans-serif" font-size="14" lengthAdjust="spacing" textLength="8.9072" x="193.1128" y="434.3336">7</text><line style="stroke:#181818;stroke-width:0.5;" x1="124.23" x2="238.4029" y1="445.4869" y2="445.4869"/><text fill="#000000" font-family="sans-serif" font-size="14" lengthAdjust="spacing" textLength="103.1611" x="129.23" y="462.482">source=fname</text><text fill="#000000" font-family="sans-serif" font-size="14" lengthAdjust="spacing" textLength="104.1729" x="129.23" y="478.7789">target=gender</text></g><!--class 8--><g id="elem_8"><rect codeLine="26" fill="#F1F1F1" height="72.5938" id="8" rx="2.5" ry="2.5" style="stroke:#181818;stroke-width:0.5;" width="148.6367" x="225" y="516.0869"/><ellipse cx="290.6147" cy="532.0869" fill="#DA70D6" rx="11" ry="11" style="stroke:#181818;stroke-width:1;"/><path d="M290.7241,527.665 Q289.7866,527.665 289.3491,528.665 Q288.9272,529.665 288.9272,531.8994 Q288.9272,534.1338 289.3491,535.1338 Q289.7866,536.1338 290.7241,536.1338 Q291.6772,536.1338 292.0991,535.1338 Q292.5366,534.1338 292.5366,531.8994 Q292.5366,529.665 292.0991,528.665 Q291.6772,527.665 290.7241,527.665 Z M286.3804,531.8994 Q286.3804,528.7275 287.4741,527.1025 Q288.5835,525.4619 290.7241,525.4619 Q292.8804,525.4619 293.9741,527.1025 Q295.0835,528.7275 295.0835,531.8994 Q295.0835,535.0713 293.9741,536.6963 Q292.8804,538.3213 290.7241,538.3213 Q288.5835,538.3213 287.4741,536.6963 Q286.3804,535.0713 286.3804,531.8994 Z " fill="#000000"/><text fill="#000000" font-family="sans-serif" font-size="14" lengthAdjust="spacing" textLength="8.9072" x="311.1147" y="536.9336">8</text><line style="stroke:#181818;stroke-width:0.5;" x1="226" x2="372.6367" y1="548.0869" y2="548.0869"/><text fill="#000000" font-family="sans-serif" font-size="14" lengthAdjust="spacing" textLength="136.6367" x="231" y="565.082">source=haschildzip</text><text fill="#000000" font-family="sans-serif" font-size="14" lengthAdjust="spacing" textLength="135.8164" x="231" y="581.3789">target=childexemp</text></g><!--class 9--><g id="elem_9"><rect codeLine="29" fill="#F1F1F1" height="72.5938" id="9" rx="2.5" ry="2.5" style="stroke:#181818;stroke-width:0.5;" width="183.4932" x="319.57" y="413.4869"/><ellipse cx="402.613" cy="429.4869" fill="#DA70D6" rx="11" ry="11" style="stroke:#181818;stroke-width:1;"/><path d="M402.7223,425.065 Q401.7848,425.065 401.3473,426.065 Q400.9255,427.065 400.9255,429.2994 Q400.9255,431.5338 401.3473,432.5338 Q401.7848,433.5338 402.7223,433.5338 Q403.6755,433.5338 404.0973,432.5338 Q404.5348,431.5338 404.5348,429.2994 Q404.5348,427.065 404.0973,426.065 Q403.6755,425.065 402.7223,425.065 Z M398.3786,429.2994 Q398.3786,426.1275 399.4723,424.5025 Q400.5817,422.8619 402.7223,422.8619 Q404.8786,422.8619 405.9723,424.5025 Q407.0817,426.1275 407.0817,429.2994 Q407.0817,432.4713 405.9723,434.0963 Q404.8786,435.7213 402.7223,435.7213 Q400.5817,435.7213 399.4723,434.0963 Q398.3786,432.4713 398.3786,429.2994 Z " fill="#000000"/><text fill="#000000" font-family="sans-serif" font-size="14" lengthAdjust="spacing" textLength="8.9072" x="423.113" y="434.3336">9</text><line style="stroke:#181818;stroke-width:0.5;" x1="320.57" x2="502.0632" y1="445.4869" y2="445.4869"/><text fill="#000000" font-family="sans-serif" font-size="14" lengthAdjust="spacing" textLength="171.4932" x="325.57" y="462.482">source=maritalstatuszip</text><text fill="#000000" font-family="sans-serif" font-size="14" lengthAdjust="spacing" textLength="144.0264" x="325.57" y="478.7789">target=singleexemp</text></g><!--class 10--><g id="elem_10"><rect codeLine="32" fill="#F1F1F1" height="72.5938" id="10" rx="2.5" ry="2.5" style="stroke:#181818;stroke-width:0.5;" width="183.4932" x="414.57" y="310.8969"/><ellipse cx="493.1594" cy="326.8969" fill="#DA70D6" rx="11" ry="11" style="stroke:#181818;stroke-width:1;"/><path d="M493.2687,322.475 Q492.3312,322.475 491.8937,323.475 Q491.4719,324.475 491.4719,326.7094 Q491.4719,328.9438 491.8937,329.9438 Q492.3312,330.9438 493.2687,330.9438 Q494.2219,330.9438 494.6437,329.9438 Q495.0812,328.9438 495.0812,326.7094 Q495.0812,324.475 494.6437,323.475 Q494.2219,322.475 493.2687,322.475 Z M488.925,326.7094 Q488.925,323.5375 490.0187,321.9125 Q491.1281,320.2719 493.2687,320.2719 Q495.425,320.2719 496.5187,321.9125 Q497.6281,323.5375 497.6281,326.7094 Q497.6281,329.8813 496.5187,331.5063 Q495.425,333.1313 493.2687,333.1313 Q491.1281,333.1313 490.0187,331.5063 Q488.925,329.8813 488.925,326.7094 Z " fill="#000000"/><text fill="#000000" font-family="sans-serif" font-size="14" lengthAdjust="spacing" textLength="17.8145" x="513.6594" y="331.7436">10</text><line style="stroke:#181818;stroke-width:0.5;" x1="415.57" x2="597.0632" y1="342.8969" y2="342.8969"/><text fill="#000000" font-family="sans-serif" font-size="14" lengthAdjust="spacing" textLength="171.4932" x="420.57" y="359.892">source=maritalstatuszip</text><text fill="#000000" font-family="sans-serif" font-size="14" lengthAdjust="spacing" textLength="157.6982" x="420.57" y="376.1889">target=marriedexemp</text></g><!--class 4--><g id="elem_4"><rect codeLine="35" fill="#F1F1F1" height="72.5938" id="4" rx="2.5" ry="2.5" style="stroke:#181818;stroke-width:0.5;" width="102.0088" x="630.31" y="516.0869"/><ellipse cx="672.8057" cy="532.0869" fill="#DA70D6" rx="11" ry="11" style="stroke:#181818;stroke-width:1;"/><path d="M672.9151,527.665 Q671.9776,527.665 671.5401,528.665 Q671.1182,529.665 671.1182,531.8994 Q671.1182,534.1338 671.5401,535.1338 Q671.9776,536.1338 672.9151,536.1338 Q673.8682,536.1338 674.2901,535.1338 Q674.7276,534.1338 674.7276,531.8994 Q674.7276,529.665 674.2901,528.665 Q673.8682,527.665 672.9151,527.665 Z M668.5713,531.8994 Q668.5713,528.7275 669.6651,527.1025 Q670.7745,525.4619 672.9151,525.4619 Q675.0713,525.4619 676.1651,527.1025 Q677.2745,528.7275 677.2745,531.8994 Q677.2745,535.0713 676.1651,536.6963 Q675.0713,538.3213 672.9151,538.3213 Q670.7745,538.3213 669.6651,536.6963 Q668.5713,535.0713 668.5713,531.8994 Z " fill="#000000"/><text fill="#000000" font-family="sans-serif" font-size="14" lengthAdjust="spacing" textLength="8.9072" x="692.9159" y="536.9336">4</text><line style="stroke:#181818;stroke-width:0.5;" x1="631.31" x2="731.3188" y1="548.0869" y2="548.0869"/><text fill="#000000" font-family="sans-serif" font-size="14" lengthAdjust="spacing" textLength="78.6543" x="636.31" y="565.082">source=zip</text><text fill="#000000" font-family="sans-serif" font-size="14" lengthAdjust="spacing" textLength="90.0088" x="636.31" y="581.3789">target=state</text></g><!--class 5--><g id="elem_5"><rect codeLine="38" fill="#F1F1F1" height="72.5938" id="5" rx="2.5" ry="2.5" style="stroke:#181818;stroke-width:0.5;" width="135.8193" x="633.41" y="310.8969"/><ellipse cx="692.6161" cy="326.8969" fill="#DA70D6" rx="11" ry="11" style="stroke:#181818;stroke-width:1;"/><path d="M692.7254,322.475 Q691.7879,322.475 691.3504,323.475 Q690.9286,324.475 690.9286,326.7094 Q690.9286,328.9438 691.3504,329.9438 Q691.7879,330.9438 692.7254,330.9438 Q693.6786,330.9438 694.1004,329.9438 Q694.5379,328.9438 694.5379,326.7094 Q694.5379,324.475 694.1004,323.475 Q693.6786,322.475 692.7254,322.475 Z M688.3817,326.7094 Q688.3817,323.5375 689.4754,321.9125 Q690.5848,320.2719 692.7254,320.2719 Q694.8817,320.2719 695.9754,321.9125 Q697.0848,323.5375 697.0848,326.7094 Q697.0848,329.8813 695.9754,331.5063 Q694.8817,333.1313 692.7254,333.1313 Q690.5848,333.1313 689.4754,331.5063 Q688.3817,329.8813 688.3817,326.7094 Z " fill="#000000"/><text fill="#000000" font-family="sans-serif" font-size="14" lengthAdjust="spacing" textLength="8.9072" x="713.1161" y="331.7436">5</text><line style="stroke:#181818;stroke-width:0.5;" x1="634.41" x2="768.2293" y1="342.8969" y2="342.8969"/><text fill="#000000" font-family="sans-serif" font-size="14" lengthAdjust="spacing" textLength="123.8193" x="639.41" y="359.892">source=areacode</text><text fill="#000000" font-family="sans-serif" font-size="14" lengthAdjust="spacing" textLength="90.0088" x="639.41" y="376.1889">target=state</text></g><!--class 11--><g id="elem_11"><rect codeLine="41" fill="#F1F1F1" height="80.5938" id="11" rx="2.5" ry="2.5" style="stroke:#181818;stroke-width:0.5;" width="56.6318" x="7" y="44.2969"/><ellipse cx="25.0678" cy="60.2969" fill="#DA70D6" rx="11" ry="11" style="stroke:#181818;stroke-width:1;"/><path d="M25.1772,55.875 Q24.2397,55.875 23.8022,56.875 Q23.3803,57.875 23.3803,60.1094 Q23.3803,62.3438 23.8022,63.3438 Q24.2397,64.3438 25.1772,64.3438 Q26.1303,64.3438 26.5522,63.3438 Q26.9897,62.3438 26.9897,60.1094 Q26.9897,57.875 26.5522,56.875 Q26.1303,55.875 25.1772,55.875 Z M20.8334,60.1094 Q20.8334,56.9375 21.9272,55.3125 Q23.0366,53.6719 25.1772,53.6719 Q27.3334,53.6719 28.4272,55.3125 Q29.5366,56.9375 29.5366,60.1094 Q29.5366,63.2813 28.4272,64.9063 Q27.3334,66.5313 25.1772,66.5313 Q23.0366,66.5313 21.9272,64.9063 Q20.8334,63.2813 20.8334,60.1094 Z " fill="#000000"/><text fill="#000000" font-family="sans-serif" font-size="14" lengthAdjust="spacing" textLength="17.8145" x="39.7496" y="65.1436">11</text><line style="stroke:#181818;stroke-width:0.5;" x1="8" x2="62.6318" y1="76.2969" y2="76.2969"/><text fill="#000000" font-family="sans-serif" font-size="14" lengthAdjust="spacing" textLength="44.6318" x="13" y="93.292">fname</text><line style="stroke:#181818;stroke-width:0.5;" x1="8" x2="62.6318" y1="100.5938" y2="100.5938"/><text fill="#000000" font-family="sans-serif" font-size="14" lengthAdjust="spacing" textLength="32.3203" x="13" y="117.5889">set()</text></g><!--class 12--><g id="elem_12"><rect codeLine="45" fill="#F1F1F1" height="80.5938" id="12" rx="2.5" ry="2.5" style="stroke:#181818;stroke-width:0.5;" width="55.5928" x="148.52" y="44.2969"/><ellipse cx="166.1202" cy="60.2969" fill="#DA70D6" rx="11" ry="11" style="stroke:#181818;stroke-width:1;"/><path d="M166.2296,55.875 Q165.2921,55.875 164.8546,56.875 Q164.4327,57.875 164.4327,60.1094 Q164.4327,62.3438 164.8546,63.3438 Q165.2921,64.3438 166.2296,64.3438 Q167.1827,64.3438 167.6046,63.3438 Q168.0421,62.3438 168.0421,60.1094 Q168.0421,57.875 167.6046,56.875 Q167.1827,55.875 166.2296,55.875 Z M161.8859,60.1094 Q161.8859,56.9375 162.9796,55.3125 Q164.089,53.6719 166.2296,53.6719 Q168.3859,53.6719 169.4796,55.3125 Q170.589,56.9375 170.589,60.1094 Q170.589,63.2813 169.4796,64.9063 Q168.3859,66.5313 166.2296,66.5313 Q164.089,66.5313 162.9796,64.9063 Q161.8859,63.2813 161.8859,60.1094 Z " fill="#000000"/><text fill="#000000" font-family="sans-serif" font-size="14" lengthAdjust="spacing" textLength="17.8145" x="180.6981" y="65.1436">12</text><line style="stroke:#181818;stroke-width:0.5;" x1="149.52" x2="203.1128" y1="76.2969" y2="76.2969"/><text fill="#000000" font-family="sans-serif" font-size="14" lengthAdjust="spacing" textLength="43.5928" x="154.52" y="93.292">lname</text><line style="stroke:#181818;stroke-width:0.5;" x1="149.52" x2="203.1128" y1="100.5938" y2="100.5938"/><text fill="#000000" font-family="sans-serif" font-size="14" lengthAdjust="spacing" textLength="32.3203" x="154.52" y="117.5889">set()</text></g><!--class 1--><g id="elem_1"><rect codeLine="50" fill="#F1F1F1" height="72.5938" id="1" rx="2.5" ry="2.5" style="stroke:#181818;stroke-width:0.5;" width="61.6289" x="288.5" y="48.2969"/><ellipse cx="312.8248" cy="64.2969" fill="#DA70D6" rx="11" ry="11" style="stroke:#181818;stroke-width:1;"/><path d="M312.9341,59.875 Q311.9966,59.875 311.5591,60.875 Q311.1373,61.875 311.1373,64.1094 Q311.1373,66.3438 311.5591,67.3438 Q311.9966,68.3438 312.9341,68.3438 Q313.8873,68.3438 314.3091,67.3438 Q314.7466,66.3438 314.7466,64.1094 Q314.7466,61.875 314.3091,60.875 Q313.8873,59.875 312.9341,59.875 Z M308.5904,64.1094 Q308.5904,60.9375 309.6841,59.3125 Q310.7935,57.6719 312.9341,57.6719 Q315.0904,57.6719 316.1841,59.3125 Q317.2935,60.9375 317.2935,64.1094 Q317.2935,67.2813 316.1841,68.9063 Q315.0904,70.5313 312.9341,70.5313 Q310.7935,70.5313 309.6841,68.9063 Q308.5904,67.2813 308.5904,64.1094 Z " fill="#000000"/><text fill="#000000" font-family="sans-serif" font-size="14" lengthAdjust="spacing" textLength="8.9072" x="328.8969" y="69.1436">1</text><line style="stroke:#181818;stroke-width:0.5;" x1="289.5" x2="349.1289" y1="80.2969" y2="80.2969"/><text fill="#000000" font-family="sans-serif" font-size="14" lengthAdjust="spacing" textLength="49.6289" x="294.5" y="97.292">gender</text><text fill="#000000" font-family="sans-serif" font-size="14" lengthAdjust="spacing" textLength="35.7725" x="294.5" y="113.5889">[M|F]</text></g><!--class 2--><g id="elem_2"><rect codeLine="55" fill="#F1F1F1" height="72.5938" id="2" rx="2.5" ry="2.5" style="stroke:#181818;stroke-width:0.5;" width="77.29" x="434.67" y="48.2969"/><ellipse cx="466.0423" cy="64.2969" fill="#DA70D6" rx="11" ry="11" style="stroke:#181818;stroke-width:1;"/><path d="M466.1516,59.875 Q465.2141,59.875 464.7766,60.875 Q464.3548,61.875 464.3548,64.1094 Q464.3548,66.3438 464.7766,67.3438 Q465.2141,68.3438 466.1516,68.3438 Q467.1048,68.3438 467.5266,67.3438 Q467.9641,66.3438 467.9641,64.1094 Q467.9641,61.875 467.5266,60.875 Q467.1048,59.875 466.1516,59.875 Z M461.8079,64.1094 Q461.8079,60.9375 462.9016,59.3125 Q464.011,57.6719 466.1516,57.6719 Q468.3079,57.6719 469.4016,59.3125 Q470.511,60.9375 470.511,64.1094 Q470.511,67.2813 469.4016,68.9063 Q468.3079,70.5313 466.1516,70.5313 Q464.011,70.5313 462.9016,68.9063 Q461.8079,67.2813 461.8079,64.1094 Z " fill="#000000"/><text fill="#000000" font-family="sans-serif" font-size="14" lengthAdjust="spacing" textLength="8.9072" x="483.6805" y="69.1436">2</text><line style="stroke:#181818;stroke-width:0.5;" x1="435.67" x2="510.96" y1="80.2969" y2="80.2969"/><text fill="#000000" font-family="sans-serif" font-size="14" lengthAdjust="spacing" textLength="65.29" x="440.67" y="97.292">areacode</text><text fill="#000000" font-family="sans-serif" font-size="14" lengthAdjust="spacing" textLength="60.5117" x="440.67" y="113.5889">[0-9]{3}</text></g><!--class 3--><g id="elem_3"><rect codeLine="60" fill="#F1F1F1" height="72.5938" id="3" rx="2.5" ry="2.5" style="stroke:#181818;stroke-width:0.5;" width="73.8652" x="596.38" y="48.2969"/><ellipse cx="626.2111" cy="64.2969" fill="#DA70D6" rx="11" ry="11" style="stroke:#181818;stroke-width:1;"/><path d="M626.3205,59.875 Q625.383,59.875 624.9455,60.875 Q624.5236,61.875 624.5236,64.1094 Q624.5236,66.3438 624.9455,67.3438 Q625.383,68.3438 626.3205,68.3438 Q627.2736,68.3438 627.6955,67.3438 Q628.133,66.3438 628.133,64.1094 Q628.133,61.875 627.6955,60.875 Q627.2736,59.875 626.3205,59.875 Z M621.9767,64.1094 Q621.9767,60.9375 623.0705,59.3125 Q624.1799,57.6719 626.3205,57.6719 Q628.4767,57.6719 629.5705,59.3125 Q630.6799,60.9375 630.6799,64.1094 Q630.6799,67.2813 629.5705,68.9063 Q628.4767,70.5313 626.3205,70.5313 Q624.1799,70.5313 623.0705,68.9063 Q621.9767,67.2813 621.9767,64.1094 Z " fill="#000000"/><text fill="#000000" font-family="sans-serif" font-size="14" lengthAdjust="spacing" textLength="8.9072" x="643.5069" y="69.1436">3</text><line style="stroke:#181818;stroke-width:0.5;" x1="597.38" x2="669.2452" y1="80.2969" y2="80.2969"/><text fill="#000000" font-family="sans-serif" font-size="14" lengthAdjust="spacing" textLength="35.4648" x="602.38" y="97.292">state</text><text fill="#000000" font-family="sans-serif" font-size="14" lengthAdjust="spacing" textLength="61.8652" x="602.38" y="113.5889">[A-Z]{2}</text></g><!--class level_2_end--><g id="elem_level_2_end"><rect fill="#F1F1F1" height="32" id="level_2_end" rx="2.5" ry="2.5" style="stroke:#181818;stroke-width:0.5;" width="114.5713" x="350.03" y="665.6769"/><ellipse cx="365.03" cy="681.6769" fill="#ADD1B2" rx="11" ry="11" style="stroke:#181818;stroke-width:1;"/><path d="M367.9988,687.3175 Q367.4206,687.6144 366.78,687.755 Q366.1394,687.9113 365.4363,687.9113 Q362.9363,687.9113 361.6081,686.2706 Q360.2956,684.6144 360.2956,681.4894 Q360.2956,678.3644 361.6081,676.7081 Q362.9363,675.0519 365.4363,675.0519 Q366.1394,675.0519 366.78,675.2081 Q367.4363,675.3644 367.9988,675.6613 L367.9988,678.38 Q367.3738,677.8019 366.78,677.5363 Q366.1863,677.255 365.5613,677.255 Q364.2175,677.255 363.53,678.3331 Q362.8425,679.3956 362.8425,681.4894 Q362.8425,683.5831 363.53,684.6613 Q364.2175,685.7238 365.5613,685.7238 Q366.1863,685.7238 366.78,685.4581 Q367.3738,685.1769 367.9988,684.5988 L367.9988,687.3175 Z " fill="#000000"/><text fill="#000000" font-family="sans-serif" font-size="14" lengthAdjust="spacing" textLength="82.5713" x="379.03" y="686.5236">level_2_end</text></g><!--link 11 to SINGLE_END--><g id="link_11_SINGLE_END"><path codeLine="44" d="M64.09,100.0969 C99.11,117.6169 160.16,147.7469 213.32,171.8969 C235.89,182.1469 255.9218,190.7186 276.2918,199.2086 " fill="none" id="11-to-SINGLE_END" style="stroke:#181818;stroke-width:1;"/><polygon fill="#181818" points="281.83,201.5169,275.0615,194.3623,277.2148,199.5933,271.9838,201.7466,281.83,201.5169" style="stroke:#181818;stroke-width:1;"/><text fill="#000000" font-family="sans-serif" font-size="13" lengthAdjust="spacing" textLength="29.0278" x="214.32" y="167.9638">next</text></g><!--link 11 to 12--><g id="link_11_12"><path codeLine="48" d="M69.85,84.5969 C94.47,84.5969 117.84,84.5969 142.31,84.5969 " fill="none" id="11-12" style="stroke:#181818;stroke-width:1;"/><polygon fill="#181818" points="63.85,84.5969,72.85,88.5969,68.85,84.5969,72.85,80.5969,63.85,84.5969" style="stroke:#181818;stroke-width:1;"/><polygon fill="#181818" points="148.31,84.5969,139.31,80.5969,143.31,84.5969,139.31,88.5969,148.31,84.5969" style="stroke:#181818;stroke-width:1;"/><text fill="#000000" font-family="sans-serif" font-size="13" lengthAdjust="spacing" textLength="48.3628" x="82.08" y="77.6638">parallel</text></g><!--link 12 to SINGLE_END--><g id="link_12_SINGLE_END"><path codeLine="49" d="M204.57,111.5369 C233.87,138.4469 274.281,175.5383 298.311,197.6083 " fill="none" id="12-to-SINGLE_END" style="stroke:#181818;stroke-width:1;"/><polygon fill="#181818" points="302.73,201.6669,298.8072,192.633,299.0475,198.2847,293.3957,198.525,302.73,201.6669" style="stroke:#181818;stroke-width:1;"/><text fill="#000000" font-family="sans-serif" font-size="13" lengthAdjust="spacing" textLength="29.0278" x="270.32" y="167.9638">next</text></g><!--link 12 to 1--><g id="link_12_1"><path codeLine="53" d="M210.57,84.5969 C234.66,84.5969 257.25,84.5969 282.14,84.5969 " fill="none" id="12-1" style="stroke:#181818;stroke-width:1;"/><polygon fill="#181818" points="204.57,84.5969,213.57,88.5969,209.57,84.5969,213.57,80.5969,204.57,84.5969" style="stroke:#181818;stroke-width:1;"/><polygon fill="#181818" points="288.14,84.5969,279.14,80.5969,283.14,84.5969,279.14,88.5969,288.14,84.5969" style="stroke:#181818;stroke-width:1;"/><text fill="#000000" font-family="sans-serif" font-size="13" lengthAdjust="spacing" textLength="48.3628" x="222.31" y="77.6638">parallel</text></g><!--link 1 to SINGLE_END--><g id="link_1_SINGLE_END"><path codeLine="54" d="M319.32,121.1269 C319.32,147.4069 319.32,175.9069 319.32,195.5069 " fill="none" id="1-to-SINGLE_END" style="stroke:#181818;stroke-width:1;"/><polygon fill="#181818" points="319.32,201.5069,323.32,192.5069,319.32,196.5069,315.32,192.5069,319.32,201.5069" style="stroke:#181818;stroke-width:1;"/><text fill="#000000" font-family="sans-serif" font-size="13" lengthAdjust="spacing" textLength="29.0278" x="320.32" y="167.9638">next</text></g><!--link 1 to 2--><g id="link_1_2"><path codeLine="58" d="M356.48,84.5969 C380.65,84.5969 402.29,84.5969 428.26,84.5969 " fill="none" id="1-2" style="stroke:#181818;stroke-width:1;"/><polygon fill="#181818" points="350.48,84.5969,359.48,88.5969,355.48,84.5969,359.48,80.5969,350.48,84.5969" style="stroke:#181818;stroke-width:1;"/><polygon fill="#181818" points="434.26,84.5969,425.26,80.5969,429.26,84.5969,425.26,88.5969,434.26,84.5969" style="stroke:#181818;stroke-width:1;"/><text fill="#000000" font-family="sans-serif" font-size="13" lengthAdjust="spacing" textLength="48.3628" x="368.4" y="77.6638">parallel</text></g><!--link 2 to SINGLE_END--><g id="link_2_SINGLE_END"><path codeLine="59" d="M434.46,118.7269 C403.27,145.3169 365.4857,177.534 341.8057,197.724 " fill="none" id="2-to-SINGLE_END" style="stroke:#181818;stroke-width:1;"/><polygon fill="#181818" points="337.24,201.6169,346.6838,198.8215,341.0448,198.3729,341.4934,192.7338,337.24,201.6169" style="stroke:#181818;stroke-width:1;"/><text fill="#000000" font-family="sans-serif" font-size="13" lengthAdjust="spacing" textLength="29.0278" x="393.32" y="167.9638">next</text></g><!--link 2 to 3--><g id="link_2_3"><path codeLine="63" d="M518.46,84.5969 C543.9,84.5969 564.88,84.5969 589.96,84.5969 " fill="none" id="2-3" style="stroke:#181818;stroke-width:1;"/><polygon fill="#181818" points="512.46,84.5969,521.46,88.5969,517.46,84.5969,521.46,80.5969,512.46,84.5969" style="stroke:#181818;stroke-width:1;"/><polygon fill="#181818" points="595.96,84.5969,586.96,80.5969,590.96,84.5969,586.96,88.5969,595.96,84.5969" style="stroke:#181818;stroke-width:1;"/><text fill="#000000" font-family="sans-serif" font-size="13" lengthAdjust="spacing" textLength="48.3628" x="530.17" y="77.6638">parallel</text></g><!--link 3 to SINGLE_END--><g id="link_3_SINGLE_END"><path codeLine="64" d="M596.19,101.7469 C555.74,119.2669 489.09,147.9469 431.32,171.8969 C407.12,181.9269 385.4237,190.6657 363.8437,199.2657 " fill="none" id="3-to-SINGLE_END" style="stroke:#181818;stroke-width:1;"/><polygon fill="#181818" points="358.27,201.4869,368.1114,201.8709,362.9148,199.6359,365.1497,194.4392,358.27,201.4869" style="stroke:#181818;stroke-width:1;"/><text fill="#000000" font-family="sans-serif" font-size="13" lengthAdjust="spacing" textLength="29.0278" x="471.32" y="167.9638">next</text></g><!--link SINGLE_END to 6--><g id="link_SINGLE_END_6"><path codeLine="65" d="M259.14,226.8269 C230.22,233.0769 196.47,244.1869 171.32,263.8969 C121.48,302.9469 91.5643,365.7331 75.5843,407.4931 " fill="none" id="SINGLE_END-to-6" style="stroke:#181818;stroke-width:1;"/><polygon fill="#181818" points="73.44,413.0969,80.3923,406.1208,75.2269,408.4271,72.9207,403.2617,73.44,413.0969" style="stroke:#181818;stroke-width:1;"/><text fill="#000000" font-family="sans-serif" font-size="13" lengthAdjust="spacing" textLength="29.0278" x="172.32" y="276.9638">next</text></g><!--link 6 to level_2_end--><g id="link_6_level_2_end"><path codeLine="66" d="M71.05,486.5269 C80.57,516.4069 97.45,558.8169 123.32,588.6769 C180.23,654.3969 278.5202,672.9948 343.6502,678.3548 " fill="none" id="6-to-level_2_end" style="stroke:#181818;stroke-width:1;"/><polygon fill="#181818" points="349.63,678.8469,340.9884,674.1222,344.6468,678.4368,340.3322,682.0952,349.63,678.8469" style="stroke:#181818;stroke-width:1;"/><text fill="#000000" font-family="sans-serif" font-size="13" lengthAdjust="spacing" textLength="29.0278" x="124.32" y="556.9438">next</text></g><!--link SINGLE_END to 7--><g id="link_SINGLE_END_7"><path codeLine="67" d="M262.09,234.2869 C246.51,241.0369 231.01,250.5669 220.32,263.8969 C185.93,306.7569 179.8648,366.6869 179.7648,407.1469 " fill="none" id="SINGLE_END-to-7" style="stroke:#181818;stroke-width:1;"/><polygon fill="#181818" points="179.75,413.1469,183.7722,404.1568,179.7624,408.1469,175.7723,404.137,179.75,413.1469" style="stroke:#181818;stroke-width:1;"/><text fill="#000000" font-family="sans-serif" font-size="13" lengthAdjust="spacing" textLength="29.0278" x="221.32" y="276.9638">next</text></g><!--link 7 to level_2_end--><g id="link_7_level_2_end"><path codeLine="68" d="M169.16,486.5369 C161.37,516.4269 156.08,558.8369 176.32,588.6769 C214.84,645.4869 288.6875,666.3194 343.6175,674.6294 " fill="none" id="7-to-level_2_end" style="stroke:#181818;stroke-width:1;"/><polygon fill="#181818" points="349.55,675.5269,341.2496,670.2256,344.6063,674.779,340.0529,678.1356,349.55,675.5269" style="stroke:#181818;stroke-width:1;"/><text fill="#000000" font-family="sans-serif" font-size="13" lengthAdjust="spacing" textLength="29.0278" x="177.32" y="556.9438">next</text></g><!--link SINGLE_END to 8--><g id="link_SINGLE_END_8"><path codeLine="69" d="M317.66,234.0069 C314.14,266.6969 305.97,346.4469 302.32,413.4869 C300.43,448.1569 299.766,481.7871 299.506,509.6471 " fill="none" id="SINGLE_END-to-8" style="stroke:#181818;stroke-width:1;"/><polygon fill="#181818" points="299.45,515.6469,303.5338,506.6846,299.4967,510.6471,295.5342,506.6099,299.45,515.6469" style="stroke:#181818;stroke-width:1;"/><text fill="#000000" font-family="sans-serif" font-size="13" lengthAdjust="spacing" textLength="29.0278" x="311.32" y="351.7638">next</text></g><!--link 8 to level_2_end--><g id="link_8_level_2_end"><path codeLine="70" d="M329.4,588.8369 C350.75,613.9969 374.4579,641.952 390.4279,660.772 " fill="none" id="8-to-level_2_end" style="stroke:#181818;stroke-width:1;"/><polygon fill="#181818" points="394.31,665.3469,391.5368,655.8965,391.0749,661.5345,385.437,661.0726,394.31,665.3469" style="stroke:#181818;stroke-width:1;"/><text fill="#000000" font-family="sans-serif" font-size="13" lengthAdjust="spacing" textLength="29.0278" x="367.32" y="631.7438">next</text></g><!--link SINGLE_END to 9--><g id="link_SINGLE_END_9"><path codeLine="71" d="M325.5,234.3369 C340.04,270.6769 374.5109,356.8163 394.8909,407.7463 " fill="none" id="SINGLE_END-to-9" style="stroke:#181818;stroke-width:1;"/><polygon fill="#181818" points="397.12,413.3169,397.4901,403.475,395.2624,408.6747,390.0626,406.4471,397.12,413.3169" style="stroke:#181818;stroke-width:1;"/><text fill="#000000" font-family="sans-serif" font-size="13" lengthAdjust="spacing" textLength="29.0278" x="344.32" y="276.9638">next</text></g><!--link 9 to level_2_end--><g id="link_9_level_2_end"><path codeLine="72" d="M410.7,486.4569 C409.81,537.4069 408.3241,622.8778 407.6941,659.1978 " fill="none" id="9-to-level_2_end" style="stroke:#181818;stroke-width:1;"/><polygon fill="#181818" points="407.59,665.1969,411.7455,656.2676,407.6767,660.1976,403.7467,656.1289,407.59,665.1969" style="stroke:#181818;stroke-width:1;"/><text fill="#000000" font-family="sans-serif" font-size="13" lengthAdjust="spacing" textLength="29.0278" x="411.32" y="556.9438">next</text></g><!--link SINGLE_END to 10--><g id="link_SINGLE_END_10"><path codeLine="73" d="M349.58,234.2869 C365.09,242.5269 384.07,253.1669 400.32,263.8969 C421.8,278.0869 439.7911,291.6133 458.6411,306.6633 " fill="none" id="SINGLE_END-to-10" style="stroke:#181818;stroke-width:1;"/><polygon fill="#181818" points="463.33,310.4069,458.7925,301.6655,459.4226,307.2872,453.801,307.9173,463.33,310.4069" style="stroke:#181818;stroke-width:1;"/><text fill="#000000" font-family="sans-serif" font-size="13" lengthAdjust="spacing" textLength="29.0278" x="426.32" y="276.9638">next</text></g><!--link 10 to level_2_end--><g id="link_10_level_2_end"><path codeLine="74" d="M516.87,383.8869 C523.55,412.0669 529.38,452.1369 520.32,486.0869 C500.67,559.6869 449.1576,629.3973 423.9276,660.6673 " fill="none" id="10-to-level_2_end" style="stroke:#181818;stroke-width:1;"/><polygon fill="#181818" points="420.16,665.3369,428.9245,660.8442,423.2997,661.4456,422.6984,655.8208,420.16,665.3369" style="stroke:#181818;stroke-width:1;"/><text fill="#000000" font-family="sans-serif" font-size="13" lengthAdjust="spacing" textLength="29.0278" x="511.32" y="556.9438">next</text></g><!--link SINGLE_END to 5--><g id="link_SINGLE_END_5"><path codeLine="75" d="M374.08,234.3369 C433.86,251.5569 532.15,280.9569 615.32,310.8969 C621.09,312.9769 621.4467,313.0354 627.3967,315.3454 " fill="none" id="SINGLE_END-to-5" style="stroke:#181818;stroke-width:1;"/><polygon fill="#181818" points="632.99,317.5169,626.0478,310.5308,628.3289,315.7073,623.1524,317.9885,632.99,317.5169" style="stroke:#181818;stroke-width:1;"/><text fill="#000000" font-family="sans-serif" font-size="13" lengthAdjust="spacing" textLength="29.0278" x="528.32" y="276.9638">next</text></g><!--link 5 to 4--><g id="link_5_4"><path codeLine="76" d="M697.83,383.5869 C694.18,420.6469 689.0781,472.5758 685.4181,509.7358 " fill="none" id="5-to-4" style="stroke:#181818;stroke-width:1;"/><polygon fill="#181818" points="684.83,515.7069,689.6929,507.1423,685.3201,510.731,681.7314,506.3581,684.83,515.7069" style="stroke:#181818;stroke-width:1;"/><text fill="#000000" font-family="sans-serif" font-size="13" lengthAdjust="spacing" textLength="29.0278" x="695.32" y="454.3538">next</text></g><!--link 4 to level_2_end--><g id="link_4_level_2_end"><path codeLine="77" d="M640.73,589.1469 C620.68,605.2869 595.44,623.4269 570.32,635.6769 C537.07,651.8869 502.9165,661.7426 470.8565,668.8826 " fill="none" id="4-to-level_2_end" style="stroke:#181818;stroke-width:1;"/><polygon fill="#181818" points="465,670.1869,474.6543,672.1348,469.8804,669.1,472.9153,664.3261,465,670.1869" style="stroke:#181818;stroke-width:1;"/><text fill="#000000" font-family="sans-serif" font-size="13" lengthAdjust="spacing" textLength="29.0278" x="601.32" y="631.7438">next</text></g><!--SRC=[bLDDYnCn6BxdLyIJ7N2Wt-r8jx2jgmZh5lHcAINCl9s6pKnAahfTQq7GYuW_GC-2jmLlYkYliLJ_XKdQwSoKjRHpoZnVUVA6t0bWH6F0Jy5NlGa8ehWep1piCo8bdk5M2nTwzp0N_fW63cwt4PAND9uGGI8ij8d48GCyHrX_7U9VXe9Fuw3B6HUjLg_TnkSq7AiEcy9QmaK0mjAumxJUegT2yAiik418KQM3kvm82MueY6uPu2u34eF0PpFmfuho6FTCdgdFemZYW1WGeRkhBp_-Vlpy-_lxvRiFgqzlbz_UBB- -_dFpQ_Np1kcJ08Peegvn0D8NT69D6JW2DUQ1p48Z2amZA3UePuyl7fsV3Syk7ZWx38CNm8QbeQwqIzKTLCVtiUHJuSF9Ipgnlug84DI9JzLrNjvmK2ELZs8IWGKsXb3l029lQJgecLh6HEhBOu7PgPdPoM0mqwVBcpq7UQav8e8gmgGYQYfDWfScI6hk_fQ8Kj51fUAU44jkKZGfADpMfEgWQdvGrSpcEWpo-fg3QgcU220-3y1Y_pULIhfhIKlMaxLB2QfWKJVWLx7RnkazQpQ6cTh9A6jrMLDidL7EPhHSOLw0Jh6uUJcC0JEgG-DrZYOsDssM_IUl7WvCGYOybtrej2vkIcrdPNxwHTSRp2iBbEsUgtvmyug3AcOMTkncrJzrdm_cvGNALgzaiojxiZD88gedN7qBhPzUsJozFSP6mZMED3OJhdcaqKiuxqYZVIsMrAlZhBM4gssXQW9LzsJz0m00]--></g></svg>