<svg xmlns="http://www.w3.org/2000/svg" xmlns:xlink="http://www.w3.org/1999/xlink" contentStyleType="text/css" height="907px" preserveAspectRatio="none" style="width:1396px;height:907px;background:#FFFFFF;" version="1.1" viewBox="0 0 1396 907" width="1396px" zoomAndPan="magnify"><title>Coarse-grained Cleaner Execution Order Recommendation</title><defs/><g><text fill="#000000" font-family="sans-serif" font-size="14" font-weight="bold" lengthAdjust="spacing" textLength="460.4482" x="460.9915" y="22.9951">Coarse-grained Cleaner Execution Order Recommendation</text><!--class SINGLE_END--><g id="elem_SINGLE_END"><rect codeLine="16" fill="#F1F1F1" height="32" id="SINGLE_END" rx="2.5" ry="2.5" style="stroke:#181818;stroke-width:0.5;" width="120.0811" x="519.1" y="201.8969"/><ellipse cx="534.1" cy="217.8969" fill="#DA70D6" rx="11" ry="11" style="stroke:#181818;stroke-width:1;"/><path d="M534.2094,213.475 Q533.2719,213.475 532.8344,214.475 Q532.4125,215.475 532.4125,217.7094 Q532.4125,219.9438 532.8344,220.9438 Q533.2719,221.9438 534.2094,221.9438 Q535.1625,221.9438 535.5844,220.9438 Q536.0219,219.9438 536.0219,217.7094 Q536.0219,215.475 535.5844,214.475 Q535.1625,213.475 534.2094,213.475 Z M529.8656,217.7094 Q529.8656,214.5375 530.9594,212.9125 Q532.0688,211.2719 534.2094,211.2719 Q536.3656,211.2719 537.4594,212.9125 Q538.5688,214.5375 538.5688,217.7094 Q538.5688,220.8813 537.4594,222.5063 Q536.3656,224.1313 534.2094,224.1313 Q532.0688,224.1313 530.9594,222.5063 Q529.8656,220.8813 529.8656,217.7094 Z " fill="#000000"/><text fill="#000000" font-family="sans-serif" font-size="14" lengthAdjust="spacing" textLength="88.0811" x="548.1" y="222.7436">SINGLE_END</text></g><!--class level_1_end--><g id="elem_level_1_end"><rect codeLine="18" fill="#F1F1F1" height="32" id="level_1_end" rx="2.5" ry="2.5" style="stroke:#181818;stroke-width:0.5;" width="114.5713" x="1274.86" y="68.5969"/><ellipse cx="1289.86" cy="84.5969" fill="#DA70D6" rx="11" ry="11" style="stroke:#181818;stroke-width:1;"/><path d="M1289.9694,80.175 Q1289.0319,80.175 1288.5944,81.175 Q1288.1725,82.175 1288.1725,84.4094 Q1288.1725,86.6437 1288.5944,87.6437 Q1289.0319,88.6437 1289.9694,88.6437 Q1290.9225,88.6437 1291.3444,87.6437 Q1291.7819,86.6437 1291.7819,84.4094 Q1291.7819,82.175 1291.3444,81.175 Q1290.9225,80.175 1289.9694,80.175 Z M1285.6256,84.4094 Q1285.6256,81.2375 1286.7194,79.6125 Q1287.8288,77.9719 1289.9694,77.9719 Q1292.1256,77.9719 1293.2194,79.6125 Q1294.3288,81.2375 1294.3288,84.4094 Q1294.3288,87.5812 1293.2194,89.2062 Q1292.1256,90.8312 1289.9694,90.8312 Q1287.8288,90.8312 1286.7194,89.2062 Q1285.6256,87.5812 1285.6256,84.4094 Z " fill="#000000"/><text fill="#000000" font-family="sans-serif" font-size="14" lengthAdjust="spacing" textLength="82.5713" x="1303.86" y="89.4436">level_1_end</text></g><!--class level_2_end--><g id="elem_level_2_end"><rect codeLine="20" fill="#F1F1F1" height="32" id="level_2_end" rx="2.5" ry="2.5" style="stroke:#181818;stroke-width:0.5;" width="114.5713" x="521.86" y="460.4869"/><ellipse cx="536.86" cy="476.4869" fill="#DA70D6" rx="11" ry="11" style="stroke:#181818;stroke-width:1;"/><path d="M536.9694,472.065 Q536.0319,472.065 535.5944,473.065 Q535.1725,474.065 535.1725,476.2994 Q535.1725,478.5338 535.5944,479.5338 Q536.0319,480.5338 536.9694,480.5338 Q537.9225,480.5338 538.3444,479.5338 Q538.7819,478.5338 538.7819,476.2994 Q538.7819,474.065 538.3444,473.065 Q537.9225,472.065 536.9694,472.065 Z M532.6256,476.2994 Q532.6256,473.1275 533.7194,471.5025 Q534.8288,469.8619 536.9694,469.8619 Q539.1256,469.8619 540.2194,471.5025 Q541.3288,473.1275 541.3288,476.2994 Q541.3288,479.4713 540.2194,481.0963 Q539.1256,482.7213 536.9694,482.7213 Q534.8288,482.7213 533.7194,481.0963 Q532.6256,479.4713 532.6256,476.2994 Z " fill="#000000"/><text fill="#000000" font-family="sans-serif" font-size="14" lengthAdjust="spacing" textLength="82.5713" x="550.86" y="481.3336">level_2_end</text></g><!--class 0--><g id="elem_0"><rect codeLine="22" fill="#F1F1F1" height="72.5938" id="0" rx="2.5" ry="2.5" style="stroke:#181818;stroke-width:0.5;" width="214.248" x="472.02" y="310.8969"/><ellipse cx="570.4404" cy="326.8969" fill="#DA70D6" rx="11" ry="11" style="stroke:#181818;stroke-width:1;"/><path d="M570.5498,322.475 Q569.6123,322.475 569.1748,323.475 Q568.7529,324.475 568.7529,326.7094 Q568.7529,328.9438 569.1748,329.9438 Q569.6123,330.9438 570.5498,330.9438 Q571.5029,330.9438 571.9248,329.9438 Q572.3623,328.9438 572.3623,326.7094 Q572.3623,324.475 571.9248,323.475 Q571.5029,322.475 570.5498,322.475 Z M566.206,326.7094 Q566.206,323.5375 567.2998,321.9125 Q568.4092,320.2719 570.5498,320.2719 Q572.706,320.2719 573.7998,321.9125 Q574.9092,323.5375 574.9092,326.7094 Q574.9092,329.8813 573.7998,331.5063 Q572.706,333.1313 570.5498,333.1313 Q568.4092,333.1313 567.2998,331.5063 Q566.206,329.8813 566.206,326.7094 Z " fill="#000000"/><text fill="#000000" font-family="sans-serif" font-size="14" lengthAdjust="spacing" textLength="8.9072" x="590.9404" y="331.7436">0</text><line style="stroke:#181818;stroke-width:0.5;" x1="473.02" x2="685.268" y1="342.8969" y2="342.8969"/><text fill="#000000" font-family="sans-serif" font-size="14" lengthAdjust="spacing" textLength="202.248" x="478.02" y="359.892">source=journal_abbreviation</text><text fill="#000000" font-family="sans-serif" font-size="14" lengthAdjust="spacing" textLength="137.3408" x="478.02" y="376.1889">target=journal_title</text></g><!--class 1--><g id="elem_1"><rect codeLine="25" fill="#F1F1F1" height="72.5938" id="1" rx="2.5" ry="2.5" style="stroke:#181818;stroke-width:0.5;" width="214.248" x="472.02" y="569.4869"/><ellipse cx="570.4404" cy="585.4869" fill="#DA70D6" rx="11" ry="11" style="stroke:#181818;stroke-width:1;"/><path d="M570.5498,581.065 Q569.6123,581.065 569.1748,582.065 Q568.7529,583.065 568.7529,585.2994 Q568.7529,587.5337 569.1748,588.5337 Q569.6123,589.5337 570.5498,589.5337 Q571.5029,589.5337 571.9248,588.5337 Q572.3623,587.5337 572.3623,585.2994 Q572.3623,583.065 571.9248,582.065 Q571.5029,581.065 570.5498,581.065 Z M566.206,585.2994 Q566.206,582.1275 567.2998,580.5025 Q568.4092,578.8619 570.5498,578.8619 Q572.706,578.8619 573.7998,580.5025 Q574.9092,582.1275 574.9092,585.2994 Q574.9092,588.4712 573.7998,590.0962 Q572.706,591.7212 570.5498,591.7212 Q568.4092,591.7212 567.2998,590.0962 Q566.206,588.4712 566.206,585.2994 Z " fill="#000000"/><text fill="#000000" font-family="sans-serif" font-size="14" lengthAdjust="spacing" textLength="8.9072" x="590.9404" y="590.3336">1</text><line style="stroke:#181818;stroke-width:0.5;" x1="473.02" x2="685.268" y1="601.4869" y2="601.4869"/><text fill="#000000" font-family="sans-serif" font-size="14" lengthAdjust="spacing" textLength="202.248" x="478.02" y="618.482">source=journal_abbreviation</text><text fill="#000000" font-family="sans-serif" font-size="14" lengthAdjust="spacing" textLength="137.3203" x="478.02" y="634.7789">target=journal_issn</text></g><!--class 2--><g id="elem_2"><rect codeLine="28" fill="#F1F1F1" height="72.5938" id="2" rx="2.5" ry="2.5" style="stroke:#181818;stroke-width:0.5;" width="153.3262" x="502.48" y="719.0869"/><ellipse cx="570.4395" cy="735.0869" fill="#DA70D6" rx="11" ry="11" style="stroke:#181818;stroke-width:1;"/><path d="M570.5488,730.665 Q569.6113,730.665 569.1738,731.665 Q568.752,732.665 568.752,734.8994 Q568.752,737.1338 569.1738,738.1338 Q569.6113,739.1338 570.5488,739.1338 Q571.502,739.1338 571.9238,738.1338 Q572.3613,737.1338 572.3613,734.8994 Q572.3613,732.665 571.9238,731.665 Q571.502,730.665 570.5488,730.665 Z M566.2051,734.8994 Q566.2051,731.7275 567.2988,730.1025 Q568.4082,728.4619 570.5488,728.4619 Q572.7051,728.4619 573.7988,730.1025 Q574.9082,731.7275 574.9082,734.8994 Q574.9082,738.0713 573.7988,739.6963 Q572.7051,741.3213 570.5488,741.3213 Q568.4082,741.3213 567.2988,739.6963 Q566.2051,738.0713 566.2051,734.8994 Z " fill="#000000"/><text fill="#000000" font-family="sans-serif" font-size="14" lengthAdjust="spacing" textLength="8.9072" x="590.9395" y="739.9336">2</text><line style="stroke:#181818;stroke-width:0.5;" x1="503.48" x2="654.8062" y1="751.0869" y2="751.0869"/><text fill="#000000" font-family="sans-serif" font-size="14" lengthAdjust="spacing" textLength="141.3262" x="508.48" y="768.082">source=journal_title</text><text fill="#000000" font-family="sans-serif" font-size="14" lengthAdjust="spacing" textLength="137.3203" x="508.48" y="784.3789">target=journal_issn</text></g><!--class 3--><g id="elem_3"><rect codeLine="31" fill="#F1F1F1" height="80.5938" id="3" rx="2.5" ry="2.5" style="stroke:#181818;stroke-width:0.5;" width="90.2852" x="7" y="44.2969"/><ellipse cx="44.2201" cy="60.2969" fill="#DA70D6" rx="11" ry="11" style="stroke:#181818;stroke-width:1;"/><path d="M44.3294,55.875 Q43.3919,55.875 42.9544,56.875 Q42.5326,57.875 42.5326,60.1094 Q42.5326,62.3438 42.9544,63.3438 Q43.3919,64.3438 44.3294,64.3438 Q45.2826,64.3438 45.7044,63.3438 Q46.1419,62.3438 46.1419,60.1094 Q46.1419,57.875 45.7044,56.875 Q45.2826,55.875 44.3294,55.875 Z M39.9857,60.1094 Q39.9857,56.9375 41.0794,55.3125 Q42.1888,53.6719 44.3294,53.6719 Q46.4857,53.6719 47.5794,55.3125 Q48.6888,56.9375 48.6888,60.1094 Q48.6888,63.2813 47.5794,64.9063 Q46.4857,66.5313 44.3294,66.5313 Q42.1888,66.5313 41.0794,64.9063 Q39.9857,63.2813 39.9857,60.1094 Z " fill="#000000"/><text fill="#000000" font-family="sans-serif" font-size="14" lengthAdjust="spacing" textLength="8.9072" x="63.1579" y="65.1436">3</text><line style="stroke:#181818;stroke-width:0.5;" x1="8" x2="96.2852" y1="76.2969" y2="76.2969"/><text fill="#000000" font-family="sans-serif" font-size="14" lengthAdjust="spacing" textLength="78.2852" x="13" y="93.292">article_title</text><line style="stroke:#181818;stroke-width:0.5;" x1="8" x2="96.2852" y1="100.5938" y2="100.5938"/><text fill="#000000" font-family="sans-serif" font-size="14" lengthAdjust="spacing" textLength="32.3203" x="13" y="117.5889">set()</text></g><!--class 4--><g id="elem_4"><rect codeLine="35" fill="#F1F1F1" height="80.5938" id="4" rx="2.5" ry="2.5" style="stroke:#181818;stroke-width:0.5;" width="94.7969" x="181.74" y="44.2969"/><ellipse cx="220.9903" cy="60.2969" fill="#DA70D6" rx="11" ry="11" style="stroke:#181818;stroke-width:1;"/><path d="M221.0997,55.875 Q220.1622,55.875 219.7247,56.875 Q219.3028,57.875 219.3028,60.1094 Q219.3028,62.3438 219.7247,63.3438 Q220.1622,64.3438 221.0997,64.3438 Q222.0528,64.3438 222.4747,63.3438 Q222.9122,62.3438 222.9122,60.1094 Q222.9122,57.875 222.4747,56.875 Q222.0528,55.875 221.0997,55.875 Z M216.756,60.1094 Q216.756,56.9375 217.8497,55.3125 Q218.9591,53.6719 221.0997,53.6719 Q223.256,53.6719 224.3497,55.3125 Q225.4591,56.9375 225.4591,60.1094 Q225.4591,63.2813 224.3497,64.9063 Q223.256,66.5313 221.0997,66.5313 Q218.9591,66.5313 217.8497,64.9063 Q216.756,63.2813 216.756,60.1094 Z " fill="#000000"/><text fill="#000000" font-family="sans-serif" font-size="14" lengthAdjust="spacing" textLength="8.9072" x="240.3793" y="65.1436">4</text><line style="stroke:#181818;stroke-width:0.5;" x1="182.74" x2="275.5369" y1="76.2969" y2="76.2969"/><text fill="#000000" font-family="sans-serif" font-size="14" lengthAdjust="spacing" textLength="82.7969" x="187.74" y="93.292">journal_title</text><line style="stroke:#181818;stroke-width:0.5;" x1="182.74" x2="275.5369" y1="100.5938" y2="100.5938"/><text fill="#000000" font-family="sans-serif" font-size="14" lengthAdjust="spacing" textLength="32.3203" x="187.74" y="117.5889">set()</text></g><!--class 8--><g id="elem_8"><rect codeLine="40" fill="#F1F1F1" height="80.5938" id="8" rx="2.5" ry="2.5" style="stroke:#181818;stroke-width:0.5;" width="85.6982" x="361.29" y="44.2969"/><ellipse cx="396.446" cy="60.2969" fill="#DA70D6" rx="11" ry="11" style="stroke:#181818;stroke-width:1;"/><path d="M396.5553,55.875 Q395.6178,55.875 395.1803,56.875 Q394.7585,57.875 394.7585,60.1094 Q394.7585,62.3438 395.1803,63.3438 Q395.6178,64.3438 396.5553,64.3438 Q397.5085,64.3438 397.9303,63.3438 Q398.3678,62.3438 398.3678,60.1094 Q398.3678,57.875 397.9303,56.875 Q397.5085,55.875 396.5553,55.875 Z M392.2116,60.1094 Q392.2116,56.9375 393.3053,55.3125 Q394.4147,53.6719 396.5553,53.6719 Q398.7116,53.6719 399.8053,55.3125 Q400.9147,56.9375 400.9147,60.1094 Q400.9147,63.2813 399.8053,64.9063 Q398.7116,66.5313 396.5553,66.5313 Q394.4147,66.5313 393.3053,64.9063 Q392.2116,63.2813 392.2116,60.1094 Z " fill="#000000"/><text fill="#000000" font-family="sans-serif" font-size="14" lengthAdjust="spacing" textLength="8.9072" x="414.9251" y="65.1436">8</text><line style="stroke:#181818;stroke-width:0.5;" x1="362.29" x2="445.9882" y1="76.2969" y2="76.2969"/><text fill="#000000" font-family="sans-serif" font-size="14" lengthAdjust="spacing" textLength="73.6982" x="367.29" y="93.292">author_list</text><line style="stroke:#181818;stroke-width:0.5;" x1="362.29" x2="445.9882" y1="100.5938" y2="100.5938"/><text fill="#000000" font-family="sans-serif" font-size="14" lengthAdjust="spacing" textLength="32.3203" x="367.29" y="117.5889">set()</text></g><!--class 5--><g id="elem_5"><rect codeLine="45" fill="#F1F1F1" height="72.5938" id="5" rx="2.5" ry="2.5" style="stroke:#181818;stroke-width:0.5;" width="94.7764" x="531.75" y="48.2969"/><ellipse cx="570.9911" cy="64.2969" fill="#DA70D6" rx="11" ry="11" style="stroke:#181818;stroke-width:1;"/><path d="M571.1005,59.875 Q570.163,59.875 569.7255,60.875 Q569.3036,61.875 569.3036,64.1094 Q569.3036,66.3438 569.7255,67.3438 Q570.163,68.3438 571.1005,68.3438 Q572.0536,68.3438 572.4755,67.3438 Q572.913,66.3438 572.913,64.1094 Q572.913,61.875 572.4755,60.875 Q572.0536,59.875 571.1005,59.875 Z M566.7567,64.1094 Q566.7567,60.9375 567.8505,59.3125 Q568.9599,57.6719 571.1005,57.6719 Q573.2567,57.6719 574.3505,59.3125 Q575.4599,60.9375 575.4599,64.1094 Q575.4599,67.2813 574.3505,68.9063 Q573.2567,70.5313 571.1005,70.5313 Q568.9599,70.5313 567.8505,68.9063 Q566.7567,67.2813 566.7567,64.1094 Z " fill="#000000"/><text fill="#000000" font-family="sans-serif" font-size="14" lengthAdjust="spacing" textLength="8.9072" x="590.378" y="69.1436">5</text><line style="stroke:#181818;stroke-width:0.5;" x1="532.75" x2="625.5264" y1="80.2969" y2="80.2969"/><text fill="#000000" font-family="sans-serif" font-size="14" lengthAdjust="spacing" textLength="82.7764" x="537.75" y="97.292">journal_issn</text><text fill="#000000" font-family="sans-serif" font-size="14" lengthAdjust="spacing" textLength="48.8291" x="537.75" y="113.5889">%y-%b</text></g><!--class 9--><g id="elem_9"><rect codeLine="50" fill="#F1F1F1" height="72.5938" id="9" rx="2.5" ry="2.5" style="stroke:#181818;stroke-width:0.5;" width="137.4258" x="711.43" y="48.2969"/><ellipse cx="771.4393" cy="64.2969" fill="#DA70D6" rx="11" ry="11" style="stroke:#181818;stroke-width:1;"/><path d="M771.5487,59.875 Q770.6112,59.875 770.1737,60.875 Q769.7518,61.875 769.7518,64.1094 Q769.7518,66.3438 770.1737,67.3438 Q770.6112,68.3438 771.5487,68.3438 Q772.5018,68.3438 772.9237,67.3438 Q773.3612,66.3438 773.3612,64.1094 Q773.3612,61.875 772.9237,60.875 Q772.5018,59.875 771.5487,59.875 Z M767.2049,64.1094 Q767.2049,60.9375 768.2987,59.3125 Q769.408,57.6719 771.5487,57.6719 Q773.7049,57.6719 774.7987,59.3125 Q775.908,60.9375 775.908,64.1094 Q775.908,67.2813 774.7987,68.9063 Q773.7049,70.5313 771.5487,70.5313 Q769.408,70.5313 768.2987,68.9063 Q767.2049,67.2813 767.2049,64.1094 Z " fill="#000000"/><text fill="#000000" font-family="sans-serif" font-size="14" lengthAdjust="spacing" textLength="8.9072" x="791.9393" y="69.1436">9</text><line style="stroke:#181818;stroke-width:0.5;" x1="712.43" x2="847.8558" y1="80.2969" y2="80.2969"/><text fill="#000000" font-family="sans-serif" font-size="14" lengthAdjust="spacing" textLength="125.4258" x="717.43" y="97.292">article_pagination</text><text fill="#000000" font-family="sans-serif" font-size="14" lengthAdjust="spacing" textLength="48.8291" x="717.43" y="113.5889">%b-%y</text></g><!--class 6--><g id="elem_6"><rect codeLine="55" fill="#F1F1F1" height="72.5938" id="6" rx="2.5" ry="2.5" style="stroke:#181818;stroke-width:0.5;" width="118.9277" x="933.68" y="48.2969"/><ellipse cx="984.4403" cy="64.2969" fill="#DA70D6" rx="11" ry="11" style="stroke:#181818;stroke-width:1;"/><path d="M984.5496,59.875 Q983.6121,59.875 983.1746,60.875 Q982.7528,61.875 982.7528,64.1094 Q982.7528,66.3438 983.1746,67.3438 Q983.6121,68.3438 984.5496,68.3438 Q985.5028,68.3438 985.9246,67.3438 Q986.3621,66.3438 986.3621,64.1094 Q986.3621,61.875 985.9246,60.875 Q985.5028,59.875 984.5496,59.875 Z M980.2059,64.1094 Q980.2059,60.9375 981.2996,59.3125 Q982.409,57.6719 984.5496,57.6719 Q986.7059,57.6719 987.7996,59.3125 Q988.909,60.9375 988.909,64.1094 Q988.909,67.2813 987.7996,68.9063 Q986.7059,70.5313 984.5496,70.5313 Q982.409,70.5313 981.2996,68.9063 Q980.2059,67.2813 980.2059,64.1094 Z " fill="#000000"/><text fill="#000000" font-family="sans-serif" font-size="14" lengthAdjust="spacing" textLength="8.9072" x="1004.9403" y="69.1436">6</text><line style="stroke:#181818;stroke-width:0.5;" x1="934.68" x2="1051.6077" y1="80.2969" y2="80.2969"/><text fill="#000000" font-family="sans-serif" font-size="14" lengthAdjust="spacing" textLength="106.9277" x="939.68" y="97.292">article_jvolumn</text><text fill="#000000" font-family="sans-serif" font-size="14" lengthAdjust="spacing" textLength="13.959" x="939.68" y="113.5889">-1</text></g><!--class 7--><g id="elem_7"><rect codeLine="60" fill="#F1F1F1" height="72.5938" id="7" rx="2.5" ry="2.5" style="stroke:#181818;stroke-width:0.5;" width="102.7676" x="1136.76" y="48.2969"/><ellipse cx="1179.5972" cy="64.2969" fill="#DA70D6" rx="11" ry="11" style="stroke:#181818;stroke-width:1;"/><path d="M1179.7065,59.875 Q1178.769,59.875 1178.3315,60.875 Q1177.9097,61.875 1177.9097,64.1094 Q1177.9097,66.3438 1178.3315,67.3438 Q1178.769,68.3438 1179.7065,68.3438 Q1180.6597,68.3438 1181.0815,67.3438 Q1181.519,66.3438 1181.519,64.1094 Q1181.519,61.875 1181.0815,60.875 Q1180.6597,59.875 1179.7065,59.875 Z M1175.3628,64.1094 Q1175.3628,60.9375 1176.4565,59.3125 Q1177.5659,57.6719 1179.7065,57.6719 Q1181.8628,57.6719 1182.9565,59.3125 Q1184.0659,60.9375 1184.0659,64.1094 Q1184.0659,67.2813 1182.9565,68.9063 Q1181.8628,70.5313 1179.7065,70.5313 Q1177.5659,70.5313 1176.4565,68.9063 Q1175.3628,67.2813 1175.3628,64.1094 Z " fill="#000000"/><text fill="#000000" font-family="sans-serif" font-size="14" lengthAdjust="spacing" textLength="8.9072" x="1199.7832" y="69.1436">7</text><line style="stroke:#181818;stroke-width:0.5;" x1="1137.76" x2="1238.5276" y1="80.2969" y2="80.2969"/><text fill="#000000" font-family="sans-serif" font-size="14" lengthAdjust="spacing" textLength="90.7676" x="1142.76" y="97.292">article_jissue</text><text fill="#000000" font-family="sans-serif" font-size="14" lengthAdjust="spacing" textLength="13.959" x="1142.76" y="113.5889">-1</text></g><!--class level_3_end--><g id="elem_level_3_end"><rect fill="#F1F1F1" height="32" id="level_3_end" rx="2.5" ry="2.5" style="stroke:#181818;stroke-width:0.5;" width="114.5713" x="521.86" y="868.6769"/><ellipse cx="536.86" cy="884.6769" fill="#ADD1B2" rx="11" ry="11" style="stroke:#181818;stroke-width:1;"/><path d="M539.8288,890.3175 Q539.2506,890.6144 538.61,890.755 Q537.9694,890.9113 537.2663,890.9113 Q534.7663,890.9113 533.4381,889.2706 Q532.1256,887.6144 532.1256,884.4894 Q532.1256,881.3644 533.4381,879.7081 Q534.7663,878.0519 537.2663,878.0519 Q537.9694,878.0519 538.61,878.2081 Q539.2663,878.3644 539.8288,878.6613 L539.8288,881.38 Q539.2038,880.8019 538.61,880.5363 Q538.0163,880.255 537.3913,880.255 Q536.0475,880.255 535.36,881.3331 Q534.6725,882.3956 534.6725,884.4894 Q534.6725,886.5831 535.36,887.6613 Q536.0475,888.7238 537.3913,888.7238 Q538.0163,888.7238 538.61,888.4581 Q539.2038,888.1769 539.8288,887.5988 L539.8288,890.3175 Z " fill="#000000"/><text fill="#000000" font-family="sans-serif" font-size="14" lengthAdjust="spacing" textLength="82.5713" x="550.86" y="889.5236">level_3_end</text></g><!--link 3 to SINGLE_END--><g id="link_3_SINGLE_END"><path codeLine="34" d="M97.52,102.9069 C117.74,110.2569 141.95,118.5669 164.14,124.8969 C288.69,160.4169 431.6149,189.3499 512.8949,204.7499 " fill="none" id="3-to-SINGLE_END" style="stroke:#181818;stroke-width:1;"/><polygon fill="#181818" points="518.79,205.8669,510.6919,200.2614,513.8774,204.9361,509.2027,208.1215,518.79,205.8669" style="stroke:#181818;stroke-width:1;"/><text fill="#000000" font-family="sans-serif" font-size="13" lengthAdjust="spacing" textLength="29.0278" x="346.14" y="167.9638">next</text></g><!--link 3 to 4--><g id="link_3_4"><path codeLine="38" d="M103.72,84.5969 C129.43,84.5969 149.52,84.5969 175.55,84.5969 " fill="none" id="3-4" style="stroke:#181818;stroke-width:1;"/><polygon fill="#181818" points="97.72,84.5969,106.72,88.5969,102.72,84.5969,106.72,80.5969,97.72,84.5969" style="stroke:#181818;stroke-width:1;"/><polygon fill="#181818" points="181.55,84.5969,172.55,80.5969,176.55,84.5969,172.55,88.5969,181.55,84.5969" style="stroke:#181818;stroke-width:1;"/><text fill="#000000" font-family="sans-serif" font-size="13" lengthAdjust="spacing" textLength="48.3628" x="115.51" y="77.6638">parallel</text></g><!--link 4 to SINGLE_END--><g id="link_4_SINGLE_END"><path codeLine="39" d="M276.93,103.6769 C323.24,121.1769 395.47,148.4369 458.14,171.8969 C484.49,181.7569 508.455,190.6789 531.785,199.3389 " fill="none" id="4-to-SINGLE_END" style="stroke:#181818;stroke-width:1;"/><polygon fill="#181818" points="537.41,201.4269,530.3645,194.5449,532.7225,199.6869,527.5806,202.0449,537.41,201.4269" style="stroke:#181818;stroke-width:1;"/><text fill="#000000" font-family="sans-serif" font-size="13" lengthAdjust="spacing" textLength="29.0278" x="459.14" y="167.9638">next</text></g><!--link 4 to 8--><g id="link_4_8"><path codeLine="43" d="M282.96,84.5969 C309.17,84.5969 329.41,84.5969 354.87,84.5969 " fill="none" id="4-8" style="stroke:#181818;stroke-width:1;"/><polygon fill="#181818" points="276.96,84.5969,285.96,88.5969,281.96,84.5969,285.96,80.5969,276.96,84.5969" style="stroke:#181818;stroke-width:1;"/><polygon fill="#181818" points="360.87,84.5969,351.87,80.5969,355.87,84.5969,351.87,88.5969,360.87,84.5969" style="stroke:#181818;stroke-width:1;"/><text fill="#000000" font-family="sans-serif" font-size="13" lengthAdjust="spacing" textLength="48.3628" x="294.92" y="77.6638">parallel</text></g><!--link 8 to SINGLE_END--><g id="link_8_SINGLE_END"><path codeLine="44" d="M447.4,118.0569 C482.83,144.6369 526.5804,177.4663 553.7604,197.8563 " fill="none" id="8-to-SINGLE_END" style="stroke:#181818;stroke-width:1;"/><polygon fill="#181818" points="558.56,201.4569,553.761,192.8563,554.5604,198.4564,548.9603,199.2557,558.56,201.4569" style="stroke:#181818;stroke-width:1;"/><text fill="#000000" font-family="sans-serif" font-size="13" lengthAdjust="spacing" textLength="29.0278" x="519.14" y="167.9638">next</text></g><!--link 8 to 5--><g id="link_8_5"><path codeLine="48" d="M453.4,84.5969 C478.91,84.5969 499.22,84.5969 525.46,84.5969 " fill="none" id="8-5" style="stroke:#181818;stroke-width:1;"/><polygon fill="#181818" points="447.4,84.5969,456.4,88.5969,452.4,84.5969,456.4,80.5969,447.4,84.5969" style="stroke:#181818;stroke-width:1;"/><polygon fill="#181818" points="531.46,84.5969,522.46,80.5969,526.46,84.5969,522.46,88.5969,531.46,84.5969" style="stroke:#181818;stroke-width:1;"/><text fill="#000000" font-family="sans-serif" font-size="13" lengthAdjust="spacing" textLength="48.3628" x="465.37" y="77.6638">parallel</text></g><!--link 5 to SINGLE_END--><g id="link_5_SINGLE_END"><path codeLine="49" d="M579.14,121.1269 C579.14,147.4069 579.14,175.9069 579.14,195.5069 " fill="none" id="5-to-SINGLE_END" style="stroke:#181818;stroke-width:1;"/><polygon fill="#181818" points="579.14,201.5069,583.14,192.5069,579.14,196.5069,575.14,192.5069,579.14,201.5069" style="stroke:#181818;stroke-width:1;"/><text fill="#000000" font-family="sans-serif" font-size="13" lengthAdjust="spacing" textLength="29.0278" x="580.14" y="167.9638">next</text></g><!--link 5 to 9--><g id="link_5_9"><path codeLine="53" d="M632.78,84.5969 C657.97,84.5969 677.36,84.5969 705.16,84.5969 " fill="none" id="5-9" style="stroke:#181818;stroke-width:1;"/><polygon fill="#181818" points="626.78,84.5969,635.78,88.5969,631.78,84.5969,635.78,80.5969,626.78,84.5969" style="stroke:#181818;stroke-width:1;"/><polygon fill="#181818" points="711.16,84.5969,702.16,80.5969,706.16,84.5969,702.16,88.5969,711.16,84.5969" style="stroke:#181818;stroke-width:1;"/><text fill="#000000" font-family="sans-serif" font-size="13" lengthAdjust="spacing" textLength="48.3628" x="644.98" y="77.6638">parallel</text></g><!--link 9 to SINGLE_END--><g id="link_9_SINGLE_END"><path codeLine="54" d="M725.48,121.3069 C685.26,147.5769 637.5938,178.7165 607.6538,198.2665 " fill="none" id="9-to-SINGLE_END" style="stroke:#181818;stroke-width:1;"/><polygon fill="#181818" points="602.63,201.5469,612.3527,199.9755,606.8165,198.8132,607.9788,193.277,602.63,201.5469" style="stroke:#181818;stroke-width:1;"/><text fill="#000000" font-family="sans-serif" font-size="13" lengthAdjust="spacing" textLength="29.0278" x="675.14" y="167.9638">next</text></g><!--link 9 to 6--><g id="link_9_6"><path codeLine="58" d="M855.3,84.5969 C882.39,84.5969 901.17,84.5969 927.28,84.5969 " fill="none" id="9-6" style="stroke:#181818;stroke-width:1;"/><polygon fill="#181818" points="849.3,84.5969,858.3,88.5969,854.3,84.5969,858.3,80.5969,849.3,84.5969" style="stroke:#181818;stroke-width:1;"/><polygon fill="#181818" points="933.28,84.5969,924.28,80.5969,928.28,84.5969,924.28,88.5969,933.28,84.5969" style="stroke:#181818;stroke-width:1;"/><text fill="#000000" font-family="sans-serif" font-size="13" lengthAdjust="spacing" textLength="48.3628" x="867.27" y="77.6638">parallel</text></g><!--link 6 to SINGLE_END--><g id="link_6_SINGLE_END"><path codeLine="59" d="M933.39,104.5469 C850.98,130.6869 709.7492,175.4729 633.6092,199.6229 " fill="none" id="6-to-SINGLE_END" style="stroke:#181818;stroke-width:1;"/><polygon fill="#181818" points="627.89,201.4369,637.6782,202.5287,632.656,199.9252,635.2595,194.903,627.89,201.4369" style="stroke:#181818;stroke-width:1;"/><text fill="#000000" font-family="sans-serif" font-size="13" lengthAdjust="spacing" textLength="29.0278" x="775.14" y="167.9638">next</text></g><!--link 6 to 7--><g id="link_6_7"><path codeLine="63" d="M1058.97,84.5969 C1085.62,84.5969 1104.7,84.5969 1130.34,84.5969 " fill="none" id="6-7" style="stroke:#181818;stroke-width:1;"/><polygon fill="#181818" points="1052.97,84.5969,1061.97,88.5969,1057.97,84.5969,1061.97,80.5969,1052.97,84.5969" style="stroke:#181818;stroke-width:1;"/><polygon fill="#181818" points="1136.34,84.5969,1127.34,80.5969,1131.34,84.5969,1127.34,88.5969,1136.34,84.5969" style="stroke:#181818;stroke-width:1;"/><text fill="#000000" font-family="sans-serif" font-size="13" lengthAdjust="spacing" textLength="48.3628" x="1070.68" y="77.6638">parallel</text></g><!--link 7 to SINGLE_END--><g id="link_7_SINGLE_END"><path codeLine="64" d="M1136.32,104.5569 C1115.89,111.5769 1092.09,119.2169 1070.14,124.8969 C916.92,164.5669 738.5645,193.5431 645.3645,207.4231 " fill="none" id="7-to-SINGLE_END" style="stroke:#181818;stroke-width:1;"/><polygon fill="#181818" points="639.43,208.3069,648.921,210.9375,644.3755,207.5704,647.7426,203.0248,639.43,208.3069" style="stroke:#181818;stroke-width:1;"/><text fill="#000000" font-family="sans-serif" font-size="13" lengthAdjust="spacing" textLength="29.0278" x="938.14" y="167.9638">next</text></g><!--link SINGLE_END to 0--><g id="link_SINGLE_END_0"><path codeLine="65" d="M579.14,233.9969 C579.14,252.7669 579.14,279.4069 579.14,304.6569 " fill="none" id="SINGLE_END-to-0" style="stroke:#181818;stroke-width:1;"/><polygon fill="#181818" points="579.14,310.6569,583.14,301.6569,579.14,305.6569,575.14,301.6569,579.14,310.6569" style="stroke:#181818;stroke-width:1;"/><text fill="#000000" font-family="sans-serif" font-size="13" lengthAdjust="spacing" textLength="29.0278" x="580.14" y="276.9638">next</text></g><!--link 0 to level_2_end--><g id="link_0_level_2_end"><path codeLine="66" d="M579.14,383.6469 C579.14,408.8069 579.14,435.3369 579.14,454.1569 " fill="none" id="0-to-level_2_end" style="stroke:#181818;stroke-width:1;"/><polygon fill="#181818" points="579.14,460.1569,583.14,451.1569,579.14,455.1569,575.14,451.1569,579.14,460.1569" style="stroke:#181818;stroke-width:1;"/><text fill="#000000" font-family="sans-serif" font-size="13" lengthAdjust="spacing" textLength="29.0278" x="580.14" y="426.5538">next</text></g><!--link level_2_end to 1--><g id="link_level_2_end_1"><path codeLine="67" d="M579.14,492.5869 C579.14,511.3569 579.14,537.9969 579.14,563.2469 " fill="none" id="level_2_end-to-1" style="stroke:#181818;stroke-width:1;"/><polygon fill="#181818" points="579.14,569.2469,583.14,560.2469,579.14,564.2469,575.14,560.2469,579.14,569.2469" style="stroke:#181818;stroke-width:1;"/><text fill="#000000" font-family="sans-serif" font-size="13" lengthAdjust="spacing" textLength="29.0278" x="580.14" y="535.5538">next</text></g><!--link 1 to 2--><g id="link_1_2"><path codeLine="68" d="M579.14,642.5169 C579.14,665.6369 579.14,689.6169 579.14,712.7269 " fill="none" id="1-to-2" style="stroke:#181818;stroke-width:1;"/><polygon fill="#181818" points="579.14,718.7269,583.14,709.7269,579.14,713.7269,575.14,709.7269,579.14,718.7269" style="stroke:#181818;stroke-width:1;"/><text fill="#000000" font-family="sans-serif" font-size="13" lengthAdjust="spacing" textLength="29.0278" x="580.14" y="685.1538">next</text></g><!--link 2 to level_3_end--><g id="link_2_level_3_end"><path codeLine="69" d="M579.14,791.8369 C579.14,816.9969 579.14,843.5269 579.14,862.3469 " fill="none" id="2-to-level_3_end" style="stroke:#181818;stroke-width:1;"/><polygon fill="#181818" points="579.14,868.3469,583.14,859.3469,579.14,863.3469,575.14,859.3469,579.14,868.3469" style="stroke:#181818;stroke-width:1;"/><text fill="#000000" font-family="sans-serif" font-size="13" lengthAdjust="spacing" textLength="29.0278" x="580.14" y="834.7438">next</text></g><!--SRC=[ZPJVYjD058Vlvod6Ys8733JfVwa5Mui8onRq0SeqEPlExcIcJ2RT5X44lH7n0VHQy6x1EqNqQIpLjt0cCUrqTz7qflJxdVdEoKcQEn6SCG7uAOHwkWH5jLJrDS4XfscArtWmmFNfFInLk60HmSCXGka54qkgQ8ALEKH5p04_HzXyHZIyY9NCH3IMNAh1O3eSuXCMB_I8Pr2KI1M1ocCyugO-fm-LafSkV86GPjg8nvAg5BnOKJDbXCSSg0259si8Cysam5Fhi-FB904HKGiHkhlxzEtt-uy_lxxTldct-_1w- -NLzlFBNrS_Tj-laBaIm90izGP7a8QABVD33av0BsIKkkYC0JS47ItgsPFJnoUJsUJq4RcMS5W1d_apCzBjKN1Rr22eWU_ZL6OgX0VdvajGFgFpkO8LAoxDvfgg6FG-ppTrBF89ylyZyc-AM9gAOqz0K73JKpGCgWYQ13LD7LMQXHp-dhGa1LstcHV9I-4DyM6L9XImriUU5a4j4nnFq78y0q_P1ysOBBNF9-V0JKd51Zs2UdRGpDnvDUCirVdlGjzoz3rNtwkgRnFKTkRF5sL1RUFLvaPpyBTTVxkglqzGtzdpaiPC5FVPujhSgssCxD2bxtRfL-tI8QZZT3bVIPub8cUURpG7VyVrTwhwkmHrNRzPatblT0jznz5tNNtt7tg7b4MDCcliaVENB4CNbML-6Vfx59Gek2PhEh8_]--></g></svg>