<svg xmlns="http://www.w3.org/2000/svg" xmlns:xlink="http://www.w3.org/1999/xlink" contentStyleType="text/css" height="704px" preserveAspectRatio="none" style="width:857px;height:704px;background:#FFFFFF;" version="1.1" viewBox="0 0 857 704" width="857px" zoomAndPan="magnify"><title>Coarse-grained Cleaner Execution Order Recommendation</title><defs/><g><text fill="#000000" font-family="sans-serif" font-size="14" font-weight="bold" lengthAdjust="spacing" textLength="460.4482" x="191.3965" y="22.9951">Coarse-grained Cleaner Execution Order Recommendation</text><!--class SINGLE_END--><g id="elem_SINGLE_END"><rect codeLine="16" fill="#F1F1F1" height="32" id="SINGLE_END" rx="2.5" ry="2.5" style="stroke:#181818;stroke-width:0.5;" width="120.0811" x="289.91" y="201.8969"/><ellipse cx="304.91" cy="217.8969" fill="#DA70D6" rx="11" ry="11" style="stroke:#181818;stroke-width:1;"/><path d="M305.0194,213.475 Q304.0819,213.475 303.6444,214.475 Q303.2225,215.475 303.2225,217.7094 Q303.2225,219.9438 303.6444,220.9438 Q304.0819,221.9438 305.0194,221.9438 Q305.9725,221.9438 306.3944,220.9438 Q306.8319,219.9438 306.8319,217.7094 Q306.8319,215.475 306.3944,214.475 Q305.9725,213.475 305.0194,213.475 Z M300.6756,217.7094 Q300.6756,214.5375 301.7694,212.9125 Q302.8788,211.2719 305.0194,211.2719 Q307.1756,211.2719 308.2694,212.9125 Q309.3788,214.5375 309.3788,217.7094 Q309.3788,220.8813 308.2694,222.5063 Q307.1756,224.1313 305.0194,224.1313 Q302.8788,224.1313 301.7694,222.5063 Q300.6756,220.8813 300.6756,217.7094 Z " fill="#000000"/><text fill="#000000" font-family="sans-serif" font-size="14" lengthAdjust="spacing" textLength="88.0811" x="318.91" y="222.7436">SINGLE_END</text></g><!--class level_1_end--><g id="elem_level_1_end"><rect codeLine="18" fill="#F1F1F1" height="32" id="level_1_end" rx="2.5" ry="2.5" style="stroke:#181818;stroke-width:0.5;" width="114.5713" x="735.67" y="68.5969"/><ellipse cx="750.67" cy="84.5969" fill="#DA70D6" rx="11" ry="11" style="stroke:#181818;stroke-width:1;"/><path d="M750.7794,80.175 Q749.8419,80.175 749.4044,81.175 Q748.9825,82.175 748.9825,84.4094 Q748.9825,86.6437 749.4044,87.6437 Q749.8419,88.6437 750.7794,88.6437 Q751.7325,88.6437 752.1544,87.6437 Q752.5919,86.6437 752.5919,84.4094 Q752.5919,82.175 752.1544,81.175 Q751.7325,80.175 750.7794,80.175 Z M746.4356,84.4094 Q746.4356,81.2375 747.5294,79.6125 Q748.6388,77.9719 750.7794,77.9719 Q752.9356,77.9719 754.0294,79.6125 Q755.1388,81.2375 755.1388,84.4094 Q755.1388,87.5812 754.0294,89.2062 Q752.9356,90.8312 750.7794,90.8312 Q748.6388,90.8312 747.5294,89.2062 Q746.4356,87.5812 746.4356,84.4094 Z " fill="#000000"/><text fill="#000000" font-family="sans-serif" font-size="14" lengthAdjust="spacing" textLength="82.5713" x="764.67" y="89.4436">level_1_end</text></g><!--class 6--><g id="elem_6"><rect codeLine="20" fill="#F1F1F1" height="72.5938" id="6" rx="2.5" ry="2.5" style="stroke:#181818;stroke-width:0.5;" width="91.9053" x="7" y="413.4869"/><ellipse cx="44.9491" cy="429.4869" fill="#DA70D6" rx="11" ry="11" style="stroke:#181818;stroke-width:1;"/><path d="M45.0585,425.065 Q44.121,425.065 43.6835,426.065 Q43.2616,427.065 43.2616,429.2994 Q43.2616,431.5338 43.6835,432.5338 Q44.121,433.5338 45.0585,433.5338 Q46.0116,433.5338 46.4335,432.5338 Q46.871,431.5338 46.871,429.2994 Q46.871,427.065 46.4335,426.065 Q46.0116,425.065 45.0585,425.065 Z M40.7147,429.2994 Q40.7147,426.1275 41.8085,424.5025 Q42.9179,422.8619 45.0585,422.8619 Q47.2147,422.8619 48.3085,424.5025 Q49.4179,426.1275 49.4179,429.2994 Q49.4179,432.4713 48.3085,434.0963 Q47.2147,435.7213 45.0585,435.7213 Q42.9179,435.7213 41.8085,434.0963 Q40.7147,432.4713 40.7147,429.2994 Z " fill="#000000"/><text fill="#000000" font-family="sans-serif" font-size="14" lengthAdjust="spacing" textLength="8.9072" x="64.0489" y="434.3336">6</text><line style="stroke:#181818;stroke-width:0.5;" x1="8" x2="97.9053" y1="445.4869" y2="445.4869"/><text fill="#000000" font-family="sans-serif" font-size="14" lengthAdjust="spacing" textLength="78.6543" x="13" y="462.482">source=zip</text><text fill="#000000" font-family="sans-serif" font-size="14" lengthAdjust="spacing" textLength="79.9053" x="13" y="478.7789">target=city</text></g><!--class 7--><g id="elem_7"><rect codeLine="23" fill="#F1F1F1" height="72.5938" id="7" rx="2.5" ry="2.5" style="stroke:#181818;stroke-width:0.5;" width="116.1729" x="134.87" y="413.4869"/><ellipse cx="184.2528" cy="429.4869" fill="#DA70D6" rx="11" ry="11" style="stroke:#181818;stroke-width:1;"/><path d="M184.3622,425.065 Q183.4247,425.065 182.9872,426.065 Q182.5653,427.065 182.5653,429.2994 Q182.5653,431.5338 182.9872,432.5338 Q183.4247,433.5338 184.3622,433.5338 Q185.3153,433.5338 185.7372,432.5338 Q186.1747,431.5338 186.1747,429.2994 Q186.1747,427.065 185.7372,426.065 Q185.3153,425.065 184.3622,425.065 Z M180.0184,429.2994 Q180.0184,426.1275 181.1122,424.5025 Q182.2216,422.8619 184.3622,422.8619 Q186.5184,422.8619 187.6122,424.5025 Q188.7216,426.1275 188.7216,429.2994 Q188.7216,432.4713 187.6122,434.0963 Q186.5184,435.7213 184.3622,435.7213 Q182.2216,435.7213 181.1122,434.0963 Q180.0184,432.4713 180.0184,429.2994 Z " fill="#000000"/><text fill="#000000" font-family="sans-serif" font-size="14" lengthAdjust="spacing" textLength="8.9072" x="204.7528" y="434.3336">7</text><line style="stroke:#181818;stroke-width:0.5;" x1="135.87" x2="250.0429" y1="445.4869" y2="445.4869"/><text fill="#000000" font-family="sans-serif" font-size="14" lengthAdjust="spacing" textLength="103.1611" x="140.87" y="462.482">source=fname</text><text fill="#000000" font-family="sans-serif" font-size="14" lengthAdjust="spacing" textLength="104.1729" x="140.87" y="478.7789">target=gender</text></g><!--class 9--><g id="elem_9"><rect codeLine="26" fill="#F1F1F1" height="72.5938" id="9" rx="2.5" ry="2.5" style="stroke:#181818;stroke-width:0.5;" width="183.4932" x="210.21" y="516.0869"/><ellipse cx="293.253" cy="532.0869" fill="#DA70D6" rx="11" ry="11" style="stroke:#181818;stroke-width:1;"/><path d="M293.3623,527.665 Q292.4248,527.665 291.9873,528.665 Q291.5655,529.665 291.5655,531.8994 Q291.5655,534.1338 291.9873,535.1338 Q292.4248,536.1338 293.3623,536.1338 Q294.3155,536.1338 294.7373,535.1338 Q295.1748,534.1338 295.1748,531.8994 Q295.1748,529.665 294.7373,528.665 Q294.3155,527.665 293.3623,527.665 Z M289.0186,531.8994 Q289.0186,528.7275 290.1123,527.1025 Q291.2217,525.4619 293.3623,525.4619 Q295.5186,525.4619 296.6123,527.1025 Q297.7217,528.7275 297.7217,531.8994 Q297.7217,535.0713 296.6123,536.6963 Q295.5186,538.3213 293.3623,538.3213 Q291.2217,538.3213 290.1123,536.6963 Q289.0186,535.0713 289.0186,531.8994 Z " fill="#000000"/><text fill="#000000" font-family="sans-serif" font-size="14" lengthAdjust="spacing" textLength="8.9072" x="313.753" y="536.9336">9</text><line style="stroke:#181818;stroke-width:0.5;" x1="211.21" x2="392.7032" y1="548.0869" y2="548.0869"/><text fill="#000000" font-family="sans-serif" font-size="14" lengthAdjust="spacing" textLength="171.4932" x="216.21" y="565.082">source=maritalstatuszip</text><text fill="#000000" font-family="sans-serif" font-size="14" lengthAdjust="spacing" textLength="144.0264" x="216.21" y="581.3789">target=singleexemp</text></g><!--class 10--><g id="elem_10"><rect codeLine="29" fill="#F1F1F1" height="72.5938" id="10" rx="2.5" ry="2.5" style="stroke:#181818;stroke-width:0.5;" width="183.4932" x="333.21" y="413.4869"/><ellipse cx="411.7994" cy="429.4869" fill="#DA70D6" rx="11" ry="11" style="stroke:#181818;stroke-width:1;"/><path d="M411.9087,425.065 Q410.9712,425.065 410.5337,426.065 Q410.1119,427.065 410.1119,429.2994 Q410.1119,431.5338 410.5337,432.5338 Q410.9712,433.5338 411.9087,433.5338 Q412.8619,433.5338 413.2837,432.5338 Q413.7212,431.5338 413.7212,429.2994 Q413.7212,427.065 413.2837,426.065 Q412.8619,425.065 411.9087,425.065 Z M407.565,429.2994 Q407.565,426.1275 408.6587,424.5025 Q409.7681,422.8619 411.9087,422.8619 Q414.065,422.8619 415.1587,424.5025 Q416.2681,426.1275 416.2681,429.2994 Q416.2681,432.4713 415.1587,434.0963 Q414.065,435.7213 411.9087,435.7213 Q409.7681,435.7213 408.6587,434.0963 Q407.565,432.4713 407.565,429.2994 Z " fill="#000000"/><text fill="#000000" font-family="sans-serif" font-size="14" lengthAdjust="spacing" textLength="17.8145" x="432.2994" y="434.3336">10</text><line style="stroke:#181818;stroke-width:0.5;" x1="334.21" x2="515.7032" y1="445.4869" y2="445.4869"/><text fill="#000000" font-family="sans-serif" font-size="14" lengthAdjust="spacing" textLength="171.4932" x="339.21" y="462.482">source=maritalstatuszip</text><text fill="#000000" font-family="sans-serif" font-size="14" lengthAdjust="spacing" textLength="157.6982" x="339.21" y="478.7789">target=marriedexemp</text></g><!--class 4--><g id="elem_4"><rect codeLine="32" fill="#F1F1F1" height="72.5938" id="4" rx="2.5" ry="2.5" style="stroke:#181818;stroke-width:0.5;" width="102.0088" x="529.95" y="516.0869"/><ellipse cx="572.4457" cy="532.0869" fill="#DA70D6" rx="11" ry="11" style="stroke:#181818;stroke-width:1;"/><path d="M572.5551,527.665 Q571.6176,527.665 571.1801,528.665 Q570.7582,529.665 570.7582,531.8994 Q570.7582,534.1338 571.1801,535.1338 Q571.6176,536.1338 572.5551,536.1338 Q573.5082,536.1338 573.9301,535.1338 Q574.3676,534.1338 574.3676,531.8994 Q574.3676,529.665 573.9301,528.665 Q573.5082,527.665 572.5551,527.665 Z M568.2113,531.8994 Q568.2113,528.7275 569.3051,527.1025 Q570.4145,525.4619 572.5551,525.4619 Q574.7113,525.4619 575.8051,527.1025 Q576.9145,528.7275 576.9145,531.8994 Q576.9145,535.0713 575.8051,536.6963 Q574.7113,538.3213 572.5551,538.3213 Q570.4145,538.3213 569.3051,536.6963 Q568.2113,535.0713 568.2113,531.8994 Z " fill="#000000"/><text fill="#000000" font-family="sans-serif" font-size="14" lengthAdjust="spacing" textLength="8.9072" x="592.5559" y="536.9336">4</text><line style="stroke:#181818;stroke-width:0.5;" x1="530.95" x2="630.9588" y1="548.0869" y2="548.0869"/><text fill="#000000" font-family="sans-serif" font-size="14" lengthAdjust="spacing" textLength="78.6543" x="535.95" y="565.082">source=zip</text><text fill="#000000" font-family="sans-serif" font-size="14" lengthAdjust="spacing" textLength="90.0088" x="535.95" y="581.3789">target=state</text></g><!--class 5--><g id="elem_5"><rect codeLine="35" fill="#F1F1F1" height="72.5938" id="5" rx="2.5" ry="2.5" style="stroke:#181818;stroke-width:0.5;" width="135.8193" x="452.04" y="310.8969"/><ellipse cx="511.2461" cy="326.8969" fill="#DA70D6" rx="11" ry="11" style="stroke:#181818;stroke-width:1;"/><path d="M511.3554,322.475 Q510.4179,322.475 509.9804,323.475 Q509.5586,324.475 509.5586,326.7094 Q509.5586,328.9438 509.9804,329.9438 Q510.4179,330.9438 511.3554,330.9438 Q512.3086,330.9438 512.7304,329.9438 Q513.1679,328.9438 513.1679,326.7094 Q513.1679,324.475 512.7304,323.475 Q512.3086,322.475 511.3554,322.475 Z M507.0117,326.7094 Q507.0117,323.5375 508.1054,321.9125 Q509.2148,320.2719 511.3554,320.2719 Q513.5117,320.2719 514.6054,321.9125 Q515.7148,323.5375 515.7148,326.7094 Q515.7148,329.8813 514.6054,331.5063 Q513.5117,333.1313 511.3554,333.1313 Q509.2148,333.1313 508.1054,331.5063 Q507.0117,329.8813 507.0117,326.7094 Z " fill="#000000"/><text fill="#000000" font-family="sans-serif" font-size="14" lengthAdjust="spacing" textLength="8.9072" x="531.7461" y="331.7436">5</text><line style="stroke:#181818;stroke-width:0.5;" x1="453.04" x2="586.8593" y1="342.8969" y2="342.8969"/><text fill="#000000" font-family="sans-serif" font-size="14" lengthAdjust="spacing" textLength="123.8193" x="458.04" y="359.892">source=areacode</text><text fill="#000000" font-family="sans-serif" font-size="14" lengthAdjust="spacing" textLength="90.0088" x="458.04" y="376.1889">target=state</text></g><!--class 8--><g id="elem_8"><rect codeLine="38" fill="#F1F1F1" height="72.5938" id="8" rx="2.5" ry="2.5" style="stroke:#181818;stroke-width:0.5;" width="148.6367" x="626.63" y="310.8969"/><ellipse cx="692.2447" cy="326.8969" fill="#DA70D6" rx="11" ry="11" style="stroke:#181818;stroke-width:1;"/><path d="M692.3541,322.475 Q691.4166,322.475 690.9791,323.475 Q690.5572,324.475 690.5572,326.7094 Q690.5572,328.9438 690.9791,329.9438 Q691.4166,330.9438 692.3541,330.9438 Q693.3072,330.9438 693.7291,329.9438 Q694.1666,328.9438 694.1666,326.7094 Q694.1666,324.475 693.7291,323.475 Q693.3072,322.475 692.3541,322.475 Z M688.0104,326.7094 Q688.0104,323.5375 689.1041,321.9125 Q690.2135,320.2719 692.3541,320.2719 Q694.5104,320.2719 695.6041,321.9125 Q696.7135,323.5375 696.7135,326.7094 Q696.7135,329.8813 695.6041,331.5063 Q694.5104,333.1313 692.3541,333.1313 Q690.2135,333.1313 689.1041,331.5063 Q688.0104,329.8813 688.0104,326.7094 Z " fill="#000000"/><text fill="#000000" font-family="sans-serif" font-size="14" lengthAdjust="spacing" textLength="8.9072" x="712.7447" y="331.7436">8</text><line style="stroke:#181818;stroke-width:0.5;" x1="627.63" x2="774.2667" y1="342.8969" y2="342.8969"/><text fill="#000000" font-family="sans-serif" font-size="14" lengthAdjust="spacing" textLength="136.6367" x="632.63" y="359.892">source=haschildzip</text><text fill="#000000" font-family="sans-serif" font-size="14" lengthAdjust="spacing" textLength="135.8164" x="632.63" y="376.1889">target=childexemp</text></g><!--class 11--><g id="elem_11"><rect codeLine="41" fill="#F1F1F1" height="80.5938" id="11" rx="2.5" ry="2.5" style="stroke:#181818;stroke-width:0.5;" width="56.6318" x="37.64" y="44.2969"/><ellipse cx="55.7078" cy="60.2969" fill="#DA70D6" rx="11" ry="11" style="stroke:#181818;stroke-width:1;"/><path d="M55.8172,55.875 Q54.8797,55.875 54.4422,56.875 Q54.0203,57.875 54.0203,60.1094 Q54.0203,62.3438 54.4422,63.3438 Q54.8797,64.3438 55.8172,64.3438 Q56.7703,64.3438 57.1922,63.3438 Q57.6297,62.3438 57.6297,60.1094 Q57.6297,57.875 57.1922,56.875 Q56.7703,55.875 55.8172,55.875 Z M51.4734,60.1094 Q51.4734,56.9375 52.5672,55.3125 Q53.6766,53.6719 55.8172,53.6719 Q57.9734,53.6719 59.0672,55.3125 Q60.1766,56.9375 60.1766,60.1094 Q60.1766,63.2813 59.0672,64.9063 Q57.9734,66.5313 55.8172,66.5313 Q53.6766,66.5313 52.5672,64.9063 Q51.4734,63.2813 51.4734,60.1094 Z " fill="#000000"/><text fill="#000000" font-family="sans-serif" font-size="14" lengthAdjust="spacing" textLength="17.8145" x="70.3896" y="65.1436">11</text><line style="stroke:#181818;stroke-width:0.5;" x1="38.64" x2="93.2718" y1="76.2969" y2="76.2969"/><text fill="#000000" font-family="sans-serif" font-size="14" lengthAdjust="spacing" textLength="44.6318" x="43.64" y="93.292">fname</text><line style="stroke:#181818;stroke-width:0.5;" x1="38.64" x2="93.2718" y1="100.5938" y2="100.5938"/><text fill="#000000" font-family="sans-serif" font-size="14" lengthAdjust="spacing" textLength="32.3203" x="43.64" y="117.5889">set()</text></g><!--class 12--><g id="elem_12"><rect codeLine="45" fill="#F1F1F1" height="80.5938" id="12" rx="2.5" ry="2.5" style="stroke:#181818;stroke-width:0.5;" width="55.5928" x="179.16" y="44.2969"/><ellipse cx="196.7602" cy="60.2969" fill="#DA70D6" rx="11" ry="11" style="stroke:#181818;stroke-width:1;"/><path d="M196.8696,55.875 Q195.9321,55.875 195.4946,56.875 Q195.0727,57.875 195.0727,60.1094 Q195.0727,62.3438 195.4946,63.3438 Q195.9321,64.3438 196.8696,64.3438 Q197.8227,64.3438 198.2446,63.3438 Q198.6821,62.3438 198.6821,60.1094 Q198.6821,57.875 198.2446,56.875 Q197.8227,55.875 196.8696,55.875 Z M192.5259,60.1094 Q192.5259,56.9375 193.6196,55.3125 Q194.729,53.6719 196.8696,53.6719 Q199.0259,53.6719 200.1196,55.3125 Q201.229,56.9375 201.229,60.1094 Q201.229,63.2813 200.1196,64.9063 Q199.0259,66.5313 196.8696,66.5313 Q194.729,66.5313 193.6196,64.9063 Q192.5259,63.2813 192.5259,60.1094 Z " fill="#000000"/><text fill="#000000" font-family="sans-serif" font-size="14" lengthAdjust="spacing" textLength="17.8145" x="211.3381" y="65.1436">12</text><line style="stroke:#181818;stroke-width:0.5;" x1="180.16" x2="233.7528" y1="76.2969" y2="76.2969"/><text fill="#000000" font-family="sans-serif" font-size="14" lengthAdjust="spacing" textLength="43.5928" x="185.16" y="93.292">lname</text><line style="stroke:#181818;stroke-width:0.5;" x1="180.16" x2="233.7528" y1="100.5938" y2="100.5938"/><text fill="#000000" font-family="sans-serif" font-size="14" lengthAdjust="spacing" textLength="32.3203" x="185.16" y="117.5889">set()</text></g><!--class 1--><g id="elem_1"><rect codeLine="50" fill="#F1F1F1" height="72.5938" id="1" rx="2.5" ry="2.5" style="stroke:#181818;stroke-width:0.5;" width="61.6289" x="319.14" y="48.2969"/><ellipse cx="343.4648" cy="64.2969" fill="#DA70D6" rx="11" ry="11" style="stroke:#181818;stroke-width:1;"/><path d="M343.5741,59.875 Q342.6366,59.875 342.1991,60.875 Q341.7773,61.875 341.7773,64.1094 Q341.7773,66.3438 342.1991,67.3438 Q342.6366,68.3438 343.5741,68.3438 Q344.5273,68.3438 344.9491,67.3438 Q345.3866,66.3438 345.3866,64.1094 Q345.3866,61.875 344.9491,60.875 Q344.5273,59.875 343.5741,59.875 Z M339.2304,64.1094 Q339.2304,60.9375 340.3241,59.3125 Q341.4335,57.6719 343.5741,57.6719 Q345.7304,57.6719 346.8241,59.3125 Q347.9335,60.9375 347.9335,64.1094 Q347.9335,67.2813 346.8241,68.9063 Q345.7304,70.5313 343.5741,70.5313 Q341.4335,70.5313 340.3241,68.9063 Q339.2304,67.2813 339.2304,64.1094 Z " fill="#000000"/><text fill="#000000" font-family="sans-serif" font-size="14" lengthAdjust="spacing" textLength="8.9072" x="359.5369" y="69.1436">1</text><line style="stroke:#181818;stroke-width:0.5;" x1="320.14" x2="379.7689" y1="80.2969" y2="80.2969"/><text fill="#000000" font-family="sans-serif" font-size="14" lengthAdjust="spacing" textLength="49.6289" x="325.14" y="97.292">gender</text><text fill="#000000" font-family="sans-serif" font-size="14" lengthAdjust="spacing" textLength="35.7725" x="325.14" y="113.5889">[M|F]</text></g><!--class 2--><g id="elem_2"><rect codeLine="55" fill="#F1F1F1" height="72.5938" id="2" rx="2.5" ry="2.5" style="stroke:#181818;stroke-width:0.5;" width="77.29" x="465.31" y="48.2969"/><ellipse cx="496.6823" cy="64.2969" fill="#DA70D6" rx="11" ry="11" style="stroke:#181818;stroke-width:1;"/><path d="M496.7916,59.875 Q495.8541,59.875 495.4166,60.875 Q494.9948,61.875 494.9948,64.1094 Q494.9948,66.3438 495.4166,67.3438 Q495.8541,68.3438 496.7916,68.3438 Q497.7448,68.3438 498.1666,67.3438 Q498.6041,66.3438 498.6041,64.1094 Q498.6041,61.875 498.1666,60.875 Q497.7448,59.875 496.7916,59.875 Z M492.4479,64.1094 Q492.4479,60.9375 493.5416,59.3125 Q494.651,57.6719 496.7916,57.6719 Q498.9479,57.6719 500.0416,59.3125 Q501.151,60.9375 501.151,64.1094 Q501.151,67.2813 500.0416,68.9063 Q498.9479,70.5313 496.7916,70.5313 Q494.651,70.5313 493.5416,68.9063 Q492.4479,67.2813 492.4479,64.1094 Z " fill="#000000"/><text fill="#000000" font-family="sans-serif" font-size="14" lengthAdjust="spacing" textLength="8.9072" x="514.3205" y="69.1436">2</text><line style="stroke:#181818;stroke-width:0.5;" x1="466.31" x2="541.6" y1="80.2969" y2="80.2969"/><text fill="#000000" font-family="sans-serif" font-size="14" lengthAdjust="spacing" textLength="65.29" x="471.31" y="97.292">areacode</text><text fill="#000000" font-family="sans-serif" font-size="14" lengthAdjust="spacing" textLength="60.5117" x="471.31" y="113.5889">[0-9]{3}</text></g><!--class 3--><g id="elem_3"><rect codeLine="60" fill="#F1F1F1" height="72.5938" id="3" rx="2.5" ry="2.5" style="stroke:#181818;stroke-width:0.5;" width="73.8652" x="627.02" y="48.2969"/><ellipse cx="656.8511" cy="64.2969" fill="#DA70D6" rx="11" ry="11" style="stroke:#181818;stroke-width:1;"/><path d="M656.9605,59.875 Q656.023,59.875 655.5855,60.875 Q655.1636,61.875 655.1636,64.1094 Q655.1636,66.3438 655.5855,67.3438 Q656.023,68.3438 656.9605,68.3438 Q657.9136,68.3438 658.3355,67.3438 Q658.773,66.3438 658.773,64.1094 Q658.773,61.875 658.3355,60.875 Q657.9136,59.875 656.9605,59.875 Z M652.6167,64.1094 Q652.6167,60.9375 653.7105,59.3125 Q654.8199,57.6719 656.9605,57.6719 Q659.1167,57.6719 660.2105,59.3125 Q661.3199,60.9375 661.3199,64.1094 Q661.3199,67.2813 660.2105,68.9063 Q659.1167,70.5313 656.9605,70.5313 Q654.8199,70.5313 653.7105,68.9063 Q652.6167,67.2813 652.6167,64.1094 Z " fill="#000000"/><text fill="#000000" font-family="sans-serif" font-size="14" lengthAdjust="spacing" textLength="8.9072" x="674.1469" y="69.1436">3</text><line style="stroke:#181818;stroke-width:0.5;" x1="628.02" x2="699.8852" y1="80.2969" y2="80.2969"/><text fill="#000000" font-family="sans-serif" font-size="14" lengthAdjust="spacing" textLength="35.4648" x="633.02" y="97.292">state</text><text fill="#000000" font-family="sans-serif" font-size="14" lengthAdjust="spacing" textLength="61.8652" x="633.02" y="113.5889">[A-Z]{2}</text></g><!--class level_2_end--><g id="elem_level_2_end"><rect fill="#F1F1F1" height="32" id="level_2_end" rx="2.5" ry="2.5" style="stroke:#181818;stroke-width:0.5;" width="114.5713" x="365.67" y="665.6769"/><ellipse cx="380.67" cy="681.6769" fill="#ADD1B2" rx="11" ry="11" style="stroke:#181818;stroke-width:1;"/><path d="M383.6388,687.3175 Q383.0606,687.6144 382.42,687.755 Q381.7794,687.9113 381.0763,687.9113 Q378.5763,687.9113 377.2481,686.2706 Q375.9356,684.6144 375.9356,681.4894 Q375.9356,678.3644 377.2481,676.7081 Q378.5763,675.0519 381.0763,675.0519 Q381.7794,675.0519 382.42,675.2081 Q383.0763,675.3644 383.6388,675.6613 L383.6388,678.38 Q383.0138,677.8019 382.42,677.5363 Q381.8263,677.255 381.2013,677.255 Q379.8575,677.255 379.17,678.3331 Q378.4825,679.3956 378.4825,681.4894 Q378.4825,683.5831 379.17,684.6613 Q379.8575,685.7238 381.2013,685.7238 Q381.8263,685.7238 382.42,685.4581 Q383.0138,685.1769 383.6388,684.5988 L383.6388,687.3175 Z " fill="#000000"/><text fill="#000000" font-family="sans-serif" font-size="14" lengthAdjust="spacing" textLength="82.5713" x="394.67" y="686.5236">level_2_end</text></g><!--link 11 to SINGLE_END--><g id="link_11_SINGLE_END"><path codeLine="44" d="M94.72,100.0969 C129.75,117.6169 190.8,147.7469 243.95,171.8969 C266.52,182.1469 286.5618,190.7186 306.9318,199.2086 " fill="none" id="11-to-SINGLE_END" style="stroke:#181818;stroke-width:1;"/><polygon fill="#181818" points="312.47,201.5169,305.7015,194.3623,307.8548,199.5933,302.6238,201.7466,312.47,201.5169" style="stroke:#181818;stroke-width:1;"/><text fill="#000000" font-family="sans-serif" font-size="13" lengthAdjust="spacing" textLength="29.0278" x="244.95" y="167.9638">next</text></g><!--link 11 to 12--><g id="link_11_12"><path codeLine="48" d="M100.49,84.5969 C125.11,84.5969 148.47,84.5969 172.94,84.5969 " fill="none" id="11-12" style="stroke:#181818;stroke-width:1;"/><polygon fill="#181818" points="94.49,84.5969,103.49,88.5969,99.49,84.5969,103.49,80.5969,94.49,84.5969" style="stroke:#181818;stroke-width:1;"/><polygon fill="#181818" points="178.94,84.5969,169.94,80.5969,173.94,84.5969,169.94,88.5969,178.94,84.5969" style="stroke:#181818;stroke-width:1;"/><text fill="#000000" font-family="sans-serif" font-size="13" lengthAdjust="spacing" textLength="48.3628" x="112.71" y="77.6638">parallel</text></g><!--link 12 to SINGLE_END--><g id="link_12_SINGLE_END"><path codeLine="49" d="M235.2,111.5369 C264.51,138.4469 304.9101,175.5392 328.9501,197.6092 " fill="none" id="12-to-SINGLE_END" style="stroke:#181818;stroke-width:1;"/><polygon fill="#181818" points="333.37,201.6669,329.4453,192.6338,329.6868,198.2855,324.0351,198.5269,333.37,201.6669" style="stroke:#181818;stroke-width:1;"/><text fill="#000000" font-family="sans-serif" font-size="13" lengthAdjust="spacing" textLength="29.0278" x="300.95" y="167.9638">next</text></g><!--link 12 to 1--><g id="link_12_1"><path codeLine="53" d="M241.2,84.5969 C265.3,84.5969 287.89,84.5969 312.78,84.5969 " fill="none" id="12-1" style="stroke:#181818;stroke-width:1;"/><polygon fill="#181818" points="235.2,84.5969,244.2,88.5969,240.2,84.5969,244.2,80.5969,235.2,84.5969" style="stroke:#181818;stroke-width:1;"/><polygon fill="#181818" points="318.78,84.5969,309.78,80.5969,313.78,84.5969,309.78,88.5969,318.78,84.5969" style="stroke:#181818;stroke-width:1;"/><text fill="#000000" font-family="sans-serif" font-size="13" lengthAdjust="spacing" textLength="48.3628" x="252.94" y="77.6638">parallel</text></g><!--link 1 to SINGLE_END--><g id="link_1_SINGLE_END"><path codeLine="54" d="M349.95,121.1269 C349.95,147.4069 349.95,175.9069 349.95,195.5069 " fill="none" id="1-to-SINGLE_END" style="stroke:#181818;stroke-width:1;"/><polygon fill="#181818" points="349.95,201.5069,353.95,192.5069,349.95,196.5069,345.95,192.5069,349.95,201.5069" style="stroke:#181818;stroke-width:1;"/><text fill="#000000" font-family="sans-serif" font-size="13" lengthAdjust="spacing" textLength="29.0278" x="350.95" y="167.9638">next</text></g><!--link 1 to 2--><g id="link_1_2"><path codeLine="58" d="M387.12,84.5969 C411.29,84.5969 432.93,84.5969 458.9,84.5969 " fill="none" id="1-2" style="stroke:#181818;stroke-width:1;"/><polygon fill="#181818" points="381.12,84.5969,390.12,88.5969,386.12,84.5969,390.12,80.5969,381.12,84.5969" style="stroke:#181818;stroke-width:1;"/><polygon fill="#181818" points="464.9,84.5969,455.9,80.5969,459.9,84.5969,455.9,88.5969,464.9,84.5969" style="stroke:#181818;stroke-width:1;"/><text fill="#000000" font-family="sans-serif" font-size="13" lengthAdjust="spacing" textLength="48.3628" x="399.04" y="77.6638">parallel</text></g><!--link 2 to SINGLE_END--><g id="link_2_SINGLE_END"><path codeLine="59" d="M465.09,118.7269 C433.91,145.3169 396.1157,177.534 372.4357,197.724 " fill="none" id="2-to-SINGLE_END" style="stroke:#181818;stroke-width:1;"/><polygon fill="#181818" points="367.87,201.6169,377.3138,198.8215,371.6748,198.3729,372.1234,192.7338,367.87,201.6169" style="stroke:#181818;stroke-width:1;"/><text fill="#000000" font-family="sans-serif" font-size="13" lengthAdjust="spacing" textLength="29.0278" x="423.95" y="167.9638">next</text></g><!--link 2 to 3--><g id="link_2_3"><path codeLine="63" d="M549.09,84.5969 C574.53,84.5969 595.51,84.5969 620.59,84.5969 " fill="none" id="2-3" style="stroke:#181818;stroke-width:1;"/><polygon fill="#181818" points="543.09,84.5969,552.09,88.5969,548.09,84.5969,552.09,80.5969,543.09,84.5969" style="stroke:#181818;stroke-width:1;"/><polygon fill="#181818" points="626.59,84.5969,617.59,80.5969,621.59,84.5969,617.59,88.5969,626.59,84.5969" style="stroke:#181818;stroke-width:1;"/><text fill="#000000" font-family="sans-serif" font-size="13" lengthAdjust="spacing" textLength="48.3628" x="560.81" y="77.6638">parallel</text></g><!--link 3 to SINGLE_END--><g id="link_3_SINGLE_END"><path codeLine="64" d="M626.82,101.7469 C586.38,119.2669 519.73,147.9469 461.95,171.8969 C437.75,181.9269 416.0534,190.6648 394.4834,199.2648 " fill="none" id="3-to-SINGLE_END" style="stroke:#181818;stroke-width:1;"/><polygon fill="#181818" points="388.91,201.4869,398.7514,201.8693,393.5545,199.6351,395.7886,194.4381,388.91,201.4869" style="stroke:#181818;stroke-width:1;"/><text fill="#000000" font-family="sans-serif" font-size="13" lengthAdjust="spacing" textLength="29.0278" x="501.95" y="167.9638">next</text></g><!--link SINGLE_END to 6--><g id="link_SINGLE_END_6"><path codeLine="65" d="M289.55,227.6769 C259.75,234.1469 224.42,245.2069 196.95,263.8969 C139.94,302.6969 98.2529,365.9438 74.5929,407.7938 " fill="none" id="SINGLE_END-to-6" style="stroke:#181818;stroke-width:1;"/><polygon fill="#181818" points="71.64,413.0169,79.5514,407.1508,74.1007,408.6643,72.5873,403.2137,71.64,413.0169" style="stroke:#181818;stroke-width:1;"/><text fill="#000000" font-family="sans-serif" font-size="13" lengthAdjust="spacing" textLength="29.0278" x="197.95" y="276.9638">next</text></g><!--link 6 to level_2_end--><g id="link_6_level_2_end"><path codeLine="66" d="M62.3,486.3669 C71.48,516.1469 87.79,558.4969 112.95,588.6769 C136.95,617.4569 148.27,621.4869 182.95,635.6769 C242.4,659.9969 309.5721,670.6673 359.3721,675.8373 " fill="none" id="6-to-level_2_end" style="stroke:#181818;stroke-width:1;"/><polygon fill="#181818" points="365.34,676.4569,356.8012,671.5489,360.3667,675.9406,355.9751,679.5061,365.34,676.4569" style="stroke:#181818;stroke-width:1;"/><text fill="#000000" font-family="sans-serif" font-size="13" lengthAdjust="spacing" textLength="29.0278" x="113.95" y="556.9438">next</text></g><!--link SINGLE_END to 7--><g id="link_SINGLE_END_7"><path codeLine="67" d="M291.09,234.3769 C274.91,241.1269 258.62,250.6369 246.95,263.8969 C209.84,306.0769 198.713,366.5406 195.083,407.2406 " fill="none" id="SINGLE_END-to-7" style="stroke:#181818;stroke-width:1;"/><polygon fill="#181818" points="194.55,413.2169,199.3337,404.6078,194.9942,408.2366,191.3653,403.8971,194.55,413.2169" style="stroke:#181818;stroke-width:1;"/><text fill="#000000" font-family="sans-serif" font-size="13" lengthAdjust="spacing" textLength="29.0278" x="247.95" y="276.9638">next</text></g><!--link 7 to level_2_end--><g id="link_7_level_2_end"><path codeLine="68" d="M170.63,486.3869 C155.08,516.1769 140.62,558.5369 161.95,588.6769 C207.89,653.5769 297.5447,672.4731 359.4047,678.1031 " fill="none" id="7-to-level_2_end" style="stroke:#181818;stroke-width:1;"/><polygon fill="#181818" points="365.38,678.6469,356.7796,673.8476,360.4006,678.1937,356.0545,681.8147,365.38,678.6469" style="stroke:#181818;stroke-width:1;"/><text fill="#000000" font-family="sans-serif" font-size="13" lengthAdjust="spacing" textLength="29.0278" x="162.95" y="556.9438">next</text></g><!--link SINGLE_END to 9--><g id="link_SINGLE_END_9"><path codeLine="69" d="M347.77,234.0469 C340.57,283.9069 318.337,437.8684 307.957,509.7984 " fill="none" id="SINGLE_END-to-9" style="stroke:#181818;stroke-width:1;"/><polygon fill="#181818" points="307.1,515.7369,312.3444,507.4005,307.8141,510.7881,304.4265,506.2578,307.1,515.7369" style="stroke:#181818;stroke-width:1;"/><text fill="#000000" font-family="sans-serif" font-size="13" lengthAdjust="spacing" textLength="29.0278" x="337.95" y="351.7638">next</text></g><!--link 9 to level_2_end--><g id="link_9_level_2_end"><path codeLine="70" d="M335.66,588.8369 C359.57,613.9969 386.3562,642.1781 404.2462,660.9981 " fill="none" id="9-to-level_2_end" style="stroke:#181818;stroke-width:1;"/><polygon fill="#181818" points="408.38,665.3469,405.0784,656.0679,404.9351,661.7229,399.2801,661.5797,408.38,665.3469" style="stroke:#181818;stroke-width:1;"/><text fill="#000000" font-family="sans-serif" font-size="13" lengthAdjust="spacing" textLength="29.0278" x="377.95" y="631.7438">next</text></g><!--link SINGLE_END to 10--><g id="link_SINGLE_END_10"><path codeLine="71" d="M354.99,234.3369 C366.85,270.6769 394.8986,356.6829 411.5186,407.6129 " fill="none" id="SINGLE_END-to-10" style="stroke:#181818;stroke-width:1;"/><polygon fill="#181818" points="413.38,413.3169,414.3906,403.52,411.8289,408.5636,406.7853,406.0018,413.38,413.3169" style="stroke:#181818;stroke-width:1;"/><text fill="#000000" font-family="sans-serif" font-size="13" lengthAdjust="spacing" textLength="29.0278" x="369.95" y="276.9638">next</text></g><!--link 10 to level_2_end--><g id="link_10_level_2_end"><path codeLine="72" d="M424.64,486.4569 C424.2,537.4069 423.4512,622.8771 423.1412,659.1971 " fill="none" id="10-to-level_2_end" style="stroke:#181818;stroke-width:1;"/><polygon fill="#181818" points="423.09,665.1969,427.1667,656.2313,423.1327,660.1971,419.167,656.1631,423.09,665.1969" style="stroke:#181818;stroke-width:1;"/><text fill="#000000" font-family="sans-serif" font-size="13" lengthAdjust="spacing" textLength="29.0278" x="425.95" y="556.9438">next</text></g><!--link SINGLE_END to 5--><g id="link_SINGLE_END_5"><path codeLine="73" d="M384.8,234.2369 C401,242.0869 420.14,252.3969 435.95,263.8969 C454.61,277.4569 469.0063,290.7667 483.9063,306.2267 " fill="none" id="SINGLE_END-to-5" style="stroke:#181818;stroke-width:1;"/><polygon fill="#181818" points="488.07,310.5469,484.7046,301.2908,484.6003,306.9467,478.9444,306.8424,488.07,310.5469" style="stroke:#181818;stroke-width:1;"/><text fill="#000000" font-family="sans-serif" font-size="13" lengthAdjust="spacing" textLength="29.0278" x="457.95" y="276.9638">next</text></g><!--link 5 to 4--><g id="link_5_4"><path codeLine="74" d="M530.58,383.5869 C541.71,420.6469 557.3656,472.8 568.5156,509.96 " fill="none" id="5-to-4" style="stroke:#181818;stroke-width:1;"/><polygon fill="#181818" points="570.24,515.7069,571.4847,505.937,568.803,510.9178,563.8222,508.2361,570.24,515.7069" style="stroke:#181818;stroke-width:1;"/><text fill="#000000" font-family="sans-serif" font-size="13" lengthAdjust="spacing" textLength="29.0278" x="562.95" y="454.3538">next</text></g><!--link 4 to level_2_end--><g id="link_4_level_2_end"><path codeLine="75" d="M543.93,589.0769 C527.81,604.0269 508.42,621.2469 489.95,635.6769 C476.48,646.2069 465.6816,653.6638 452.7716,661.9938 " fill="none" id="4-to-level_2_end" style="stroke:#181818;stroke-width:1;"/><polygon fill="#181818" points="447.73,665.2469,457.4611,663.7284,451.9313,662.536,453.1237,657.0063,447.73,665.2469" style="stroke:#181818;stroke-width:1;"/><text fill="#000000" font-family="sans-serif" font-size="13" lengthAdjust="spacing" textLength="29.0278" x="509.95" y="631.7438">next</text></g><!--link SINGLE_END to 8--><g id="link_SINGLE_END_8"><path codeLine="76" d="M403.7,234.2969 C431.43,242.5469 465.7,253.1769 495.95,263.8969 C539.7,279.3869 582.345,296.3249 621.005,312.3049 " fill="none" id="SINGLE_END-to-8" style="stroke:#181818;stroke-width:1;"/><polygon fill="#181818" points="626.55,314.5969,619.7605,307.4622,621.9292,312.6869,616.7045,314.8555,626.55,314.5969" style="stroke:#181818;stroke-width:1;"/><text fill="#000000" font-family="sans-serif" font-size="13" lengthAdjust="spacing" textLength="29.0278" x="542.95" y="276.9638">next</text></g><!--link 8 to level_2_end--><g id="link_8_level_2_end"><path codeLine="77" d="M702.82,383.7469 C703.6,434.6669 697.77,528.8169 649.95,588.6769 C608.48,640.5869 538.966,662.2944 486.496,672.1944 " fill="none" id="8-to-level_2_end" style="stroke:#181818;stroke-width:1;"/><polygon fill="#181818" points="480.6,673.3069,490.1856,675.5689,485.5133,672.3798,488.7023,667.7076,480.6,673.3069" style="stroke:#181818;stroke-width:1;"/><text fill="#000000" font-family="sans-serif" font-size="13" lengthAdjust="spacing" textLength="29.0278" x="686.95" y="556.9438">next</text></g><!--SRC=[bLDFYnCn5B_dKyIJ7N2W_zkHRc5RLn7MBUZDKagOUPs6pKnAahfTQq7GYuWVGC-2jmLlYkYdiLI_XKdQwSoKjRGzPNx_yjvBtvq0HZG6_1HyrPk088gBmip1FYDIuXbkjN2XTmzpuOzfuE1s6o5vIUC94IJ2Gfj873B0SuJrhqFyor3mQHnqEUEYrUgrs_YSXcFLOLDOIxW8G5WQTvZMM_HK27wL1HS8AQfqS9SJ8S4D1T5L1hZBWCGWyDaC_AcYFCOzasVAvr44SK0CYD3TrPSVVpz-_ltz_VBTXzMdjyjlRvPVN_-v-RNwUODq9u0XcgXh783q1PrOKmQEG8rv8BFGY0BJ2CeDwjdZYqVdPyEpYmVE3iFW1R1XQQXBsgNg3ghZ-rZogV3Xv2MTs4z5H0ZgnAVgEYzlEAYHoaSnYS026qEeRm2HjtWEyb9BH0HLX4b5r5IQwxpKBQbvFfZf7lCHfQA3IiKz8PRSf6XIK0XkYQawg9hljPgvN8T1NbzpK2tL4m74vm5OxF-cfeEQgMbCfFwlii1SrimCrc2tDLhIZPQqRZrPUvIW2XPr0tuLkssSlhDcOvYfdOooLfSrnTOPvMn6onLc0tIAnStcC0RCg0wDrpcQsBoqEVQVl7euC0cPy5pseT6wS5FKTj3cerzqlS6yia3PsdEb7rnvnK4LCmlxPkRKFtMV3-Rb1SgMNibcL_PaPv14L4-u-XPQhrxPhDuUOoFX6aSQlOJpZZJQZR6aFXrdhILSRGjL4wXwP5OpuPfxZFy0]--></g></svg>