<svg xmlns="http://www.w3.org/2000/svg" xmlns:xlink="http://www.w3.org/1999/xlink" contentStyleType="text/css" height="1008px" preserveAspectRatio="none" style="width:1603px;height:1008px;background:#FFFFFF;" version="1.1" viewBox="0 0 1603 1008" width="1603px" zoomAndPan="magnify"><title>Coarse-grained Cleaner Execution Order Recommendation</title><defs/><g><text fill="#000000" font-family="sans-serif" font-size="14" font-weight="bold" lengthAdjust="spacing" textLength="460.4482" x="564.5597" y="22.9951">Coarse-grained Cleaner Execution Order Recommendation</text><!--class SINGLE_END--><g id="elem_SINGLE_END"><rect codeLine="16" fill="#F1F1F1" height="32" id="SINGLE_END" rx="2.5" ry="2.5" style="stroke:#181818;stroke-width:0.5;" width="120.0811" x="711.44" y="44.2969"/><ellipse cx="726.44" cy="60.2969" fill="#DA70D6" rx="11" ry="11" style="stroke:#181818;stroke-width:1;"/><path d="M726.5494,55.875 Q725.6119,55.875 725.1744,56.875 Q724.7525,57.875 724.7525,60.1094 Q724.7525,62.3438 725.1744,63.3438 Q725.6119,64.3438 726.5494,64.3438 Q727.5025,64.3438 727.9244,63.3438 Q728.3619,62.3438 728.3619,60.1094 Q728.3619,57.875 727.9244,56.875 Q727.5025,55.875 726.5494,55.875 Z M722.2056,60.1094 Q722.2056,56.9375 723.2994,55.3125 Q724.4088,53.6719 726.5494,53.6719 Q728.7056,53.6719 729.7994,55.3125 Q730.9088,56.9375 730.9088,60.1094 Q730.9088,63.2813 729.7994,64.9063 Q728.7056,66.5313 726.5494,66.5313 Q724.4088,66.5313 723.2994,64.9063 Q722.2056,63.2813 722.2056,60.1094 Z " fill="#000000"/><text fill="#000000" font-family="sans-serif" font-size="14" lengthAdjust="spacing" textLength="88.0811" x="740.44" y="65.1436">SINGLE_END</text></g><!--class level_1_end--><g id="elem_level_1_end"><rect codeLine="18" fill="#F1F1F1" height="32" id="level_1_end" rx="2.5" ry="2.5" style="stroke:#181818;stroke-width:0.5;" width="114.5713" x="714.19" y="452.4869"/><ellipse cx="729.19" cy="468.4869" fill="#DA70D6" rx="11" ry="11" style="stroke:#181818;stroke-width:1;"/><path d="M729.2994,464.065 Q728.3619,464.065 727.9244,465.065 Q727.5025,466.065 727.5025,468.2994 Q727.5025,470.5337 727.9244,471.5337 Q728.3619,472.5337 729.2994,472.5337 Q730.2525,472.5337 730.6744,471.5337 Q731.1119,470.5337 731.1119,468.2994 Q731.1119,466.065 730.6744,465.065 Q730.2525,464.065 729.2994,464.065 Z M724.9556,468.2994 Q724.9556,465.1275 726.0494,463.5025 Q727.1588,461.8619 729.2994,461.8619 Q731.4556,461.8619 732.5494,463.5025 Q733.6588,465.1275 733.6588,468.2994 Q733.6588,471.4712 732.5494,473.0962 Q731.4556,474.7212 729.2994,474.7212 Q727.1588,474.7212 726.0494,473.0962 Q724.9556,471.4712 724.9556,468.2994 Z " fill="#000000"/><text fill="#000000" font-family="sans-serif" font-size="14" lengthAdjust="spacing" textLength="82.5713" x="743.19" y="473.3336">level_1_end</text></g><!--class level_2_end--><g id="elem_level_2_end"><rect codeLine="20" fill="#F1F1F1" height="32" id="level_2_end" rx="2.5" ry="2.5" style="stroke:#181818;stroke-width:0.5;" width="114.5713" x="747.19" y="711.0869"/><ellipse cx="762.19" cy="727.0869" fill="#DA70D6" rx="11" ry="11" style="stroke:#181818;stroke-width:1;"/><path d="M762.2994,722.665 Q761.3619,722.665 760.9244,723.665 Q760.5025,724.665 760.5025,726.8994 Q760.5025,729.1338 760.9244,730.1338 Q761.3619,731.1338 762.2994,731.1338 Q763.2525,731.1338 763.6744,730.1338 Q764.1119,729.1338 764.1119,726.8994 Q764.1119,724.665 763.6744,723.665 Q763.2525,722.665 762.2994,722.665 Z M757.9556,726.8994 Q757.9556,723.7275 759.0494,722.1025 Q760.1588,720.4619 762.2994,720.4619 Q764.4556,720.4619 765.5494,722.1025 Q766.6588,723.7275 766.6588,726.8994 Q766.6588,730.0713 765.5494,731.6963 Q764.4556,733.3213 762.2994,733.3213 Q760.1588,733.3213 759.0494,731.6963 Q757.9556,730.0713 757.9556,726.8994 Z " fill="#000000"/><text fill="#000000" font-family="sans-serif" font-size="14" lengthAdjust="spacing" textLength="82.5713" x="776.19" y="731.9336">level_2_end</text></g><!--class level_3_end--><g id="elem_level_3_end"><rect codeLine="22" fill="#F1F1F1" height="32" id="level_3_end" rx="2.5" ry="2.5" style="stroke:#181818;stroke-width:0.5;" width="114.5713" x="690.19" y="969.6769"/><ellipse cx="705.19" cy="985.6769" fill="#DA70D6" rx="11" ry="11" style="stroke:#181818;stroke-width:1;"/><path d="M705.2994,981.255 Q704.3619,981.255 703.9244,982.255 Q703.5025,983.255 703.5025,985.4894 Q703.5025,987.7238 703.9244,988.7238 Q704.3619,989.7238 705.2994,989.7238 Q706.2525,989.7238 706.6744,988.7238 Q707.1119,987.7238 707.1119,985.4894 Q707.1119,983.255 706.6744,982.255 Q706.2525,981.255 705.2994,981.255 Z M700.9556,985.4894 Q700.9556,982.3175 702.0494,980.6925 Q703.1588,979.0519 705.2994,979.0519 Q707.4556,979.0519 708.5494,980.6925 Q709.6588,982.3175 709.6588,985.4894 Q709.6588,988.6613 708.5494,990.2863 Q707.4556,991.9113 705.2994,991.9113 Q703.1588,991.9113 702.0494,990.2863 Q700.9556,988.6613 700.9556,985.4894 Z " fill="#000000"/><text fill="#000000" font-family="sans-serif" font-size="14" lengthAdjust="spacing" textLength="82.5713" x="719.19" y="990.5236">level_3_end</text></g><!--class 1--><g id="elem_1"><rect codeLine="24" fill="#F1F1F1" height="72.5938" id="1" rx="2.5" ry="2.5" style="stroke:#181818;stroke-width:0.5;" width="180.9775" x="680.99" y="302.8969"/><ellipse cx="762.7752" cy="318.8969" fill="#DA70D6" rx="11" ry="11" style="stroke:#181818;stroke-width:1;"/><path d="M762.8845,314.475 Q761.947,314.475 761.5095,315.475 Q761.0877,316.475 761.0877,318.7094 Q761.0877,320.9438 761.5095,321.9438 Q761.947,322.9438 762.8845,322.9438 Q763.8377,322.9438 764.2595,321.9438 Q764.697,320.9438 764.697,318.7094 Q764.697,316.475 764.2595,315.475 Q763.8377,314.475 762.8845,314.475 Z M758.5408,318.7094 Q758.5408,315.5375 759.6345,313.9125 Q760.7439,312.2719 762.8845,312.2719 Q765.0408,312.2719 766.1345,313.9125 Q767.2439,315.5375 767.2439,318.7094 Q767.2439,321.8813 766.1345,323.5063 Q765.0408,325.1313 762.8845,325.1313 Q760.7439,325.1313 759.6345,323.5063 Q758.5408,321.8813 758.5408,318.7094 Z " fill="#000000"/><text fill="#000000" font-family="sans-serif" font-size="14" lengthAdjust="spacing" textLength="8.9072" x="783.2752" y="323.7436">1</text><line style="stroke:#181818;stroke-width:0.5;" x1="681.99" x2="860.9675" y1="334.8969" y2="334.8969"/><text fill="#000000" font-family="sans-serif" font-size="14" lengthAdjust="spacing" textLength="156.9531" x="686.99" y="351.892">source=HospitalName</text><text fill="#000000" font-family="sans-serif" font-size="14" lengthAdjust="spacing" textLength="168.9775" x="686.99" y="368.1889">target=ProviderNumber</text></g><!--class 8--><g id="elem_8"><rect codeLine="27" fill="#F1F1F1" height="72.5938" id="8" rx="2.5" ry="2.5" style="stroke:#181818;stroke-width:0.5;" width="184.9629" x="679" y="153.2969"/><ellipse cx="762.7778" cy="169.2969" fill="#DA70D6" rx="11" ry="11" style="stroke:#181818;stroke-width:1;"/><path d="M762.8872,164.875 Q761.9497,164.875 761.5122,165.875 Q761.0903,166.875 761.0903,169.1094 Q761.0903,171.3438 761.5122,172.3438 Q761.9497,173.3438 762.8872,173.3438 Q763.8403,173.3438 764.2622,172.3438 Q764.6997,171.3438 764.6997,169.1094 Q764.6997,166.875 764.2622,165.875 Q763.8403,164.875 762.8872,164.875 Z M758.5435,169.1094 Q758.5435,165.9375 759.6372,164.3125 Q760.7466,162.6719 762.8872,162.6719 Q765.0435,162.6719 766.1372,164.3125 Q767.2466,165.9375 767.2466,169.1094 Q767.2466,172.2813 766.1372,173.9063 Q765.0435,175.5313 762.8872,175.5313 Q760.7466,175.5313 759.6372,173.9063 Q758.5435,172.2813 758.5435,169.1094 Z " fill="#000000"/><text fill="#000000" font-family="sans-serif" font-size="14" lengthAdjust="spacing" textLength="8.9072" x="783.2778" y="174.1436">8</text><line style="stroke:#181818;stroke-width:0.5;" x1="680" x2="862.9629" y1="185.2969" y2="185.2969"/><text fill="#000000" font-family="sans-serif" font-size="14" lengthAdjust="spacing" textLength="172.9629" x="685" y="202.292">source=ProviderNumber</text><text fill="#000000" font-family="sans-serif" font-size="14" lengthAdjust="spacing" textLength="152.9678" x="685" y="218.5889">target=HospitalName</text></g><!--class 4--><g id="elem_4"><rect codeLine="30" fill="#F1F1F1" height="72.5938" id="4" rx="2.5" ry="2.5" style="stroke:#181818;stroke-width:0.5;" width="168.9531" x="7" y="561.4869"/><ellipse cx="82.7729" cy="577.4869" fill="#DA70D6" rx="11" ry="11" style="stroke:#181818;stroke-width:1;"/><path d="M82.8823,573.065 Q81.9448,573.065 81.5073,574.065 Q81.0854,575.065 81.0854,577.2994 Q81.0854,579.5337 81.5073,580.5337 Q81.9448,581.5337 82.8823,581.5337 Q83.8354,581.5337 84.2573,580.5337 Q84.6948,579.5337 84.6948,577.2994 Q84.6948,575.065 84.2573,574.065 Q83.8354,573.065 82.8823,573.065 Z M78.5386,577.2994 Q78.5386,574.1275 79.6323,572.5025 Q80.7417,570.8619 82.8823,570.8619 Q85.0386,570.8619 86.1323,572.5025 Q87.2417,574.1275 87.2417,577.2994 Q87.2417,580.4712 86.1323,582.0962 Q85.0386,583.7212 82.8823,583.7212 Q80.7417,583.7212 79.6323,582.0962 Q78.5386,580.4712 78.5386,577.2994 Z " fill="#000000"/><text fill="#000000" font-family="sans-serif" font-size="14" lengthAdjust="spacing" textLength="8.9072" x="103.2729" y="582.3336">4</text><line style="stroke:#181818;stroke-width:0.5;" x1="8" x2="174.9531" y1="593.4869" y2="593.4869"/><text fill="#000000" font-family="sans-serif" font-size="14" lengthAdjust="spacing" textLength="156.9531" x="13" y="610.482">source=HospitalName</text><text fill="#000000" font-family="sans-serif" font-size="14" lengthAdjust="spacing" textLength="112.752" x="13" y="626.7789">target=ZipCode</text></g><!--class 5--><g id="elem_5"><rect codeLine="33" fill="#F1F1F1" height="72.5938" id="5" rx="2.5" ry="2.5" style="stroke:#181818;stroke-width:0.5;" width="168.9531" x="211" y="561.4869"/><ellipse cx="286.7729" cy="577.4869" fill="#DA70D6" rx="11" ry="11" style="stroke:#181818;stroke-width:1;"/><path d="M286.8823,573.065 Q285.9448,573.065 285.5073,574.065 Q285.0854,575.065 285.0854,577.2994 Q285.0854,579.5337 285.5073,580.5337 Q285.9448,581.5337 286.8823,581.5337 Q287.8354,581.5337 288.2573,580.5337 Q288.6948,579.5337 288.6948,577.2994 Q288.6948,575.065 288.2573,574.065 Q287.8354,573.065 286.8823,573.065 Z M282.5386,577.2994 Q282.5386,574.1275 283.6323,572.5025 Q284.7417,570.8619 286.8823,570.8619 Q289.0386,570.8619 290.1323,572.5025 Q291.2417,574.1275 291.2417,577.2994 Q291.2417,580.4712 290.1323,582.0962 Q289.0386,583.7212 286.8823,583.7212 Q284.7417,583.7212 283.6323,582.0962 Q282.5386,580.4712 282.5386,577.2994 Z " fill="#000000"/><text fill="#000000" font-family="sans-serif" font-size="14" lengthAdjust="spacing" textLength="8.9072" x="307.2729" y="582.3336">5</text><line style="stroke:#181818;stroke-width:0.5;" x1="212" x2="378.9531" y1="593.4869" y2="593.4869"/><text fill="#000000" font-family="sans-serif" font-size="14" lengthAdjust="spacing" textLength="156.9531" x="217" y="610.482">source=HospitalName</text><text fill="#000000" font-family="sans-serif" font-size="14" lengthAdjust="spacing" textLength="154.1504" x="217" y="626.7789">target=PhoneNumber</text></g><!--class 10--><g id="elem_10"><rect codeLine="36" fill="#F1F1F1" height="72.5938" id="10" rx="2.5" ry="2.5" style="stroke:#181818;stroke-width:0.5;" width="168.9531" x="415" y="561.4869"/><ellipse cx="486.3193" cy="577.4869" fill="#DA70D6" rx="11" ry="11" style="stroke:#181818;stroke-width:1;"/><path d="M486.4287,573.065 Q485.4912,573.065 485.0537,574.065 Q484.6318,575.065 484.6318,577.2994 Q484.6318,579.5337 485.0537,580.5337 Q485.4912,581.5337 486.4287,581.5337 Q487.3818,581.5337 487.8037,580.5337 Q488.2412,579.5337 488.2412,577.2994 Q488.2412,575.065 487.8037,574.065 Q487.3818,573.065 486.4287,573.065 Z M482.085,577.2994 Q482.085,574.1275 483.1787,572.5025 Q484.2881,570.8619 486.4287,570.8619 Q488.585,570.8619 489.6787,572.5025 Q490.7881,574.1275 490.7881,577.2994 Q490.7881,580.4712 489.6787,582.0962 Q488.585,583.7212 486.4287,583.7212 Q484.2881,583.7212 483.1787,582.0962 Q482.085,580.4712 482.085,577.2994 Z " fill="#000000"/><text fill="#000000" font-family="sans-serif" font-size="14" lengthAdjust="spacing" textLength="17.8145" x="506.8193" y="582.3336">10</text><line style="stroke:#181818;stroke-width:0.5;" x1="416" x2="582.9531" y1="593.4869" y2="593.4869"/><text fill="#000000" font-family="sans-serif" font-size="14" lengthAdjust="spacing" textLength="156.9531" x="421" y="610.482">source=HospitalName</text><text fill="#000000" font-family="sans-serif" font-size="14" lengthAdjust="spacing" textLength="119.7588" x="421" y="626.7789">target=Address1</text></g><!--class 11--><g id="elem_11"><rect codeLine="39" fill="#F1F1F1" height="72.5938" id="11" rx="2.5" ry="2.5" style="stroke:#181818;stroke-width:0.5;" width="169.377" x="618.79" y="561.4869"/><ellipse cx="690.3213" cy="577.4869" fill="#DA70D6" rx="11" ry="11" style="stroke:#181818;stroke-width:1;"/><path d="M690.4306,573.065 Q689.4931,573.065 689.0556,574.065 Q688.6338,575.065 688.6338,577.2994 Q688.6338,579.5337 689.0556,580.5337 Q689.4931,581.5337 690.4306,581.5337 Q691.3838,581.5337 691.8056,580.5337 Q692.2431,579.5337 692.2431,577.2994 Q692.2431,575.065 691.8056,574.065 Q691.3838,573.065 690.4306,573.065 Z M686.0869,577.2994 Q686.0869,574.1275 687.1806,572.5025 Q688.29,570.8619 690.4306,570.8619 Q692.5869,570.8619 693.6806,572.5025 Q694.79,574.1275 694.79,577.2994 Q694.79,580.4712 693.6806,582.0962 Q692.5869,583.7212 690.4306,583.7212 Q688.29,583.7212 687.1806,582.0962 Q686.0869,580.4712 686.0869,577.2994 Z " fill="#000000"/><text fill="#000000" font-family="sans-serif" font-size="14" lengthAdjust="spacing" textLength="17.8145" x="710.8213" y="582.3336">11</text><line style="stroke:#181818;stroke-width:0.5;" x1="619.79" x2="787.167" y1="593.4869" y2="593.4869"/><text fill="#000000" font-family="sans-serif" font-size="14" lengthAdjust="spacing" textLength="156.9531" x="624.79" y="610.482">source=HospitalName</text><text fill="#000000" font-family="sans-serif" font-size="14" lengthAdjust="spacing" textLength="157.377" x="624.79" y="626.7789">target=HospitalOwner</text></g><!--class 14--><g id="elem_14"><rect codeLine="42" fill="#F1F1F1" height="72.5938" id="14" rx="2.5" ry="2.5" style="stroke:#181818;stroke-width:0.5;" width="168.9531" x="823" y="561.4869"/><ellipse cx="894.3193" cy="577.4869" fill="#DA70D6" rx="11" ry="11" style="stroke:#181818;stroke-width:1;"/><path d="M894.4287,573.065 Q893.4912,573.065 893.0537,574.065 Q892.6318,575.065 892.6318,577.2994 Q892.6318,579.5337 893.0537,580.5337 Q893.4912,581.5337 894.4287,581.5337 Q895.3818,581.5337 895.8037,580.5337 Q896.2412,579.5337 896.2412,577.2994 Q896.2412,575.065 895.8037,574.065 Q895.3818,573.065 894.4287,573.065 Z M890.085,577.2994 Q890.085,574.1275 891.1787,572.5025 Q892.2881,570.8619 894.4287,570.8619 Q896.585,570.8619 897.6787,572.5025 Q898.7881,574.1275 898.7881,577.2994 Q898.7881,580.4712 897.6787,582.0962 Q896.585,583.7212 894.4287,583.7212 Q892.2881,583.7212 891.1787,582.0962 Q890.085,580.4712 890.085,577.2994 Z " fill="#000000"/><text fill="#000000" font-family="sans-serif" font-size="14" lengthAdjust="spacing" textLength="17.8145" x="914.8193" y="582.3336">14</text><line style="stroke:#181818;stroke-width:0.5;" x1="824" x2="990.9531" y1="593.4869" y2="593.4869"/><text fill="#000000" font-family="sans-serif" font-size="14" lengthAdjust="spacing" textLength="156.9531" x="829" y="610.482">source=HospitalName</text><text fill="#000000" font-family="sans-serif" font-size="14" lengthAdjust="spacing" textLength="81.9834" x="829" y="626.7789">target=City</text></g><!--class 6--><g id="elem_6"><rect codeLine="45" fill="#F1F1F1" height="72.5938" id="6" rx="2.5" ry="2.5" style="stroke:#181818;stroke-width:0.5;" width="167.6543" x="1026.65" y="561.4869"/><ellipse cx="1101.7735" cy="577.4869" fill="#DA70D6" rx="11" ry="11" style="stroke:#181818;stroke-width:1;"/><path d="M1101.8829,573.065 Q1100.9454,573.065 1100.5079,574.065 Q1100.086,575.065 1100.086,577.2994 Q1100.086,579.5337 1100.5079,580.5337 Q1100.9454,581.5337 1101.8829,581.5337 Q1102.836,581.5337 1103.2579,580.5337 Q1103.6954,579.5337 1103.6954,577.2994 Q1103.6954,575.065 1103.2579,574.065 Q1102.836,573.065 1101.8829,573.065 Z M1097.5392,577.2994 Q1097.5392,574.1275 1098.6329,572.5025 Q1099.7423,570.8619 1101.8829,570.8619 Q1104.0392,570.8619 1105.1329,572.5025 Q1106.2423,574.1275 1106.2423,577.2994 Q1106.2423,580.4712 1105.1329,582.0962 Q1104.0392,583.7212 1101.8829,583.7212 Q1099.7423,583.7212 1098.6329,582.0962 Q1097.5392,580.4712 1097.5392,577.2994 Z " fill="#000000"/><text fill="#000000" font-family="sans-serif" font-size="14" lengthAdjust="spacing" textLength="8.9072" x="1122.2735" y="582.3336">6</text><line style="stroke:#181818;stroke-width:0.5;" x1="1027.65" x2="1193.3043" y1="593.4869" y2="593.4869"/><text fill="#000000" font-family="sans-serif" font-size="14" lengthAdjust="spacing" textLength="154.1777" x="1032.65" y="610.482">source=MeasureCode</text><text fill="#000000" font-family="sans-serif" font-size="14" lengthAdjust="spacing" textLength="155.6543" x="1032.65" y="626.7789">target=MeasureName</text></g><!--class 7--><g id="elem_7"><rect codeLine="48" fill="#F1F1F1" height="72.5938" id="7" rx="2.5" ry="2.5" style="stroke:#181818;stroke-width:0.5;" width="166.1777" x="1229.39" y="561.4869"/><ellipse cx="1303.7753" cy="577.4869" fill="#DA70D6" rx="11" ry="11" style="stroke:#181818;stroke-width:1;"/><path d="M1303.8846,573.065 Q1302.9471,573.065 1302.5096,574.065 Q1302.0878,575.065 1302.0878,577.2994 Q1302.0878,579.5337 1302.5096,580.5337 Q1302.9471,581.5337 1303.8846,581.5337 Q1304.8378,581.5337 1305.2596,580.5337 Q1305.6971,579.5337 1305.6971,577.2994 Q1305.6971,575.065 1305.2596,574.065 Q1304.8378,573.065 1303.8846,573.065 Z M1299.5409,577.2994 Q1299.5409,574.1275 1300.6346,572.5025 Q1301.744,570.8619 1303.8846,570.8619 Q1306.0409,570.8619 1307.1346,572.5025 Q1308.244,574.1275 1308.244,577.2994 Q1308.244,580.4712 1307.1346,582.0962 Q1306.0409,583.7212 1303.8846,583.7212 Q1301.744,583.7212 1300.6346,582.0962 Q1299.5409,580.4712 1299.5409,577.2994 Z " fill="#000000"/><text fill="#000000" font-family="sans-serif" font-size="14" lengthAdjust="spacing" textLength="8.9072" x="1324.2753" y="582.3336">7</text><line style="stroke:#181818;stroke-width:0.5;" x1="1230.39" x2="1394.5677" y1="593.4869" y2="593.4869"/><text fill="#000000" font-family="sans-serif" font-size="14" lengthAdjust="spacing" textLength="154.1777" x="1235.39" y="610.482">source=MeasureCode</text><text fill="#000000" font-family="sans-serif" font-size="14" lengthAdjust="spacing" textLength="117.3525" x="1235.39" y="626.7789">target=Stateavg</text></g><!--class 9--><g id="elem_9"><rect codeLine="51" fill="#F1F1F1" height="72.5938" id="9" rx="2.5" ry="2.5" style="stroke:#181818;stroke-width:0.5;" width="166.1777" x="1430.39" y="561.4869"/><ellipse cx="1504.7753" cy="577.4869" fill="#DA70D6" rx="11" ry="11" style="stroke:#181818;stroke-width:1;"/><path d="M1504.8846,573.065 Q1503.9471,573.065 1503.5096,574.065 Q1503.0878,575.065 1503.0878,577.2994 Q1503.0878,579.5337 1503.5096,580.5337 Q1503.9471,581.5337 1504.8846,581.5337 Q1505.8378,581.5337 1506.2596,580.5337 Q1506.6971,579.5337 1506.6971,577.2994 Q1506.6971,575.065 1506.2596,574.065 Q1505.8378,573.065 1504.8846,573.065 Z M1500.5409,577.2994 Q1500.5409,574.1275 1501.6346,572.5025 Q1502.744,570.8619 1504.8846,570.8619 Q1507.0409,570.8619 1508.1346,572.5025 Q1509.244,574.1275 1509.244,577.2994 Q1509.244,580.4712 1508.1346,582.0962 Q1507.0409,583.7212 1504.8846,583.7212 Q1502.744,583.7212 1501.6346,582.0962 Q1500.5409,580.4712 1500.5409,577.2994 Z " fill="#000000"/><text fill="#000000" font-family="sans-serif" font-size="14" lengthAdjust="spacing" textLength="8.9072" x="1525.2753" y="582.3336">9</text><line style="stroke:#181818;stroke-width:0.5;" x1="1431.39" x2="1595.5677" y1="593.4869" y2="593.4869"/><text fill="#000000" font-family="sans-serif" font-size="14" lengthAdjust="spacing" textLength="154.1777" x="1436.39" y="610.482">source=MeasureCode</text><text fill="#000000" font-family="sans-serif" font-size="14" lengthAdjust="spacing" textLength="121.3516" x="1436.39" y="626.7789">target=Condition</text></g><!--class 13--><g id="elem_13"><rect codeLine="54" fill="#F1F1F1" height="72.5938" id="13" rx="2.5" ry="2.5" style="stroke:#181818;stroke-width:0.5;" width="197.4932" x="237.73" y="820.0869"/><ellipse cx="323.3194" cy="836.0869" fill="#DA70D6" rx="11" ry="11" style="stroke:#181818;stroke-width:1;"/><path d="M323.4287,831.665 Q322.4912,831.665 322.0537,832.665 Q321.6319,833.665 321.6319,835.8994 Q321.6319,838.1338 322.0537,839.1338 Q322.4912,840.1338 323.4287,840.1338 Q324.3819,840.1338 324.8037,839.1338 Q325.2412,838.1338 325.2412,835.8994 Q325.2412,833.665 324.8037,832.665 Q324.3819,831.665 323.4287,831.665 Z M319.085,835.8994 Q319.085,832.7275 320.1787,831.1025 Q321.2881,829.4619 323.4287,829.4619 Q325.585,829.4619 326.6787,831.1025 Q327.7881,832.7275 327.7881,835.8994 Q327.7881,839.0713 326.6787,840.6963 Q325.585,842.3213 323.4287,842.3213 Q321.2881,842.3213 320.1787,840.6963 Q319.085,839.0713 319.085,835.8994 Z " fill="#000000"/><text fill="#000000" font-family="sans-serif" font-size="14" lengthAdjust="spacing" textLength="17.8145" x="343.8194" y="840.9336">13</text><line style="stroke:#181818;stroke-width:0.5;" x1="238.73" x2="434.2232" y1="852.0869" y2="852.0869"/><text fill="#000000" font-family="sans-serif" font-size="14" lengthAdjust="spacing" textLength="116.7373" x="243.73" y="869.082">source=ZipCode</text><text fill="#000000" font-family="sans-serif" font-size="14" lengthAdjust="spacing" textLength="185.4932" x="243.73" y="885.3789">target=EmergencyService</text></g><!--class 3--><g id="elem_3"><rect codeLine="57" fill="#F1F1F1" height="72.5938" id="3" rx="2.5" ry="2.5" style="stroke:#181818;stroke-width:0.5;" width="371.3926" x="469.78" y="820.0869"/><ellipse cx="646.7727" cy="836.0869" fill="#DA70D6" rx="11" ry="11" style="stroke:#181818;stroke-width:1;"/><path d="M646.8821,831.665 Q645.9446,831.665 645.5071,832.665 Q645.0852,833.665 645.0852,835.8994 Q645.0852,838.1338 645.5071,839.1338 Q645.9446,840.1338 646.8821,840.1338 Q647.8352,840.1338 648.2571,839.1338 Q648.6946,838.1338 648.6946,835.8994 Q648.6946,833.665 648.2571,832.665 Q647.8352,831.665 646.8821,831.665 Z M642.5383,835.8994 Q642.5383,832.7275 643.6321,831.1025 Q644.7414,829.4619 646.8821,829.4619 Q649.0383,829.4619 650.1321,831.1025 Q651.2414,832.7275 651.2414,835.8994 Q651.2414,839.0713 650.1321,840.6963 Q649.0383,842.3213 646.8821,842.3213 Q644.7414,842.3213 643.6321,840.6963 Q642.5383,839.0713 642.5383,835.8994 Z " fill="#000000"/><text fill="#000000" font-family="sans-serif" font-size="14" lengthAdjust="spacing" textLength="8.9072" x="667.2727" y="840.9336">3</text><line style="stroke:#181818;stroke-width:0.5;" x1="470.78" x2="840.1726" y1="852.0869" y2="852.0869"/><text fill="#000000" font-family="sans-serif" font-size="14" lengthAdjust="spacing" textLength="359.3926" x="475.78" y="869.082">source=PhoneNumberHospitalOwnerHospitalName</text><text fill="#000000" font-family="sans-serif" font-size="14" lengthAdjust="spacing" textLength="91.6016" x="475.78" y="885.3789">target=State</text></g><!--class 12--><g id="elem_12"><rect codeLine="60" fill="#F1F1F1" height="72.5938" id="12" rx="2.5" ry="2.5" style="stroke:#181818;stroke-width:0.5;" width="157.708" x="876.62" y="820.0869"/><ellipse cx="942.3168" cy="836.0869" fill="#DA70D6" rx="11" ry="11" style="stroke:#181818;stroke-width:1;"/><path d="M942.4262,831.665 Q941.4887,831.665 941.0512,832.665 Q940.6293,833.665 940.6293,835.8994 Q940.6293,838.1338 941.0512,839.1338 Q941.4887,840.1338 942.4262,840.1338 Q943.3793,840.1338 943.8012,839.1338 Q944.2387,838.1338 944.2387,835.8994 Q944.2387,833.665 943.8012,832.665 Q943.3793,831.665 942.4262,831.665 Z M938.0824,835.8994 Q938.0824,832.7275 939.1762,831.1025 Q940.2855,829.4619 942.4262,829.4619 Q944.5824,829.4619 945.6762,831.1025 Q946.7855,832.7275 946.7855,835.8994 Q946.7855,839.0713 945.6762,840.6963 Q944.5824,842.3213 942.4262,842.3213 Q940.2855,842.3213 939.1762,840.6963 Q938.0824,839.0713 938.0824,835.8994 Z " fill="#000000"/><text fill="#000000" font-family="sans-serif" font-size="14" lengthAdjust="spacing" textLength="17.8145" x="962.8168" y="840.9336">12</text><line style="stroke:#181818;stroke-width:0.5;" x1="877.62" x2="1033.328" y1="852.0869" y2="852.0869"/><text fill="#000000" font-family="sans-serif" font-size="14" lengthAdjust="spacing" textLength="85.9688" x="882.62" y="869.082">source=City</text><text fill="#000000" font-family="sans-serif" font-size="14" lengthAdjust="spacing" textLength="145.708" x="882.62" y="885.3789">target=CountyName</text></g><!--class 2--><g id="elem_2"><rect codeLine="63" fill="#F1F1F1" height="72.5938" id="2" rx="2.5" ry="2.5" style="stroke:#181818;stroke-width:0.5;" width="238.4473" x="1069.25" y="820.0869"/><ellipse cx="1179.77" cy="836.0869" fill="#DA70D6" rx="11" ry="11" style="stroke:#181818;stroke-width:1;"/><path d="M1179.8794,831.665 Q1178.9419,831.665 1178.5044,832.665 Q1178.0825,833.665 1178.0825,835.8994 Q1178.0825,838.1338 1178.5044,839.1338 Q1178.9419,840.1338 1179.8794,840.1338 Q1180.8325,840.1338 1181.2544,839.1338 Q1181.6919,838.1338 1181.6919,835.8994 Q1181.6919,833.665 1181.2544,832.665 Q1180.8325,831.665 1179.8794,831.665 Z M1175.5356,835.8994 Q1175.5356,832.7275 1176.6294,831.1025 Q1177.7388,829.4619 1179.8794,829.4619 Q1182.0356,829.4619 1183.1294,831.1025 Q1184.2388,832.7275 1184.2388,835.8994 Q1184.2388,839.0713 1183.1294,840.6963 Q1182.0356,842.3213 1179.8794,842.3213 Q1177.7388,842.3213 1176.6294,840.6963 Q1175.5356,839.0713 1175.5356,835.8994 Z " fill="#000000"/><text fill="#000000" font-family="sans-serif" font-size="14" lengthAdjust="spacing" textLength="8.9072" x="1200.27" y="840.9336">2</text><line style="stroke:#181818;stroke-width:0.5;" x1="1070.25" x2="1306.6973" y1="852.0869" y2="852.0869"/><text fill="#000000" font-family="sans-serif" font-size="14" lengthAdjust="spacing" textLength="226.4473" x="1075.25" y="869.082">source=MeasureNameCondition</text><text fill="#000000" font-family="sans-serif" font-size="14" lengthAdjust="spacing" textLength="146.002" x="1075.25" y="885.3789">target=HospitalType</text></g><!--link SINGLE_END to 8--><g id="link_SINGLE_END_8"><path codeLine="66" d="M771.48,76.4069 C771.48,95.1769 771.48,121.8069 771.48,147.0569 " fill="none" id="SINGLE_END-to-8" style="stroke:#181818;stroke-width:1;"/><polygon fill="#181818" points="771.48,153.0569,775.48,144.0569,771.48,148.0569,767.48,144.0569,771.48,153.0569" style="stroke:#181818;stroke-width:1;"/><text fill="#000000" font-family="sans-serif" font-size="13" lengthAdjust="spacing" textLength="29.0278" x="772.48" y="119.3638">next</text></g><!--link 8 to 1--><g id="link_8_1"><path codeLine="67" d="M771.48,226.3269 C771.48,249.4469 771.48,273.4369 771.48,296.5369 " fill="none" id="8-to-1" style="stroke:#181818;stroke-width:1;"/><polygon fill="#181818" points="771.48,302.5369,775.48,293.5369,771.48,297.5369,767.48,293.5369,771.48,302.5369" style="stroke:#181818;stroke-width:1;"/><text fill="#000000" font-family="sans-serif" font-size="13" lengthAdjust="spacing" textLength="29.0278" x="772.48" y="268.9638">next</text></g><!--link 1 to level_1_end--><g id="link_1_level_1_end"><path codeLine="68" d="M771.48,375.6469 C771.48,400.8069 771.48,427.3369 771.48,446.1569 " fill="none" id="1-to-level_1_end" style="stroke:#181818;stroke-width:1;"/><polygon fill="#181818" points="771.48,452.1569,775.48,443.1569,771.48,447.1569,767.48,443.1569,771.48,452.1569" style="stroke:#181818;stroke-width:1;"/><text fill="#000000" font-family="sans-serif" font-size="13" lengthAdjust="spacing" textLength="29.0278" x="772.48" y="418.5538">next</text></g><!--link level_1_end to 4--><g id="link_level_1_end_4"><path codeLine="69" d="M713.74,475.1069 C608.91,486.0769 380.77,513.6069 193.48,561.4869 C187.85,562.9269 187.8435,562.8347 182.0635,564.5447 " fill="none" id="level_1_end-to-4" style="stroke:#181818;stroke-width:1;"/><polygon fill="#181818" points="176.31,566.2469,186.075,567.5293,181.1046,564.8284,183.8055,559.858,176.31,566.2469" style="stroke:#181818;stroke-width:1;"/><text fill="#000000" font-family="sans-serif" font-size="13" lengthAdjust="spacing" textLength="29.0278" x="415.48" y="527.5538">next</text></g><!--link 4 to level_2_end--><g id="link_4_level_2_end"><path codeLine="70" d="M176.3,629.3569 C182.08,631.0669 187.84,632.6569 193.48,634.0869 C393.43,684.5969 631.6654,710.5756 740.9054,720.6556 " fill="none" id="4-to-level_2_end" style="stroke:#181818;stroke-width:1;"/><polygon fill="#181818" points="746.88,721.2069,738.2856,716.3968,741.9012,720.7475,737.5505,724.363,746.88,721.2069" style="stroke:#181818;stroke-width:1;"/><text fill="#000000" font-family="sans-serif" font-size="13" lengthAdjust="spacing" textLength="29.0278" x="427.48" y="677.1538">next</text></g><!--link level_1_end to 5--><g id="link_level_1_end_5"><path codeLine="71" d="M713.69,481.9669 C639.83,498.3169 508.26,528.7669 397.48,561.4869 C391.91,563.1369 391.9074,563.0772 386.1574,564.9072 " fill="none" id="level_1_end-to-5" style="stroke:#181818;stroke-width:1;"/><polygon fill="#181818" points="380.44,566.7269,390.2292,567.809,385.2045,565.2105,387.803,560.1858,380.44,566.7269" style="stroke:#181818;stroke-width:1;"/><text fill="#000000" font-family="sans-serif" font-size="13" lengthAdjust="spacing" textLength="29.0278" x="572.48" y="527.5538">next</text></g><!--link 5 to level_2_end--><g id="link_5_level_2_end"><path codeLine="72" d="M380.41,628.9669 C386.16,630.7669 391.89,632.4869 397.48,634.0869 C520.61,669.1869 661.8416,698.5249 741.1216,714.0349 " fill="none" id="5-to-level_2_end" style="stroke:#181818;stroke-width:1;"/><polygon fill="#181818" points="747.01,715.1869,738.9454,709.5333,742.103,714.2269,737.4095,717.3845,747.01,715.1869" style="stroke:#181818;stroke-width:1;"/><text fill="#000000" font-family="sans-serif" font-size="13" lengthAdjust="spacing" textLength="29.0278" x="576.48" y="677.1538">next</text></g><!--link level_1_end to 10--><g id="link_level_1_end_10"><path codeLine="73" d="M738.4,484.9669 C698.26,503.7569 634.7542,533.4733 581.2142,558.5333 " fill="none" id="level_1_end-to-10" style="stroke:#181818;stroke-width:1;"/><polygon fill="#181818" points="575.78,561.0769,585.627,560.8844,580.3085,558.9573,582.2356,553.6388,575.78,561.0769" style="stroke:#181818;stroke-width:1;"/><text fill="#000000" font-family="sans-serif" font-size="13" lengthAdjust="spacing" textLength="29.0278" x="669.48" y="527.5538">next</text></g><!--link 10 to level_2_end--><g id="link_10_level_2_end"><path codeLine="74" d="M584.44,634.2469 C644.54,659.3269 716.653,689.4257 761.813,708.2757 " fill="none" id="10-to-level_2_end" style="stroke:#181818;stroke-width:1;"/><polygon fill="#181818" points="767.35,710.5869,760.5853,703.4288,762.7358,708.6609,757.5037,710.8115,767.35,710.5869" style="stroke:#181818;stroke-width:1;"/><text fill="#000000" font-family="sans-serif" font-size="13" lengthAdjust="spacing" textLength="29.0278" x="689.48" y="677.1538">next</text></g><!--link level_1_end to 11--><g id="link_level_1_end_11"><path codeLine="75" d="M763.41,484.5969 C753.38,503.3569 738.7773,530.7048 725.2873,555.9548 " fill="none" id="level_1_end-to-11" style="stroke:#181818;stroke-width:1;"/><polygon fill="#181818" points="722.46,561.2469,730.2291,555.1936,724.8161,556.8368,723.1729,551.4239,722.46,561.2469" style="stroke:#181818;stroke-width:1;"/><text fill="#000000" font-family="sans-serif" font-size="13" lengthAdjust="spacing" textLength="29.0278" x="747.48" y="527.5538">next</text></g><!--link 11 to level_2_end--><g id="link_11_level_2_end"><path codeLine="76" d="M731.61,634.2469 C751.57,659.4069 773.6523,687.2254 788.5823,706.0554 " fill="none" id="11-to-level_2_end" style="stroke:#181818;stroke-width:1;"/><polygon fill="#181818" points="792.31,710.7569,789.8527,701.2195,789.2036,706.839,783.5841,706.1898,792.31,710.7569" style="stroke:#181818;stroke-width:1;"/><text fill="#000000" font-family="sans-serif" font-size="13" lengthAdjust="spacing" textLength="29.0278" x="767.48" y="677.1538">next</text></g><!--link level_1_end to 14--><g id="link_level_1_end_14"><path codeLine="77" d="M787.88,484.8469 C807.95,503.6269 838.1693,531.9169 865.0093,557.0369 " fill="none" id="level_1_end-to-14" style="stroke:#181818;stroke-width:1;"/><polygon fill="#181818" points="869.39,561.1369,865.5523,552.0665,865.7394,557.7202,860.0857,557.9074,869.39,561.1369" style="stroke:#181818;stroke-width:1;"/><text fill="#000000" font-family="sans-serif" font-size="13" lengthAdjust="spacing" textLength="29.0278" x="836.48" y="527.5538">next</text></g><!--link 14 to level_2_end--><g id="link_14_level_2_end"><path codeLine="78" d="M878.79,634.2469 C858.43,659.4069 835.8832,687.2618 820.6532,706.0918 " fill="none" id="14-to-level_2_end" style="stroke:#181818;stroke-width:1;"/><polygon fill="#181818" points="816.88,710.7569,825.6498,706.2747,820.0243,706.8693,819.4297,701.2438,816.88,710.7569" style="stroke:#181818;stroke-width:1;"/><text fill="#000000" font-family="sans-serif" font-size="13" lengthAdjust="spacing" textLength="29.0278" x="854.48" y="677.1538">next</text></g><!--link level_1_end to 6--><g id="link_level_1_end_6"><path codeLine="79" d="M812.71,484.9669 C865.55,504.8169 952.8429,537.5978 1020.8629,563.1378 " fill="none" id="level_1_end-to-6" style="stroke:#181818;stroke-width:1;"/><polygon fill="#181818" points="1026.48,565.2469,1019.4604,558.3385,1021.7991,563.4893,1016.6483,565.828,1026.48,565.2469" style="stroke:#181818;stroke-width:1;"/><text fill="#000000" font-family="sans-serif" font-size="13" lengthAdjust="spacing" textLength="29.0278" x="932.48" y="527.5538">next</text></g><!--link 6 to level_2_end--><g id="link_6_level_2_end"><path codeLine="80" d="M1026.46,633.7369 C965.95,658.9069 892.7698,689.3523 847.1698,708.3223 " fill="none" id="6-to-level_2_end" style="stroke:#181818;stroke-width:1;"/><polygon fill="#181818" points="841.63,710.6269,851.476,710.8632,846.2465,708.7064,848.4032,703.4768,841.63,710.6269" style="stroke:#181818;stroke-width:1;"/><text fill="#000000" font-family="sans-serif" font-size="13" lengthAdjust="spacing" textLength="29.0278" x="949.48" y="677.1538">next</text></g><!--link level_1_end to 7--><g id="link_level_1_end_7"><path codeLine="81" d="M829,479.0469 C913.59,493.6669 1076.14,523.8669 1211.48,561.4869 C1217.2,563.0769 1217.3529,563.0378 1223.2429,564.8778 " fill="none" id="level_1_end-to-7" style="stroke:#181818;stroke-width:1;"/><polygon fill="#181818" points="1228.97,566.6669,1221.5722,560.1652,1224.1975,565.176,1219.1867,567.8013,1228.97,566.6669" style="stroke:#181818;stroke-width:1;"/><text fill="#000000" font-family="sans-serif" font-size="13" lengthAdjust="spacing" textLength="29.0278" x="1093.48" y="527.5538">next</text></g><!--link 7 to level_2_end--><g id="link_7_level_2_end"><path codeLine="82" d="M1228.94,628.8069 C1223.05,630.6669 1217.19,632.4469 1211.48,634.0869 C1088.39,669.3769 947.1493,698.6396 867.8393,714.0896 " fill="none" id="7-to-level_2_end" style="stroke:#181818;stroke-width:1;"/><polygon fill="#181818" points="861.95,715.2369,871.5488,717.4422,866.8577,714.2808,870.0191,709.5898,861.95,715.2369" style="stroke:#181818;stroke-width:1;"/><text fill="#000000" font-family="sans-serif" font-size="13" lengthAdjust="spacing" textLength="29.0278" x="1090.48" y="677.1538">next</text></g><!--link level_1_end to 9--><g id="link_level_1_end_9"><path codeLine="83" d="M828.98,473.4669 C942.33,482.2469 1201.95,506.9769 1413.48,561.4869 C1418.91,562.8869 1418.7356,562.7243 1424.3056,564.4043 " fill="none" id="level_1_end-to-9" style="stroke:#181818;stroke-width:1;"/><polygon fill="#181818" points="1430.05,566.1369,1422.5885,559.7084,1425.263,564.693,1420.2783,567.3676,1430.05,566.1369" style="stroke:#181818;stroke-width:1;"/><text fill="#000000" font-family="sans-serif" font-size="13" lengthAdjust="spacing" textLength="29.0278" x="1276.48" y="527.5538">next</text></g><!--link 9 to level_2_end--><g id="link_9_level_2_end"><path codeLine="84" d="M1430.06,629.4469 C1424.48,631.1169 1418.92,632.6869 1413.48,634.0869 C1214.37,685.2169 976.8354,710.8944 867.8954,720.7844 " fill="none" id="9-to-level_2_end" style="stroke:#181818;stroke-width:1;"/><polygon fill="#181818" points="861.92,721.3269,871.2448,724.4968,866.8995,720.8748,870.5215,716.5295,861.92,721.3269" style="stroke:#181818;stroke-width:1;"/><text fill="#000000" font-family="sans-serif" font-size="13" lengthAdjust="spacing" textLength="29.0278" x="1266.48" y="677.1538">next</text></g><!--link level_2_end to 13--><g id="link_level_2_end_13"><path codeLine="85" d="M746.98,742.3669 C677.13,759.8869 555.81,790.8669 452.48,820.0869 C446.91,821.6569 446.95,821.6169 441.19,823.2969 " fill="none" id="level_2_end-to-13" style="stroke:#181818;stroke-width:1;"/><polygon fill="#181818" points="435.43,824.9769,445.19,826.2969,440.23,823.5769,442.95,818.6169,435.43,824.9769" style="stroke:#181818;stroke-width:1;"/><text fill="#000000" font-family="sans-serif" font-size="13" lengthAdjust="spacing" textLength="29.0278" x="626.48" y="786.1538">next</text></g><!--link 13 to level_3_end--><g id="link_13_level_3_end"><path codeLine="86" d="M435.71,888.1169 C518.37,913.7169 626.9687,947.3513 691.7187,967.4113 " fill="none" id="13-to-level_3_end" style="stroke:#181818;stroke-width:1;"/><polygon fill="#181818" points="697.45,969.1869,690.0368,962.7027,692.674,967.7072,687.6694,970.3443,697.45,969.1869" style="stroke:#181818;stroke-width:1;"/><text fill="#000000" font-family="sans-serif" font-size="13" lengthAdjust="spacing" textLength="29.0278" x="592.48" y="935.7438">next</text></g><!--link level_2_end to 3--><g id="link_level_2_end_3"><path codeLine="87" d="M786.5,743.4369 C764.52,762.2169 731.1717,790.7093 701.7717,815.8293 " fill="none" id="level_2_end-to-3" style="stroke:#181818;stroke-width:1;"/><polygon fill="#181818" points="697.21,819.7269,706.6509,816.9216,701.0114,816.4789,701.4541,810.8394,697.21,819.7269" style="stroke:#181818;stroke-width:1;"/><text fill="#000000" font-family="sans-serif" font-size="13" lengthAdjust="spacing" textLength="29.0278" x="749.48" y="786.1538">next</text></g><!--link 3 to level_3_end--><g id="link_3_level_3_end"><path codeLine="88" d="M681.1,892.8369 C699.29,917.9969 719.274,945.665 732.884,964.485 " fill="none" id="3-to-level_3_end" style="stroke:#181818;stroke-width:1;"/><polygon fill="#181818" points="736.4,969.3469,734.3673,959.7101,733.47,965.2953,727.8848,964.398,736.4,969.3469" style="stroke:#181818;stroke-width:1;"/><text fill="#000000" font-family="sans-serif" font-size="13" lengthAdjust="spacing" textLength="29.0278" x="713.48" y="935.7438">next</text></g><!--link level_2_end to 12--><g id="link_level_2_end_12"><path codeLine="89" d="M822.69,743.4369 C844.97,762.2169 878.8024,790.7398 908.6024,815.8598 " fill="none" id="level_2_end-to-12" style="stroke:#181818;stroke-width:1;"/><polygon fill="#181818" points="913.19,819.7269,908.8867,810.8679,909.367,816.5043,903.7306,816.9846,913.19,819.7269" style="stroke:#181818;stroke-width:1;"/><text fill="#000000" font-family="sans-serif" font-size="13" lengthAdjust="spacing" textLength="29.0278" x="876.48" y="786.1538">next</text></g><!--link 12 to level_3_end--><g id="link_12_level_3_end"><path codeLine="90" d="M897.26,893.0069 C856.28,918.0869 808.5573,947.2942 777.8473,966.0942 " fill="none" id="12-to-level_3_end" style="stroke:#181818;stroke-width:1;"/><polygon fill="#181818" points="772.73,969.2269,782.4943,967.9394,776.9944,966.6163,778.3174,961.1164,772.73,969.2269" style="stroke:#181818;stroke-width:1;"/><text fill="#000000" font-family="sans-serif" font-size="13" lengthAdjust="spacing" textLength="29.0278" x="846.48" y="935.7438">next</text></g><!--link level_2_end to 2--><g id="link_level_2_end_2"><path codeLine="91" d="M851.18,743.5669 C907.84,762.3469 999.4746,792.7295 1075.0646,817.7795 " fill="none" id="level_2_end-to-2" style="stroke:#181818;stroke-width:1;"/><polygon fill="#181818" points="1080.76,819.6669,1073.4752,813.0388,1076.0138,818.094,1070.9586,820.6327,1080.76,819.6669" style="stroke:#181818;stroke-width:1;"/><text fill="#000000" font-family="sans-serif" font-size="13" lengthAdjust="spacing" textLength="29.0278" x="986.48" y="786.1538">next</text></g><!--link 2 to level_3_end--><g id="link_2_level_3_end"><path codeLine="92" d="M1068.84,891.9169 C981.48,917.1269 872.9546,948.4527 806.8646,967.5327 " fill="none" id="2-to-level_3_end" style="stroke:#181818;stroke-width:1;"/><polygon fill="#181818" points="801.1,969.1969,810.8563,970.5436,805.9038,967.81,808.6374,962.8575,801.1,969.1969" style="stroke:#181818;stroke-width:1;"/><text fill="#000000" font-family="sans-serif" font-size="13" lengthAdjust="spacing" textLength="29.0278" x="956.48" y="935.7438">next</text></g><!--SRC=[bPJDYXD158NtzHJbocamaExEhsG2anXK61Cnhjo4ikjEKantLLDTdKaO144t8Zw0hWLt0-uKqQSnHD_2IcVwDucXimcSUx_RvzpEpHqA5um3VWQE6laWYHBoP65WnoL1W1Uuqy4detjOI6V6g86xNOI2IyPz8ec7fOO8dxg0hn7MdnvnBgTIX9psXIjafpFgTl4vcyvKpmrXso8a1HcLSS_L_P5w9gMuoegl459CwS5zGMG0bQaasYN5VHS81ua72t12nGJ7eysyZNtXUS0fsOW8tLr_-V7tu-VVtz-ltdrOVtgx-lPczVNrdvjVwvytI2S139wlbfX2u4ZcHr16za3D10soqWK3LoiejwZnu-73yy5aC7nW52ekpC6Tc1DjQN_9EboozvLC0vduFWv4A1quVIG2dodY3ea7aQw8d88wVIh5N7kMmz1x2J8_eMMWLZgXqDbAP-HcvoRK35GxuA6MyY-OtnUqWDODL3-0rZFsPuB3FkzcLSUl7ifVJIUSKIeX2Cm2ljdUmVMPkzb7Ltp7Wavl7eflPlBtcLhcqOQ16Ydu14WGIeXsr4YnMtbtwqq3DVVJpPGUAwA0pATvj6sWzdwqdV4hE6NH1UJpsZgldTBnQusqMtJWWVxcpd8CSiwSWd4z8CDdtcrkoxazseL41KkMjcIb8wDDHq8I9UHgkRj2pLaxUzYqfTcjtH_1ywKFA3rnNA7YYbUwU7Ch71PA7qqicR5a9bBc7o0kPgMuhHONQmNIEaRMusAzB1aTpDPkjJIRHZLBiqbOitJQHbnib2MRSR5Pbcp7nVPnqiedjPEaTe6rZx49MfgCJc7xLAiicw3_8_y1]--></g></svg>