<svg xmlns="http://www.w3.org/2000/svg" xmlns:xlink="http://www.w3.org/1999/xlink" contentStyleType="text/css" height="1008px" preserveAspectRatio="none" style="width:1604px;height:1008px;background:#FFFFFF;" version="1.1" viewBox="0 0 1604 1008" width="1604px" zoomAndPan="magnify"><title>Coarse-grained Cleaner Execution Order Recommendation</title><defs/><g><text fill="#000000" font-family="sans-serif" font-size="14" font-weight="bold" lengthAdjust="spacing" textLength="460.4482" x="564.9274" y="22.9951">Coarse-grained Cleaner Execution Order Recommendation</text><!--class SINGLE_END--><g id="elem_SINGLE_END"><rect codeLine="16" fill="#F1F1F1" height="32" id="SINGLE_END" rx="2.5" ry="2.5" style="stroke:#181818;stroke-width:0.5;" width="120.0811" x="704.79" y="44.2969"/><ellipse cx="719.79" cy="60.2969" fill="#DA70D6" rx="11" ry="11" style="stroke:#181818;stroke-width:1;"/><path d="M719.8994,55.875 Q718.9619,55.875 718.5244,56.875 Q718.1025,57.875 718.1025,60.1094 Q718.1025,62.3438 718.5244,63.3438 Q718.9619,64.3438 719.8994,64.3438 Q720.8525,64.3438 721.2744,63.3438 Q721.7119,62.3438 721.7119,60.1094 Q721.7119,57.875 721.2744,56.875 Q720.8525,55.875 719.8994,55.875 Z M715.5556,60.1094 Q715.5556,56.9375 716.6494,55.3125 Q717.7588,53.6719 719.8994,53.6719 Q722.0556,53.6719 723.1494,55.3125 Q724.2588,56.9375 724.2588,60.1094 Q724.2588,63.2813 723.1494,64.9063 Q722.0556,66.5313 719.8994,66.5313 Q717.7588,66.5313 716.6494,64.9063 Q715.5556,63.2813 715.5556,60.1094 Z " fill="#000000"/><text fill="#000000" font-family="sans-serif" font-size="14" lengthAdjust="spacing" textLength="88.0811" x="733.79" y="65.1436">SINGLE_END</text></g><!--class level_1_end--><g id="elem_level_1_end"><rect codeLine="18" fill="#F1F1F1" height="32" id="level_1_end" rx="2.5" ry="2.5" style="stroke:#181818;stroke-width:0.5;" width="114.5713" x="707.54" y="452.4869"/><ellipse cx="722.54" cy="468.4869" fill="#DA70D6" rx="11" ry="11" style="stroke:#181818;stroke-width:1;"/><path d="M722.6494,464.065 Q721.7119,464.065 721.2744,465.065 Q720.8525,466.065 720.8525,468.2994 Q720.8525,470.5337 721.2744,471.5337 Q721.7119,472.5337 722.6494,472.5337 Q723.6025,472.5337 724.0244,471.5337 Q724.4619,470.5337 724.4619,468.2994 Q724.4619,466.065 724.0244,465.065 Q723.6025,464.065 722.6494,464.065 Z M718.3056,468.2994 Q718.3056,465.1275 719.3994,463.5025 Q720.5088,461.8619 722.6494,461.8619 Q724.8056,461.8619 725.8994,463.5025 Q727.0088,465.1275 727.0088,468.2994 Q727.0088,471.4712 725.8994,473.0962 Q724.8056,474.7212 722.6494,474.7212 Q720.5088,474.7212 719.3994,473.0962 Q718.3056,471.4712 718.3056,468.2994 Z " fill="#000000"/><text fill="#000000" font-family="sans-serif" font-size="14" lengthAdjust="spacing" textLength="82.5713" x="736.54" y="473.3336">level_1_end</text></g><!--class level_2_end--><g id="elem_level_2_end"><rect codeLine="20" fill="#F1F1F1" height="32" id="level_2_end" rx="2.5" ry="2.5" style="stroke:#181818;stroke-width:0.5;" width="114.5713" x="740.54" y="711.0869"/><ellipse cx="755.54" cy="727.0869" fill="#DA70D6" rx="11" ry="11" style="stroke:#181818;stroke-width:1;"/><path d="M755.6494,722.665 Q754.7119,722.665 754.2744,723.665 Q753.8525,724.665 753.8525,726.8994 Q753.8525,729.1338 754.2744,730.1338 Q754.7119,731.1338 755.6494,731.1338 Q756.6025,731.1338 757.0244,730.1338 Q757.4619,729.1338 757.4619,726.8994 Q757.4619,724.665 757.0244,723.665 Q756.6025,722.665 755.6494,722.665 Z M751.3056,726.8994 Q751.3056,723.7275 752.3994,722.1025 Q753.5088,720.4619 755.6494,720.4619 Q757.8056,720.4619 758.8994,722.1025 Q760.0088,723.7275 760.0088,726.8994 Q760.0088,730.0713 758.8994,731.6963 Q757.8056,733.3213 755.6494,733.3213 Q753.5088,733.3213 752.3994,731.6963 Q751.3056,730.0713 751.3056,726.8994 Z " fill="#000000"/><text fill="#000000" font-family="sans-serif" font-size="14" lengthAdjust="spacing" textLength="82.5713" x="769.54" y="731.9336">level_2_end</text></g><!--class level_3_end--><g id="elem_level_3_end"><rect codeLine="22" fill="#F1F1F1" height="32" id="level_3_end" rx="2.5" ry="2.5" style="stroke:#181818;stroke-width:0.5;" width="114.5713" x="678.54" y="969.6769"/><ellipse cx="693.54" cy="985.6769" fill="#DA70D6" rx="11" ry="11" style="stroke:#181818;stroke-width:1;"/><path d="M693.6494,981.255 Q692.7119,981.255 692.2744,982.255 Q691.8525,983.255 691.8525,985.4894 Q691.8525,987.7238 692.2744,988.7238 Q692.7119,989.7238 693.6494,989.7238 Q694.6025,989.7238 695.0244,988.7238 Q695.4619,987.7238 695.4619,985.4894 Q695.4619,983.255 695.0244,982.255 Q694.6025,981.255 693.6494,981.255 Z M689.3056,985.4894 Q689.3056,982.3175 690.3994,980.6925 Q691.5088,979.0519 693.6494,979.0519 Q695.8056,979.0519 696.8994,980.6925 Q698.0088,982.3175 698.0088,985.4894 Q698.0088,988.6613 696.8994,990.2863 Q695.8056,991.9113 693.6494,991.9113 Q691.5088,991.9113 690.3994,990.2863 Q689.3056,988.6613 689.3056,985.4894 Z " fill="#000000"/><text fill="#000000" font-family="sans-serif" font-size="14" lengthAdjust="spacing" textLength="82.5713" x="707.54" y="990.5236">level_3_end</text></g><!--class 1--><g id="elem_1"><rect codeLine="24" fill="#F1F1F1" height="72.5938" id="1" rx="2.5" ry="2.5" style="stroke:#181818;stroke-width:0.5;" width="180.9775" x="674.34" y="302.8969"/><ellipse cx="756.1252" cy="318.8969" fill="#DA70D6" rx="11" ry="11" style="stroke:#181818;stroke-width:1;"/><path d="M756.2345,314.475 Q755.297,314.475 754.8595,315.475 Q754.4377,316.475 754.4377,318.7094 Q754.4377,320.9438 754.8595,321.9438 Q755.297,322.9438 756.2345,322.9438 Q757.1877,322.9438 757.6095,321.9438 Q758.047,320.9438 758.047,318.7094 Q758.047,316.475 757.6095,315.475 Q757.1877,314.475 756.2345,314.475 Z M751.8908,318.7094 Q751.8908,315.5375 752.9845,313.9125 Q754.0939,312.2719 756.2345,312.2719 Q758.3908,312.2719 759.4845,313.9125 Q760.5939,315.5375 760.5939,318.7094 Q760.5939,321.8813 759.4845,323.5063 Q758.3908,325.1313 756.2345,325.1313 Q754.0939,325.1313 752.9845,323.5063 Q751.8908,321.8813 751.8908,318.7094 Z " fill="#000000"/><text fill="#000000" font-family="sans-serif" font-size="14" lengthAdjust="spacing" textLength="8.9072" x="776.6252" y="323.7436">1</text><line style="stroke:#181818;stroke-width:0.5;" x1="675.34" x2="854.3175" y1="334.8969" y2="334.8969"/><text fill="#000000" font-family="sans-serif" font-size="14" lengthAdjust="spacing" textLength="156.9531" x="680.34" y="351.892">source=HospitalName</text><text fill="#000000" font-family="sans-serif" font-size="14" lengthAdjust="spacing" textLength="168.9775" x="680.34" y="368.1889">target=ProviderNumber</text></g><!--class 8--><g id="elem_8"><rect codeLine="27" fill="#F1F1F1" height="72.5938" id="8" rx="2.5" ry="2.5" style="stroke:#181818;stroke-width:0.5;" width="184.9629" x="672.35" y="153.2969"/><ellipse cx="756.1278" cy="169.2969" fill="#DA70D6" rx="11" ry="11" style="stroke:#181818;stroke-width:1;"/><path d="M756.2372,164.875 Q755.2997,164.875 754.8622,165.875 Q754.4403,166.875 754.4403,169.1094 Q754.4403,171.3438 754.8622,172.3438 Q755.2997,173.3438 756.2372,173.3438 Q757.1903,173.3438 757.6122,172.3438 Q758.0497,171.3438 758.0497,169.1094 Q758.0497,166.875 757.6122,165.875 Q757.1903,164.875 756.2372,164.875 Z M751.8935,169.1094 Q751.8935,165.9375 752.9872,164.3125 Q754.0966,162.6719 756.2372,162.6719 Q758.3935,162.6719 759.4872,164.3125 Q760.5966,165.9375 760.5966,169.1094 Q760.5966,172.2813 759.4872,173.9063 Q758.3935,175.5313 756.2372,175.5313 Q754.0966,175.5313 752.9872,173.9063 Q751.8935,172.2813 751.8935,169.1094 Z " fill="#000000"/><text fill="#000000" font-family="sans-serif" font-size="14" lengthAdjust="spacing" textLength="8.9072" x="776.6278" y="174.1436">8</text><line style="stroke:#181818;stroke-width:0.5;" x1="673.35" x2="856.3129" y1="185.2969" y2="185.2969"/><text fill="#000000" font-family="sans-serif" font-size="14" lengthAdjust="spacing" textLength="172.9629" x="678.35" y="202.292">source=ProviderNumber</text><text fill="#000000" font-family="sans-serif" font-size="14" lengthAdjust="spacing" textLength="152.9678" x="678.35" y="218.5889">target=HospitalName</text></g><!--class 6--><g id="elem_6"><rect codeLine="30" fill="#F1F1F1" height="72.5938" id="6" rx="2.5" ry="2.5" style="stroke:#181818;stroke-width:0.5;" width="167.6543" x="7" y="561.4869"/><ellipse cx="82.1235" cy="577.4869" fill="#DA70D6" rx="11" ry="11" style="stroke:#181818;stroke-width:1;"/><path d="M82.2329,573.065 Q81.2954,573.065 80.8579,574.065 Q80.436,575.065 80.436,577.2994 Q80.436,579.5337 80.8579,580.5337 Q81.2954,581.5337 82.2329,581.5337 Q83.186,581.5337 83.6079,580.5337 Q84.0454,579.5337 84.0454,577.2994 Q84.0454,575.065 83.6079,574.065 Q83.186,573.065 82.2329,573.065 Z M77.8892,577.2994 Q77.8892,574.1275 78.9829,572.5025 Q80.0923,570.8619 82.2329,570.8619 Q84.3892,570.8619 85.4829,572.5025 Q86.5923,574.1275 86.5923,577.2994 Q86.5923,580.4712 85.4829,582.0962 Q84.3892,583.7212 82.2329,583.7212 Q80.0923,583.7212 78.9829,582.0962 Q77.8892,580.4712 77.8892,577.2994 Z " fill="#000000"/><text fill="#000000" font-family="sans-serif" font-size="14" lengthAdjust="spacing" textLength="8.9072" x="102.6235" y="582.3336">6</text><line style="stroke:#181818;stroke-width:0.5;" x1="8" x2="173.6543" y1="593.4869" y2="593.4869"/><text fill="#000000" font-family="sans-serif" font-size="14" lengthAdjust="spacing" textLength="154.1777" x="13" y="610.482">source=MeasureCode</text><text fill="#000000" font-family="sans-serif" font-size="14" lengthAdjust="spacing" textLength="155.6543" x="13" y="626.7789">target=MeasureName</text></g><!--class 7--><g id="elem_7"><rect codeLine="33" fill="#F1F1F1" height="72.5938" id="7" rx="2.5" ry="2.5" style="stroke:#181818;stroke-width:0.5;" width="166.1777" x="209.74" y="561.4869"/><ellipse cx="284.1253" cy="577.4869" fill="#DA70D6" rx="11" ry="11" style="stroke:#181818;stroke-width:1;"/><path d="M284.2346,573.065 Q283.2971,573.065 282.8596,574.065 Q282.4378,575.065 282.4378,577.2994 Q282.4378,579.5337 282.8596,580.5337 Q283.2971,581.5337 284.2346,581.5337 Q285.1878,581.5337 285.6096,580.5337 Q286.0471,579.5337 286.0471,577.2994 Q286.0471,575.065 285.6096,574.065 Q285.1878,573.065 284.2346,573.065 Z M279.8909,577.2994 Q279.8909,574.1275 280.9846,572.5025 Q282.094,570.8619 284.2346,570.8619 Q286.3909,570.8619 287.4846,572.5025 Q288.594,574.1275 288.594,577.2994 Q288.594,580.4712 287.4846,582.0962 Q286.3909,583.7212 284.2346,583.7212 Q282.094,583.7212 280.9846,582.0962 Q279.8909,580.4712 279.8909,577.2994 Z " fill="#000000"/><text fill="#000000" font-family="sans-serif" font-size="14" lengthAdjust="spacing" textLength="8.9072" x="304.6253" y="582.3336">7</text><line style="stroke:#181818;stroke-width:0.5;" x1="210.74" x2="374.9177" y1="593.4869" y2="593.4869"/><text fill="#000000" font-family="sans-serif" font-size="14" lengthAdjust="spacing" textLength="154.1777" x="215.74" y="610.482">source=MeasureCode</text><text fill="#000000" font-family="sans-serif" font-size="14" lengthAdjust="spacing" textLength="117.3525" x="215.74" y="626.7789">target=Stateavg</text></g><!--class 9--><g id="elem_9"><rect codeLine="36" fill="#F1F1F1" height="72.5938" id="9" rx="2.5" ry="2.5" style="stroke:#181818;stroke-width:0.5;" width="166.1777" x="410.74" y="561.4869"/><ellipse cx="485.1253" cy="577.4869" fill="#DA70D6" rx="11" ry="11" style="stroke:#181818;stroke-width:1;"/><path d="M485.2346,573.065 Q484.2971,573.065 483.8596,574.065 Q483.4378,575.065 483.4378,577.2994 Q483.4378,579.5337 483.8596,580.5337 Q484.2971,581.5337 485.2346,581.5337 Q486.1878,581.5337 486.6096,580.5337 Q487.0471,579.5337 487.0471,577.2994 Q487.0471,575.065 486.6096,574.065 Q486.1878,573.065 485.2346,573.065 Z M480.8909,577.2994 Q480.8909,574.1275 481.9846,572.5025 Q483.094,570.8619 485.2346,570.8619 Q487.3909,570.8619 488.4846,572.5025 Q489.594,574.1275 489.594,577.2994 Q489.594,580.4712 488.4846,582.0962 Q487.3909,583.7212 485.2346,583.7212 Q483.094,583.7212 481.9846,582.0962 Q480.8909,580.4712 480.8909,577.2994 Z " fill="#000000"/><text fill="#000000" font-family="sans-serif" font-size="14" lengthAdjust="spacing" textLength="8.9072" x="505.6253" y="582.3336">9</text><line style="stroke:#181818;stroke-width:0.5;" x1="411.74" x2="575.9177" y1="593.4869" y2="593.4869"/><text fill="#000000" font-family="sans-serif" font-size="14" lengthAdjust="spacing" textLength="154.1777" x="416.74" y="610.482">source=MeasureCode</text><text fill="#000000" font-family="sans-serif" font-size="14" lengthAdjust="spacing" textLength="121.3516" x="416.74" y="626.7789">target=Condition</text></g><!--class 4--><g id="elem_4"><rect codeLine="39" fill="#F1F1F1" height="72.5938" id="4" rx="2.5" ry="2.5" style="stroke:#181818;stroke-width:0.5;" width="168.9531" x="612.35" y="561.4869"/><ellipse cx="688.1229" cy="577.4869" fill="#DA70D6" rx="11" ry="11" style="stroke:#181818;stroke-width:1;"/><path d="M688.2323,573.065 Q687.2948,573.065 686.8573,574.065 Q686.4354,575.065 686.4354,577.2994 Q686.4354,579.5337 686.8573,580.5337 Q687.2948,581.5337 688.2323,581.5337 Q689.1854,581.5337 689.6073,580.5337 Q690.0448,579.5337 690.0448,577.2994 Q690.0448,575.065 689.6073,574.065 Q689.1854,573.065 688.2323,573.065 Z M683.8886,577.2994 Q683.8886,574.1275 684.9823,572.5025 Q686.0917,570.8619 688.2323,570.8619 Q690.3886,570.8619 691.4823,572.5025 Q692.5917,574.1275 692.5917,577.2994 Q692.5917,580.4712 691.4823,582.0962 Q690.3886,583.7212 688.2323,583.7212 Q686.0917,583.7212 684.9823,582.0962 Q683.8886,580.4712 683.8886,577.2994 Z " fill="#000000"/><text fill="#000000" font-family="sans-serif" font-size="14" lengthAdjust="spacing" textLength="8.9072" x="708.6229" y="582.3336">4</text><line style="stroke:#181818;stroke-width:0.5;" x1="613.35" x2="780.3031" y1="593.4869" y2="593.4869"/><text fill="#000000" font-family="sans-serif" font-size="14" lengthAdjust="spacing" textLength="156.9531" x="618.35" y="610.482">source=HospitalName</text><text fill="#000000" font-family="sans-serif" font-size="14" lengthAdjust="spacing" textLength="112.752" x="618.35" y="626.7789">target=ZipCode</text></g><!--class 5--><g id="elem_5"><rect codeLine="42" fill="#F1F1F1" height="72.5938" id="5" rx="2.5" ry="2.5" style="stroke:#181818;stroke-width:0.5;" width="168.9531" x="816.35" y="561.4869"/><ellipse cx="892.1229" cy="577.4869" fill="#DA70D6" rx="11" ry="11" style="stroke:#181818;stroke-width:1;"/><path d="M892.2323,573.065 Q891.2948,573.065 890.8573,574.065 Q890.4354,575.065 890.4354,577.2994 Q890.4354,579.5337 890.8573,580.5337 Q891.2948,581.5337 892.2323,581.5337 Q893.1854,581.5337 893.6073,580.5337 Q894.0448,579.5337 894.0448,577.2994 Q894.0448,575.065 893.6073,574.065 Q893.1854,573.065 892.2323,573.065 Z M887.8886,577.2994 Q887.8886,574.1275 888.9823,572.5025 Q890.0917,570.8619 892.2323,570.8619 Q894.3886,570.8619 895.4823,572.5025 Q896.5917,574.1275 896.5917,577.2994 Q896.5917,580.4712 895.4823,582.0962 Q894.3886,583.7212 892.2323,583.7212 Q890.0917,583.7212 888.9823,582.0962 Q887.8886,580.4712 887.8886,577.2994 Z " fill="#000000"/><text fill="#000000" font-family="sans-serif" font-size="14" lengthAdjust="spacing" textLength="8.9072" x="912.6229" y="582.3336">5</text><line style="stroke:#181818;stroke-width:0.5;" x1="817.35" x2="984.3031" y1="593.4869" y2="593.4869"/><text fill="#000000" font-family="sans-serif" font-size="14" lengthAdjust="spacing" textLength="156.9531" x="822.35" y="610.482">source=HospitalName</text><text fill="#000000" font-family="sans-serif" font-size="14" lengthAdjust="spacing" textLength="154.1504" x="822.35" y="626.7789">target=PhoneNumber</text></g><!--class 10--><g id="elem_10"><rect codeLine="45" fill="#F1F1F1" height="72.5938" id="10" rx="2.5" ry="2.5" style="stroke:#181818;stroke-width:0.5;" width="168.9531" x="1020.35" y="561.4869"/><ellipse cx="1091.6693" cy="577.4869" fill="#DA70D6" rx="11" ry="11" style="stroke:#181818;stroke-width:1;"/><path d="M1091.7787,573.065 Q1090.8412,573.065 1090.4037,574.065 Q1089.9818,575.065 1089.9818,577.2994 Q1089.9818,579.5337 1090.4037,580.5337 Q1090.8412,581.5337 1091.7787,581.5337 Q1092.7318,581.5337 1093.1537,580.5337 Q1093.5912,579.5337 1093.5912,577.2994 Q1093.5912,575.065 1093.1537,574.065 Q1092.7318,573.065 1091.7787,573.065 Z M1087.435,577.2994 Q1087.435,574.1275 1088.5287,572.5025 Q1089.6381,570.8619 1091.7787,570.8619 Q1093.935,570.8619 1095.0287,572.5025 Q1096.1381,574.1275 1096.1381,577.2994 Q1096.1381,580.4712 1095.0287,582.0962 Q1093.935,583.7212 1091.7787,583.7212 Q1089.6381,583.7212 1088.5287,582.0962 Q1087.435,580.4712 1087.435,577.2994 Z " fill="#000000"/><text fill="#000000" font-family="sans-serif" font-size="14" lengthAdjust="spacing" textLength="17.8145" x="1112.1693" y="582.3336">10</text><line style="stroke:#181818;stroke-width:0.5;" x1="1021.35" x2="1188.3031" y1="593.4869" y2="593.4869"/><text fill="#000000" font-family="sans-serif" font-size="14" lengthAdjust="spacing" textLength="156.9531" x="1026.35" y="610.482">source=HospitalName</text><text fill="#000000" font-family="sans-serif" font-size="14" lengthAdjust="spacing" textLength="119.7588" x="1026.35" y="626.7789">target=Address1</text></g><!--class 11--><g id="elem_11"><rect codeLine="48" fill="#F1F1F1" height="72.5938" id="11" rx="2.5" ry="2.5" style="stroke:#181818;stroke-width:0.5;" width="169.377" x="1224.14" y="561.4869"/><ellipse cx="1295.6713" cy="577.4869" fill="#DA70D6" rx="11" ry="11" style="stroke:#181818;stroke-width:1;"/><path d="M1295.7806,573.065 Q1294.8431,573.065 1294.4056,574.065 Q1293.9838,575.065 1293.9838,577.2994 Q1293.9838,579.5337 1294.4056,580.5337 Q1294.8431,581.5337 1295.7806,581.5337 Q1296.7338,581.5337 1297.1556,580.5337 Q1297.5931,579.5337 1297.5931,577.2994 Q1297.5931,575.065 1297.1556,574.065 Q1296.7338,573.065 1295.7806,573.065 Z M1291.4369,577.2994 Q1291.4369,574.1275 1292.5306,572.5025 Q1293.64,570.8619 1295.7806,570.8619 Q1297.9369,570.8619 1299.0306,572.5025 Q1300.14,574.1275 1300.14,577.2994 Q1300.14,580.4712 1299.0306,582.0962 Q1297.9369,583.7212 1295.7806,583.7212 Q1293.64,583.7212 1292.5306,582.0962 Q1291.4369,580.4712 1291.4369,577.2994 Z " fill="#000000"/><text fill="#000000" font-family="sans-serif" font-size="14" lengthAdjust="spacing" textLength="17.8145" x="1316.1713" y="582.3336">11</text><line style="stroke:#181818;stroke-width:0.5;" x1="1225.14" x2="1392.517" y1="593.4869" y2="593.4869"/><text fill="#000000" font-family="sans-serif" font-size="14" lengthAdjust="spacing" textLength="156.9531" x="1230.14" y="610.482">source=HospitalName</text><text fill="#000000" font-family="sans-serif" font-size="14" lengthAdjust="spacing" textLength="157.377" x="1230.14" y="626.7789">target=HospitalOwner</text></g><!--class 14--><g id="elem_14"><rect codeLine="51" fill="#F1F1F1" height="72.5938" id="14" rx="2.5" ry="2.5" style="stroke:#181818;stroke-width:0.5;" width="168.9531" x="1428.35" y="561.4869"/><ellipse cx="1499.6693" cy="577.4869" fill="#DA70D6" rx="11" ry="11" style="stroke:#181818;stroke-width:1;"/><path d="M1499.7787,573.065 Q1498.8412,573.065 1498.4037,574.065 Q1497.9818,575.065 1497.9818,577.2994 Q1497.9818,579.5337 1498.4037,580.5337 Q1498.8412,581.5337 1499.7787,581.5337 Q1500.7318,581.5337 1501.1537,580.5337 Q1501.5912,579.5337 1501.5912,577.2994 Q1501.5912,575.065 1501.1537,574.065 Q1500.7318,573.065 1499.7787,573.065 Z M1495.435,577.2994 Q1495.435,574.1275 1496.5287,572.5025 Q1497.6381,570.8619 1499.7787,570.8619 Q1501.935,570.8619 1503.0287,572.5025 Q1504.1381,574.1275 1504.1381,577.2994 Q1504.1381,580.4712 1503.0287,582.0962 Q1501.935,583.7212 1499.7787,583.7212 Q1497.6381,583.7212 1496.5287,582.0962 Q1495.435,580.4712 1495.435,577.2994 Z " fill="#000000"/><text fill="#000000" font-family="sans-serif" font-size="14" lengthAdjust="spacing" textLength="17.8145" x="1520.1693" y="582.3336">14</text><line style="stroke:#181818;stroke-width:0.5;" x1="1429.35" x2="1596.3031" y1="593.4869" y2="593.4869"/><text fill="#000000" font-family="sans-serif" font-size="14" lengthAdjust="spacing" textLength="156.9531" x="1434.35" y="610.482">source=HospitalName</text><text fill="#000000" font-family="sans-serif" font-size="14" lengthAdjust="spacing" textLength="81.9834" x="1434.35" y="626.7789">target=City</text></g><!--class 2--><g id="elem_2"><rect codeLine="54" fill="#F1F1F1" height="72.5938" id="2" rx="2.5" ry="2.5" style="stroke:#181818;stroke-width:0.5;" width="238.4473" x="266.6" y="820.0869"/><ellipse cx="377.12" cy="836.0869" fill="#DA70D6" rx="11" ry="11" style="stroke:#181818;stroke-width:1;"/><path d="M377.2294,831.665 Q376.2919,831.665 375.8544,832.665 Q375.4325,833.665 375.4325,835.8994 Q375.4325,838.1338 375.8544,839.1338 Q376.2919,840.1338 377.2294,840.1338 Q378.1825,840.1338 378.6044,839.1338 Q379.0419,838.1338 379.0419,835.8994 Q379.0419,833.665 378.6044,832.665 Q378.1825,831.665 377.2294,831.665 Z M372.8856,835.8994 Q372.8856,832.7275 373.9794,831.1025 Q375.0888,829.4619 377.2294,829.4619 Q379.3856,829.4619 380.4794,831.1025 Q381.5888,832.7275 381.5888,835.8994 Q381.5888,839.0713 380.4794,840.6963 Q379.3856,842.3213 377.2294,842.3213 Q375.0888,842.3213 373.9794,840.6963 Q372.8856,839.0713 372.8856,835.8994 Z " fill="#000000"/><text fill="#000000" font-family="sans-serif" font-size="14" lengthAdjust="spacing" textLength="8.9072" x="397.62" y="840.9336">2</text><line style="stroke:#181818;stroke-width:0.5;" x1="267.6" x2="504.0473" y1="852.0869" y2="852.0869"/><text fill="#000000" font-family="sans-serif" font-size="14" lengthAdjust="spacing" textLength="226.4473" x="272.6" y="869.082">source=ConditionMeasureName</text><text fill="#000000" font-family="sans-serif" font-size="14" lengthAdjust="spacing" textLength="146.002" x="272.6" y="885.3789">target=HospitalType</text></g><!--class 13--><g id="elem_13"><rect codeLine="57" fill="#F1F1F1" height="72.5938" id="13" rx="2.5" ry="2.5" style="stroke:#181818;stroke-width:0.5;" width="197.4932" x="540.08" y="820.0869"/><ellipse cx="625.6694" cy="836.0869" fill="#DA70D6" rx="11" ry="11" style="stroke:#181818;stroke-width:1;"/><path d="M625.7787,831.665 Q624.8412,831.665 624.4037,832.665 Q623.9819,833.665 623.9819,835.8994 Q623.9819,838.1338 624.4037,839.1338 Q624.8412,840.1338 625.7787,840.1338 Q626.7319,840.1338 627.1537,839.1338 Q627.5912,838.1338 627.5912,835.8994 Q627.5912,833.665 627.1537,832.665 Q626.7319,831.665 625.7787,831.665 Z M621.435,835.8994 Q621.435,832.7275 622.5287,831.1025 Q623.6381,829.4619 625.7787,829.4619 Q627.935,829.4619 629.0287,831.1025 Q630.1381,832.7275 630.1381,835.8994 Q630.1381,839.0713 629.0287,840.6963 Q627.935,842.3213 625.7787,842.3213 Q623.6381,842.3213 622.5287,840.6963 Q621.435,839.0713 621.435,835.8994 Z " fill="#000000"/><text fill="#000000" font-family="sans-serif" font-size="14" lengthAdjust="spacing" textLength="17.8145" x="646.1694" y="840.9336">13</text><line style="stroke:#181818;stroke-width:0.5;" x1="541.08" x2="736.5732" y1="852.0869" y2="852.0869"/><text fill="#000000" font-family="sans-serif" font-size="14" lengthAdjust="spacing" textLength="116.7373" x="546.08" y="869.082">source=ZipCode</text><text fill="#000000" font-family="sans-serif" font-size="14" lengthAdjust="spacing" textLength="185.4932" x="546.08" y="885.3789">target=EmergencyService</text></g><!--class 3--><g id="elem_3"><rect codeLine="60" fill="#F1F1F1" height="72.5938" id="3" rx="2.5" ry="2.5" style="stroke:#181818;stroke-width:0.5;" width="371.3926" x="772.13" y="820.0869"/><ellipse cx="949.1227" cy="836.0869" fill="#DA70D6" rx="11" ry="11" style="stroke:#181818;stroke-width:1;"/><path d="M949.2321,831.665 Q948.2946,831.665 947.8571,832.665 Q947.4352,833.665 947.4352,835.8994 Q947.4352,838.1338 947.8571,839.1338 Q948.2946,840.1338 949.2321,840.1338 Q950.1852,840.1338 950.6071,839.1338 Q951.0446,838.1338 951.0446,835.8994 Q951.0446,833.665 950.6071,832.665 Q950.1852,831.665 949.2321,831.665 Z M944.8883,835.8994 Q944.8883,832.7275 945.9821,831.1025 Q947.0914,829.4619 949.2321,829.4619 Q951.3883,829.4619 952.4821,831.1025 Q953.5914,832.7275 953.5914,835.8994 Q953.5914,839.0713 952.4821,840.6963 Q951.3883,842.3213 949.2321,842.3213 Q947.0914,842.3213 945.9821,840.6963 Q944.8883,839.0713 944.8883,835.8994 Z " fill="#000000"/><text fill="#000000" font-family="sans-serif" font-size="14" lengthAdjust="spacing" textLength="8.9072" x="969.6227" y="840.9336">3</text><line style="stroke:#181818;stroke-width:0.5;" x1="773.13" x2="1142.5226" y1="852.0869" y2="852.0869"/><text fill="#000000" font-family="sans-serif" font-size="14" lengthAdjust="spacing" textLength="359.3926" x="778.13" y="869.082">source=PhoneNumberHospitalOwnerHospitalName</text><text fill="#000000" font-family="sans-serif" font-size="14" lengthAdjust="spacing" textLength="91.6016" x="778.13" y="885.3789">target=State</text></g><!--class 12--><g id="elem_12"><rect codeLine="63" fill="#F1F1F1" height="72.5938" id="12" rx="2.5" ry="2.5" style="stroke:#181818;stroke-width:0.5;" width="157.708" x="1178.97" y="820.0869"/><ellipse cx="1244.6668" cy="836.0869" fill="#DA70D6" rx="11" ry="11" style="stroke:#181818;stroke-width:1;"/><path d="M1244.7762,831.665 Q1243.8387,831.665 1243.4012,832.665 Q1242.9793,833.665 1242.9793,835.8994 Q1242.9793,838.1338 1243.4012,839.1338 Q1243.8387,840.1338 1244.7762,840.1338 Q1245.7293,840.1338 1246.1512,839.1338 Q1246.5887,838.1338 1246.5887,835.8994 Q1246.5887,833.665 1246.1512,832.665 Q1245.7293,831.665 1244.7762,831.665 Z M1240.4324,835.8994 Q1240.4324,832.7275 1241.5262,831.1025 Q1242.6355,829.4619 1244.7762,829.4619 Q1246.9324,829.4619 1248.0262,831.1025 Q1249.1355,832.7275 1249.1355,835.8994 Q1249.1355,839.0713 1248.0262,840.6963 Q1246.9324,842.3213 1244.7762,842.3213 Q1242.6355,842.3213 1241.5262,840.6963 Q1240.4324,839.0713 1240.4324,835.8994 Z " fill="#000000"/><text fill="#000000" font-family="sans-serif" font-size="14" lengthAdjust="spacing" textLength="17.8145" x="1265.1668" y="840.9336">12</text><line style="stroke:#181818;stroke-width:0.5;" x1="1179.97" x2="1335.678" y1="852.0869" y2="852.0869"/><text fill="#000000" font-family="sans-serif" font-size="14" lengthAdjust="spacing" textLength="85.9688" x="1184.97" y="869.082">source=City</text><text fill="#000000" font-family="sans-serif" font-size="14" lengthAdjust="spacing" textLength="145.708" x="1184.97" y="885.3789">target=CountyName</text></g><!--link SINGLE_END to 8--><g id="link_SINGLE_END_8"><path codeLine="66" d="M764.83,76.4069 C764.83,95.1769 764.83,121.8069 764.83,147.0569 " fill="none" id="SINGLE_END-to-8" style="stroke:#181818;stroke-width:1;"/><polygon fill="#181818" points="764.83,153.0569,768.83,144.0569,764.83,148.0569,760.83,144.0569,764.83,153.0569" style="stroke:#181818;stroke-width:1;"/><text fill="#000000" font-family="sans-serif" font-size="13" lengthAdjust="spacing" textLength="29.0278" x="765.83" y="119.3638">next</text></g><!--link 8 to 1--><g id="link_8_1"><path codeLine="67" d="M764.83,226.3269 C764.83,249.4469 764.83,273.4369 764.83,296.5369 " fill="none" id="8-to-1" style="stroke:#181818;stroke-width:1;"/><polygon fill="#181818" points="764.83,302.5369,768.83,293.5369,764.83,297.5369,760.83,293.5369,764.83,302.5369" style="stroke:#181818;stroke-width:1;"/><text fill="#000000" font-family="sans-serif" font-size="13" lengthAdjust="spacing" textLength="29.0278" x="765.83" y="268.9638">next</text></g><!--link 1 to level_1_end--><g id="link_1_level_1_end"><path codeLine="68" d="M764.83,375.6469 C764.83,400.8069 764.83,427.3369 764.83,446.1569 " fill="none" id="1-to-level_1_end" style="stroke:#181818;stroke-width:1;"/><polygon fill="#181818" points="764.83,452.1569,768.83,443.1569,764.83,447.1569,760.83,443.1569,764.83,452.1569" style="stroke:#181818;stroke-width:1;"/><text fill="#000000" font-family="sans-serif" font-size="13" lengthAdjust="spacing" textLength="29.0278" x="765.83" y="418.5538">next</text></g><!--link level_1_end to 6--><g id="link_level_1_end_6"><path codeLine="69" d="M707.16,475.1269 C603.02,486.0969 377.16,513.5669 191.83,561.4869 C186.34,562.9069 186.4767,562.7619 180.8467,564.4519 " fill="none" id="level_1_end-to-6" style="stroke:#181818;stroke-width:1;"/><polygon fill="#181818" points="175.1,566.1769,184.87,567.4205,179.8889,564.7394,182.57,559.7582,175.1,566.1769" style="stroke:#181818;stroke-width:1;"/><text fill="#000000" font-family="sans-serif" font-size="13" lengthAdjust="spacing" textLength="29.0278" x="411.83" y="527.5538">next</text></g><!--link 6 to level_2_end--><g id="link_6_level_2_end"><path codeLine="70" d="M175.09,629.4369 C180.72,631.1069 186.34,632.6769 191.83,634.0869 C389.78,684.6569 625.7056,710.5628 734.2856,720.6328 " fill="none" id="6-to-level_2_end" style="stroke:#181818;stroke-width:1;"/><polygon fill="#181818" points="740.26,721.1869,731.6678,716.3728,735.2814,720.7251,730.9291,724.3387,740.26,721.1869" style="stroke:#181818;stroke-width:1;"/><text fill="#000000" font-family="sans-serif" font-size="13" lengthAdjust="spacing" textLength="29.0278" x="423.83" y="677.1538">next</text></g><!--link level_1_end to 7--><g id="link_level_1_end_7"><path codeLine="71" d="M707.32,481.8969 C633.83,498.1569 502.93,528.5269 392.83,561.4869 C387.45,563.0969 387.6394,562.9821 382.0994,564.7721 " fill="none" id="level_1_end-to-7" style="stroke:#181818;stroke-width:1;"/><polygon fill="#181818" points="376.39,566.6169,386.1839,567.656,381.1478,565.0796,383.7242,560.0435,376.39,566.6169" style="stroke:#181818;stroke-width:1;"/><text fill="#000000" font-family="sans-serif" font-size="13" lengthAdjust="spacing" textLength="29.0278" x="566.83" y="527.5538">next</text></g><!--link 7 to level_2_end--><g id="link_7_level_2_end"><path codeLine="72" d="M376.35,629.0669 C381.9,630.8369 387.43,632.5269 392.83,634.0869 C515.09,669.4169 655.3914,698.606 734.3914,714.046 " fill="none" id="7-to-level_2_end" style="stroke:#181818;stroke-width:1;"/><polygon fill="#181818" points="740.28,715.1969,732.2144,709.5448,735.3728,714.2378,730.6799,717.3963,740.28,715.1969" style="stroke:#181818;stroke-width:1;"/><text fill="#000000" font-family="sans-serif" font-size="13" lengthAdjust="spacing" textLength="29.0278" x="570.83" y="677.1538">next</text></g><!--link level_1_end to 9--><g id="link_level_1_end_9"><path codeLine="73" d="M731.87,484.9669 C691.88,503.7569 628.6205,533.4655 575.2805,558.5255 " fill="none" id="level_1_end-to-9" style="stroke:#181818;stroke-width:1;"/><polygon fill="#181818" points="569.85,561.0769,579.6967,560.8702,574.3754,558.9508,576.2949,553.6295,569.85,561.0769" style="stroke:#181818;stroke-width:1;"/><text fill="#000000" font-family="sans-serif" font-size="13" lengthAdjust="spacing" textLength="29.0278" x="662.83" y="527.5538">next</text></g><!--link 9 to level_2_end--><g id="link_9_level_2_end"><path codeLine="74" d="M577.3,633.7369 C637.41,658.9069 710.0755,689.3397 755.3855,708.3097 " fill="none" id="9-to-level_2_end" style="stroke:#181818;stroke-width:1;"/><polygon fill="#181818" points="760.92,710.6269,754.163,703.4615,756.3079,708.6959,751.0735,710.8408,760.92,710.6269" style="stroke:#181818;stroke-width:1;"/><text fill="#000000" font-family="sans-serif" font-size="13" lengthAdjust="spacing" textLength="29.0278" x="683.83" y="677.1538">next</text></g><!--link level_1_end to 4--><g id="link_level_1_end_4"><path codeLine="75" d="M756.76,484.5969 C746.73,503.3569 732.1273,530.7048 718.6373,555.9548 " fill="none" id="level_1_end-to-4" style="stroke:#181818;stroke-width:1;"/><polygon fill="#181818" points="715.81,561.2469,723.5791,555.1936,718.1661,556.8368,716.5229,551.4239,715.81,561.2469" style="stroke:#181818;stroke-width:1;"/><text fill="#000000" font-family="sans-serif" font-size="13" lengthAdjust="spacing" textLength="29.0278" x="740.83" y="527.5538">next</text></g><!--link 4 to level_2_end--><g id="link_4_level_2_end"><path codeLine="76" d="M724.96,634.2469 C744.92,659.4069 767.0023,687.2254 781.9323,706.0554 " fill="none" id="4-to-level_2_end" style="stroke:#181818;stroke-width:1;"/><polygon fill="#181818" points="785.66,710.7569,783.2027,701.2195,782.5536,706.839,776.9341,706.1898,785.66,710.7569" style="stroke:#181818;stroke-width:1;"/><text fill="#000000" font-family="sans-serif" font-size="13" lengthAdjust="spacing" textLength="29.0278" x="760.83" y="677.1538">next</text></g><!--link level_1_end to 5--><g id="link_level_1_end_5"><path codeLine="77" d="M781.23,484.8469 C801.3,503.6269 831.5193,531.9169 858.3593,557.0369 " fill="none" id="level_1_end-to-5" style="stroke:#181818;stroke-width:1;"/><polygon fill="#181818" points="862.74,561.1369,858.9023,552.0665,859.0894,557.7202,853.4357,557.9074,862.74,561.1369" style="stroke:#181818;stroke-width:1;"/><text fill="#000000" font-family="sans-serif" font-size="13" lengthAdjust="spacing" textLength="29.0278" x="829.83" y="527.5538">next</text></g><!--link 5 to level_2_end--><g id="link_5_level_2_end"><path codeLine="78" d="M872.14,634.2469 C851.78,659.4069 829.2332,687.2618 814.0032,706.0918 " fill="none" id="5-to-level_2_end" style="stroke:#181818;stroke-width:1;"/><polygon fill="#181818" points="810.23,710.7569,818.9998,706.2747,813.3743,706.8693,812.7797,701.2438,810.23,710.7569" style="stroke:#181818;stroke-width:1;"/><text fill="#000000" font-family="sans-serif" font-size="13" lengthAdjust="spacing" textLength="29.0278" x="847.83" y="677.1538">next</text></g><!--link level_1_end to 10--><g id="link_level_1_end_10"><path codeLine="79" d="M806.18,484.9669 C859,504.7469 946.1209,537.363 1014.2809,562.883 " fill="none" id="level_1_end-to-10" style="stroke:#181818;stroke-width:1;"/><polygon fill="#181818" points="1019.9,564.9869,1012.874,558.0851,1015.2175,563.2337,1010.0688,565.5771,1019.9,564.9869" style="stroke:#181818;stroke-width:1;"/><text fill="#000000" font-family="sans-serif" font-size="13" lengthAdjust="spacing" textLength="29.0278" x="925.83" y="527.5538">next</text></g><!--link 10 to level_2_end--><g id="link_10_level_2_end"><path codeLine="80" d="M1020.13,633.9069 C959.43,659.0769 886.1724,689.4488 840.5424,708.3688 " fill="none" id="10-to-level_2_end" style="stroke:#181818;stroke-width:1;"/><polygon fill="#181818" points="835,710.6669,844.8457,710.9147,839.6187,708.7518,841.7816,703.5247,835,710.6669" style="stroke:#181818;stroke-width:1;"/><text fill="#000000" font-family="sans-serif" font-size="13" lengthAdjust="spacing" textLength="29.0278" x="943.83" y="677.1538">next</text></g><!--link level_1_end to 11--><g id="link_level_1_end_11"><path codeLine="81" d="M822.6,479.0769 C907.56,493.7269 1070.82,523.9669 1206.83,561.4869 C1212.34,563.0069 1212.244,562.9066 1217.914,564.6466 " fill="none" id="level_1_end-to-11" style="stroke:#181818;stroke-width:1;"/><polygon fill="#181818" points="1223.65,566.4069,1216.2195,559.9425,1218.87,564.94,1213.8725,567.5905,1223.65,566.4069" style="stroke:#181818;stroke-width:1;"/><text fill="#000000" font-family="sans-serif" font-size="13" lengthAdjust="spacing" textLength="29.0278" x="1087.83" y="527.5538">next</text></g><!--link 11 to level_2_end--><g id="link_11_level_2_end"><path codeLine="82" d="M1223.9,628.9669 C1218.14,630.7669 1212.41,632.4969 1206.83,634.0869 C1083.1,669.2869 941.1399,698.5926 861.4599,714.0726 " fill="none" id="11-to-level_2_end" style="stroke:#181818;stroke-width:1;"/><polygon fill="#181818" points="855.57,715.2169,865.1677,717.4271,860.4782,714.2633,863.642,709.5739,855.57,715.2169" style="stroke:#181818;stroke-width:1;"/><text fill="#000000" font-family="sans-serif" font-size="13" lengthAdjust="spacing" textLength="29.0278" x="1085.83" y="677.1538">next</text></g><!--link level_1_end to 14--><g id="link_level_1_end_14"><path codeLine="83" d="M822.22,473.5269 C935.98,482.4269 1197.52,507.4069 1410.83,561.4869 C1416.46,562.9169 1416.4665,562.8147 1422.2465,564.5247 " fill="none" id="level_1_end-to-14" style="stroke:#181818;stroke-width:1;"/><polygon fill="#181818" points="1428,566.2269,1420.5045,559.838,1423.2054,564.8084,1418.235,567.5093,1428,566.2269" style="stroke:#181818;stroke-width:1;"/><text fill="#000000" font-family="sans-serif" font-size="13" lengthAdjust="spacing" textLength="29.0278" x="1272.83" y="527.5538">next</text></g><!--link 14 to level_2_end--><g id="link_14_level_2_end"><path codeLine="84" d="M1428,629.3569 C1422.22,631.0569 1416.46,632.6569 1410.83,634.0869 C1209.99,684.8769 970.5552,710.7617 861.1652,720.7417 " fill="none" id="14-to-level_2_end" style="stroke:#181818;stroke-width:1;"/><polygon fill="#181818" points="855.19,721.2869,864.5162,724.4526,860.1693,720.8326,863.7894,716.4857,855.19,721.2869" style="stroke:#181818;stroke-width:1;"/><text fill="#000000" font-family="sans-serif" font-size="13" lengthAdjust="spacing" textLength="29.0278" x="1262.83" y="677.1538">next</text></g><!--link level_2_end to 2--><g id="link_level_2_end_2"><path codeLine="85" d="M747.72,743.5669 C686.92,762.3469 588.2328,792.8462 507.1328,817.8962 " fill="none" id="level_2_end-to-2" style="stroke:#181818;stroke-width:1;"/><polygon fill="#181818" points="501.4,819.6669,511.1796,820.8326,506.1773,818.1913,508.8187,813.189,501.4,819.6669" style="stroke:#181818;stroke-width:1;"/><text fill="#000000" font-family="sans-serif" font-size="13" lengthAdjust="spacing" textLength="29.0278" x="642.83" y="786.1538">next</text></g><!--link 2 to level_3_end--><g id="link_2_level_3_end"><path codeLine="86" d="M483.79,893.0069 C552.75,918.0869 636.0114,948.3761 687.7014,967.1761 " fill="none" id="2-to-level_3_end" style="stroke:#181818;stroke-width:1;"/><polygon fill="#181818" points="693.34,969.2269,686.2493,962.3916,688.6411,967.5179,683.5148,969.9098,693.34,969.2269" style="stroke:#181818;stroke-width:1;"/><text fill="#000000" font-family="sans-serif" font-size="13" lengthAdjust="spacing" textLength="29.0278" x="603.83" y="935.7438">next</text></g><!--link level_2_end to 13--><g id="link_level_2_end_13"><path codeLine="87" d="M778.65,743.4369 C755.19,762.2169 719.424,790.8572 688.044,815.9772 " fill="none" id="level_2_end-to-13" style="stroke:#181818;stroke-width:1;"/><polygon fill="#181818" points="683.36,819.7269,692.8858,817.2251,687.2634,816.6022,687.8863,810.9797,683.36,819.7269" style="stroke:#181818;stroke-width:1;"/><text fill="#000000" font-family="sans-serif" font-size="13" lengthAdjust="spacing" textLength="29.0278" x="738.83" y="786.1538">next</text></g><!--link 13 to level_3_end--><g id="link_13_level_3_end"><path codeLine="88" d="M665.85,892.8369 C685.02,917.9969 706.162,945.7556 720.512,964.5756 " fill="none" id="13-to-level_3_end" style="stroke:#181818;stroke-width:1;"/><polygon fill="#181818" points="724.15,969.3469,721.8738,959.7647,721.1183,965.3708,715.5121,964.6153,724.15,969.3469" style="stroke:#181818;stroke-width:1;"/><text fill="#000000" font-family="sans-serif" font-size="13" lengthAdjust="spacing" textLength="29.0278" x="700.83" y="935.7438">next</text></g><!--link level_2_end to 3--><g id="link_level_2_end_3"><path codeLine="89" d="M817.13,743.4369 C840.73,762.2169 876.7444,790.8718 908.3244,815.9918 " fill="none" id="level_2_end-to-3" style="stroke:#181818;stroke-width:1;"/><polygon fill="#181818" points="913.02,819.7269,908.4666,810.9938,909.107,816.6143,903.4865,817.2547,913.02,819.7269" style="stroke:#181818;stroke-width:1;"/><text fill="#000000" font-family="sans-serif" font-size="13" lengthAdjust="spacing" textLength="29.0278" x="874.83" y="786.1538">next</text></g><!--link 3 to level_3_end--><g id="link_3_level_3_end"><path codeLine="90" d="M895.69,893.0069 C851.95,918.0869 800.7648,947.4418 767.9848,966.2418 " fill="none" id="3-to-level_3_end" style="stroke:#181818;stroke-width:1;"/><polygon fill="#181818" points="762.78,969.2269,772.5772,968.2192,767.1173,966.7393,768.5971,961.2795,762.78,969.2269" style="stroke:#181818;stroke-width:1;"/><text fill="#000000" font-family="sans-serif" font-size="13" lengthAdjust="spacing" textLength="29.0278" x="841.83" y="935.7438">next</text></g><!--link level_2_end to 12--><g id="link_level_2_end_12"><path codeLine="91" d="M855.54,740.8169 C927.57,757.1369 1054.26,787.2869 1160.83,820.0869 C1166.65,821.8769 1166.9508,821.911 1172.9508,823.921 " fill="none" id="level_2_end-to-12" style="stroke:#181818;stroke-width:1;"/><polygon fill="#181818" points="1178.64,825.8269,1171.3767,819.1752,1173.899,824.2386,1168.8355,826.7609,1178.64,825.8269" style="stroke:#181818;stroke-width:1;"/><text fill="#000000" font-family="sans-serif" font-size="13" lengthAdjust="spacing" textLength="29.0278" x="1053.83" y="786.1538">next</text></g><!--link 12 to level_3_end--><g id="link_12_level_3_end"><path codeLine="92" d="M1178.71,887.1569 C1172.69,889.1269 1166.68,890.9869 1160.83,892.6769 C1031.36,930.0569 881.7162,958.9799 799.4062,973.7099 " fill="none" id="12-to-level_3_end" style="stroke:#181818;stroke-width:1;"/><polygon fill="#181818" points="793.5,974.7669,803.0639,977.1189,798.4218,973.8861,801.6546,969.244,793.5,974.7669" style="stroke:#181818;stroke-width:1;"/><text fill="#000000" font-family="sans-serif" font-size="13" lengthAdjust="spacing" textLength="29.0278" x="1046.83" y="935.7438">next</text></g><!--SRC=[bPHDYzD07CRlyod6ankmq4dVfLlOrgB2sehrvAMCcV-smoOpOJBfjeWWw4N43w1dmTk2DqNqqrYgty9fsZGlRLsJI-5vvlVq_vB9BGONN01-0euU-g2ebkfaRc77fK60vxZTnYV3ErWgPygPXJiTX89BBdogg8ULWQYOk81V86oUBdKk9qg6WlMaArMxFUnqy3cVJ7NN3M5pH2e6Ah9nrpNd8_LCANcL5byYfBasmJr9LG2bYQAcIePxBb012lVdu8IQIu67wxnr-TBpG32w5X6wlVhy_S-7Jx- -lLk-VR_w-6RvzVNoowlVrpzNFwwHwGGmUBvUO0Q1exWVGIdP0psLB4XB5nnSew3Ce4OF1_VF- -F-u9wLSroOWJicOrFIOSi-RbKEMSH21D_5WGoL0wSFPE1pJTq1zI3IDLKJqAUFbPoPcjKWz9w3oYOqBTHC4d8dcqb69ZkJKBTGFKbu13G85VGaWqZUubjvdsvOg76ORYJqI5CDT3R9eYqBjGwZhGJjIS5ujCaCMxLGzSZWgWdyZFjHNWQjMQXs1AsbPZwL0WuDd9JDpih7bbPE4iuOKn0498UlLtvqvsH_OSChiLU2wPuSQv-a-kznlSYYjeNi1DmDDxrUUx-6fmi_DqHICILKagHuqf6sfViUc5_XB4QWPjp99PY059yQTwRnJ6kLt1kLAydqHjBDhPidTlfL2eLUH4d95SSb9gz4gOFNTqN0N9jB4qiabiXEIdq1OZCjnSVgiLdFaVPDP2Cs6qN9LcosYfBLsAmM9MknMIjAHZTbCznoOJPP32dCxfeb_z6jdM7jsBHpPEKcCheMct-j56LtQ66Ix0ec_whuBm00]--></g></svg>