<svg xmlns="http://www.w3.org/2000/svg" xmlns:xlink="http://www.w3.org/1999/xlink" contentStyleType="text/css" height="704px" preserveAspectRatio="none" style="width:859px;height:704px;background:#FFFFFF;" version="1.1" viewBox="0 0 859 704" width="859px" zoomAndPan="magnify"><title>Coarse-grained Cleaner Execution Order Recommendation</title><defs/><g><text fill="#000000" font-family="sans-serif" font-size="14" font-weight="bold" lengthAdjust="spacing" textLength="460.4482" x="192.3965" y="22.9951">Coarse-grained Cleaner Execution Order Recommendation</text><!--class SINGLE_END--><g id="elem_SINGLE_END"><rect codeLine="16" fill="#F1F1F1" height="32" id="SINGLE_END" rx="2.5" ry="2.5" style="stroke:#181818;stroke-width:0.5;" width="120.0811" x="291.91" y="201.8969"/><ellipse cx="306.91" cy="217.8969" fill="#DA70D6" rx="11" ry="11" style="stroke:#181818;stroke-width:1;"/><path d="M307.0194,213.475 Q306.0819,213.475 305.6444,214.475 Q305.2225,215.475 305.2225,217.7094 Q305.2225,219.9438 305.6444,220.9438 Q306.0819,221.9438 307.0194,221.9438 Q307.9725,221.9438 308.3944,220.9438 Q308.8319,219.9438 308.8319,217.7094 Q308.8319,215.475 308.3944,214.475 Q307.9725,213.475 307.0194,213.475 Z M302.6756,217.7094 Q302.6756,214.5375 303.7694,212.9125 Q304.8788,211.2719 307.0194,211.2719 Q309.1756,211.2719 310.2694,212.9125 Q311.3788,214.5375 311.3788,217.7094 Q311.3788,220.8813 310.2694,222.5063 Q309.1756,224.1313 307.0194,224.1313 Q304.8788,224.1313 303.7694,222.5063 Q302.6756,220.8813 302.6756,217.7094 Z " fill="#000000"/><text fill="#000000" font-family="sans-serif" font-size="14" lengthAdjust="spacing" textLength="88.0811" x="320.91" y="222.7436">SINGLE_END</text></g><!--class level_1_end--><g id="elem_level_1_end"><rect codeLine="18" fill="#F1F1F1" height="32" id="level_1_end" rx="2.5" ry="2.5" style="stroke:#181818;stroke-width:0.5;" width="114.5713" x="737.67" y="68.5969"/><ellipse cx="752.67" cy="84.5969" fill="#DA70D6" rx="11" ry="11" style="stroke:#181818;stroke-width:1;"/><path d="M752.7794,80.175 Q751.8419,80.175 751.4044,81.175 Q750.9825,82.175 750.9825,84.4094 Q750.9825,86.6437 751.4044,87.6437 Q751.8419,88.6437 752.7794,88.6437 Q753.7325,88.6437 754.1544,87.6437 Q754.5919,86.6437 754.5919,84.4094 Q754.5919,82.175 754.1544,81.175 Q753.7325,80.175 752.7794,80.175 Z M748.4356,84.4094 Q748.4356,81.2375 749.5294,79.6125 Q750.6388,77.9719 752.7794,77.9719 Q754.9356,77.9719 756.0294,79.6125 Q757.1388,81.2375 757.1388,84.4094 Q757.1388,87.5812 756.0294,89.2062 Q754.9356,90.8312 752.7794,90.8312 Q750.6388,90.8312 749.5294,89.2062 Q748.4356,87.5812 748.4356,84.4094 Z " fill="#000000"/><text fill="#000000" font-family="sans-serif" font-size="14" lengthAdjust="spacing" textLength="82.5713" x="766.67" y="89.4436">level_1_end</text></g><!--class 6--><g id="elem_6"><rect codeLine="20" fill="#F1F1F1" height="72.5938" id="6" rx="2.5" ry="2.5" style="stroke:#181818;stroke-width:0.5;" width="91.9053" x="7" y="413.4869"/><ellipse cx="44.9491" cy="429.4869" fill="#DA70D6" rx="11" ry="11" style="stroke:#181818;stroke-width:1;"/><path d="M45.0585,425.065 Q44.121,425.065 43.6835,426.065 Q43.2616,427.065 43.2616,429.2994 Q43.2616,431.5338 43.6835,432.5338 Q44.121,433.5338 45.0585,433.5338 Q46.0116,433.5338 46.4335,432.5338 Q46.871,431.5338 46.871,429.2994 Q46.871,427.065 46.4335,426.065 Q46.0116,425.065 45.0585,425.065 Z M40.7147,429.2994 Q40.7147,426.1275 41.8085,424.5025 Q42.9179,422.8619 45.0585,422.8619 Q47.2147,422.8619 48.3085,424.5025 Q49.4179,426.1275 49.4179,429.2994 Q49.4179,432.4713 48.3085,434.0963 Q47.2147,435.7213 45.0585,435.7213 Q42.9179,435.7213 41.8085,434.0963 Q40.7147,432.4713 40.7147,429.2994 Z " fill="#000000"/><text fill="#000000" font-family="sans-serif" font-size="14" lengthAdjust="spacing" textLength="8.9072" x="64.0489" y="434.3336">6</text><line style="stroke:#181818;stroke-width:0.5;" x1="8" x2="97.9053" y1="445.4869" y2="445.4869"/><text fill="#000000" font-family="sans-serif" font-size="14" lengthAdjust="spacing" textLength="78.6543" x="13" y="462.482">source=zip</text><text fill="#000000" font-family="sans-serif" font-size="14" lengthAdjust="spacing" textLength="79.9053" x="13" y="478.7789">target=city</text></g><!--class 8--><g id="elem_8"><rect codeLine="23" fill="#F1F1F1" height="72.5938" id="8" rx="2.5" ry="2.5" style="stroke:#181818;stroke-width:0.5;" width="148.6367" x="121.63" y="413.4869"/><ellipse cx="187.2447" cy="429.4869" fill="#DA70D6" rx="11" ry="11" style="stroke:#181818;stroke-width:1;"/><path d="M187.3541,425.065 Q186.4166,425.065 185.9791,426.065 Q185.5572,427.065 185.5572,429.2994 Q185.5572,431.5338 185.9791,432.5338 Q186.4166,433.5338 187.3541,433.5338 Q188.3072,433.5338 188.7291,432.5338 Q189.1666,431.5338 189.1666,429.2994 Q189.1666,427.065 188.7291,426.065 Q188.3072,425.065 187.3541,425.065 Z M183.0104,429.2994 Q183.0104,426.1275 184.1041,424.5025 Q185.2135,422.8619 187.3541,422.8619 Q189.5104,422.8619 190.6041,424.5025 Q191.7135,426.1275 191.7135,429.2994 Q191.7135,432.4713 190.6041,434.0963 Q189.5104,435.7213 187.3541,435.7213 Q185.2135,435.7213 184.1041,434.0963 Q183.0104,432.4713 183.0104,429.2994 Z " fill="#000000"/><text fill="#000000" font-family="sans-serif" font-size="14" lengthAdjust="spacing" textLength="8.9072" x="207.7447" y="434.3336">8</text><line style="stroke:#181818;stroke-width:0.5;" x1="122.63" x2="269.2667" y1="445.4869" y2="445.4869"/><text fill="#000000" font-family="sans-serif" font-size="14" lengthAdjust="spacing" textLength="136.6367" x="127.63" y="462.482">source=haschildzip</text><text fill="#000000" font-family="sans-serif" font-size="14" lengthAdjust="spacing" textLength="135.8164" x="127.63" y="478.7789">target=childexemp</text></g><!--class 9--><g id="elem_9"><rect codeLine="26" fill="#F1F1F1" height="72.5938" id="9" rx="2.5" ry="2.5" style="stroke:#181818;stroke-width:0.5;" width="183.4932" x="206.21" y="516.0869"/><ellipse cx="289.253" cy="532.0869" fill="#DA70D6" rx="11" ry="11" style="stroke:#181818;stroke-width:1;"/><path d="M289.3623,527.665 Q288.4248,527.665 287.9873,528.665 Q287.5655,529.665 287.5655,531.8994 Q287.5655,534.1338 287.9873,535.1338 Q288.4248,536.1338 289.3623,536.1338 Q290.3155,536.1338 290.7373,535.1338 Q291.1748,534.1338 291.1748,531.8994 Q291.1748,529.665 290.7373,528.665 Q290.3155,527.665 289.3623,527.665 Z M285.0186,531.8994 Q285.0186,528.7275 286.1123,527.1025 Q287.2217,525.4619 289.3623,525.4619 Q291.5186,525.4619 292.6123,527.1025 Q293.7217,528.7275 293.7217,531.8994 Q293.7217,535.0713 292.6123,536.6963 Q291.5186,538.3213 289.3623,538.3213 Q287.2217,538.3213 286.1123,536.6963 Q285.0186,535.0713 285.0186,531.8994 Z " fill="#000000"/><text fill="#000000" font-family="sans-serif" font-size="14" lengthAdjust="spacing" textLength="8.9072" x="309.753" y="536.9336">9</text><line style="stroke:#181818;stroke-width:0.5;" x1="207.21" x2="388.7032" y1="548.0869" y2="548.0869"/><text fill="#000000" font-family="sans-serif" font-size="14" lengthAdjust="spacing" textLength="171.4932" x="212.21" y="565.082">source=maritalstatuszip</text><text fill="#000000" font-family="sans-serif" font-size="14" lengthAdjust="spacing" textLength="144.0264" x="212.21" y="581.3789">target=singleexemp</text></g><!--class 10--><g id="elem_10"><rect codeLine="29" fill="#F1F1F1" height="72.5938" id="10" rx="2.5" ry="2.5" style="stroke:#181818;stroke-width:0.5;" width="183.4932" x="329.21" y="413.4869"/><ellipse cx="407.7994" cy="429.4869" fill="#DA70D6" rx="11" ry="11" style="stroke:#181818;stroke-width:1;"/><path d="M407.9087,425.065 Q406.9712,425.065 406.5337,426.065 Q406.1119,427.065 406.1119,429.2994 Q406.1119,431.5338 406.5337,432.5338 Q406.9712,433.5338 407.9087,433.5338 Q408.8619,433.5338 409.2837,432.5338 Q409.7212,431.5338 409.7212,429.2994 Q409.7212,427.065 409.2837,426.065 Q408.8619,425.065 407.9087,425.065 Z M403.565,429.2994 Q403.565,426.1275 404.6587,424.5025 Q405.7681,422.8619 407.9087,422.8619 Q410.065,422.8619 411.1587,424.5025 Q412.2681,426.1275 412.2681,429.2994 Q412.2681,432.4713 411.1587,434.0963 Q410.065,435.7213 407.9087,435.7213 Q405.7681,435.7213 404.6587,434.0963 Q403.565,432.4713 403.565,429.2994 Z " fill="#000000"/><text fill="#000000" font-family="sans-serif" font-size="14" lengthAdjust="spacing" textLength="17.8145" x="428.2994" y="434.3336">10</text><line style="stroke:#181818;stroke-width:0.5;" x1="330.21" x2="511.7032" y1="445.4869" y2="445.4869"/><text fill="#000000" font-family="sans-serif" font-size="14" lengthAdjust="spacing" textLength="171.4932" x="335.21" y="462.482">source=maritalstatuszip</text><text fill="#000000" font-family="sans-serif" font-size="14" lengthAdjust="spacing" textLength="157.6982" x="335.21" y="478.7789">target=marriedexemp</text></g><!--class 4--><g id="elem_4"><rect codeLine="32" fill="#F1F1F1" height="72.5938" id="4" rx="2.5" ry="2.5" style="stroke:#181818;stroke-width:0.5;" width="102.0088" x="525.95" y="516.0869"/><ellipse cx="568.4457" cy="532.0869" fill="#DA70D6" rx="11" ry="11" style="stroke:#181818;stroke-width:1;"/><path d="M568.5551,527.665 Q567.6176,527.665 567.1801,528.665 Q566.7582,529.665 566.7582,531.8994 Q566.7582,534.1338 567.1801,535.1338 Q567.6176,536.1338 568.5551,536.1338 Q569.5082,536.1338 569.9301,535.1338 Q570.3676,534.1338 570.3676,531.8994 Q570.3676,529.665 569.9301,528.665 Q569.5082,527.665 568.5551,527.665 Z M564.2113,531.8994 Q564.2113,528.7275 565.3051,527.1025 Q566.4145,525.4619 568.5551,525.4619 Q570.7113,525.4619 571.8051,527.1025 Q572.9145,528.7275 572.9145,531.8994 Q572.9145,535.0713 571.8051,536.6963 Q570.7113,538.3213 568.5551,538.3213 Q566.4145,538.3213 565.3051,536.6963 Q564.2113,535.0713 564.2113,531.8994 Z " fill="#000000"/><text fill="#000000" font-family="sans-serif" font-size="14" lengthAdjust="spacing" textLength="8.9072" x="588.5559" y="536.9336">4</text><line style="stroke:#181818;stroke-width:0.5;" x1="526.95" x2="626.9588" y1="548.0869" y2="548.0869"/><text fill="#000000" font-family="sans-serif" font-size="14" lengthAdjust="spacing" textLength="78.6543" x="531.95" y="565.082">source=zip</text><text fill="#000000" font-family="sans-serif" font-size="14" lengthAdjust="spacing" textLength="90.0088" x="531.95" y="581.3789">target=state</text></g><!--class 5--><g id="elem_5"><rect codeLine="35" fill="#F1F1F1" height="72.5938" id="5" rx="2.5" ry="2.5" style="stroke:#181818;stroke-width:0.5;" width="135.8193" x="459.04" y="310.8969"/><ellipse cx="518.2461" cy="326.8969" fill="#DA70D6" rx="11" ry="11" style="stroke:#181818;stroke-width:1;"/><path d="M518.3554,322.475 Q517.4179,322.475 516.9804,323.475 Q516.5586,324.475 516.5586,326.7094 Q516.5586,328.9438 516.9804,329.9438 Q517.4179,330.9438 518.3554,330.9438 Q519.3086,330.9438 519.7304,329.9438 Q520.1679,328.9438 520.1679,326.7094 Q520.1679,324.475 519.7304,323.475 Q519.3086,322.475 518.3554,322.475 Z M514.0117,326.7094 Q514.0117,323.5375 515.1054,321.9125 Q516.2148,320.2719 518.3554,320.2719 Q520.5117,320.2719 521.6054,321.9125 Q522.7148,323.5375 522.7148,326.7094 Q522.7148,329.8813 521.6054,331.5063 Q520.5117,333.1313 518.3554,333.1313 Q516.2148,333.1313 515.1054,331.5063 Q514.0117,329.8813 514.0117,326.7094 Z " fill="#000000"/><text fill="#000000" font-family="sans-serif" font-size="14" lengthAdjust="spacing" textLength="8.9072" x="538.7461" y="331.7436">5</text><line style="stroke:#181818;stroke-width:0.5;" x1="460.04" x2="593.8593" y1="342.8969" y2="342.8969"/><text fill="#000000" font-family="sans-serif" font-size="14" lengthAdjust="spacing" textLength="123.8193" x="465.04" y="359.892">source=areacode</text><text fill="#000000" font-family="sans-serif" font-size="14" lengthAdjust="spacing" textLength="90.0088" x="465.04" y="376.1889">target=state</text></g><!--class 7--><g id="elem_7"><rect codeLine="38" fill="#F1F1F1" height="72.5938" id="7" rx="2.5" ry="2.5" style="stroke:#181818;stroke-width:0.5;" width="116.1729" x="637.87" y="310.8969"/><ellipse cx="687.2528" cy="326.8969" fill="#DA70D6" rx="11" ry="11" style="stroke:#181818;stroke-width:1;"/><path d="M687.3622,322.475 Q686.4247,322.475 685.9872,323.475 Q685.5653,324.475 685.5653,326.7094 Q685.5653,328.9438 685.9872,329.9438 Q686.4247,330.9438 687.3622,330.9438 Q688.3153,330.9438 688.7372,329.9438 Q689.1747,328.9438 689.1747,326.7094 Q689.1747,324.475 688.7372,323.475 Q688.3153,322.475 687.3622,322.475 Z M683.0184,326.7094 Q683.0184,323.5375 684.1122,321.9125 Q685.2216,320.2719 687.3622,320.2719 Q689.5184,320.2719 690.6122,321.9125 Q691.7216,323.5375 691.7216,326.7094 Q691.7216,329.8813 690.6122,331.5063 Q689.5184,333.1313 687.3622,333.1313 Q685.2216,333.1313 684.1122,331.5063 Q683.0184,329.8813 683.0184,326.7094 Z " fill="#000000"/><text fill="#000000" font-family="sans-serif" font-size="14" lengthAdjust="spacing" textLength="8.9072" x="707.7528" y="331.7436">7</text><line style="stroke:#181818;stroke-width:0.5;" x1="638.87" x2="753.0429" y1="342.8969" y2="342.8969"/><text fill="#000000" font-family="sans-serif" font-size="14" lengthAdjust="spacing" textLength="103.1611" x="643.87" y="359.892">source=fname</text><text fill="#000000" font-family="sans-serif" font-size="14" lengthAdjust="spacing" textLength="104.1729" x="643.87" y="376.1889">target=gender</text></g><!--class 11--><g id="elem_11"><rect codeLine="41" fill="#F1F1F1" height="80.5938" id="11" rx="2.5" ry="2.5" style="stroke:#181818;stroke-width:0.5;" width="56.6318" x="39.64" y="44.2969"/><ellipse cx="57.7078" cy="60.2969" fill="#DA70D6" rx="11" ry="11" style="stroke:#181818;stroke-width:1;"/><path d="M57.8172,55.875 Q56.8797,55.875 56.4422,56.875 Q56.0203,57.875 56.0203,60.1094 Q56.0203,62.3438 56.4422,63.3438 Q56.8797,64.3438 57.8172,64.3438 Q58.7703,64.3438 59.1922,63.3438 Q59.6297,62.3438 59.6297,60.1094 Q59.6297,57.875 59.1922,56.875 Q58.7703,55.875 57.8172,55.875 Z M53.4734,60.1094 Q53.4734,56.9375 54.5672,55.3125 Q55.6766,53.6719 57.8172,53.6719 Q59.9734,53.6719 61.0672,55.3125 Q62.1766,56.9375 62.1766,60.1094 Q62.1766,63.2813 61.0672,64.9063 Q59.9734,66.5313 57.8172,66.5313 Q55.6766,66.5313 54.5672,64.9063 Q53.4734,63.2813 53.4734,60.1094 Z " fill="#000000"/><text fill="#000000" font-family="sans-serif" font-size="14" lengthAdjust="spacing" textLength="17.8145" x="72.3896" y="65.1436">11</text><line style="stroke:#181818;stroke-width:0.5;" x1="40.64" x2="95.2718" y1="76.2969" y2="76.2969"/><text fill="#000000" font-family="sans-serif" font-size="14" lengthAdjust="spacing" textLength="44.6318" x="45.64" y="93.292">fname</text><line style="stroke:#181818;stroke-width:0.5;" x1="40.64" x2="95.2718" y1="100.5938" y2="100.5938"/><text fill="#000000" font-family="sans-serif" font-size="14" lengthAdjust="spacing" textLength="32.3203" x="45.64" y="117.5889">set()</text></g><!--class 12--><g id="elem_12"><rect codeLine="45" fill="#F1F1F1" height="80.5938" id="12" rx="2.5" ry="2.5" style="stroke:#181818;stroke-width:0.5;" width="55.5928" x="181.16" y="44.2969"/><ellipse cx="198.7602" cy="60.2969" fill="#DA70D6" rx="11" ry="11" style="stroke:#181818;stroke-width:1;"/><path d="M198.8696,55.875 Q197.9321,55.875 197.4946,56.875 Q197.0727,57.875 197.0727,60.1094 Q197.0727,62.3438 197.4946,63.3438 Q197.9321,64.3438 198.8696,64.3438 Q199.8227,64.3438 200.2446,63.3438 Q200.6821,62.3438 200.6821,60.1094 Q200.6821,57.875 200.2446,56.875 Q199.8227,55.875 198.8696,55.875 Z M194.5259,60.1094 Q194.5259,56.9375 195.6196,55.3125 Q196.729,53.6719 198.8696,53.6719 Q201.0259,53.6719 202.1196,55.3125 Q203.229,56.9375 203.229,60.1094 Q203.229,63.2813 202.1196,64.9063 Q201.0259,66.5313 198.8696,66.5313 Q196.729,66.5313 195.6196,64.9063 Q194.5259,63.2813 194.5259,60.1094 Z " fill="#000000"/><text fill="#000000" font-family="sans-serif" font-size="14" lengthAdjust="spacing" textLength="17.8145" x="213.3381" y="65.1436">12</text><line style="stroke:#181818;stroke-width:0.5;" x1="182.16" x2="235.7528" y1="76.2969" y2="76.2969"/><text fill="#000000" font-family="sans-serif" font-size="14" lengthAdjust="spacing" textLength="43.5928" x="187.16" y="93.292">lname</text><line style="stroke:#181818;stroke-width:0.5;" x1="182.16" x2="235.7528" y1="100.5938" y2="100.5938"/><text fill="#000000" font-family="sans-serif" font-size="14" lengthAdjust="spacing" textLength="32.3203" x="187.16" y="117.5889">set()</text></g><!--class 1--><g id="elem_1"><rect codeLine="50" fill="#F1F1F1" height="72.5938" id="1" rx="2.5" ry="2.5" style="stroke:#181818;stroke-width:0.5;" width="61.6289" x="321.14" y="48.2969"/><ellipse cx="345.4648" cy="64.2969" fill="#DA70D6" rx="11" ry="11" style="stroke:#181818;stroke-width:1;"/><path d="M345.5741,59.875 Q344.6366,59.875 344.1991,60.875 Q343.7773,61.875 343.7773,64.1094 Q343.7773,66.3438 344.1991,67.3438 Q344.6366,68.3438 345.5741,68.3438 Q346.5273,68.3438 346.9491,67.3438 Q347.3866,66.3438 347.3866,64.1094 Q347.3866,61.875 346.9491,60.875 Q346.5273,59.875 345.5741,59.875 Z M341.2304,64.1094 Q341.2304,60.9375 342.3241,59.3125 Q343.4335,57.6719 345.5741,57.6719 Q347.7304,57.6719 348.8241,59.3125 Q349.9335,60.9375 349.9335,64.1094 Q349.9335,67.2813 348.8241,68.9063 Q347.7304,70.5313 345.5741,70.5313 Q343.4335,70.5313 342.3241,68.9063 Q341.2304,67.2813 341.2304,64.1094 Z " fill="#000000"/><text fill="#000000" font-family="sans-serif" font-size="14" lengthAdjust="spacing" textLength="8.9072" x="361.5369" y="69.1436">1</text><line style="stroke:#181818;stroke-width:0.5;" x1="322.14" x2="381.7689" y1="80.2969" y2="80.2969"/><text fill="#000000" font-family="sans-serif" font-size="14" lengthAdjust="spacing" textLength="49.6289" x="327.14" y="97.292">gender</text><text fill="#000000" font-family="sans-serif" font-size="14" lengthAdjust="spacing" textLength="35.7725" x="327.14" y="113.5889">[M|F]</text></g><!--class 2--><g id="elem_2"><rect codeLine="55" fill="#F1F1F1" height="72.5938" id="2" rx="2.5" ry="2.5" style="stroke:#181818;stroke-width:0.5;" width="77.29" x="467.31" y="48.2969"/><ellipse cx="498.6823" cy="64.2969" fill="#DA70D6" rx="11" ry="11" style="stroke:#181818;stroke-width:1;"/><path d="M498.7916,59.875 Q497.8541,59.875 497.4166,60.875 Q496.9948,61.875 496.9948,64.1094 Q496.9948,66.3438 497.4166,67.3438 Q497.8541,68.3438 498.7916,68.3438 Q499.7448,68.3438 500.1666,67.3438 Q500.6041,66.3438 500.6041,64.1094 Q500.6041,61.875 500.1666,60.875 Q499.7448,59.875 498.7916,59.875 Z M494.4479,64.1094 Q494.4479,60.9375 495.5416,59.3125 Q496.651,57.6719 498.7916,57.6719 Q500.9479,57.6719 502.0416,59.3125 Q503.151,60.9375 503.151,64.1094 Q503.151,67.2813 502.0416,68.9063 Q500.9479,70.5313 498.7916,70.5313 Q496.651,70.5313 495.5416,68.9063 Q494.4479,67.2813 494.4479,64.1094 Z " fill="#000000"/><text fill="#000000" font-family="sans-serif" font-size="14" lengthAdjust="spacing" textLength="8.9072" x="516.3205" y="69.1436">2</text><line style="stroke:#181818;stroke-width:0.5;" x1="468.31" x2="543.6" y1="80.2969" y2="80.2969"/><text fill="#000000" font-family="sans-serif" font-size="14" lengthAdjust="spacing" textLength="65.29" x="473.31" y="97.292">areacode</text><text fill="#000000" font-family="sans-serif" font-size="14" lengthAdjust="spacing" textLength="60.5117" x="473.31" y="113.5889">[0-9]{3}</text></g><!--class 3--><g id="elem_3"><rect codeLine="60" fill="#F1F1F1" height="72.5938" id="3" rx="2.5" ry="2.5" style="stroke:#181818;stroke-width:0.5;" width="73.8652" x="629.02" y="48.2969"/><ellipse cx="658.8511" cy="64.2969" fill="#DA70D6" rx="11" ry="11" style="stroke:#181818;stroke-width:1;"/><path d="M658.9605,59.875 Q658.023,59.875 657.5855,60.875 Q657.1636,61.875 657.1636,64.1094 Q657.1636,66.3438 657.5855,67.3438 Q658.023,68.3438 658.9605,68.3438 Q659.9136,68.3438 660.3355,67.3438 Q660.773,66.3438 660.773,64.1094 Q660.773,61.875 660.3355,60.875 Q659.9136,59.875 658.9605,59.875 Z M654.6167,64.1094 Q654.6167,60.9375 655.7105,59.3125 Q656.8199,57.6719 658.9605,57.6719 Q661.1167,57.6719 662.2105,59.3125 Q663.3199,60.9375 663.3199,64.1094 Q663.3199,67.2813 662.2105,68.9063 Q661.1167,70.5313 658.9605,70.5313 Q656.8199,70.5313 655.7105,68.9063 Q654.6167,67.2813 654.6167,64.1094 Z " fill="#000000"/><text fill="#000000" font-family="sans-serif" font-size="14" lengthAdjust="spacing" textLength="8.9072" x="676.1469" y="69.1436">3</text><line style="stroke:#181818;stroke-width:0.5;" x1="630.02" x2="701.8852" y1="80.2969" y2="80.2969"/><text fill="#000000" font-family="sans-serif" font-size="14" lengthAdjust="spacing" textLength="35.4648" x="635.02" y="97.292">state</text><text fill="#000000" font-family="sans-serif" font-size="14" lengthAdjust="spacing" textLength="61.8652" x="635.02" y="113.5889">[A-Z]{2}</text></g><!--class level_2_end--><g id="elem_level_2_end"><rect fill="#F1F1F1" height="32" id="level_2_end" rx="2.5" ry="2.5" style="stroke:#181818;stroke-width:0.5;" width="114.5713" x="361.67" y="665.6769"/><ellipse cx="376.67" cy="681.6769" fill="#ADD1B2" rx="11" ry="11" style="stroke:#181818;stroke-width:1;"/><path d="M379.6388,687.3175 Q379.0606,687.6144 378.42,687.755 Q377.7794,687.9113 377.0763,687.9113 Q374.5763,687.9113 373.2481,686.2706 Q371.9356,684.6144 371.9356,681.4894 Q371.9356,678.3644 373.2481,676.7081 Q374.5763,675.0519 377.0763,675.0519 Q377.7794,675.0519 378.42,675.2081 Q379.0763,675.3644 379.6388,675.6613 L379.6388,678.38 Q379.0138,677.8019 378.42,677.5363 Q377.8263,677.255 377.2013,677.255 Q375.8575,677.255 375.17,678.3331 Q374.4825,679.3956 374.4825,681.4894 Q374.4825,683.5831 375.17,684.6613 Q375.8575,685.7238 377.2013,685.7238 Q377.8263,685.7238 378.42,685.4581 Q379.0138,685.1769 379.6388,684.5988 L379.6388,687.3175 Z " fill="#000000"/><text fill="#000000" font-family="sans-serif" font-size="14" lengthAdjust="spacing" textLength="82.5713" x="390.67" y="686.5236">level_2_end</text></g><!--link 11 to SINGLE_END--><g id="link_11_SINGLE_END"><path codeLine="44" d="M96.72,100.0969 C131.75,117.6169 192.8,147.7469 245.95,171.8969 C268.52,182.1469 288.5618,190.7186 308.9318,199.2086 " fill="none" id="11-to-SINGLE_END" style="stroke:#181818;stroke-width:1;"/><polygon fill="#181818" points="314.47,201.5169,307.7015,194.3623,309.8548,199.5933,304.6238,201.7466,314.47,201.5169" style="stroke:#181818;stroke-width:1;"/><text fill="#000000" font-family="sans-serif" font-size="13" lengthAdjust="spacing" textLength="29.0278" x="246.95" y="167.9638">next</text></g><!--link 11 to 12--><g id="link_11_12"><path codeLine="48" d="M102.49,84.5969 C127.11,84.5969 150.47,84.5969 174.94,84.5969 " fill="none" id="11-12" style="stroke:#181818;stroke-width:1;"/><polygon fill="#181818" points="96.49,84.5969,105.49,88.5969,101.49,84.5969,105.49,80.5969,96.49,84.5969" style="stroke:#181818;stroke-width:1;"/><polygon fill="#181818" points="180.94,84.5969,171.94,80.5969,175.94,84.5969,171.94,88.5969,180.94,84.5969" style="stroke:#181818;stroke-width:1;"/><text fill="#000000" font-family="sans-serif" font-size="13" lengthAdjust="spacing" textLength="48.3628" x="114.71" y="77.6638">parallel</text></g><!--link 12 to SINGLE_END--><g id="link_12_SINGLE_END"><path codeLine="49" d="M237.2,111.5369 C266.51,138.4469 306.9101,175.5392 330.9501,197.6092 " fill="none" id="12-to-SINGLE_END" style="stroke:#181818;stroke-width:1;"/><polygon fill="#181818" points="335.37,201.6669,331.4453,192.6338,331.6868,198.2855,326.0351,198.5269,335.37,201.6669" style="stroke:#181818;stroke-width:1;"/><text fill="#000000" font-family="sans-serif" font-size="13" lengthAdjust="spacing" textLength="29.0278" x="302.95" y="167.9638">next</text></g><!--link 12 to 1--><g id="link_12_1"><path codeLine="53" d="M243.2,84.5969 C267.3,84.5969 289.89,84.5969 314.78,84.5969 " fill="none" id="12-1" style="stroke:#181818;stroke-width:1;"/><polygon fill="#181818" points="237.2,84.5969,246.2,88.5969,242.2,84.5969,246.2,80.5969,237.2,84.5969" style="stroke:#181818;stroke-width:1;"/><polygon fill="#181818" points="320.78,84.5969,311.78,80.5969,315.78,84.5969,311.78,88.5969,320.78,84.5969" style="stroke:#181818;stroke-width:1;"/><text fill="#000000" font-family="sans-serif" font-size="13" lengthAdjust="spacing" textLength="48.3628" x="254.94" y="77.6638">parallel</text></g><!--link 1 to SINGLE_END--><g id="link_1_SINGLE_END"><path codeLine="54" d="M351.95,121.1269 C351.95,147.4069 351.95,175.9069 351.95,195.5069 " fill="none" id="1-to-SINGLE_END" style="stroke:#181818;stroke-width:1;"/><polygon fill="#181818" points="351.95,201.5069,355.95,192.5069,351.95,196.5069,347.95,192.5069,351.95,201.5069" style="stroke:#181818;stroke-width:1;"/><text fill="#000000" font-family="sans-serif" font-size="13" lengthAdjust="spacing" textLength="29.0278" x="352.95" y="167.9638">next</text></g><!--link 1 to 2--><g id="link_1_2"><path codeLine="58" d="M389.12,84.5969 C413.29,84.5969 434.93,84.5969 460.9,84.5969 " fill="none" id="1-2" style="stroke:#181818;stroke-width:1;"/><polygon fill="#181818" points="383.12,84.5969,392.12,88.5969,388.12,84.5969,392.12,80.5969,383.12,84.5969" style="stroke:#181818;stroke-width:1;"/><polygon fill="#181818" points="466.9,84.5969,457.9,80.5969,461.9,84.5969,457.9,88.5969,466.9,84.5969" style="stroke:#181818;stroke-width:1;"/><text fill="#000000" font-family="sans-serif" font-size="13" lengthAdjust="spacing" textLength="48.3628" x="401.04" y="77.6638">parallel</text></g><!--link 2 to SINGLE_END--><g id="link_2_SINGLE_END"><path codeLine="59" d="M467.09,118.7269 C435.91,145.3169 398.1157,177.534 374.4357,197.724 " fill="none" id="2-to-SINGLE_END" style="stroke:#181818;stroke-width:1;"/><polygon fill="#181818" points="369.87,201.6169,379.3138,198.8215,373.6748,198.3729,374.1234,192.7338,369.87,201.6169" style="stroke:#181818;stroke-width:1;"/><text fill="#000000" font-family="sans-serif" font-size="13" lengthAdjust="spacing" textLength="29.0278" x="425.95" y="167.9638">next</text></g><!--link 2 to 3--><g id="link_2_3"><path codeLine="63" d="M551.09,84.5969 C576.53,84.5969 597.51,84.5969 622.59,84.5969 " fill="none" id="2-3" style="stroke:#181818;stroke-width:1;"/><polygon fill="#181818" points="545.09,84.5969,554.09,88.5969,550.09,84.5969,554.09,80.5969,545.09,84.5969" style="stroke:#181818;stroke-width:1;"/><polygon fill="#181818" points="628.59,84.5969,619.59,80.5969,623.59,84.5969,619.59,88.5969,628.59,84.5969" style="stroke:#181818;stroke-width:1;"/><text fill="#000000" font-family="sans-serif" font-size="13" lengthAdjust="spacing" textLength="48.3628" x="562.81" y="77.6638">parallel</text></g><!--link 3 to SINGLE_END--><g id="link_3_SINGLE_END"><path codeLine="64" d="M628.82,101.7469 C588.38,119.2669 521.73,147.9469 463.95,171.8969 C439.75,181.9269 418.0534,190.6648 396.4834,199.2648 " fill="none" id="3-to-SINGLE_END" style="stroke:#181818;stroke-width:1;"/><polygon fill="#181818" points="390.91,201.4869,400.7514,201.8693,395.5545,199.6351,397.7886,194.4381,390.91,201.4869" style="stroke:#181818;stroke-width:1;"/><text fill="#000000" font-family="sans-serif" font-size="13" lengthAdjust="spacing" textLength="29.0278" x="503.95" y="167.9638">next</text></g><!--link SINGLE_END to 6--><g id="link_SINGLE_END_6"><path codeLine="65" d="M291.44,226.9769 C260.55,233.3069 223.55,244.4369 194.95,263.8969 C138.07,302.6069 97.0088,366.1836 73.8988,408.0636 " fill="none" id="SINGLE_END-to-6" style="stroke:#181818;stroke-width:1;"/><polygon fill="#181818" points="71,413.3169,78.8504,407.3695,73.4157,408.9392,71.8461,403.5044,71,413.3169" style="stroke:#181818;stroke-width:1;"/><text fill="#000000" font-family="sans-serif" font-size="13" lengthAdjust="spacing" textLength="29.0278" x="195.95" y="276.9638">next</text></g><!--link 6 to level_2_end--><g id="link_6_level_2_end"><path codeLine="66" d="M61.15,486.3669 C69.38,516.1469 84.42,558.5069 108.95,588.6769 C132.59,617.7569 144.27,621.4869 178.95,635.6769 C238.4,659.9969 305.5721,670.6673 355.3721,675.8373 " fill="none" id="6-to-level_2_end" style="stroke:#181818;stroke-width:1;"/><polygon fill="#181818" points="361.34,676.4569,352.8012,671.5489,356.3667,675.9406,351.9751,679.5061,361.34,676.4569" style="stroke:#181818;stroke-width:1;"/><text fill="#000000" font-family="sans-serif" font-size="13" lengthAdjust="spacing" textLength="29.0278" x="109.95" y="556.9438">next</text></g><!--link SINGLE_END to 8--><g id="link_SINGLE_END_8"><path codeLine="67" d="M291.46,233.4169 C274.36,240.1569 257.12,249.9069 244.95,263.8969 C208.34,305.9869 199.0212,366.4666 196.7012,407.1966 " fill="none" id="SINGLE_END-to-8" style="stroke:#181818;stroke-width:1;"/><polygon fill="#181818" points="196.36,413.1869,200.8653,404.4289,196.6443,408.195,192.8783,403.974,196.36,413.1869" style="stroke:#181818;stroke-width:1;"/><text fill="#000000" font-family="sans-serif" font-size="13" lengthAdjust="spacing" textLength="29.0278" x="245.95" y="276.9638">next</text></g><!--link 8 to level_2_end--><g id="link_8_level_2_end"><path codeLine="68" d="M170.73,486.4969 C153.18,516.1569 136.43,558.2769 157.95,588.6769 C203.89,653.5769 293.5447,672.4731 355.4047,678.1031 " fill="none" id="8-to-level_2_end" style="stroke:#181818;stroke-width:1;"/><polygon fill="#181818" points="361.38,678.6469,352.7796,673.8476,356.4006,678.1937,352.0545,681.8147,361.38,678.6469" style="stroke:#181818;stroke-width:1;"/><text fill="#000000" font-family="sans-serif" font-size="13" lengthAdjust="spacing" textLength="29.0278" x="158.95" y="556.9438">next</text></g><!--link SINGLE_END to 9--><g id="link_SINGLE_END_9"><path codeLine="69" d="M349.49,234.0469 C341.39,283.9069 316.3817,437.8844 304.7017,509.8144 " fill="none" id="SINGLE_END-to-9" style="stroke:#181818;stroke-width:1;"/><polygon fill="#181818" points="303.74,515.7369,309.1308,507.4944,304.5414,510.8015,301.2342,506.2121,303.74,515.7369" style="stroke:#181818;stroke-width:1;"/><text fill="#000000" font-family="sans-serif" font-size="13" lengthAdjust="spacing" textLength="29.0278" x="337.95" y="351.7638">next</text></g><!--link 9 to level_2_end--><g id="link_9_level_2_end"><path codeLine="70" d="M331.66,588.8369 C355.57,613.9969 382.3562,642.1781 400.2462,660.9981 " fill="none" id="9-to-level_2_end" style="stroke:#181818;stroke-width:1;"/><polygon fill="#181818" points="404.38,665.3469,401.0784,656.0679,400.9351,661.7229,395.2801,661.5797,404.38,665.3469" style="stroke:#181818;stroke-width:1;"/><text fill="#000000" font-family="sans-serif" font-size="13" lengthAdjust="spacing" textLength="29.0278" x="373.95" y="631.7438">next</text></g><!--link SINGLE_END to 10--><g id="link_SINGLE_END_10"><path codeLine="71" d="M356.59,234.3369 C367.5,270.6769 393.2948,356.6403 408.5848,407.5703 " fill="none" id="SINGLE_END-to-10" style="stroke:#181818;stroke-width:1;"/><polygon fill="#181818" points="410.31,413.3169,411.5532,403.5468,408.8723,408.528,403.8911,405.8471,410.31,413.3169" style="stroke:#181818;stroke-width:1;"/><text fill="#000000" font-family="sans-serif" font-size="13" lengthAdjust="spacing" textLength="29.0278" x="370.95" y="276.9638">next</text></g><!--link 10 to level_2_end--><g id="link_10_level_2_end"><path codeLine="72" d="M420.64,486.4569 C420.2,537.4069 419.4512,622.8771 419.1412,659.1971 " fill="none" id="10-to-level_2_end" style="stroke:#181818;stroke-width:1;"/><polygon fill="#181818" points="419.09,665.1969,423.1667,656.2313,419.1327,660.1971,415.167,656.1631,419.09,665.1969" style="stroke:#181818;stroke-width:1;"/><text fill="#000000" font-family="sans-serif" font-size="13" lengthAdjust="spacing" textLength="29.0278" x="421.95" y="556.9438">next</text></g><!--link SINGLE_END to 5--><g id="link_SINGLE_END_5"><path codeLine="73" d="M388.87,234.2369 C405.73,242.0169 425.56,252.2769 441.95,263.8969 C460.89,277.3169 475.4861,290.6163 490.5561,306.1063 " fill="none" id="SINGLE_END-to-5" style="stroke:#181818;stroke-width:1;"/><polygon fill="#181818" points="494.74,310.4069,491.3311,301.1668,491.2534,306.8231,485.5971,306.7454,494.74,310.4069" style="stroke:#181818;stroke-width:1;"/><text fill="#000000" font-family="sans-serif" font-size="13" lengthAdjust="spacing" textLength="29.0278" x="463.95" y="276.9638">next</text></g><!--link 5 to 4--><g id="link_5_4"><path codeLine="74" d="M535.66,383.5869 C544.78,420.6469 557.5955,472.7209 566.7455,509.8809 " fill="none" id="5-to-4" style="stroke:#181818;stroke-width:1;"/><polygon fill="#181818" points="568.18,515.7069,569.9122,506.0115,566.9845,510.8519,562.1442,507.9243,568.18,515.7069" style="stroke:#181818;stroke-width:1;"/><text fill="#000000" font-family="sans-serif" font-size="13" lengthAdjust="spacing" textLength="29.0278" x="561.95" y="454.3538">next</text></g><!--link 4 to level_2_end--><g id="link_4_level_2_end"><path codeLine="75" d="M539.93,589.0769 C523.81,604.0269 504.42,621.2469 485.95,635.6769 C472.48,646.2069 461.6816,653.6638 448.7716,661.9938 " fill="none" id="4-to-level_2_end" style="stroke:#181818;stroke-width:1;"/><polygon fill="#181818" points="443.73,665.2469,453.4611,663.7284,447.9313,662.536,449.1237,657.0063,443.73,665.2469" style="stroke:#181818;stroke-width:1;"/><text fill="#000000" font-family="sans-serif" font-size="13" lengthAdjust="spacing" textLength="29.0278" x="505.95" y="631.7438">next</text></g><!--link SINGLE_END to 7--><g id="link_SINGLE_END_7"><path codeLine="76" d="M408.7,234.3269 C436.97,242.4169 471.52,252.9169 501.95,263.8969 C548.24,280.5969 593.959,300.0258 632.129,317.0258 " fill="none" id="SINGLE_END-to-7" style="stroke:#181818;stroke-width:1;"/><polygon fill="#181818" points="637.61,319.4669,631.0159,312.1513,633.0425,317.4326,627.7611,319.4592,637.61,319.4669" style="stroke:#181818;stroke-width:1;"/><text fill="#000000" font-family="sans-serif" font-size="13" lengthAdjust="spacing" textLength="29.0278" x="546.95" y="276.9638">next</text></g><!--link 7 to level_2_end--><g id="link_7_level_2_end"><path codeLine="77" d="M697.99,383.7369 C699.02,434.6469 693.61,528.7769 645.95,588.6769 C604.59,640.6769 535.0467,662.3583 482.5467,672.2283 " fill="none" id="7-to-level_2_end" style="stroke:#181818;stroke-width:1;"/><polygon fill="#181818" points="476.65,673.3369,486.2341,675.6051,481.5639,672.4131,484.756,667.7429,476.65,673.3369" style="stroke:#181818;stroke-width:1;"/><text fill="#000000" font-family="sans-serif" font-size="13" lengthAdjust="spacing" textLength="29.0278" x="681.95" y="556.9438">next</text></g><!--SRC=[bLDDYnCn6BxdLyIJ7N2Wt-r8jx2jgmZh5lHcAINCl9s6pKnAahfTQq7GYuW_GC-2jmLlYkYliLJ_XKdQwSoKjRGzPPwlFidBUoU04Oq1FmLVzIOWYEAYC7EmpuYKU8PRBLpetSDS-6CQEBZTHaXUqdX218cmq2OIXmpm767zwn3_CXHy6WTTphXejNhjDZwduLXrs1JM4Yu249R67QRr5ZqLWbzbmGL2YYeTtEL4I713GNJB07SPa1W4Ffk1FrMKnxXdyanz7aKG1yI02DrTVVdnz-Fdtz_VBzzzM7rwk_psPldrzP-RNwkVDqZV13144tMD0v2-e1Dhoi0Hg34FP1OQKM0QGRc7UlRuuj7vsV3iue6pmp1u0MnO6kfAkrJTGNLy7qi-5JwSlAGJ-wc8246T-5HTv-LD1pLJ-PX8FGaM65ipOpCOp7JLlDbpa9UQ8oAe8amgegRI97XfWgHcaBT4b8eEAXNtX5Xoaw99GU6s9bK7LVEthcR-N8T1NbzpK2tL4m74vm5OxF-cXeCQgMaKamWii764UXeWTgvNqjShQSrQROyILC6YRi2lOhUDqpbhDeQPsiaeQtLPKsoTKSvcj5nXDa2dMDni3cF0ZEhGU9sZYKrxS-m_UVLmO18ouRdiGwDrSLDg-xpcerzqlS6yia3Pxhdg1pUlEAXYti9Eofpwf-xpmRoyGDdgbMnsPKzs1ab4zOIhRw7rwfNDwkqnDXEkUQJHIpZlIAFT4qlgqt7MMiBLjb0rWQf7PZKIhh77-0y0]--></g></svg>