<svg xmlns="http://www.w3.org/2000/svg" xmlns:xlink="http://www.w3.org/1999/xlink" contentStyleType="text/css" height="704px" preserveAspectRatio="none" style="width:830px;height:704px;background:#FFFFFF;" version="1.1" viewBox="0 0 830 704" width="830px" zoomAndPan="magnify"><title>Coarse-grained Cleaner Execution Order Recommendation</title><defs/><g><text fill="#000000" font-family="sans-serif" font-size="14" font-weight="bold" lengthAdjust="spacing" textLength="460.4482" x="177.9615" y="22.9951">Coarse-grained Cleaner Execution Order Recommendation</text><!--class SINGLE_END--><g id="elem_SINGLE_END"><rect codeLine="16" fill="#F1F1F1" height="32" id="SINGLE_END" rx="2.5" ry="2.5" style="stroke:#181818;stroke-width:0.5;" width="120.0811" x="263.05" y="201.8969"/><ellipse cx="278.05" cy="217.8969" fill="#DA70D6" rx="11" ry="11" style="stroke:#181818;stroke-width:1;"/><path d="M278.1594,213.475 Q277.2219,213.475 276.7844,214.475 Q276.3625,215.475 276.3625,217.7094 Q276.3625,219.9438 276.7844,220.9438 Q277.2219,221.9438 278.1594,221.9438 Q279.1125,221.9438 279.5344,220.9438 Q279.9719,219.9438 279.9719,217.7094 Q279.9719,215.475 279.5344,214.475 Q279.1125,213.475 278.1594,213.475 Z M273.8156,217.7094 Q273.8156,214.5375 274.9094,212.9125 Q276.0188,211.2719 278.1594,211.2719 Q280.3156,211.2719 281.4094,212.9125 Q282.5188,214.5375 282.5188,217.7094 Q282.5188,220.8813 281.4094,222.5063 Q280.3156,224.1313 278.1594,224.1313 Q276.0188,224.1313 274.9094,222.5063 Q273.8156,220.8813 273.8156,217.7094 Z " fill="#000000"/><text fill="#000000" font-family="sans-serif" font-size="14" lengthAdjust="spacing" textLength="88.0811" x="292.05" y="222.7436">SINGLE_END</text></g><!--class level_1_end--><g id="elem_level_1_end"><rect codeLine="18" fill="#F1F1F1" height="32" id="level_1_end" rx="2.5" ry="2.5" style="stroke:#181818;stroke-width:0.5;" width="114.5713" x="708.8" y="68.5969"/><ellipse cx="723.8" cy="84.5969" fill="#DA70D6" rx="11" ry="11" style="stroke:#181818;stroke-width:1;"/><path d="M723.9094,80.175 Q722.9719,80.175 722.5344,81.175 Q722.1125,82.175 722.1125,84.4094 Q722.1125,86.6437 722.5344,87.6437 Q722.9719,88.6437 723.9094,88.6437 Q724.8625,88.6437 725.2844,87.6437 Q725.7219,86.6437 725.7219,84.4094 Q725.7219,82.175 725.2844,81.175 Q724.8625,80.175 723.9094,80.175 Z M719.5656,84.4094 Q719.5656,81.2375 720.6594,79.6125 Q721.7688,77.9719 723.9094,77.9719 Q726.0656,77.9719 727.1594,79.6125 Q728.2688,81.2375 728.2688,84.4094 Q728.2688,87.5812 727.1594,89.2062 Q726.0656,90.8312 723.9094,90.8312 Q721.7688,90.8312 720.6594,89.2062 Q719.5656,87.5812 719.5656,84.4094 Z " fill="#000000"/><text fill="#000000" font-family="sans-serif" font-size="14" lengthAdjust="spacing" textLength="82.5713" x="737.8" y="89.4436">level_1_end</text></g><!--class 7--><g id="elem_7"><rect codeLine="20" fill="#F1F1F1" height="72.5938" id="7" rx="2.5" ry="2.5" style="stroke:#181818;stroke-width:0.5;" width="116.1729" x="7" y="413.4869"/><ellipse cx="56.3828" cy="429.4869" fill="#DA70D6" rx="11" ry="11" style="stroke:#181818;stroke-width:1;"/><path d="M56.4922,425.065 Q55.5547,425.065 55.1172,426.065 Q54.6953,427.065 54.6953,429.2994 Q54.6953,431.5338 55.1172,432.5338 Q55.5547,433.5338 56.4922,433.5338 Q57.4453,433.5338 57.8672,432.5338 Q58.3047,431.5338 58.3047,429.2994 Q58.3047,427.065 57.8672,426.065 Q57.4453,425.065 56.4922,425.065 Z M52.1484,429.2994 Q52.1484,426.1275 53.2422,424.5025 Q54.3516,422.8619 56.4922,422.8619 Q58.6484,422.8619 59.7422,424.5025 Q60.8516,426.1275 60.8516,429.2994 Q60.8516,432.4713 59.7422,434.0963 Q58.6484,435.7213 56.4922,435.7213 Q54.3516,435.7213 53.2422,434.0963 Q52.1484,432.4713 52.1484,429.2994 Z " fill="#000000"/><text fill="#000000" font-family="sans-serif" font-size="14" lengthAdjust="spacing" textLength="8.9072" x="76.8828" y="434.3336">7</text><line style="stroke:#181818;stroke-width:0.5;" x1="8" x2="122.1729" y1="445.4869" y2="445.4869"/><text fill="#000000" font-family="sans-serif" font-size="14" lengthAdjust="spacing" textLength="103.1611" x="13" y="462.482">source=fname</text><text fill="#000000" font-family="sans-serif" font-size="14" lengthAdjust="spacing" textLength="104.1729" x="13" y="478.7789">target=gender</text></g><!--class 6--><g id="elem_6"><rect codeLine="23" fill="#F1F1F1" height="72.5938" id="6" rx="2.5" ry="2.5" style="stroke:#181818;stroke-width:0.5;" width="91.9053" x="139.13" y="413.4869"/><ellipse cx="177.0791" cy="429.4869" fill="#DA70D6" rx="11" ry="11" style="stroke:#181818;stroke-width:1;"/><path d="M177.1885,425.065 Q176.251,425.065 175.8135,426.065 Q175.3916,427.065 175.3916,429.2994 Q175.3916,431.5338 175.8135,432.5338 Q176.251,433.5338 177.1885,433.5338 Q178.1416,433.5338 178.5635,432.5338 Q179.001,431.5338 179.001,429.2994 Q179.001,427.065 178.5635,426.065 Q178.1416,425.065 177.1885,425.065 Z M172.8447,429.2994 Q172.8447,426.1275 173.9385,424.5025 Q175.0479,422.8619 177.1885,422.8619 Q179.3447,422.8619 180.4385,424.5025 Q181.5479,426.1275 181.5479,429.2994 Q181.5479,432.4713 180.4385,434.0963 Q179.3447,435.7213 177.1885,435.7213 Q175.0479,435.7213 173.9385,434.0963 Q172.8447,432.4713 172.8447,429.2994 Z " fill="#000000"/><text fill="#000000" font-family="sans-serif" font-size="14" lengthAdjust="spacing" textLength="8.9072" x="196.1789" y="434.3336">6</text><line style="stroke:#181818;stroke-width:0.5;" x1="140.13" x2="230.0353" y1="445.4869" y2="445.4869"/><text fill="#000000" font-family="sans-serif" font-size="14" lengthAdjust="spacing" textLength="78.6543" x="145.13" y="462.482">source=zip</text><text fill="#000000" font-family="sans-serif" font-size="14" lengthAdjust="spacing" textLength="79.9053" x="145.13" y="478.7789">target=city</text></g><!--class 8--><g id="elem_8"><rect codeLine="26" fill="#F1F1F1" height="72.5938" id="8" rx="2.5" ry="2.5" style="stroke:#181818;stroke-width:0.5;" width="148.6367" x="228.77" y="516.0869"/><ellipse cx="294.3847" cy="532.0869" fill="#DA70D6" rx="11" ry="11" style="stroke:#181818;stroke-width:1;"/><path d="M294.4941,527.665 Q293.5566,527.665 293.1191,528.665 Q292.6972,529.665 292.6972,531.8994 Q292.6972,534.1338 293.1191,535.1338 Q293.5566,536.1338 294.4941,536.1338 Q295.4472,536.1338 295.8691,535.1338 Q296.3066,534.1338 296.3066,531.8994 Q296.3066,529.665 295.8691,528.665 Q295.4472,527.665 294.4941,527.665 Z M290.1504,531.8994 Q290.1504,528.7275 291.2441,527.1025 Q292.3535,525.4619 294.4941,525.4619 Q296.6504,525.4619 297.7441,527.1025 Q298.8535,528.7275 298.8535,531.8994 Q298.8535,535.0713 297.7441,536.6963 Q296.6504,538.3213 294.4941,538.3213 Q292.3535,538.3213 291.2441,536.6963 Q290.1504,535.0713 290.1504,531.8994 Z " fill="#000000"/><text fill="#000000" font-family="sans-serif" font-size="14" lengthAdjust="spacing" textLength="8.9072" x="314.8847" y="536.9336">8</text><line style="stroke:#181818;stroke-width:0.5;" x1="229.77" x2="376.4067" y1="548.0869" y2="548.0869"/><text fill="#000000" font-family="sans-serif" font-size="14" lengthAdjust="spacing" textLength="136.6367" x="234.77" y="565.082">source=haschildzip</text><text fill="#000000" font-family="sans-serif" font-size="14" lengthAdjust="spacing" textLength="135.8164" x="234.77" y="581.3789">target=childexemp</text></g><!--class 9--><g id="elem_9"><rect codeLine="29" fill="#F1F1F1" height="72.5938" id="9" rx="2.5" ry="2.5" style="stroke:#181818;stroke-width:0.5;" width="183.4932" x="323.34" y="413.4869"/><ellipse cx="406.383" cy="429.4869" fill="#DA70D6" rx="11" ry="11" style="stroke:#181818;stroke-width:1;"/><path d="M406.4923,425.065 Q405.5548,425.065 405.1173,426.065 Q404.6955,427.065 404.6955,429.2994 Q404.6955,431.5338 405.1173,432.5338 Q405.5548,433.5338 406.4923,433.5338 Q407.4455,433.5338 407.8673,432.5338 Q408.3048,431.5338 408.3048,429.2994 Q408.3048,427.065 407.8673,426.065 Q407.4455,425.065 406.4923,425.065 Z M402.1486,429.2994 Q402.1486,426.1275 403.2423,424.5025 Q404.3517,422.8619 406.4923,422.8619 Q408.6486,422.8619 409.7423,424.5025 Q410.8517,426.1275 410.8517,429.2994 Q410.8517,432.4713 409.7423,434.0963 Q408.6486,435.7213 406.4923,435.7213 Q404.3517,435.7213 403.2423,434.0963 Q402.1486,432.4713 402.1486,429.2994 Z " fill="#000000"/><text fill="#000000" font-family="sans-serif" font-size="14" lengthAdjust="spacing" textLength="8.9072" x="426.883" y="434.3336">9</text><line style="stroke:#181818;stroke-width:0.5;" x1="324.34" x2="505.8332" y1="445.4869" y2="445.4869"/><text fill="#000000" font-family="sans-serif" font-size="14" lengthAdjust="spacing" textLength="171.4932" x="329.34" y="462.482">source=maritalstatuszip</text><text fill="#000000" font-family="sans-serif" font-size="14" lengthAdjust="spacing" textLength="144.0264" x="329.34" y="478.7789">target=singleexemp</text></g><!--class 10--><g id="elem_10"><rect codeLine="32" fill="#F1F1F1" height="72.5938" id="10" rx="2.5" ry="2.5" style="stroke:#181818;stroke-width:0.5;" width="183.4932" x="418.34" y="310.8969"/><ellipse cx="496.9294" cy="326.8969" fill="#DA70D6" rx="11" ry="11" style="stroke:#181818;stroke-width:1;"/><path d="M497.0387,322.475 Q496.1012,322.475 495.6637,323.475 Q495.2419,324.475 495.2419,326.7094 Q495.2419,328.9438 495.6637,329.9438 Q496.1012,330.9438 497.0387,330.9438 Q497.9919,330.9438 498.4137,329.9438 Q498.8512,328.9438 498.8512,326.7094 Q498.8512,324.475 498.4137,323.475 Q497.9919,322.475 497.0387,322.475 Z M492.695,326.7094 Q492.695,323.5375 493.7887,321.9125 Q494.8981,320.2719 497.0387,320.2719 Q499.195,320.2719 500.2887,321.9125 Q501.3981,323.5375 501.3981,326.7094 Q501.3981,329.8813 500.2887,331.5063 Q499.195,333.1313 497.0387,333.1313 Q494.8981,333.1313 493.7887,331.5063 Q492.695,329.8813 492.695,326.7094 Z " fill="#000000"/><text fill="#000000" font-family="sans-serif" font-size="14" lengthAdjust="spacing" textLength="17.8145" x="517.4294" y="331.7436">10</text><line style="stroke:#181818;stroke-width:0.5;" x1="419.34" x2="600.8332" y1="342.8969" y2="342.8969"/><text fill="#000000" font-family="sans-serif" font-size="14" lengthAdjust="spacing" textLength="171.4932" x="424.34" y="359.892">source=maritalstatuszip</text><text fill="#000000" font-family="sans-serif" font-size="14" lengthAdjust="spacing" textLength="157.6982" x="424.34" y="376.1889">target=marriedexemp</text></g><!--class 4--><g id="elem_4"><rect codeLine="35" fill="#F1F1F1" height="72.5938" id="4" rx="2.5" ry="2.5" style="stroke:#181818;stroke-width:0.5;" width="102.0088" x="634.08" y="516.0869"/><ellipse cx="676.5757" cy="532.0869" fill="#DA70D6" rx="11" ry="11" style="stroke:#181818;stroke-width:1;"/><path d="M676.6851,527.665 Q675.7476,527.665 675.3101,528.665 Q674.8882,529.665 674.8882,531.8994 Q674.8882,534.1338 675.3101,535.1338 Q675.7476,536.1338 676.6851,536.1338 Q677.6382,536.1338 678.0601,535.1338 Q678.4976,534.1338 678.4976,531.8994 Q678.4976,529.665 678.0601,528.665 Q677.6382,527.665 676.6851,527.665 Z M672.3413,531.8994 Q672.3413,528.7275 673.4351,527.1025 Q674.5445,525.4619 676.6851,525.4619 Q678.8413,525.4619 679.9351,527.1025 Q681.0445,528.7275 681.0445,531.8994 Q681.0445,535.0713 679.9351,536.6963 Q678.8413,538.3213 676.6851,538.3213 Q674.5445,538.3213 673.4351,536.6963 Q672.3413,535.0713 672.3413,531.8994 Z " fill="#000000"/><text fill="#000000" font-family="sans-serif" font-size="14" lengthAdjust="spacing" textLength="8.9072" x="696.6859" y="536.9336">4</text><line style="stroke:#181818;stroke-width:0.5;" x1="635.08" x2="735.0888" y1="548.0869" y2="548.0869"/><text fill="#000000" font-family="sans-serif" font-size="14" lengthAdjust="spacing" textLength="78.6543" x="640.08" y="565.082">source=zip</text><text fill="#000000" font-family="sans-serif" font-size="14" lengthAdjust="spacing" textLength="90.0088" x="640.08" y="581.3789">target=state</text></g><!--class 5--><g id="elem_5"><rect codeLine="38" fill="#F1F1F1" height="72.5938" id="5" rx="2.5" ry="2.5" style="stroke:#181818;stroke-width:0.5;" width="135.8193" x="637.18" y="310.8969"/><ellipse cx="696.3861" cy="326.8969" fill="#DA70D6" rx="11" ry="11" style="stroke:#181818;stroke-width:1;"/><path d="M696.4954,322.475 Q695.5579,322.475 695.1204,323.475 Q694.6986,324.475 694.6986,326.7094 Q694.6986,328.9438 695.1204,329.9438 Q695.5579,330.9438 696.4954,330.9438 Q697.4486,330.9438 697.8704,329.9438 Q698.3079,328.9438 698.3079,326.7094 Q698.3079,324.475 697.8704,323.475 Q697.4486,322.475 696.4954,322.475 Z M692.1517,326.7094 Q692.1517,323.5375 693.2454,321.9125 Q694.3548,320.2719 696.4954,320.2719 Q698.6517,320.2719 699.7454,321.9125 Q700.8548,323.5375 700.8548,326.7094 Q700.8548,329.8813 699.7454,331.5063 Q698.6517,333.1313 696.4954,333.1313 Q694.3548,333.1313 693.2454,331.5063 Q692.1517,329.8813 692.1517,326.7094 Z " fill="#000000"/><text fill="#000000" font-family="sans-serif" font-size="14" lengthAdjust="spacing" textLength="8.9072" x="716.8861" y="331.7436">5</text><line style="stroke:#181818;stroke-width:0.5;" x1="638.18" x2="771.9993" y1="342.8969" y2="342.8969"/><text fill="#000000" font-family="sans-serif" font-size="14" lengthAdjust="spacing" textLength="123.8193" x="643.18" y="359.892">source=areacode</text><text fill="#000000" font-family="sans-serif" font-size="14" lengthAdjust="spacing" textLength="90.0088" x="643.18" y="376.1889">target=state</text></g><!--class 11--><g id="elem_11"><rect codeLine="41" fill="#F1F1F1" height="80.5938" id="11" rx="2.5" ry="2.5" style="stroke:#181818;stroke-width:0.5;" width="56.6318" x="10.77" y="44.2969"/><ellipse cx="28.8378" cy="60.2969" fill="#DA70D6" rx="11" ry="11" style="stroke:#181818;stroke-width:1;"/><path d="M28.9472,55.875 Q28.0097,55.875 27.5722,56.875 Q27.1503,57.875 27.1503,60.1094 Q27.1503,62.3438 27.5722,63.3438 Q28.0097,64.3438 28.9472,64.3438 Q29.9003,64.3438 30.3222,63.3438 Q30.7597,62.3438 30.7597,60.1094 Q30.7597,57.875 30.3222,56.875 Q29.9003,55.875 28.9472,55.875 Z M24.6034,60.1094 Q24.6034,56.9375 25.6972,55.3125 Q26.8066,53.6719 28.9472,53.6719 Q31.1034,53.6719 32.1972,55.3125 Q33.3066,56.9375 33.3066,60.1094 Q33.3066,63.2813 32.1972,64.9063 Q31.1034,66.5313 28.9472,66.5313 Q26.8066,66.5313 25.6972,64.9063 Q24.6034,63.2813 24.6034,60.1094 Z " fill="#000000"/><text fill="#000000" font-family="sans-serif" font-size="14" lengthAdjust="spacing" textLength="17.8145" x="43.5196" y="65.1436">11</text><line style="stroke:#181818;stroke-width:0.5;" x1="11.77" x2="66.4018" y1="76.2969" y2="76.2969"/><text fill="#000000" font-family="sans-serif" font-size="14" lengthAdjust="spacing" textLength="44.6318" x="16.77" y="93.292">fname</text><line style="stroke:#181818;stroke-width:0.5;" x1="11.77" x2="66.4018" y1="100.5938" y2="100.5938"/><text fill="#000000" font-family="sans-serif" font-size="14" lengthAdjust="spacing" textLength="32.3203" x="16.77" y="117.5889">set()</text></g><!--class 12--><g id="elem_12"><rect codeLine="45" fill="#F1F1F1" height="80.5938" id="12" rx="2.5" ry="2.5" style="stroke:#181818;stroke-width:0.5;" width="55.5928" x="152.29" y="44.2969"/><ellipse cx="169.8902" cy="60.2969" fill="#DA70D6" rx="11" ry="11" style="stroke:#181818;stroke-width:1;"/><path d="M169.9996,55.875 Q169.0621,55.875 168.6246,56.875 Q168.2027,57.875 168.2027,60.1094 Q168.2027,62.3438 168.6246,63.3438 Q169.0621,64.3438 169.9996,64.3438 Q170.9527,64.3438 171.3746,63.3438 Q171.8121,62.3438 171.8121,60.1094 Q171.8121,57.875 171.3746,56.875 Q170.9527,55.875 169.9996,55.875 Z M165.6559,60.1094 Q165.6559,56.9375 166.7496,55.3125 Q167.859,53.6719 169.9996,53.6719 Q172.1559,53.6719 173.2496,55.3125 Q174.359,56.9375 174.359,60.1094 Q174.359,63.2813 173.2496,64.9063 Q172.1559,66.5313 169.9996,66.5313 Q167.859,66.5313 166.7496,64.9063 Q165.6559,63.2813 165.6559,60.1094 Z " fill="#000000"/><text fill="#000000" font-family="sans-serif" font-size="14" lengthAdjust="spacing" textLength="17.8145" x="184.4681" y="65.1436">12</text><line style="stroke:#181818;stroke-width:0.5;" x1="153.29" x2="206.8828" y1="76.2969" y2="76.2969"/><text fill="#000000" font-family="sans-serif" font-size="14" lengthAdjust="spacing" textLength="43.5928" x="158.29" y="93.292">lname</text><line style="stroke:#181818;stroke-width:0.5;" x1="153.29" x2="206.8828" y1="100.5938" y2="100.5938"/><text fill="#000000" font-family="sans-serif" font-size="14" lengthAdjust="spacing" textLength="32.3203" x="158.29" y="117.5889">set()</text></g><!--class 1--><g id="elem_1"><rect codeLine="50" fill="#F1F1F1" height="72.5938" id="1" rx="2.5" ry="2.5" style="stroke:#181818;stroke-width:0.5;" width="61.6289" x="292.27" y="48.2969"/><ellipse cx="316.5948" cy="64.2969" fill="#DA70D6" rx="11" ry="11" style="stroke:#181818;stroke-width:1;"/><path d="M316.7041,59.875 Q315.7666,59.875 315.3291,60.875 Q314.9073,61.875 314.9073,64.1094 Q314.9073,66.3438 315.3291,67.3438 Q315.7666,68.3438 316.7041,68.3438 Q317.6573,68.3438 318.0791,67.3438 Q318.5166,66.3438 318.5166,64.1094 Q318.5166,61.875 318.0791,60.875 Q317.6573,59.875 316.7041,59.875 Z M312.3604,64.1094 Q312.3604,60.9375 313.4541,59.3125 Q314.5635,57.6719 316.7041,57.6719 Q318.8604,57.6719 319.9541,59.3125 Q321.0635,60.9375 321.0635,64.1094 Q321.0635,67.2813 319.9541,68.9063 Q318.8604,70.5313 316.7041,70.5313 Q314.5635,70.5313 313.4541,68.9063 Q312.3604,67.2813 312.3604,64.1094 Z " fill="#000000"/><text fill="#000000" font-family="sans-serif" font-size="14" lengthAdjust="spacing" textLength="8.9072" x="332.6669" y="69.1436">1</text><line style="stroke:#181818;stroke-width:0.5;" x1="293.27" x2="352.8989" y1="80.2969" y2="80.2969"/><text fill="#000000" font-family="sans-serif" font-size="14" lengthAdjust="spacing" textLength="49.6289" x="298.27" y="97.292">gender</text><text fill="#000000" font-family="sans-serif" font-size="14" lengthAdjust="spacing" textLength="35.7725" x="298.27" y="113.5889">[M|F]</text></g><!--class 2--><g id="elem_2"><rect codeLine="55" fill="#F1F1F1" height="72.5938" id="2" rx="2.5" ry="2.5" style="stroke:#181818;stroke-width:0.5;" width="77.29" x="438.44" y="48.2969"/><ellipse cx="469.8123" cy="64.2969" fill="#DA70D6" rx="11" ry="11" style="stroke:#181818;stroke-width:1;"/><path d="M469.9216,59.875 Q468.9841,59.875 468.5466,60.875 Q468.1248,61.875 468.1248,64.1094 Q468.1248,66.3438 468.5466,67.3438 Q468.9841,68.3438 469.9216,68.3438 Q470.8748,68.3438 471.2966,67.3438 Q471.7341,66.3438 471.7341,64.1094 Q471.7341,61.875 471.2966,60.875 Q470.8748,59.875 469.9216,59.875 Z M465.5779,64.1094 Q465.5779,60.9375 466.6716,59.3125 Q467.781,57.6719 469.9216,57.6719 Q472.0779,57.6719 473.1716,59.3125 Q474.281,60.9375 474.281,64.1094 Q474.281,67.2813 473.1716,68.9063 Q472.0779,70.5313 469.9216,70.5313 Q467.781,70.5313 466.6716,68.9063 Q465.5779,67.2813 465.5779,64.1094 Z " fill="#000000"/><text fill="#000000" font-family="sans-serif" font-size="14" lengthAdjust="spacing" textLength="8.9072" x="487.4505" y="69.1436">2</text><line style="stroke:#181818;stroke-width:0.5;" x1="439.44" x2="514.73" y1="80.2969" y2="80.2969"/><text fill="#000000" font-family="sans-serif" font-size="14" lengthAdjust="spacing" textLength="65.29" x="444.44" y="97.292">areacode</text><text fill="#000000" font-family="sans-serif" font-size="14" lengthAdjust="spacing" textLength="60.5117" x="444.44" y="113.5889">[0-9]{3}</text></g><!--class 3--><g id="elem_3"><rect codeLine="60" fill="#F1F1F1" height="72.5938" id="3" rx="2.5" ry="2.5" style="stroke:#181818;stroke-width:0.5;" width="73.8652" x="600.15" y="48.2969"/><ellipse cx="629.9811" cy="64.2969" fill="#DA70D6" rx="11" ry="11" style="stroke:#181818;stroke-width:1;"/><path d="M630.0905,59.875 Q629.153,59.875 628.7155,60.875 Q628.2936,61.875 628.2936,64.1094 Q628.2936,66.3438 628.7155,67.3438 Q629.153,68.3438 630.0905,68.3438 Q631.0436,68.3438 631.4655,67.3438 Q631.903,66.3438 631.903,64.1094 Q631.903,61.875 631.4655,60.875 Q631.0436,59.875 630.0905,59.875 Z M625.7467,64.1094 Q625.7467,60.9375 626.8405,59.3125 Q627.9499,57.6719 630.0905,57.6719 Q632.2467,57.6719 633.3405,59.3125 Q634.4499,60.9375 634.4499,64.1094 Q634.4499,67.2813 633.3405,68.9063 Q632.2467,70.5313 630.0905,70.5313 Q627.9499,70.5313 626.8405,68.9063 Q625.7467,67.2813 625.7467,64.1094 Z " fill="#000000"/><text fill="#000000" font-family="sans-serif" font-size="14" lengthAdjust="spacing" textLength="8.9072" x="647.2769" y="69.1436">3</text><line style="stroke:#181818;stroke-width:0.5;" x1="601.15" x2="673.0152" y1="80.2969" y2="80.2969"/><text fill="#000000" font-family="sans-serif" font-size="14" lengthAdjust="spacing" textLength="35.4648" x="606.15" y="97.292">state</text><text fill="#000000" font-family="sans-serif" font-size="14" lengthAdjust="spacing" textLength="61.8652" x="606.15" y="113.5889">[A-Z]{2}</text></g><!--class level_2_end--><g id="elem_level_2_end"><rect fill="#F1F1F1" height="32" id="level_2_end" rx="2.5" ry="2.5" style="stroke:#181818;stroke-width:0.5;" width="114.5713" x="353.8" y="665.6769"/><ellipse cx="368.8" cy="681.6769" fill="#ADD1B2" rx="11" ry="11" style="stroke:#181818;stroke-width:1;"/><path d="M371.7688,687.3175 Q371.1906,687.6144 370.55,687.755 Q369.9094,687.9113 369.2063,687.9113 Q366.7063,687.9113 365.3781,686.2706 Q364.0656,684.6144 364.0656,681.4894 Q364.0656,678.3644 365.3781,676.7081 Q366.7063,675.0519 369.2063,675.0519 Q369.9094,675.0519 370.55,675.2081 Q371.2063,675.3644 371.7688,675.6613 L371.7688,678.38 Q371.1438,677.8019 370.55,677.5363 Q369.9563,677.255 369.3313,677.255 Q367.9875,677.255 367.3,678.3331 Q366.6125,679.3956 366.6125,681.4894 Q366.6125,683.5831 367.3,684.6613 Q367.9875,685.7238 369.3313,685.7238 Q369.9563,685.7238 370.55,685.4581 Q371.1438,685.1769 371.7688,684.5988 L371.7688,687.3175 Z " fill="#000000"/><text fill="#000000" font-family="sans-serif" font-size="14" lengthAdjust="spacing" textLength="82.5713" x="382.8" y="686.5236">level_2_end</text></g><!--link 11 to SINGLE_END--><g id="link_11_SINGLE_END"><path codeLine="44" d="M67.86,100.0969 C102.88,117.6169 163.93,147.7469 217.09,171.8969 C239.66,182.1469 259.6914,190.7196 280.0714,199.2096 " fill="none" id="11-to-SINGLE_END" style="stroke:#181818;stroke-width:1;"/><polygon fill="#181818" points="285.61,201.5169,278.8403,194.3635,280.9945,199.5941,275.7639,201.7483,285.61,201.5169" style="stroke:#181818;stroke-width:1;"/><text fill="#000000" font-family="sans-serif" font-size="13" lengthAdjust="spacing" textLength="29.0278" x="218.09" y="167.9638">next</text></g><!--link 11 to 12--><g id="link_11_12"><path codeLine="48" d="M73.62,84.5969 C98.24,84.5969 121.61,84.5969 146.08,84.5969 " fill="none" id="11-12" style="stroke:#181818;stroke-width:1;"/><polygon fill="#181818" points="67.62,84.5969,76.62,88.5969,72.62,84.5969,76.62,80.5969,67.62,84.5969" style="stroke:#181818;stroke-width:1;"/><polygon fill="#181818" points="152.08,84.5969,143.08,80.5969,147.08,84.5969,143.08,88.5969,152.08,84.5969" style="stroke:#181818;stroke-width:1;"/><text fill="#000000" font-family="sans-serif" font-size="13" lengthAdjust="spacing" textLength="48.3628" x="85.85" y="77.6638">parallel</text></g><!--link 12 to SINGLE_END--><g id="link_12_SINGLE_END"><path codeLine="49" d="M208.34,111.5369 C237.64,138.4469 278.051,175.5383 302.081,197.6083 " fill="none" id="12-to-SINGLE_END" style="stroke:#181818;stroke-width:1;"/><polygon fill="#181818" points="306.5,201.6669,302.5772,192.633,302.8175,198.2847,297.1657,198.525,306.5,201.6669" style="stroke:#181818;stroke-width:1;"/><text fill="#000000" font-family="sans-serif" font-size="13" lengthAdjust="spacing" textLength="29.0278" x="274.09" y="167.9638">next</text></g><!--link 12 to 1--><g id="link_12_1"><path codeLine="53" d="M214.34,84.5969 C238.43,84.5969 261.02,84.5969 285.91,84.5969 " fill="none" id="12-1" style="stroke:#181818;stroke-width:1;"/><polygon fill="#181818" points="208.34,84.5969,217.34,88.5969,213.34,84.5969,217.34,80.5969,208.34,84.5969" style="stroke:#181818;stroke-width:1;"/><polygon fill="#181818" points="291.91,84.5969,282.91,80.5969,286.91,84.5969,282.91,88.5969,291.91,84.5969" style="stroke:#181818;stroke-width:1;"/><text fill="#000000" font-family="sans-serif" font-size="13" lengthAdjust="spacing" textLength="48.3628" x="226.08" y="77.6638">parallel</text></g><!--link 1 to SINGLE_END--><g id="link_1_SINGLE_END"><path codeLine="54" d="M323.09,121.1269 C323.09,147.4069 323.09,175.9069 323.09,195.5069 " fill="none" id="1-to-SINGLE_END" style="stroke:#181818;stroke-width:1;"/><polygon fill="#181818" points="323.09,201.5069,327.09,192.5069,323.09,196.5069,319.09,192.5069,323.09,201.5069" style="stroke:#181818;stroke-width:1;"/><text fill="#000000" font-family="sans-serif" font-size="13" lengthAdjust="spacing" textLength="29.0278" x="324.09" y="167.9638">next</text></g><!--link 1 to 2--><g id="link_1_2"><path codeLine="58" d="M360.25,84.5969 C384.42,84.5969 406.06,84.5969 432.03,84.5969 " fill="none" id="1-2" style="stroke:#181818;stroke-width:1;"/><polygon fill="#181818" points="354.25,84.5969,363.25,88.5969,359.25,84.5969,363.25,80.5969,354.25,84.5969" style="stroke:#181818;stroke-width:1;"/><polygon fill="#181818" points="438.03,84.5969,429.03,80.5969,433.03,84.5969,429.03,88.5969,438.03,84.5969" style="stroke:#181818;stroke-width:1;"/><text fill="#000000" font-family="sans-serif" font-size="13" lengthAdjust="spacing" textLength="48.3628" x="372.17" y="77.6638">parallel</text></g><!--link 2 to SINGLE_END--><g id="link_2_SINGLE_END"><path codeLine="59" d="M438.23,118.7269 C407.04,145.3169 369.2557,177.534 345.5757,197.724 " fill="none" id="2-to-SINGLE_END" style="stroke:#181818;stroke-width:1;"/><polygon fill="#181818" points="341.01,201.6169,350.4538,198.8215,344.8148,198.3729,345.2634,192.7338,341.01,201.6169" style="stroke:#181818;stroke-width:1;"/><text fill="#000000" font-family="sans-serif" font-size="13" lengthAdjust="spacing" textLength="29.0278" x="397.09" y="167.9638">next</text></g><!--link 2 to 3--><g id="link_2_3"><path codeLine="63" d="M522.23,84.5969 C547.67,84.5969 568.65,84.5969 593.73,84.5969 " fill="none" id="2-3" style="stroke:#181818;stroke-width:1;"/><polygon fill="#181818" points="516.23,84.5969,525.23,88.5969,521.23,84.5969,525.23,80.5969,516.23,84.5969" style="stroke:#181818;stroke-width:1;"/><polygon fill="#181818" points="599.73,84.5969,590.73,80.5969,594.73,84.5969,590.73,88.5969,599.73,84.5969" style="stroke:#181818;stroke-width:1;"/><text fill="#000000" font-family="sans-serif" font-size="13" lengthAdjust="spacing" textLength="48.3628" x="533.94" y="77.6638">parallel</text></g><!--link 3 to SINGLE_END--><g id="link_3_SINGLE_END"><path codeLine="64" d="M599.96,101.7469 C559.51,119.2669 492.86,147.9469 435.09,171.8969 C410.89,181.9269 389.1934,190.6648 367.6234,199.2648 " fill="none" id="3-to-SINGLE_END" style="stroke:#181818;stroke-width:1;"/><polygon fill="#181818" points="362.05,201.4869,371.8914,201.8693,366.6945,199.6351,368.9286,194.4381,362.05,201.4869" style="stroke:#181818;stroke-width:1;"/><text fill="#000000" font-family="sans-serif" font-size="13" lengthAdjust="spacing" textLength="29.0278" x="475.09" y="167.9638">next</text></g><!--link SINGLE_END to 7--><g id="link_SINGLE_END_7"><path codeLine="65" d="M262.91,226.8269 C233.99,233.0769 200.24,244.1869 175.09,263.8969 C125.25,302.9469 95.3343,365.7331 79.3543,407.4931 " fill="none" id="SINGLE_END-to-7" style="stroke:#181818;stroke-width:1;"/><polygon fill="#181818" points="77.21,413.0969,84.1623,406.1208,78.9969,408.4271,76.6907,403.2617,77.21,413.0969" style="stroke:#181818;stroke-width:1;"/><text fill="#000000" font-family="sans-serif" font-size="13" lengthAdjust="spacing" textLength="29.0278" x="176.09" y="276.9638">next</text></g><!--link 7 to level_2_end--><g id="link_7_level_2_end"><path codeLine="66" d="M74.82,486.5269 C84.34,516.4069 101.22,558.8169 127.09,588.6769 C184,654.3969 282.2902,672.9948 347.4202,678.3548 " fill="none" id="7-to-level_2_end" style="stroke:#181818;stroke-width:1;"/><polygon fill="#181818" points="353.4,678.8469,344.7584,674.1222,348.4168,678.4368,344.1022,682.0952,353.4,678.8469" style="stroke:#181818;stroke-width:1;"/><text fill="#000000" font-family="sans-serif" font-size="13" lengthAdjust="spacing" textLength="29.0278" x="128.09" y="556.9438">next</text></g><!--link SINGLE_END to 6--><g id="link_SINGLE_END_6"><path codeLine="67" d="M265.86,234.2869 C250.28,241.0369 234.78,250.5669 224.09,263.8969 C189.7,306.7569 183.6348,366.6869 183.5348,407.1469 " fill="none" id="SINGLE_END-to-6" style="stroke:#181818;stroke-width:1;"/><polygon fill="#181818" points="183.52,413.1469,187.5422,404.1568,183.5324,408.1469,179.5423,404.137,183.52,413.1469" style="stroke:#181818;stroke-width:1;"/><text fill="#000000" font-family="sans-serif" font-size="13" lengthAdjust="spacing" textLength="29.0278" x="225.09" y="276.9638">next</text></g><!--link 6 to level_2_end--><g id="link_6_level_2_end"><path codeLine="68" d="M172.93,486.5369 C165.14,516.4269 159.85,558.8369 180.09,588.6769 C218.61,645.4869 292.4575,666.3194 347.3875,674.6294 " fill="none" id="6-to-level_2_end" style="stroke:#181818;stroke-width:1;"/><polygon fill="#181818" points="353.32,675.5269,345.0196,670.2256,348.3763,674.779,343.8229,678.1356,353.32,675.5269" style="stroke:#181818;stroke-width:1;"/><text fill="#000000" font-family="sans-serif" font-size="13" lengthAdjust="spacing" textLength="29.0278" x="181.09" y="556.9438">next</text></g><!--link SINGLE_END to 8--><g id="link_SINGLE_END_8"><path codeLine="69" d="M321.43,234.0069 C317.91,266.6969 309.74,346.4469 306.09,413.4869 C304.2,448.1569 303.5481,481.7872 303.2781,509.6472 " fill="none" id="SINGLE_END-to-8" style="stroke:#181818;stroke-width:1;"/><polygon fill="#181818" points="303.22,515.6469,307.307,506.6861,303.2685,510.6471,299.3074,506.6085,303.22,515.6469" style="stroke:#181818;stroke-width:1;"/><text fill="#000000" font-family="sans-serif" font-size="13" lengthAdjust="spacing" textLength="29.0278" x="315.09" y="351.7638">next</text></g><!--link 8 to level_2_end--><g id="link_8_level_2_end"><path codeLine="70" d="M333.17,588.8369 C354.52,613.9969 378.2279,641.952 394.1979,660.772 " fill="none" id="8-to-level_2_end" style="stroke:#181818;stroke-width:1;"/><polygon fill="#181818" points="398.08,665.3469,395.3068,655.8965,394.8449,661.5345,389.207,661.0726,398.08,665.3469" style="stroke:#181818;stroke-width:1;"/><text fill="#000000" font-family="sans-serif" font-size="13" lengthAdjust="spacing" textLength="29.0278" x="371.09" y="631.7438">next</text></g><!--link SINGLE_END to 9--><g id="link_SINGLE_END_9"><path codeLine="71" d="M329.27,234.3369 C343.81,270.6769 378.2809,356.8163 398.6609,407.7463 " fill="none" id="SINGLE_END-to-9" style="stroke:#181818;stroke-width:1;"/><polygon fill="#181818" points="400.89,413.3169,401.2601,403.475,399.0324,408.6747,393.8326,406.4471,400.89,413.3169" style="stroke:#181818;stroke-width:1;"/><text fill="#000000" font-family="sans-serif" font-size="13" lengthAdjust="spacing" textLength="29.0278" x="348.09" y="276.9638">next</text></g><!--link 9 to level_2_end--><g id="link_9_level_2_end"><path codeLine="72" d="M414.47,486.4569 C413.58,537.4069 412.0941,622.8778 411.4641,659.1978 " fill="none" id="9-to-level_2_end" style="stroke:#181818;stroke-width:1;"/><polygon fill="#181818" points="411.36,665.1969,415.5155,656.2676,411.4467,660.1976,407.5167,656.1289,411.36,665.1969" style="stroke:#181818;stroke-width:1;"/><text fill="#000000" font-family="sans-serif" font-size="13" lengthAdjust="spacing" textLength="29.0278" x="415.09" y="556.9438">next</text></g><!--link SINGLE_END to 10--><g id="link_SINGLE_END_10"><path codeLine="73" d="M353.35,234.2869 C368.86,242.5269 387.84,253.1669 404.09,263.8969 C425.57,278.0869 443.5721,291.612 462.4121,306.662 " fill="none" id="SINGLE_END-to-10" style="stroke:#181818;stroke-width:1;"/><polygon fill="#181818" points="467.1,310.4069,462.5647,301.6644,463.1934,307.2862,457.5716,307.9149,467.1,310.4069" style="stroke:#181818;stroke-width:1;"/><text fill="#000000" font-family="sans-serif" font-size="13" lengthAdjust="spacing" textLength="29.0278" x="430.09" y="276.9638">next</text></g><!--link 10 to level_2_end--><g id="link_10_level_2_end"><path codeLine="74" d="M520.64,383.8869 C527.32,412.0669 533.15,452.1369 524.09,486.0869 C504.44,559.6869 452.9276,629.3973 427.6976,660.6673 " fill="none" id="10-to-level_2_end" style="stroke:#181818;stroke-width:1;"/><polygon fill="#181818" points="423.93,665.3369,432.6945,660.8442,427.0697,661.4456,426.4684,655.8208,423.93,665.3369" style="stroke:#181818;stroke-width:1;"/><text fill="#000000" font-family="sans-serif" font-size="13" lengthAdjust="spacing" textLength="29.0278" x="515.09" y="556.9438">next</text></g><!--link SINGLE_END to 5--><g id="link_SINGLE_END_5"><path codeLine="75" d="M377.85,234.3369 C437.63,251.5569 535.92,280.9569 619.09,310.8969 C624.86,312.9769 625.2167,313.0354 631.1667,315.3454 " fill="none" id="SINGLE_END-to-5" style="stroke:#181818;stroke-width:1;"/><polygon fill="#181818" points="636.76,317.5169,629.8178,310.5308,632.0989,315.7073,626.9224,317.9885,636.76,317.5169" style="stroke:#181818;stroke-width:1;"/><text fill="#000000" font-family="sans-serif" font-size="13" lengthAdjust="spacing" textLength="29.0278" x="532.09" y="276.9638">next</text></g><!--link 5 to 4--><g id="link_5_4"><path codeLine="76" d="M701.6,383.5869 C697.95,420.6469 692.8481,472.5758 689.1881,509.7358 " fill="none" id="5-to-4" style="stroke:#181818;stroke-width:1;"/><polygon fill="#181818" points="688.6,515.7069,693.4629,507.1423,689.0901,510.731,685.5014,506.3581,688.6,515.7069" style="stroke:#181818;stroke-width:1;"/><text fill="#000000" font-family="sans-serif" font-size="13" lengthAdjust="spacing" textLength="29.0278" x="699.09" y="454.3538">next</text></g><!--link 4 to level_2_end--><g id="link_4_level_2_end"><path codeLine="77" d="M644.51,589.1469 C624.45,605.2869 599.21,623.4269 574.09,635.6769 C540.84,651.8869 506.6865,661.7426 474.6265,668.8826 " fill="none" id="4-to-level_2_end" style="stroke:#181818;stroke-width:1;"/><polygon fill="#181818" points="468.77,670.1869,478.4243,672.1348,473.6504,669.1,476.6853,664.3261,468.77,670.1869" style="stroke:#181818;stroke-width:1;"/><text fill="#000000" font-family="sans-serif" font-size="13" lengthAdjust="spacing" textLength="29.0278" x="605.09" y="631.7438">next</text></g><!--SRC=[bPFVYXCn6CNlynJnoWuuqF_jIBUmhQi8wnRqpb9AcFaw3PkPb2HrkzQ2e3SYFe1U2zujUAU8Fesb-XOcQQSpKzRIzYfppdT-SoPfxWGmeZ7Wf-2htWG4KLmKPWxs6P4Ipt2hXGkzUvWBVqm31xVR2CbB6a-8814MEaJYa06U8wn_7U9VXe9Fuw3B6HUjLg_TnkSq7AiEcy9wX8i0XBLnX-bvgvuAmQ-ouW8XHPK6TpaH4jnG4Dqom5q690Q1psRWJnNbCUuPdgdFemZYW1WHeRkhBp_-Vlpy-_lxvRiFgqzlbz_UBB- -_dFpQ_Np1kal0GpHH5tZ0AGlwCI6Cd84Qim3cPL659XMK6wZdZs-U7H-DZoxUE3iE0nU01kMXhhIhjLmK0FVnv9FXGydevX4O0L5H0Zg9DGH4Fb8tK7rDFAIJkpZ9k1JTPqVRpgecOwFYTI7nm8JQsPYHeEP_hfys7EGbuOZ8gWYJ2gYfj8Gl9GWgJdxMn2beeDAnJqGQsuesXGKRcjITL0r_zNLpCir3FBpDGVLqdaYWFWy0AlzFrGgwQubFR8-2BkKe0fMTGD-5Rjjd9wpTcEOgHr6MK-NjSNMZ7AMqNA5kG6QOdLpSnW3PgOEnMkEDZP_3BFiFtdrS6086NYEVIXQ5pUbjdjb7lf5rnlCAmkKxPwhVd3pYeCgPY_ijfjL_zHzFfYN5oXRlP9bL_QmCqeor4YynbPQNxsokNfxWlN4gnyPR2PUyyYWbtZUaK5xMwofLyT5QubNsqhLHAhkOVq3]--></g></svg>